G04*
G04 #@! TF.GenerationSoftware,Altium Limited,Altium Designer,26.1.1 (7)*
G04*
G04 Layer_Physical_Order=1*
G04 Layer_Color=255*
%FSLAX44Y44*%
%MOMM*%
G71*
G04*
G04 #@! TF.SameCoordinates,9E97019B-2CEB-4017-89FE-32B60DA2A515*
G04*
G04*
G04 #@! TF.FilePolarity,Positive*
G04*
G01*
G75*
%ADD21R,0.6000X1.6000*%
%ADD22R,1.2500X0.7000*%
%ADD23R,0.8000X0.8000*%
%ADD24R,0.5000X0.5000*%
%ADD25R,0.5000X0.5000*%
%ADD26C,0.2540*%
%ADD27C,1.5000*%
G04:AMPARAMS|DCode=28|XSize=1.5mm|YSize=1.5mm|CornerRadius=0.375mm|HoleSize=0mm|Usage=FLASHONLY|Rotation=0.000|XOffset=0mm|YOffset=0mm|HoleType=Round|Shape=RoundedRectangle|*
%AMROUNDEDRECTD28*
21,1,1.5000,0.7500,0,0,0.0*
21,1,0.7500,1.5000,0,0,0.0*
1,1,0.7500,0.3750,-0.3750*
1,1,0.7500,-0.3750,-0.3750*
1,1,0.7500,-0.3750,0.3750*
1,1,0.7500,0.3750,0.3750*
%
%ADD28ROUNDEDRECTD28*%
%ADD29C,2.0000*%
%ADD30R,2.0000X2.0000*%
%ADD31C,3.0000*%
%ADD32C,0.4500*%
G36*
X19050Y-425450D02*
X-755650D01*
X-755650Y19050D01*
X19050D01*
Y-425450D01*
D02*
G37*
%LPC*%
G36*
X-709930Y9959D02*
Y1270D01*
X-701241D01*
X-701418Y2621D01*
X-702430Y5063D01*
X-704039Y7161D01*
X-706137Y8770D01*
X-708579Y9782D01*
X-709930Y9959D01*
D02*
G37*
G36*
X-712470D02*
X-713821Y9782D01*
X-716263Y8770D01*
X-718361Y7161D01*
X-719970Y5063D01*
X-720982Y2621D01*
X-721159Y1270D01*
X-712470D01*
Y9959D01*
D02*
G37*
G36*
X-735330D02*
Y1270D01*
X-726641D01*
X-726818Y2621D01*
X-727830Y5063D01*
X-729439Y7161D01*
X-731537Y8770D01*
X-733979Y9782D01*
X-735330Y9959D01*
D02*
G37*
G36*
X-737870D02*
X-739221Y9782D01*
X-741663Y8770D01*
X-743761Y7161D01*
X-745370Y5063D01*
X-746382Y2621D01*
X-746559Y1270D01*
X-737870D01*
Y9959D01*
D02*
G37*
G36*
X0Y8826D02*
X-2284Y8525D01*
X-4413Y7643D01*
X-6241Y6241D01*
X-7643Y4413D01*
X-8525Y2284D01*
X-8826Y0D01*
X-8525Y-2284D01*
X-7643Y-4413D01*
X-6241Y-6241D01*
X-4413Y-7643D01*
X-2284Y-8525D01*
X0Y-8826D01*
X2284Y-8525D01*
X4413Y-7643D01*
X6241Y-6241D01*
X7643Y-4413D01*
X8525Y-2284D01*
X8826Y0D01*
X8525Y2284D01*
X7643Y4413D01*
X6241Y6241D01*
X4413Y7643D01*
X2284Y8525D01*
X0Y8826D01*
D02*
G37*
G36*
X-25400D02*
X-27684Y8525D01*
X-29813Y7643D01*
X-31641Y6241D01*
X-33043Y4413D01*
X-33925Y2284D01*
X-34225Y0D01*
X-33925Y-2284D01*
X-33043Y-4413D01*
X-31641Y-6241D01*
X-29813Y-7643D01*
X-27684Y-8525D01*
X-25400Y-8826D01*
X-23116Y-8525D01*
X-20987Y-7643D01*
X-19159Y-6241D01*
X-17757Y-4413D01*
X-16875Y-2284D01*
X-16574Y0D01*
X-16875Y2284D01*
X-17757Y4413D01*
X-19159Y6241D01*
X-20987Y7643D01*
X-23116Y8525D01*
X-25400Y8826D01*
D02*
G37*
G36*
X-50800D02*
X-53084Y8525D01*
X-55213Y7643D01*
X-57041Y6241D01*
X-58443Y4413D01*
X-59325Y2284D01*
X-59626Y0D01*
X-59325Y-2284D01*
X-58443Y-4413D01*
X-57041Y-6241D01*
X-55213Y-7643D01*
X-53084Y-8525D01*
X-50800Y-8826D01*
X-48516Y-8525D01*
X-46387Y-7643D01*
X-44559Y-6241D01*
X-43157Y-4413D01*
X-42275Y-2284D01*
X-41975Y0D01*
X-42275Y2284D01*
X-43157Y4413D01*
X-44559Y6241D01*
X-46387Y7643D01*
X-48516Y8525D01*
X-50800Y8826D01*
D02*
G37*
G36*
X-76200D02*
X-78484Y8525D01*
X-80613Y7643D01*
X-82441Y6241D01*
X-83843Y4413D01*
X-84725Y2284D01*
X-85026Y0D01*
X-84725Y-2284D01*
X-83843Y-4413D01*
X-82441Y-6241D01*
X-80613Y-7643D01*
X-78484Y-8525D01*
X-76200Y-8826D01*
X-73916Y-8525D01*
X-71787Y-7643D01*
X-69959Y-6241D01*
X-68557Y-4413D01*
X-67675Y-2284D01*
X-67375Y0D01*
X-67675Y2284D01*
X-68557Y4413D01*
X-69959Y6241D01*
X-71787Y7643D01*
X-73916Y8525D01*
X-76200Y8826D01*
D02*
G37*
G36*
X-101600D02*
X-103884Y8525D01*
X-106013Y7643D01*
X-107841Y6241D01*
X-109243Y4413D01*
X-110125Y2284D01*
X-110426Y0D01*
X-110125Y-2284D01*
X-109243Y-4413D01*
X-107841Y-6241D01*
X-106013Y-7643D01*
X-103884Y-8525D01*
X-101600Y-8826D01*
X-99316Y-8525D01*
X-97187Y-7643D01*
X-95359Y-6241D01*
X-93957Y-4413D01*
X-93075Y-2284D01*
X-92774Y0D01*
X-93075Y2284D01*
X-93957Y4413D01*
X-95359Y6241D01*
X-97187Y7643D01*
X-99316Y8525D01*
X-101600Y8826D01*
D02*
G37*
G36*
X-127000D02*
X-129284Y8525D01*
X-131413Y7643D01*
X-133241Y6241D01*
X-134643Y4413D01*
X-135525Y2284D01*
X-135826Y0D01*
X-135525Y-2284D01*
X-134643Y-4413D01*
X-133241Y-6241D01*
X-131413Y-7643D01*
X-129284Y-8525D01*
X-127000Y-8826D01*
X-124716Y-8525D01*
X-122587Y-7643D01*
X-120759Y-6241D01*
X-119357Y-4413D01*
X-118475Y-2284D01*
X-118174Y0D01*
X-118475Y2284D01*
X-119357Y4413D01*
X-120759Y6241D01*
X-122587Y7643D01*
X-124716Y8525D01*
X-127000Y8826D01*
D02*
G37*
G36*
X-152400D02*
X-154684Y8525D01*
X-156813Y7643D01*
X-158641Y6241D01*
X-160043Y4413D01*
X-160925Y2284D01*
X-161225Y0D01*
X-160925Y-2284D01*
X-160043Y-4413D01*
X-158641Y-6241D01*
X-156813Y-7643D01*
X-154684Y-8525D01*
X-152400Y-8826D01*
X-150116Y-8525D01*
X-147987Y-7643D01*
X-146159Y-6241D01*
X-144757Y-4413D01*
X-143875Y-2284D01*
X-143574Y0D01*
X-143875Y2284D01*
X-144757Y4413D01*
X-146159Y6241D01*
X-147987Y7643D01*
X-150116Y8525D01*
X-152400Y8826D01*
D02*
G37*
G36*
X-177800D02*
X-180084Y8525D01*
X-182213Y7643D01*
X-184041Y6241D01*
X-185443Y4413D01*
X-186325Y2284D01*
X-186625Y0D01*
X-186325Y-2284D01*
X-185561Y-4128D01*
X-192239Y-10805D01*
X-192796Y-11639D01*
X-192992Y-12622D01*
Y-45848D01*
X-200120Y-52976D01*
X-201091Y-52179D01*
X-200826Y-51783D01*
X-200631Y-50800D01*
Y-33807D01*
X-198787Y-33043D01*
X-196959Y-31641D01*
X-195557Y-29813D01*
X-194675Y-27684D01*
X-194375Y-25400D01*
X-194675Y-23116D01*
X-195557Y-20987D01*
X-196959Y-19159D01*
X-198787Y-17757D01*
X-200916Y-16875D01*
X-203200Y-16574D01*
X-205484Y-16875D01*
X-207613Y-17757D01*
X-209441Y-19159D01*
X-210843Y-20987D01*
X-211725Y-23116D01*
X-212026Y-25400D01*
X-211725Y-27684D01*
X-210843Y-29813D01*
X-209441Y-31641D01*
X-207613Y-33043D01*
X-205769Y-33807D01*
Y-49736D01*
X-255064Y-99031D01*
X-586768D01*
X-587293Y-99031D01*
X-587416Y-97781D01*
X-586628Y-97624D01*
X-585794Y-97067D01*
X-569866Y-81139D01*
X-569309Y-80305D01*
X-569114Y-79322D01*
Y-78250D01*
X-567250D01*
Y-59750D01*
X-575750D01*
Y-78250D01*
X-575750D01*
X-575494Y-79500D01*
X-588675Y-92681D01*
X-591820D01*
X-592803Y-92876D01*
X-593637Y-93433D01*
X-603390Y-103186D01*
X-604640Y-102669D01*
Y-94600D01*
Y-85100D01*
X-619640D01*
Y-87281D01*
X-622130D01*
Y-81230D01*
X-632630D01*
Y-91730D01*
X-625732D01*
X-624993Y-92224D01*
X-624010Y-92419D01*
X-624010Y-92419D01*
X-619640D01*
Y-94819D01*
X-620840Y-94940D01*
X-620890Y-94940D01*
X-626110D01*
Y-101480D01*
Y-108020D01*
X-624474D01*
X-623222Y-109272D01*
X-622388Y-109829D01*
X-621405Y-110024D01*
X-620422Y-109829D01*
X-619588Y-109272D01*
X-619031Y-108438D01*
X-618836Y-107455D01*
X-619031Y-106472D01*
X-619588Y-105638D01*
X-620112Y-105114D01*
X-619648Y-103811D01*
X-619640Y-103810D01*
X-619590Y-103810D01*
X-605782D01*
X-605264Y-105060D01*
X-611625Y-111421D01*
X-612182Y-112255D01*
X-612377Y-113238D01*
Y-114310D01*
X-619640D01*
Y-116491D01*
X-622826D01*
X-630141Y-109175D01*
X-629663Y-108020D01*
X-628650D01*
Y-102750D01*
X-633920D01*
Y-103763D01*
X-635075Y-104242D01*
X-638099Y-101218D01*
X-637873Y-100924D01*
X-636740Y-98187D01*
X-636353Y-95250D01*
X-636740Y-92313D01*
X-637873Y-89577D01*
X-639676Y-87226D01*
X-642027Y-85423D01*
X-644763Y-84290D01*
X-647700Y-83903D01*
X-650637Y-84290D01*
X-653373Y-85423D01*
X-655724Y-87226D01*
X-657527Y-89577D01*
X-658661Y-92313D01*
X-659047Y-95250D01*
X-658661Y-98187D01*
X-657527Y-100924D01*
X-655724Y-103274D01*
X-653373Y-105077D01*
X-650637Y-106210D01*
X-648673Y-106469D01*
Y-107730D01*
X-650974Y-108033D01*
X-654024Y-109296D01*
X-656644Y-111306D01*
X-658654Y-113926D01*
X-659917Y-116976D01*
X-660181Y-118980D01*
X-647700D01*
X-635219D01*
X-635483Y-116976D01*
X-636746Y-113926D01*
X-638756Y-111306D01*
X-641376Y-109296D01*
X-644426Y-108033D01*
X-646727Y-107730D01*
Y-106469D01*
X-644763Y-106210D01*
X-642027Y-105077D01*
X-641732Y-104851D01*
X-625707Y-120877D01*
X-624873Y-121434D01*
X-623890Y-121629D01*
X-623890Y-121629D01*
X-619640D01*
Y-123810D01*
X-604640D01*
Y-114310D01*
X-605479D01*
X-605996Y-113060D01*
X-590756Y-97819D01*
X-588634D01*
X-588110Y-97819D01*
X-587987Y-99069D01*
X-588775Y-99226D01*
X-589609Y-99783D01*
X-598697Y-108871D01*
X-599254Y-109705D01*
X-599449Y-110688D01*
Y-112250D01*
X-601150D01*
Y-130750D01*
X-592650D01*
Y-112250D01*
X-593041D01*
X-593558Y-111000D01*
X-586728Y-104169D01*
X-572568D01*
X-572445Y-105419D01*
X-572866Y-105503D01*
X-574023Y-106277D01*
X-574797Y-107434D01*
X-575069Y-108800D01*
X-574797Y-110166D01*
X-574239Y-111000D01*
X-574658Y-112250D01*
X-575750D01*
Y-127498D01*
X-575919Y-128350D01*
Y-131256D01*
X-575979Y-131315D01*
X-577089Y-131042D01*
X-577310Y-130850D01*
Y-130850D01*
X-578660D01*
Y-122770D01*
X-584200D01*
X-589740D01*
Y-132040D01*
X-587390D01*
Y-134620D01*
X-582350D01*
Y-135890D01*
X-581080D01*
Y-140930D01*
X-577310D01*
Y-140803D01*
X-577100Y-139640D01*
X-576060Y-139640D01*
X-569600D01*
Y-132140D01*
X-570781D01*
Y-130750D01*
X-567250D01*
Y-112250D01*
X-568342D01*
X-568761Y-111000D01*
X-568203Y-110166D01*
X-567931Y-108800D01*
X-568203Y-107434D01*
X-568977Y-106277D01*
X-570134Y-105503D01*
X-570555Y-105419D01*
X-570432Y-104169D01*
X-555308D01*
X-555185Y-105419D01*
X-555973Y-105576D01*
X-556807Y-106133D01*
X-560035Y-109361D01*
X-560592Y-110195D01*
X-560787Y-111178D01*
Y-112250D01*
X-563050D01*
Y-130750D01*
X-554550D01*
Y-112250D01*
X-554550D01*
X-554448Y-111042D01*
X-553926Y-110519D01*
X-251460D01*
X-250477Y-110324D01*
X-249643Y-109767D01*
X-188605Y-48729D01*
X-188048Y-47895D01*
X-187853Y-46912D01*
Y-25655D01*
X-186603Y-25573D01*
X-186493Y-26409D01*
X-186325Y-27684D01*
X-185443Y-29813D01*
X-184041Y-31641D01*
X-182213Y-33043D01*
X-180084Y-33925D01*
X-177800Y-34225D01*
X-175516Y-33925D01*
X-173387Y-33043D01*
X-171559Y-31641D01*
X-170157Y-29813D01*
X-169275Y-27684D01*
X-168974Y-25400D01*
X-169275Y-23116D01*
X-170157Y-20987D01*
X-171559Y-19159D01*
X-173387Y-17757D01*
X-175516Y-16875D01*
X-177800Y-16574D01*
X-180084Y-16875D01*
X-182213Y-17757D01*
X-184041Y-19159D01*
X-185443Y-20987D01*
X-186325Y-23116D01*
X-186493Y-24391D01*
X-186603Y-25227D01*
X-187853Y-25145D01*
Y-13686D01*
X-181928Y-7761D01*
X-180084Y-8525D01*
X-177800Y-8826D01*
X-175516Y-8525D01*
X-173387Y-7643D01*
X-171559Y-6241D01*
X-170157Y-4413D01*
X-169275Y-2284D01*
X-168974Y0D01*
X-169275Y2284D01*
X-170157Y4413D01*
X-171559Y6241D01*
X-173387Y7643D01*
X-175516Y8525D01*
X-177800Y8826D01*
D02*
G37*
G36*
X-203200D02*
X-205484Y8525D01*
X-207613Y7643D01*
X-209441Y6241D01*
X-210843Y4413D01*
X-211725Y2284D01*
X-212026Y0D01*
X-211725Y-2284D01*
X-210843Y-4413D01*
X-209441Y-6241D01*
X-207613Y-7643D01*
X-205484Y-8525D01*
X-203200Y-8826D01*
X-200916Y-8525D01*
X-198787Y-7643D01*
X-196959Y-6241D01*
X-195557Y-4413D01*
X-194675Y-2284D01*
X-194375Y0D01*
X-194675Y2284D01*
X-195557Y4413D01*
X-196959Y6241D01*
X-198787Y7643D01*
X-200916Y8525D01*
X-203200Y8826D01*
D02*
G37*
G36*
X-228600D02*
X-230884Y8525D01*
X-233013Y7643D01*
X-234841Y6241D01*
X-236243Y4413D01*
X-237125Y2284D01*
X-237425Y0D01*
X-237125Y-2284D01*
X-236243Y-4413D01*
X-234841Y-6241D01*
X-233013Y-7643D01*
X-230884Y-8525D01*
X-228600Y-8826D01*
X-226316Y-8525D01*
X-224187Y-7643D01*
X-222359Y-6241D01*
X-220957Y-4413D01*
X-220075Y-2284D01*
X-219774Y0D01*
X-220075Y2284D01*
X-220957Y4413D01*
X-222359Y6241D01*
X-224187Y7643D01*
X-226316Y8525D01*
X-228600Y8826D01*
D02*
G37*
G36*
X-254000D02*
X-256284Y8525D01*
X-258413Y7643D01*
X-260241Y6241D01*
X-261643Y4413D01*
X-262525Y2284D01*
X-262826Y0D01*
X-262525Y-2284D01*
X-261643Y-4413D01*
X-260241Y-6241D01*
X-258413Y-7643D01*
X-256284Y-8525D01*
X-254000Y-8826D01*
X-251716Y-8525D01*
X-249587Y-7643D01*
X-247759Y-6241D01*
X-246357Y-4413D01*
X-245475Y-2284D01*
X-245175Y0D01*
X-245475Y2284D01*
X-246357Y4413D01*
X-247759Y6241D01*
X-249587Y7643D01*
X-251716Y8525D01*
X-254000Y8826D01*
D02*
G37*
G36*
X-279400D02*
X-281684Y8525D01*
X-283813Y7643D01*
X-285641Y6241D01*
X-287043Y4413D01*
X-287925Y2284D01*
X-288225Y0D01*
X-287925Y-2284D01*
X-287043Y-4413D01*
X-285641Y-6241D01*
X-283813Y-7643D01*
X-281684Y-8525D01*
X-279400Y-8826D01*
X-277116Y-8525D01*
X-274987Y-7643D01*
X-273159Y-6241D01*
X-271757Y-4413D01*
X-270875Y-2284D01*
X-270574Y0D01*
X-270875Y2284D01*
X-271757Y4413D01*
X-273159Y6241D01*
X-274987Y7643D01*
X-277116Y8525D01*
X-279400Y8826D01*
D02*
G37*
G36*
X-304800D02*
X-307084Y8525D01*
X-309213Y7643D01*
X-311041Y6241D01*
X-312443Y4413D01*
X-313325Y2284D01*
X-313626Y0D01*
X-313325Y-2284D01*
X-312443Y-4413D01*
X-311041Y-6241D01*
X-309213Y-7643D01*
X-307084Y-8525D01*
X-304800Y-8826D01*
X-302516Y-8525D01*
X-300387Y-7643D01*
X-298559Y-6241D01*
X-297157Y-4413D01*
X-296275Y-2284D01*
X-295975Y0D01*
X-296275Y2284D01*
X-297157Y4413D01*
X-298559Y6241D01*
X-300387Y7643D01*
X-302516Y8525D01*
X-304800Y8826D01*
D02*
G37*
G36*
X-330200D02*
X-332484Y8525D01*
X-334613Y7643D01*
X-336441Y6241D01*
X-337843Y4413D01*
X-338725Y2284D01*
X-339025Y0D01*
X-338725Y-2284D01*
X-337843Y-4413D01*
X-336441Y-6241D01*
X-334613Y-7643D01*
X-332484Y-8525D01*
X-330200Y-8826D01*
X-327916Y-8525D01*
X-325787Y-7643D01*
X-323959Y-6241D01*
X-322557Y-4413D01*
X-321675Y-2284D01*
X-321375Y0D01*
X-321675Y2284D01*
X-322557Y4413D01*
X-323959Y6241D01*
X-325787Y7643D01*
X-327916Y8525D01*
X-330200Y8826D01*
D02*
G37*
G36*
X-355600D02*
X-357884Y8525D01*
X-360013Y7643D01*
X-361841Y6241D01*
X-363243Y4413D01*
X-364125Y2284D01*
X-364426Y0D01*
X-364125Y-2284D01*
X-363243Y-4413D01*
X-361841Y-6241D01*
X-360013Y-7643D01*
X-357884Y-8525D01*
X-355600Y-8826D01*
X-353316Y-8525D01*
X-351187Y-7643D01*
X-349359Y-6241D01*
X-347957Y-4413D01*
X-347075Y-2284D01*
X-346774Y0D01*
X-347075Y2284D01*
X-347957Y4413D01*
X-349359Y6241D01*
X-351187Y7643D01*
X-353316Y8525D01*
X-355600Y8826D01*
D02*
G37*
G36*
X-381000D02*
X-383284Y8525D01*
X-385413Y7643D01*
X-387241Y6241D01*
X-388643Y4413D01*
X-389525Y2284D01*
X-389826Y0D01*
X-389525Y-2284D01*
X-388643Y-4413D01*
X-387241Y-6241D01*
X-385413Y-7643D01*
X-383284Y-8525D01*
X-381000Y-8826D01*
X-378716Y-8525D01*
X-376587Y-7643D01*
X-374759Y-6241D01*
X-373357Y-4413D01*
X-372475Y-2284D01*
X-372174Y0D01*
X-372475Y2284D01*
X-373357Y4413D01*
X-374759Y6241D01*
X-376587Y7643D01*
X-378716Y8525D01*
X-381000Y8826D01*
D02*
G37*
G36*
X-406400D02*
X-408684Y8525D01*
X-410813Y7643D01*
X-412641Y6241D01*
X-414043Y4413D01*
X-414925Y2284D01*
X-415225Y0D01*
X-414925Y-2284D01*
X-414043Y-4413D01*
X-412641Y-6241D01*
X-410813Y-7643D01*
X-408684Y-8525D01*
X-406400Y-8826D01*
X-404116Y-8525D01*
X-401987Y-7643D01*
X-400159Y-6241D01*
X-398757Y-4413D01*
X-397875Y-2284D01*
X-397575Y0D01*
X-397875Y2284D01*
X-398757Y4413D01*
X-400159Y6241D01*
X-401987Y7643D01*
X-404116Y8525D01*
X-406400Y8826D01*
D02*
G37*
G36*
X-431800D02*
X-434084Y8525D01*
X-436213Y7643D01*
X-438041Y6241D01*
X-439443Y4413D01*
X-440325Y2284D01*
X-440625Y0D01*
X-440325Y-2284D01*
X-439443Y-4413D01*
X-438041Y-6241D01*
X-436213Y-7643D01*
X-434084Y-8525D01*
X-431800Y-8826D01*
X-429516Y-8525D01*
X-427387Y-7643D01*
X-425559Y-6241D01*
X-424157Y-4413D01*
X-423275Y-2284D01*
X-422975Y0D01*
X-423275Y2284D01*
X-424157Y4413D01*
X-425559Y6241D01*
X-427387Y7643D01*
X-429516Y8525D01*
X-431800Y8826D01*
D02*
G37*
G36*
X-457200D02*
X-459484Y8525D01*
X-461613Y7643D01*
X-463441Y6241D01*
X-464843Y4413D01*
X-465725Y2284D01*
X-466026Y0D01*
X-465725Y-2284D01*
X-464843Y-4413D01*
X-463441Y-6241D01*
X-461613Y-7643D01*
X-459484Y-8525D01*
X-457200Y-8826D01*
X-454916Y-8525D01*
X-452787Y-7643D01*
X-450959Y-6241D01*
X-449557Y-4413D01*
X-448675Y-2284D01*
X-448374Y0D01*
X-448675Y2284D01*
X-449557Y4413D01*
X-450959Y6241D01*
X-452787Y7643D01*
X-454916Y8525D01*
X-457200Y8826D01*
D02*
G37*
G36*
X-482600D02*
X-484884Y8525D01*
X-487013Y7643D01*
X-488841Y6241D01*
X-490243Y4413D01*
X-491125Y2284D01*
X-491426Y0D01*
X-491125Y-2284D01*
X-490243Y-4413D01*
X-488841Y-6241D01*
X-487013Y-7643D01*
X-484884Y-8525D01*
X-482600Y-8826D01*
X-480316Y-8525D01*
X-478187Y-7643D01*
X-476359Y-6241D01*
X-474957Y-4413D01*
X-474075Y-2284D01*
X-473774Y0D01*
X-474075Y2284D01*
X-474957Y4413D01*
X-476359Y6241D01*
X-478187Y7643D01*
X-480316Y8525D01*
X-482600Y8826D01*
D02*
G37*
G36*
X-508000D02*
X-510284Y8525D01*
X-512413Y7643D01*
X-514241Y6241D01*
X-515643Y4413D01*
X-516525Y2284D01*
X-516825Y0D01*
X-516525Y-2284D01*
X-515643Y-4413D01*
X-514241Y-6241D01*
X-512413Y-7643D01*
X-510284Y-8525D01*
X-508000Y-8826D01*
X-505716Y-8525D01*
X-503587Y-7643D01*
X-501759Y-6241D01*
X-500357Y-4413D01*
X-499475Y-2284D01*
X-499174Y0D01*
X-499475Y2284D01*
X-500357Y4413D01*
X-501759Y6241D01*
X-503587Y7643D01*
X-505716Y8525D01*
X-508000Y8826D01*
D02*
G37*
G36*
X-533400D02*
X-535684Y8525D01*
X-537813Y7643D01*
X-539641Y6241D01*
X-541043Y4413D01*
X-541925Y2284D01*
X-542225Y0D01*
X-541925Y-2284D01*
X-541043Y-4413D01*
X-539641Y-6241D01*
X-537813Y-7643D01*
X-535684Y-8525D01*
X-533400Y-8826D01*
X-531116Y-8525D01*
X-528987Y-7643D01*
X-527159Y-6241D01*
X-525757Y-4413D01*
X-524875Y-2284D01*
X-524575Y0D01*
X-524875Y2284D01*
X-525757Y4413D01*
X-527159Y6241D01*
X-528987Y7643D01*
X-531116Y8525D01*
X-533400Y8826D01*
D02*
G37*
G36*
X-558800D02*
X-561084Y8525D01*
X-563213Y7643D01*
X-565041Y6241D01*
X-566443Y4413D01*
X-567325Y2284D01*
X-567626Y0D01*
X-567325Y-2284D01*
X-566443Y-4413D01*
X-565041Y-6241D01*
X-563213Y-7643D01*
X-561084Y-8525D01*
X-558800Y-8826D01*
X-556516Y-8525D01*
X-554387Y-7643D01*
X-552559Y-6241D01*
X-551157Y-4413D01*
X-550275Y-2284D01*
X-549975Y0D01*
X-550275Y2284D01*
X-551157Y4413D01*
X-552559Y6241D01*
X-554387Y7643D01*
X-556516Y8525D01*
X-558800Y8826D01*
D02*
G37*
G36*
X-584200D02*
X-586484Y8525D01*
X-588613Y7643D01*
X-590441Y6241D01*
X-591843Y4413D01*
X-592725Y2284D01*
X-593026Y0D01*
X-592725Y-2284D01*
X-591843Y-4413D01*
X-590441Y-6241D01*
X-588613Y-7643D01*
X-586484Y-8525D01*
X-584200Y-8826D01*
X-581916Y-8525D01*
X-579787Y-7643D01*
X-577959Y-6241D01*
X-576557Y-4413D01*
X-575675Y-2284D01*
X-575374Y0D01*
X-575675Y2284D01*
X-576557Y4413D01*
X-577959Y6241D01*
X-579787Y7643D01*
X-581916Y8525D01*
X-584200Y8826D01*
D02*
G37*
G36*
X-609600D02*
X-611884Y8525D01*
X-614013Y7643D01*
X-615841Y6241D01*
X-617243Y4413D01*
X-618125Y2284D01*
X-618425Y0D01*
X-618125Y-2284D01*
X-617243Y-4413D01*
X-615841Y-6241D01*
X-614013Y-7643D01*
X-611884Y-8525D01*
X-609600Y-8826D01*
X-607316Y-8525D01*
X-605187Y-7643D01*
X-603359Y-6241D01*
X-601957Y-4413D01*
X-601075Y-2284D01*
X-600774Y0D01*
X-601075Y2284D01*
X-601957Y4413D01*
X-603359Y6241D01*
X-605187Y7643D01*
X-607316Y8525D01*
X-609600Y8826D01*
D02*
G37*
G36*
X-635000D02*
X-637284Y8525D01*
X-639413Y7643D01*
X-641241Y6241D01*
X-642643Y4413D01*
X-643525Y2284D01*
X-643826Y0D01*
X-643525Y-2284D01*
X-642643Y-4413D01*
X-641241Y-6241D01*
X-639413Y-7643D01*
X-637284Y-8525D01*
X-635000Y-8826D01*
X-632716Y-8525D01*
X-630587Y-7643D01*
X-628759Y-6241D01*
X-627357Y-4413D01*
X-626475Y-2284D01*
X-626175Y0D01*
X-626475Y2284D01*
X-627357Y4413D01*
X-628759Y6241D01*
X-630587Y7643D01*
X-632716Y8525D01*
X-635000Y8826D01*
D02*
G37*
G36*
X-660400D02*
X-662684Y8525D01*
X-664813Y7643D01*
X-666641Y6241D01*
X-668043Y4413D01*
X-668925Y2284D01*
X-669225Y0D01*
X-668925Y-2284D01*
X-668043Y-4413D01*
X-666641Y-6241D01*
X-664813Y-7643D01*
X-662684Y-8525D01*
X-660400Y-8826D01*
X-658116Y-8525D01*
X-655987Y-7643D01*
X-654159Y-6241D01*
X-652757Y-4413D01*
X-651875Y-2284D01*
X-651574Y0D01*
X-651875Y2284D01*
X-652757Y4413D01*
X-654159Y6241D01*
X-655987Y7643D01*
X-658116Y8525D01*
X-660400Y8826D01*
D02*
G37*
G36*
X-685800D02*
X-688084Y8525D01*
X-690213Y7643D01*
X-692041Y6241D01*
X-693443Y4413D01*
X-694325Y2284D01*
X-694625Y0D01*
X-694325Y-2284D01*
X-693443Y-4413D01*
X-692041Y-6241D01*
X-690213Y-7643D01*
X-688084Y-8525D01*
X-685800Y-8826D01*
X-683516Y-8525D01*
X-681387Y-7643D01*
X-679559Y-6241D01*
X-678157Y-4413D01*
X-677275Y-2284D01*
X-676974Y0D01*
X-677275Y2284D01*
X-678157Y4413D01*
X-679559Y6241D01*
X-681387Y7643D01*
X-683516Y8525D01*
X-685800Y8826D01*
D02*
G37*
G36*
X-701241Y-1270D02*
X-709930D01*
Y-9959D01*
X-708579Y-9782D01*
X-706137Y-8770D01*
X-704039Y-7161D01*
X-702430Y-5063D01*
X-701418Y-2621D01*
X-701241Y-1270D01*
D02*
G37*
G36*
X-712470D02*
X-721159D01*
X-720982Y-2621D01*
X-719970Y-5063D01*
X-718361Y-7161D01*
X-716263Y-8770D01*
X-713821Y-9782D01*
X-712470Y-9959D01*
Y-1270D01*
D02*
G37*
G36*
X-726641D02*
X-735330D01*
Y-9959D01*
X-733979Y-9782D01*
X-731537Y-8770D01*
X-729439Y-7161D01*
X-727830Y-5063D01*
X-726818Y-2621D01*
X-726641Y-1270D01*
D02*
G37*
G36*
X-737870D02*
X-746559D01*
X-746382Y-2621D01*
X-745370Y-5063D01*
X-743761Y-7161D01*
X-741663Y-8770D01*
X-739221Y-9782D01*
X-737870Y-9959D01*
Y-1270D01*
D02*
G37*
G36*
X-709930Y-15441D02*
Y-24130D01*
X-701241D01*
X-701418Y-22779D01*
X-702430Y-20337D01*
X-704039Y-18239D01*
X-706137Y-16630D01*
X-708579Y-15618D01*
X-709930Y-15441D01*
D02*
G37*
G36*
X-712470D02*
X-713821Y-15618D01*
X-716263Y-16630D01*
X-718361Y-18239D01*
X-719970Y-20337D01*
X-720982Y-22779D01*
X-721159Y-24130D01*
X-712470D01*
Y-15441D01*
D02*
G37*
G36*
X-732850Y-15237D02*
X-735330D01*
Y-24130D01*
X-726437D01*
Y-21650D01*
X-726925Y-19196D01*
X-728315Y-17115D01*
X-730396Y-15725D01*
X-732850Y-15237D01*
D02*
G37*
G36*
X-737870D02*
X-740350D01*
X-742804Y-15725D01*
X-744885Y-17115D01*
X-746275Y-19196D01*
X-746763Y-21650D01*
Y-24130D01*
X-737870D01*
Y-15237D01*
D02*
G37*
G36*
X0Y-16574D02*
X-2284Y-16875D01*
X-4413Y-17757D01*
X-6241Y-19159D01*
X-7643Y-20987D01*
X-8525Y-23116D01*
X-8826Y-25400D01*
X-8525Y-27684D01*
X-7643Y-29813D01*
X-6241Y-31641D01*
X-4413Y-33043D01*
X-2284Y-33925D01*
X0Y-34225D01*
X2284Y-33925D01*
X4413Y-33043D01*
X6241Y-31641D01*
X7643Y-29813D01*
X8525Y-27684D01*
X8826Y-25400D01*
X8525Y-23116D01*
X7643Y-20987D01*
X6241Y-19159D01*
X4413Y-17757D01*
X2284Y-16875D01*
X0Y-16574D01*
D02*
G37*
G36*
X-25400D02*
X-27684Y-16875D01*
X-29813Y-17757D01*
X-31641Y-19159D01*
X-33043Y-20987D01*
X-33925Y-23116D01*
X-34225Y-25400D01*
X-33925Y-27684D01*
X-33043Y-29813D01*
X-31641Y-31641D01*
X-29813Y-33043D01*
X-27684Y-33925D01*
X-25400Y-34225D01*
X-23116Y-33925D01*
X-20987Y-33043D01*
X-19159Y-31641D01*
X-17757Y-29813D01*
X-16875Y-27684D01*
X-16574Y-25400D01*
X-16875Y-23116D01*
X-17757Y-20987D01*
X-19159Y-19159D01*
X-20987Y-17757D01*
X-23116Y-16875D01*
X-25400Y-16574D01*
D02*
G37*
G36*
X-50800D02*
X-53084Y-16875D01*
X-55213Y-17757D01*
X-57041Y-19159D01*
X-58443Y-20987D01*
X-59325Y-23116D01*
X-59626Y-25400D01*
X-59325Y-27684D01*
X-58443Y-29813D01*
X-57041Y-31641D01*
X-55213Y-33043D01*
X-53084Y-33925D01*
X-50800Y-34225D01*
X-48516Y-33925D01*
X-46387Y-33043D01*
X-44559Y-31641D01*
X-43157Y-29813D01*
X-42275Y-27684D01*
X-41975Y-25400D01*
X-42275Y-23116D01*
X-43157Y-20987D01*
X-44559Y-19159D01*
X-46387Y-17757D01*
X-48516Y-16875D01*
X-50800Y-16574D01*
D02*
G37*
G36*
X-76200D02*
X-78484Y-16875D01*
X-80613Y-17757D01*
X-82441Y-19159D01*
X-83843Y-20987D01*
X-84725Y-23116D01*
X-85026Y-25400D01*
X-84725Y-27684D01*
X-83843Y-29813D01*
X-82441Y-31641D01*
X-80613Y-33043D01*
X-78484Y-33925D01*
X-76200Y-34225D01*
X-73916Y-33925D01*
X-71787Y-33043D01*
X-69959Y-31641D01*
X-68557Y-29813D01*
X-67675Y-27684D01*
X-67375Y-25400D01*
X-67675Y-23116D01*
X-68557Y-20987D01*
X-69959Y-19159D01*
X-71787Y-17757D01*
X-73916Y-16875D01*
X-76200Y-16574D01*
D02*
G37*
G36*
X-101600D02*
X-103884Y-16875D01*
X-106013Y-17757D01*
X-107841Y-19159D01*
X-109243Y-20987D01*
X-110125Y-23116D01*
X-110426Y-25400D01*
X-110125Y-27684D01*
X-109243Y-29813D01*
X-107841Y-31641D01*
X-106013Y-33043D01*
X-103884Y-33925D01*
X-101600Y-34225D01*
X-99316Y-33925D01*
X-97187Y-33043D01*
X-95359Y-31641D01*
X-93957Y-29813D01*
X-93075Y-27684D01*
X-92774Y-25400D01*
X-93075Y-23116D01*
X-93957Y-20987D01*
X-95359Y-19159D01*
X-97187Y-17757D01*
X-99316Y-16875D01*
X-101600Y-16574D01*
D02*
G37*
G36*
X-127000D02*
X-129284Y-16875D01*
X-131413Y-17757D01*
X-133241Y-19159D01*
X-134643Y-20987D01*
X-135525Y-23116D01*
X-135826Y-25400D01*
X-135525Y-27684D01*
X-134643Y-29813D01*
X-133241Y-31641D01*
X-131413Y-33043D01*
X-129284Y-33925D01*
X-127000Y-34225D01*
X-124716Y-33925D01*
X-122587Y-33043D01*
X-120759Y-31641D01*
X-119357Y-29813D01*
X-118475Y-27684D01*
X-118174Y-25400D01*
X-118475Y-23116D01*
X-119357Y-20987D01*
X-120759Y-19159D01*
X-122587Y-17757D01*
X-124716Y-16875D01*
X-127000Y-16574D01*
D02*
G37*
G36*
X-152400D02*
X-154684Y-16875D01*
X-156813Y-17757D01*
X-158641Y-19159D01*
X-160043Y-20987D01*
X-160925Y-23116D01*
X-161225Y-25400D01*
X-160925Y-27684D01*
X-160043Y-29813D01*
X-158641Y-31641D01*
X-156813Y-33043D01*
X-154684Y-33925D01*
X-152400Y-34225D01*
X-150116Y-33925D01*
X-147987Y-33043D01*
X-146159Y-31641D01*
X-144757Y-29813D01*
X-143875Y-27684D01*
X-143574Y-25400D01*
X-143875Y-23116D01*
X-144757Y-20987D01*
X-146159Y-19159D01*
X-147987Y-17757D01*
X-150116Y-16875D01*
X-152400Y-16574D01*
D02*
G37*
G36*
X-228600D02*
X-230884Y-16875D01*
X-233013Y-17757D01*
X-234841Y-19159D01*
X-236243Y-20987D01*
X-237125Y-23116D01*
X-237425Y-25400D01*
X-237125Y-27684D01*
X-236243Y-29813D01*
X-234841Y-31641D01*
X-233013Y-33043D01*
X-230884Y-33925D01*
X-228600Y-34225D01*
X-226316Y-33925D01*
X-224187Y-33043D01*
X-222359Y-31641D01*
X-220957Y-29813D01*
X-220075Y-27684D01*
X-219774Y-25400D01*
X-220075Y-23116D01*
X-220957Y-20987D01*
X-222359Y-19159D01*
X-224187Y-17757D01*
X-226316Y-16875D01*
X-228600Y-16574D01*
D02*
G37*
G36*
X-254000D02*
X-256284Y-16875D01*
X-258413Y-17757D01*
X-260241Y-19159D01*
X-261643Y-20987D01*
X-262525Y-23116D01*
X-262826Y-25400D01*
X-262525Y-27684D01*
X-261643Y-29813D01*
X-260241Y-31641D01*
X-258413Y-33043D01*
X-256284Y-33925D01*
X-254000Y-34225D01*
X-251716Y-33925D01*
X-249587Y-33043D01*
X-247759Y-31641D01*
X-246357Y-29813D01*
X-245475Y-27684D01*
X-245175Y-25400D01*
X-245475Y-23116D01*
X-246357Y-20987D01*
X-247759Y-19159D01*
X-249587Y-17757D01*
X-251716Y-16875D01*
X-254000Y-16574D01*
D02*
G37*
G36*
X-279400D02*
X-281684Y-16875D01*
X-283813Y-17757D01*
X-285641Y-19159D01*
X-287043Y-20987D01*
X-287925Y-23116D01*
X-288225Y-25400D01*
X-287925Y-27684D01*
X-287043Y-29813D01*
X-285641Y-31641D01*
X-283813Y-33043D01*
X-281684Y-33925D01*
X-279400Y-34225D01*
X-277116Y-33925D01*
X-274987Y-33043D01*
X-273159Y-31641D01*
X-271757Y-29813D01*
X-270875Y-27684D01*
X-270574Y-25400D01*
X-270875Y-23116D01*
X-271757Y-20987D01*
X-273159Y-19159D01*
X-274987Y-17757D01*
X-277116Y-16875D01*
X-279400Y-16574D01*
D02*
G37*
G36*
X-304800D02*
X-307084Y-16875D01*
X-309213Y-17757D01*
X-311041Y-19159D01*
X-312443Y-20987D01*
X-313325Y-23116D01*
X-313626Y-25400D01*
X-313325Y-27684D01*
X-312443Y-29813D01*
X-311041Y-31641D01*
X-309213Y-33043D01*
X-307084Y-33925D01*
X-304800Y-34225D01*
X-302516Y-33925D01*
X-300387Y-33043D01*
X-298559Y-31641D01*
X-297157Y-29813D01*
X-296275Y-27684D01*
X-295975Y-25400D01*
X-296275Y-23116D01*
X-297157Y-20987D01*
X-298559Y-19159D01*
X-300387Y-17757D01*
X-302516Y-16875D01*
X-304800Y-16574D01*
D02*
G37*
G36*
X-330200D02*
X-332484Y-16875D01*
X-334613Y-17757D01*
X-336441Y-19159D01*
X-337843Y-20987D01*
X-338725Y-23116D01*
X-339025Y-25400D01*
X-338725Y-27684D01*
X-337843Y-29813D01*
X-336441Y-31641D01*
X-334613Y-33043D01*
X-332484Y-33925D01*
X-330200Y-34225D01*
X-327916Y-33925D01*
X-325787Y-33043D01*
X-323959Y-31641D01*
X-322557Y-29813D01*
X-321675Y-27684D01*
X-321375Y-25400D01*
X-321675Y-23116D01*
X-322557Y-20987D01*
X-323959Y-19159D01*
X-325787Y-17757D01*
X-327916Y-16875D01*
X-330200Y-16574D01*
D02*
G37*
G36*
X-355600D02*
X-357884Y-16875D01*
X-360013Y-17757D01*
X-361841Y-19159D01*
X-363243Y-20987D01*
X-364125Y-23116D01*
X-364426Y-25400D01*
X-364125Y-27684D01*
X-363243Y-29813D01*
X-361841Y-31641D01*
X-360013Y-33043D01*
X-357884Y-33925D01*
X-355600Y-34225D01*
X-353316Y-33925D01*
X-351187Y-33043D01*
X-349359Y-31641D01*
X-347957Y-29813D01*
X-347075Y-27684D01*
X-346774Y-25400D01*
X-347075Y-23116D01*
X-347957Y-20987D01*
X-349359Y-19159D01*
X-351187Y-17757D01*
X-353316Y-16875D01*
X-355600Y-16574D01*
D02*
G37*
G36*
X-381000D02*
X-383284Y-16875D01*
X-385413Y-17757D01*
X-387241Y-19159D01*
X-388643Y-20987D01*
X-389525Y-23116D01*
X-389826Y-25400D01*
X-389525Y-27684D01*
X-388643Y-29813D01*
X-387241Y-31641D01*
X-385413Y-33043D01*
X-383284Y-33925D01*
X-381000Y-34225D01*
X-378716Y-33925D01*
X-376587Y-33043D01*
X-374759Y-31641D01*
X-373357Y-29813D01*
X-372475Y-27684D01*
X-372174Y-25400D01*
X-372475Y-23116D01*
X-373357Y-20987D01*
X-374759Y-19159D01*
X-376587Y-17757D01*
X-378716Y-16875D01*
X-381000Y-16574D01*
D02*
G37*
G36*
X-406400D02*
X-408684Y-16875D01*
X-410813Y-17757D01*
X-412641Y-19159D01*
X-414043Y-20987D01*
X-414925Y-23116D01*
X-415225Y-25400D01*
X-414925Y-27684D01*
X-414043Y-29813D01*
X-412641Y-31641D01*
X-410813Y-33043D01*
X-408684Y-33925D01*
X-406400Y-34225D01*
X-404116Y-33925D01*
X-401987Y-33043D01*
X-400159Y-31641D01*
X-398757Y-29813D01*
X-397875Y-27684D01*
X-397575Y-25400D01*
X-397875Y-23116D01*
X-398757Y-20987D01*
X-400159Y-19159D01*
X-401987Y-17757D01*
X-404116Y-16875D01*
X-406400Y-16574D01*
D02*
G37*
G36*
X-431800D02*
X-434084Y-16875D01*
X-436213Y-17757D01*
X-438041Y-19159D01*
X-439443Y-20987D01*
X-440325Y-23116D01*
X-440625Y-25400D01*
X-440325Y-27684D01*
X-439443Y-29813D01*
X-438041Y-31641D01*
X-436213Y-33043D01*
X-434084Y-33925D01*
X-431800Y-34225D01*
X-429516Y-33925D01*
X-427387Y-33043D01*
X-425559Y-31641D01*
X-424157Y-29813D01*
X-423275Y-27684D01*
X-422975Y-25400D01*
X-423275Y-23116D01*
X-424157Y-20987D01*
X-425559Y-19159D01*
X-427387Y-17757D01*
X-429516Y-16875D01*
X-431800Y-16574D01*
D02*
G37*
G36*
X-457200D02*
X-459484Y-16875D01*
X-461613Y-17757D01*
X-463441Y-19159D01*
X-464843Y-20987D01*
X-465725Y-23116D01*
X-466026Y-25400D01*
X-465725Y-27684D01*
X-464843Y-29813D01*
X-463441Y-31641D01*
X-461613Y-33043D01*
X-459484Y-33925D01*
X-457200Y-34225D01*
X-454916Y-33925D01*
X-452787Y-33043D01*
X-450959Y-31641D01*
X-449557Y-29813D01*
X-448675Y-27684D01*
X-448374Y-25400D01*
X-448675Y-23116D01*
X-449557Y-20987D01*
X-450959Y-19159D01*
X-452787Y-17757D01*
X-454916Y-16875D01*
X-457200Y-16574D01*
D02*
G37*
G36*
X-482600D02*
X-484884Y-16875D01*
X-487013Y-17757D01*
X-488841Y-19159D01*
X-490243Y-20987D01*
X-491125Y-23116D01*
X-491426Y-25400D01*
X-491125Y-27684D01*
X-490243Y-29813D01*
X-488841Y-31641D01*
X-487013Y-33043D01*
X-484884Y-33925D01*
X-482600Y-34225D01*
X-480316Y-33925D01*
X-478187Y-33043D01*
X-476359Y-31641D01*
X-474957Y-29813D01*
X-474075Y-27684D01*
X-473774Y-25400D01*
X-474075Y-23116D01*
X-474957Y-20987D01*
X-476359Y-19159D01*
X-478187Y-17757D01*
X-480316Y-16875D01*
X-482600Y-16574D01*
D02*
G37*
G36*
X-508000D02*
X-510284Y-16875D01*
X-512413Y-17757D01*
X-514241Y-19159D01*
X-515643Y-20987D01*
X-516525Y-23116D01*
X-516825Y-25400D01*
X-516525Y-27684D01*
X-515643Y-29813D01*
X-514241Y-31641D01*
X-512413Y-33043D01*
X-510284Y-33925D01*
X-508000Y-34225D01*
X-505716Y-33925D01*
X-503587Y-33043D01*
X-501759Y-31641D01*
X-500357Y-29813D01*
X-499475Y-27684D01*
X-499174Y-25400D01*
X-499475Y-23116D01*
X-500357Y-20987D01*
X-501759Y-19159D01*
X-503587Y-17757D01*
X-505716Y-16875D01*
X-508000Y-16574D01*
D02*
G37*
G36*
X-533400D02*
X-535684Y-16875D01*
X-537813Y-17757D01*
X-539641Y-19159D01*
X-541043Y-20987D01*
X-541925Y-23116D01*
X-542225Y-25400D01*
X-541925Y-27684D01*
X-541043Y-29813D01*
X-539641Y-31641D01*
X-537813Y-33043D01*
X-535684Y-33925D01*
X-533400Y-34225D01*
X-531116Y-33925D01*
X-528987Y-33043D01*
X-527159Y-31641D01*
X-525757Y-29813D01*
X-524875Y-27684D01*
X-524575Y-25400D01*
X-524875Y-23116D01*
X-525757Y-20987D01*
X-527159Y-19159D01*
X-528987Y-17757D01*
X-531116Y-16875D01*
X-533400Y-16574D01*
D02*
G37*
G36*
X-558800D02*
X-561084Y-16875D01*
X-563213Y-17757D01*
X-565041Y-19159D01*
X-566443Y-20987D01*
X-567325Y-23116D01*
X-567626Y-25400D01*
X-567325Y-27684D01*
X-566443Y-29813D01*
X-565041Y-31641D01*
X-563213Y-33043D01*
X-561084Y-33925D01*
X-558800Y-34225D01*
X-556516Y-33925D01*
X-554387Y-33043D01*
X-552559Y-31641D01*
X-551157Y-29813D01*
X-550275Y-27684D01*
X-549975Y-25400D01*
X-550275Y-23116D01*
X-551157Y-20987D01*
X-552559Y-19159D01*
X-554387Y-17757D01*
X-556516Y-16875D01*
X-558800Y-16574D01*
D02*
G37*
G36*
X-584200D02*
X-586484Y-16875D01*
X-588613Y-17757D01*
X-590441Y-19159D01*
X-591843Y-20987D01*
X-592725Y-23116D01*
X-593026Y-25400D01*
X-592725Y-27684D01*
X-591843Y-29813D01*
X-590441Y-31641D01*
X-588613Y-33043D01*
X-586484Y-33925D01*
X-584200Y-34225D01*
X-581916Y-33925D01*
X-579787Y-33043D01*
X-577959Y-31641D01*
X-576557Y-29813D01*
X-575675Y-27684D01*
X-575374Y-25400D01*
X-575675Y-23116D01*
X-576557Y-20987D01*
X-577959Y-19159D01*
X-579787Y-17757D01*
X-581916Y-16875D01*
X-584200Y-16574D01*
D02*
G37*
G36*
X-609600D02*
X-611884Y-16875D01*
X-614013Y-17757D01*
X-615841Y-19159D01*
X-617243Y-20987D01*
X-618125Y-23116D01*
X-618425Y-25400D01*
X-618125Y-27684D01*
X-617243Y-29813D01*
X-615841Y-31641D01*
X-614013Y-33043D01*
X-611884Y-33925D01*
X-609600Y-34225D01*
X-607316Y-33925D01*
X-605187Y-33043D01*
X-603359Y-31641D01*
X-601957Y-29813D01*
X-601075Y-27684D01*
X-600774Y-25400D01*
X-601075Y-23116D01*
X-601957Y-20987D01*
X-603359Y-19159D01*
X-605187Y-17757D01*
X-607316Y-16875D01*
X-609600Y-16574D01*
D02*
G37*
G36*
X-635000D02*
X-637284Y-16875D01*
X-639413Y-17757D01*
X-641241Y-19159D01*
X-642643Y-20987D01*
X-643525Y-23116D01*
X-643826Y-25400D01*
X-643525Y-27684D01*
X-642643Y-29813D01*
X-641241Y-31641D01*
X-639413Y-33043D01*
X-637284Y-33925D01*
X-635000Y-34225D01*
X-632716Y-33925D01*
X-630587Y-33043D01*
X-628759Y-31641D01*
X-627357Y-29813D01*
X-626475Y-27684D01*
X-626175Y-25400D01*
X-626475Y-23116D01*
X-627357Y-20987D01*
X-628759Y-19159D01*
X-630587Y-17757D01*
X-632716Y-16875D01*
X-635000Y-16574D01*
D02*
G37*
G36*
X-660400D02*
X-662684Y-16875D01*
X-664813Y-17757D01*
X-666641Y-19159D01*
X-668043Y-20987D01*
X-668925Y-23116D01*
X-669225Y-25400D01*
X-668925Y-27684D01*
X-668043Y-29813D01*
X-666641Y-31641D01*
X-664813Y-33043D01*
X-662684Y-33925D01*
X-660400Y-34225D01*
X-658116Y-33925D01*
X-655987Y-33043D01*
X-654159Y-31641D01*
X-652757Y-29813D01*
X-651875Y-27684D01*
X-651574Y-25400D01*
X-651875Y-23116D01*
X-652757Y-20987D01*
X-654159Y-19159D01*
X-655987Y-17757D01*
X-658116Y-16875D01*
X-660400Y-16574D01*
D02*
G37*
G36*
X-685800D02*
X-688084Y-16875D01*
X-690213Y-17757D01*
X-692041Y-19159D01*
X-693443Y-20987D01*
X-694325Y-23116D01*
X-694625Y-25400D01*
X-694325Y-27684D01*
X-693443Y-29813D01*
X-692041Y-31641D01*
X-690213Y-33043D01*
X-688084Y-33925D01*
X-685800Y-34225D01*
X-683516Y-33925D01*
X-681387Y-33043D01*
X-679559Y-31641D01*
X-678157Y-29813D01*
X-677275Y-27684D01*
X-676974Y-25400D01*
X-677275Y-23116D01*
X-678157Y-20987D01*
X-679559Y-19159D01*
X-681387Y-17757D01*
X-683516Y-16875D01*
X-685800Y-16574D01*
D02*
G37*
G36*
X-701241Y-26670D02*
X-709930D01*
Y-35359D01*
X-708579Y-35182D01*
X-706137Y-34170D01*
X-704039Y-32561D01*
X-702430Y-30463D01*
X-701418Y-28021D01*
X-701241Y-26670D01*
D02*
G37*
G36*
X-712470D02*
X-721159D01*
X-720982Y-28021D01*
X-719970Y-30463D01*
X-718361Y-32561D01*
X-716263Y-34170D01*
X-713821Y-35182D01*
X-712470Y-35359D01*
Y-26670D01*
D02*
G37*
G36*
X-726437D02*
X-735330D01*
Y-35563D01*
X-732850D01*
X-730396Y-35075D01*
X-728315Y-33685D01*
X-726925Y-31604D01*
X-726437Y-29150D01*
Y-26670D01*
D02*
G37*
G36*
X-737870D02*
X-746763D01*
Y-29150D01*
X-746275Y-31604D01*
X-744885Y-33685D01*
X-742804Y-35075D01*
X-740350Y-35563D01*
X-737870D01*
Y-26670D01*
D02*
G37*
G36*
X-596900Y-53731D02*
X-597883Y-53926D01*
X-598717Y-54483D01*
X-599274Y-55317D01*
X-599469Y-56300D01*
Y-58460D01*
X-602440D01*
Y-67730D01*
X-596900D01*
X-591360D01*
Y-58460D01*
X-594331D01*
Y-56300D01*
X-594526Y-55317D01*
X-595083Y-54483D01*
X-595917Y-53926D01*
X-596900Y-53731D01*
D02*
G37*
G36*
X-636450Y-59000D02*
X-658950D01*
Y-81500D01*
X-636450D01*
Y-72419D01*
X-619640D01*
Y-74600D01*
X-609729D01*
Y-76100D01*
X-609534Y-77083D01*
X-608977Y-77917D01*
X-603797Y-83097D01*
X-603797Y-83097D01*
X-602963Y-83654D01*
X-601980Y-83849D01*
X-585688D01*
X-584705Y-83654D01*
X-583871Y-83097D01*
X-582383Y-81609D01*
X-581826Y-80775D01*
X-581631Y-79792D01*
Y-78250D01*
X-579950D01*
Y-59750D01*
X-588450D01*
Y-78250D01*
X-589509Y-78711D01*
X-591360D01*
Y-70270D01*
X-596900D01*
X-602440D01*
Y-75553D01*
X-603595Y-76031D01*
X-604591Y-75036D01*
Y-72080D01*
X-604640Y-71832D01*
Y-65100D01*
X-619640D01*
Y-67281D01*
X-636450D01*
Y-59000D01*
D02*
G37*
G36*
X-558800Y-52731D02*
X-560166Y-53003D01*
X-561323Y-53777D01*
X-562097Y-54934D01*
X-562369Y-56300D01*
X-562097Y-57666D01*
X-561539Y-58500D01*
X-561958Y-59750D01*
X-563050D01*
Y-78250D01*
X-554930D01*
X-554550Y-78250D01*
X-553680Y-79140D01*
Y-83040D01*
X-551209D01*
Y-84350D01*
X-551014Y-85333D01*
X-550457Y-86167D01*
X-549623Y-86724D01*
X-548640Y-86919D01*
X-547657Y-86724D01*
X-546823Y-86167D01*
X-546266Y-85333D01*
X-546071Y-84350D01*
Y-83040D01*
X-543600D01*
Y-79270D01*
X-548640D01*
Y-76730D01*
X-543600D01*
Y-72960D01*
X-543727D01*
X-544890Y-72750D01*
X-544890Y-71710D01*
Y-65250D01*
X-552390D01*
Y-66431D01*
X-554550D01*
Y-59750D01*
X-555642D01*
X-556061Y-58500D01*
X-555503Y-57666D01*
X-555231Y-56300D01*
X-555503Y-54934D01*
X-556277Y-53777D01*
X-557434Y-53003D01*
X-558800Y-52731D01*
D02*
G37*
G36*
X-25400Y-59871D02*
X-28586Y-60185D01*
X-31649Y-61114D01*
X-34472Y-62623D01*
X-36946Y-64654D01*
X-38977Y-67128D01*
X-40486Y-69951D01*
X-41415Y-73014D01*
X-41729Y-76200D01*
X-41415Y-79386D01*
X-40486Y-82449D01*
X-38977Y-85272D01*
X-36946Y-87746D01*
X-34472Y-89777D01*
X-31649Y-91286D01*
X-28586Y-92215D01*
X-25400Y-92529D01*
X-22214Y-92215D01*
X-19151Y-91286D01*
X-16328Y-89777D01*
X-13854Y-87746D01*
X-11823Y-85272D01*
X-10314Y-82449D01*
X-9385Y-79386D01*
X-9071Y-76200D01*
X-9385Y-73014D01*
X-10314Y-69951D01*
X-11823Y-67128D01*
X-13854Y-64654D01*
X-16328Y-62623D01*
X-19151Y-61114D01*
X-22214Y-60185D01*
X-25400Y-59871D01*
D02*
G37*
G36*
X-520700D02*
X-523886Y-60185D01*
X-526949Y-61114D01*
X-529772Y-62623D01*
X-532246Y-64654D01*
X-534277Y-67128D01*
X-535786Y-69951D01*
X-536715Y-73014D01*
X-537029Y-76200D01*
X-536715Y-79386D01*
X-535786Y-82449D01*
X-534277Y-85272D01*
X-532246Y-87746D01*
X-529772Y-89777D01*
X-526949Y-91286D01*
X-523886Y-92215D01*
X-520700Y-92529D01*
X-517514Y-92215D01*
X-514451Y-91286D01*
X-511628Y-89777D01*
X-509154Y-87746D01*
X-507123Y-85272D01*
X-505614Y-82449D01*
X-504685Y-79386D01*
X-504371Y-76200D01*
X-504685Y-73014D01*
X-505614Y-69951D01*
X-507123Y-67128D01*
X-509154Y-64654D01*
X-511628Y-62623D01*
X-514451Y-61114D01*
X-517514Y-60185D01*
X-520700Y-59871D01*
D02*
G37*
G36*
X-628650Y-94940D02*
X-633920D01*
Y-100210D01*
X-628650D01*
Y-94940D01*
D02*
G37*
G36*
X-584200Y-106231D02*
X-585183Y-106426D01*
X-586017Y-106983D01*
X-586574Y-107817D01*
X-586769Y-108800D01*
Y-110960D01*
X-589740D01*
Y-120230D01*
X-584200D01*
X-578660D01*
Y-110960D01*
X-581631D01*
Y-108800D01*
X-581826Y-107817D01*
X-582383Y-106983D01*
X-583217Y-106426D01*
X-584200Y-106231D01*
D02*
G37*
G36*
X-635219Y-121520D02*
X-646430D01*
Y-132731D01*
X-644426Y-132467D01*
X-641376Y-131204D01*
X-638756Y-129194D01*
X-636746Y-126574D01*
X-635483Y-123524D01*
X-635219Y-121520D01*
D02*
G37*
G36*
X-648970D02*
X-660181D01*
X-659917Y-123524D01*
X-658654Y-126574D01*
X-656644Y-129194D01*
X-654024Y-131204D01*
X-650974Y-132467D01*
X-648970Y-132731D01*
Y-121520D01*
D02*
G37*
G36*
X-583620Y-137160D02*
X-587390D01*
Y-140930D01*
X-583620D01*
Y-137160D01*
D02*
G37*
G36*
X-113030Y-153419D02*
Y-164630D01*
X-101819D01*
X-102083Y-162626D01*
X-103346Y-159576D01*
X-105356Y-156956D01*
X-107976Y-154946D01*
X-111026Y-153683D01*
X-113030Y-153419D01*
D02*
G37*
G36*
X-115570Y-153419D02*
X-117574Y-153683D01*
X-120624Y-154946D01*
X-123244Y-156956D01*
X-125254Y-159576D01*
X-126517Y-162626D01*
X-126781Y-164630D01*
X-115570D01*
Y-153419D01*
D02*
G37*
G36*
X-596900Y-161681D02*
X-597883Y-161876D01*
X-598717Y-162433D01*
X-599274Y-163267D01*
X-599469Y-164250D01*
Y-166410D01*
X-602440D01*
Y-175680D01*
X-596900D01*
X-591360D01*
Y-166410D01*
X-594331D01*
Y-164250D01*
X-594526Y-163267D01*
X-595083Y-162433D01*
X-595917Y-161876D01*
X-596900Y-161681D01*
D02*
G37*
G36*
X-636450Y-166950D02*
X-658950D01*
Y-189450D01*
X-636450D01*
Y-180369D01*
X-619640D01*
Y-182550D01*
X-609729D01*
Y-184050D01*
X-609534Y-185033D01*
X-608977Y-185867D01*
X-603797Y-191047D01*
X-603797Y-191047D01*
X-602963Y-191604D01*
X-601980Y-191799D01*
X-585688D01*
X-584705Y-191604D01*
X-583871Y-191047D01*
X-582383Y-189559D01*
X-581826Y-188725D01*
X-581631Y-187742D01*
Y-186200D01*
X-579950D01*
Y-167700D01*
X-588450D01*
Y-186200D01*
X-589509Y-186661D01*
X-591360D01*
Y-178220D01*
X-596900D01*
X-602440D01*
Y-183503D01*
X-603595Y-183981D01*
X-604591Y-182986D01*
Y-180030D01*
X-604640Y-179782D01*
Y-173050D01*
X-619640D01*
Y-175231D01*
X-636450D01*
Y-166950D01*
D02*
G37*
G36*
X-558800Y-160681D02*
X-560166Y-160953D01*
X-561323Y-161727D01*
X-562097Y-162884D01*
X-562369Y-164250D01*
X-562097Y-165616D01*
X-561539Y-166450D01*
X-561958Y-167700D01*
X-563050D01*
Y-186200D01*
X-554930D01*
X-554550Y-186200D01*
X-553680Y-187090D01*
Y-190990D01*
X-551209D01*
Y-192300D01*
X-551014Y-193283D01*
X-550457Y-194117D01*
X-549623Y-194674D01*
X-548640Y-194869D01*
X-547657Y-194674D01*
X-546823Y-194117D01*
X-546266Y-193283D01*
X-546071Y-192300D01*
Y-190990D01*
X-543600D01*
Y-187220D01*
X-548640D01*
Y-184680D01*
X-543600D01*
Y-180910D01*
X-543727D01*
X-544890Y-180700D01*
X-544890Y-179660D01*
Y-173200D01*
X-552390D01*
Y-174381D01*
X-554550D01*
Y-167700D01*
X-555642D01*
X-556061Y-166450D01*
X-555503Y-165616D01*
X-555231Y-164250D01*
X-555503Y-162884D01*
X-556277Y-161727D01*
X-557434Y-160953D01*
X-558800Y-160681D01*
D02*
G37*
G36*
X-101819Y-167170D02*
X-114300D01*
X-126781D01*
X-126517Y-169174D01*
X-125254Y-172224D01*
X-123244Y-174844D01*
X-120624Y-176854D01*
X-117574Y-178117D01*
X-115273Y-178420D01*
Y-179681D01*
X-117237Y-179939D01*
X-119973Y-181073D01*
X-122324Y-182876D01*
X-124127Y-185226D01*
X-125260Y-187963D01*
X-125647Y-190900D01*
X-125260Y-193837D01*
X-124127Y-196574D01*
X-122324Y-198924D01*
X-119973Y-200727D01*
X-117237Y-201861D01*
X-114300Y-202247D01*
X-111363Y-201861D01*
X-108626Y-200727D01*
X-106276Y-198924D01*
X-104473Y-196574D01*
X-103340Y-193837D01*
X-102953Y-190900D01*
X-103340Y-187963D01*
X-104473Y-185226D01*
X-106276Y-182876D01*
X-108626Y-181073D01*
X-111363Y-179939D01*
X-113327Y-179681D01*
Y-178420D01*
X-111026Y-178117D01*
X-107976Y-176854D01*
X-105356Y-174844D01*
X-103346Y-172224D01*
X-102083Y-169174D01*
X-101819Y-167170D01*
D02*
G37*
G36*
X-628650Y-202890D02*
X-633920D01*
Y-208160D01*
X-628650D01*
Y-202890D01*
D02*
G37*
G36*
X-567250Y-167700D02*
X-575750D01*
Y-186200D01*
X-575750D01*
X-575494Y-187450D01*
X-588675Y-200631D01*
X-591820D01*
X-592803Y-200826D01*
X-593637Y-201383D01*
X-603390Y-211136D01*
X-604640Y-210618D01*
Y-202550D01*
Y-193050D01*
X-619640D01*
Y-195231D01*
X-622130D01*
Y-189180D01*
X-632630D01*
Y-199680D01*
X-625732D01*
X-624993Y-200174D01*
X-624010Y-200369D01*
X-624010Y-200369D01*
X-619640D01*
Y-202769D01*
X-620840Y-202890D01*
X-620890Y-202890D01*
X-626110D01*
Y-209430D01*
Y-215970D01*
X-624474D01*
X-623222Y-217222D01*
X-622388Y-217779D01*
X-621405Y-217974D01*
X-620422Y-217779D01*
X-619588Y-217222D01*
X-619031Y-216388D01*
X-618836Y-215405D01*
X-619031Y-214422D01*
X-619588Y-213588D01*
X-620112Y-213064D01*
X-619648Y-211761D01*
X-619640Y-211760D01*
X-619590Y-211760D01*
X-605782D01*
X-605264Y-213010D01*
X-611625Y-219371D01*
X-612182Y-220205D01*
X-612377Y-221188D01*
Y-222260D01*
X-619640D01*
Y-224441D01*
X-622826D01*
X-630141Y-217125D01*
X-629663Y-215970D01*
X-628650D01*
Y-210700D01*
X-633920D01*
Y-211713D01*
X-635075Y-212192D01*
X-638099Y-209168D01*
X-637873Y-208874D01*
X-636740Y-206137D01*
X-636353Y-203200D01*
X-636740Y-200263D01*
X-637873Y-197526D01*
X-639676Y-195176D01*
X-642027Y-193373D01*
X-644763Y-192239D01*
X-647700Y-191853D01*
X-650637Y-192239D01*
X-653373Y-193373D01*
X-655724Y-195176D01*
X-657527Y-197526D01*
X-658661Y-200263D01*
X-659047Y-203200D01*
X-658661Y-206137D01*
X-657527Y-208874D01*
X-655724Y-211224D01*
X-653373Y-213027D01*
X-650637Y-214160D01*
X-648673Y-214419D01*
Y-215680D01*
X-650974Y-215983D01*
X-654024Y-217246D01*
X-656644Y-219256D01*
X-658654Y-221876D01*
X-659917Y-224926D01*
X-660181Y-226930D01*
X-647700D01*
X-635219D01*
X-635483Y-224926D01*
X-636746Y-221876D01*
X-638756Y-219256D01*
X-641376Y-217246D01*
X-644426Y-215983D01*
X-646727Y-215680D01*
Y-214419D01*
X-644763Y-214160D01*
X-642027Y-213027D01*
X-641732Y-212801D01*
X-625707Y-228827D01*
X-624873Y-229384D01*
X-623890Y-229579D01*
X-623890Y-229579D01*
X-619640D01*
Y-231760D01*
X-604640D01*
Y-222260D01*
X-605479D01*
X-605996Y-221010D01*
X-590756Y-205769D01*
X-588634D01*
X-588110Y-205769D01*
X-587987Y-207019D01*
X-588775Y-207176D01*
X-589609Y-207733D01*
X-598697Y-216821D01*
X-599254Y-217655D01*
X-599449Y-218638D01*
Y-220200D01*
X-601150D01*
Y-238700D01*
X-592650D01*
Y-220200D01*
X-593041D01*
X-593558Y-218950D01*
X-586728Y-212119D01*
X-572568D01*
X-572445Y-213369D01*
X-572866Y-213453D01*
X-574023Y-214227D01*
X-574797Y-215384D01*
X-575069Y-216750D01*
X-574797Y-218116D01*
X-574239Y-218950D01*
X-574658Y-220200D01*
X-575750D01*
Y-235448D01*
X-575919Y-236300D01*
Y-239206D01*
X-575979Y-239265D01*
X-577089Y-238993D01*
X-577310Y-238800D01*
Y-238800D01*
X-578660D01*
Y-230720D01*
X-584200D01*
X-589740D01*
Y-239990D01*
X-587390D01*
Y-242570D01*
X-582350D01*
Y-243840D01*
X-581080D01*
Y-248880D01*
X-577310D01*
Y-248753D01*
X-577100Y-247590D01*
X-576060Y-247590D01*
X-569600D01*
Y-240090D01*
X-570781D01*
Y-238700D01*
X-567250D01*
Y-220200D01*
X-568342D01*
X-568761Y-218950D01*
X-568203Y-218116D01*
X-567931Y-216750D01*
X-568203Y-215384D01*
X-568977Y-214227D01*
X-570134Y-213453D01*
X-570555Y-213369D01*
X-570432Y-212119D01*
X-556578D01*
X-556455Y-213369D01*
X-557243Y-213526D01*
X-558077Y-214083D01*
X-560617Y-216623D01*
X-561174Y-217457D01*
X-561369Y-218440D01*
Y-220200D01*
X-563050D01*
Y-238700D01*
X-554550D01*
Y-220200D01*
X-554550D01*
X-554880Y-218950D01*
X-554524Y-218469D01*
X-276654D01*
X-131357Y-363767D01*
X-130523Y-364324D01*
X-129540Y-364519D01*
X-22654D01*
X-15269Y-371904D01*
Y-393700D01*
X-15074Y-394683D01*
X-14517Y-395517D01*
X-7761Y-402272D01*
X-8525Y-404116D01*
X-8826Y-406400D01*
X-8525Y-408684D01*
X-7643Y-410813D01*
X-6241Y-412641D01*
X-4413Y-414043D01*
X-2284Y-414925D01*
X0Y-415225D01*
X2284Y-414925D01*
X4413Y-414043D01*
X6241Y-412641D01*
X7643Y-410813D01*
X8525Y-408684D01*
X8826Y-406400D01*
X8525Y-404116D01*
X7643Y-401987D01*
X6241Y-400159D01*
X4413Y-398757D01*
X2284Y-397875D01*
X0Y-397575D01*
X-2284Y-397875D01*
X-4128Y-398639D01*
X-10131Y-392636D01*
Y-370840D01*
X-10326Y-369857D01*
X-10883Y-369023D01*
X-19773Y-360133D01*
X-20607Y-359576D01*
X-21395Y-359419D01*
X-21272Y-358169D01*
X-13764D01*
X-2569Y-369364D01*
Y-372593D01*
X-4413Y-373357D01*
X-6241Y-374759D01*
X-7643Y-376587D01*
X-8525Y-378716D01*
X-8826Y-381000D01*
X-8525Y-383284D01*
X-7643Y-385413D01*
X-6241Y-387241D01*
X-4413Y-388643D01*
X-2284Y-389525D01*
X0Y-389826D01*
X2284Y-389525D01*
X4413Y-388643D01*
X6241Y-387241D01*
X7643Y-385413D01*
X8525Y-383284D01*
X8826Y-381000D01*
X8525Y-378716D01*
X7643Y-376587D01*
X6241Y-374759D01*
X4413Y-373357D01*
X2569Y-372593D01*
Y-368300D01*
X2374Y-367317D01*
X1817Y-366483D01*
X-10883Y-353783D01*
X-11717Y-353226D01*
X-12700Y-353031D01*
X-124666D01*
X-269963Y-207733D01*
X-270797Y-207176D01*
X-271780Y-206981D01*
X-586768D01*
X-587293Y-206981D01*
X-587416Y-205731D01*
X-586628Y-205574D01*
X-585794Y-205017D01*
X-569866Y-189089D01*
X-569309Y-188255D01*
X-569114Y-187272D01*
Y-186200D01*
X-567250D01*
Y-167700D01*
D02*
G37*
G36*
X-114300Y-204553D02*
X-117237Y-204939D01*
X-119973Y-206073D01*
X-122324Y-207876D01*
X-124127Y-210226D01*
X-125260Y-212963D01*
X-125647Y-215900D01*
X-125260Y-218837D01*
X-124127Y-221574D01*
X-122324Y-223924D01*
X-119973Y-225727D01*
X-117237Y-226861D01*
X-114300Y-227247D01*
X-111363Y-226861D01*
X-108626Y-225727D01*
X-106276Y-223924D01*
X-104473Y-221574D01*
X-103340Y-218837D01*
X-102953Y-215900D01*
X-103340Y-212963D01*
X-104473Y-210226D01*
X-106276Y-207876D01*
X-108626Y-206073D01*
X-111363Y-204939D01*
X-114300Y-204553D01*
D02*
G37*
G36*
X-584200Y-214181D02*
X-585183Y-214376D01*
X-586017Y-214933D01*
X-586574Y-215767D01*
X-586769Y-216750D01*
Y-218910D01*
X-589740D01*
Y-228180D01*
X-584200D01*
X-578660D01*
Y-218910D01*
X-581631D01*
Y-216750D01*
X-581826Y-215767D01*
X-582383Y-214933D01*
X-583217Y-214376D01*
X-584200Y-214181D01*
D02*
G37*
G36*
X-635219Y-229470D02*
X-646430D01*
Y-240681D01*
X-644426Y-240417D01*
X-641376Y-239154D01*
X-638756Y-237144D01*
X-636746Y-234524D01*
X-635483Y-231474D01*
X-635219Y-229470D01*
D02*
G37*
G36*
X-648970D02*
X-660181D01*
X-659917Y-231474D01*
X-658654Y-234524D01*
X-656644Y-237144D01*
X-654024Y-239154D01*
X-650974Y-240417D01*
X-648970Y-240681D01*
Y-229470D01*
D02*
G37*
G36*
X-583620Y-245110D02*
X-587390D01*
Y-248880D01*
X-583620D01*
Y-245110D01*
D02*
G37*
G36*
X-103050Y-229650D02*
X-125550D01*
Y-252150D01*
X-103050D01*
Y-229650D01*
D02*
G37*
G36*
X-596900Y-269631D02*
X-597883Y-269826D01*
X-598717Y-270383D01*
X-599274Y-271217D01*
X-599469Y-272200D01*
Y-274360D01*
X-602440D01*
Y-283630D01*
X-596900D01*
X-591360D01*
Y-274360D01*
X-594331D01*
Y-272200D01*
X-594526Y-271217D01*
X-595083Y-270383D01*
X-595917Y-269826D01*
X-596900Y-269631D01*
D02*
G37*
G36*
X-636450Y-274900D02*
X-658950D01*
Y-297400D01*
X-636450D01*
Y-288319D01*
X-619640D01*
Y-290500D01*
X-609729D01*
Y-292000D01*
X-609534Y-292983D01*
X-608977Y-293817D01*
X-603797Y-298997D01*
X-603797Y-298997D01*
X-602963Y-299554D01*
X-601980Y-299749D01*
X-585688D01*
X-584705Y-299554D01*
X-583871Y-298997D01*
X-582383Y-297509D01*
X-581826Y-296675D01*
X-581631Y-295692D01*
Y-294150D01*
X-579950D01*
Y-275650D01*
X-588450D01*
Y-294150D01*
X-589509Y-294611D01*
X-591360D01*
Y-286170D01*
X-596900D01*
X-602440D01*
Y-291453D01*
X-603595Y-291931D01*
X-604591Y-290936D01*
Y-287980D01*
X-604640Y-287732D01*
Y-281000D01*
X-619640D01*
Y-283181D01*
X-636450D01*
Y-274900D01*
D02*
G37*
G36*
X-558800Y-268631D02*
X-560166Y-268903D01*
X-561323Y-269677D01*
X-562097Y-270834D01*
X-562369Y-272200D01*
X-562097Y-273566D01*
X-561539Y-274400D01*
X-561958Y-275650D01*
X-563050D01*
Y-294150D01*
X-554930D01*
X-554550Y-294150D01*
X-553680Y-295040D01*
Y-298940D01*
X-551209D01*
Y-300250D01*
X-551014Y-301233D01*
X-550457Y-302067D01*
X-549623Y-302624D01*
X-548640Y-302819D01*
X-547657Y-302624D01*
X-546823Y-302067D01*
X-546266Y-301233D01*
X-546071Y-300250D01*
Y-298940D01*
X-543600D01*
Y-295170D01*
X-548640D01*
Y-292630D01*
X-543600D01*
Y-288860D01*
X-543727D01*
X-544890Y-288650D01*
X-544890Y-287610D01*
Y-281150D01*
X-552390D01*
Y-282331D01*
X-554550D01*
Y-275650D01*
X-555642D01*
X-556061Y-274400D01*
X-555503Y-273566D01*
X-555231Y-272200D01*
X-555503Y-270834D01*
X-556277Y-269677D01*
X-557434Y-268903D01*
X-558800Y-268631D01*
D02*
G37*
G36*
X-628650Y-310840D02*
X-633920D01*
Y-316110D01*
X-628650D01*
Y-310840D01*
D02*
G37*
G36*
X-567250Y-275650D02*
X-575750D01*
Y-294150D01*
X-575750D01*
X-575494Y-295400D01*
X-588675Y-308581D01*
X-591820D01*
X-592803Y-308776D01*
X-593637Y-309333D01*
X-603390Y-319086D01*
X-604640Y-318568D01*
Y-310500D01*
Y-301000D01*
X-619640D01*
Y-303181D01*
X-622130D01*
Y-297130D01*
X-632630D01*
Y-307630D01*
X-625732D01*
X-624993Y-308124D01*
X-624010Y-308319D01*
X-624010Y-308319D01*
X-619640D01*
Y-310719D01*
X-620840Y-310840D01*
X-620890Y-310840D01*
X-626110D01*
Y-317380D01*
Y-323920D01*
X-624474D01*
X-623222Y-325172D01*
X-622388Y-325729D01*
X-621405Y-325924D01*
X-620422Y-325729D01*
X-619588Y-325172D01*
X-619031Y-324338D01*
X-618836Y-323355D01*
X-619031Y-322372D01*
X-619588Y-321538D01*
X-620112Y-321014D01*
X-619648Y-319711D01*
X-619640Y-319710D01*
X-619590Y-319710D01*
X-605782D01*
X-605264Y-320960D01*
X-611625Y-327321D01*
X-612182Y-328155D01*
X-612377Y-329138D01*
Y-330210D01*
X-619640D01*
Y-332391D01*
X-622826D01*
X-630141Y-325075D01*
X-629663Y-323920D01*
X-628650D01*
Y-318650D01*
X-633920D01*
Y-319663D01*
X-635075Y-320141D01*
X-638099Y-317118D01*
X-637873Y-316824D01*
X-636740Y-314087D01*
X-636353Y-311150D01*
X-636740Y-308213D01*
X-637873Y-305476D01*
X-639676Y-303126D01*
X-642027Y-301323D01*
X-644763Y-300189D01*
X-647700Y-299803D01*
X-650637Y-300189D01*
X-653373Y-301323D01*
X-655724Y-303126D01*
X-657527Y-305476D01*
X-658661Y-308213D01*
X-659047Y-311150D01*
X-658661Y-314087D01*
X-657527Y-316824D01*
X-655724Y-319174D01*
X-653373Y-320977D01*
X-650637Y-322110D01*
X-648673Y-322369D01*
Y-323630D01*
X-650974Y-323933D01*
X-654024Y-325196D01*
X-656644Y-327206D01*
X-658654Y-329826D01*
X-659917Y-332876D01*
X-660181Y-334880D01*
X-647700D01*
X-635219D01*
X-635483Y-332876D01*
X-636746Y-329826D01*
X-638756Y-327206D01*
X-641376Y-325196D01*
X-644426Y-323933D01*
X-646727Y-323630D01*
Y-322369D01*
X-644763Y-322110D01*
X-642027Y-320977D01*
X-641732Y-320751D01*
X-625707Y-336777D01*
X-624873Y-337334D01*
X-623890Y-337529D01*
X-623890Y-337529D01*
X-619640D01*
Y-339710D01*
X-604640D01*
Y-330210D01*
X-605479D01*
X-605996Y-328960D01*
X-590756Y-313719D01*
X-587611D01*
X-586628Y-313524D01*
X-585794Y-312967D01*
X-569866Y-297039D01*
X-569309Y-296205D01*
X-569114Y-295222D01*
Y-294150D01*
X-567250D01*
Y-275650D01*
D02*
G37*
G36*
X-584200Y-322131D02*
X-585183Y-322326D01*
X-586017Y-322883D01*
X-586574Y-323717D01*
X-586769Y-324700D01*
Y-326860D01*
X-589740D01*
Y-336130D01*
X-584200D01*
X-578660D01*
Y-326860D01*
X-581631D01*
Y-324700D01*
X-581826Y-323717D01*
X-582383Y-322883D01*
X-583217Y-322326D01*
X-584200Y-322131D01*
D02*
G37*
G36*
X-25400Y-313871D02*
X-28586Y-314185D01*
X-31649Y-315114D01*
X-34472Y-316623D01*
X-36946Y-318654D01*
X-38977Y-321128D01*
X-40486Y-323951D01*
X-41415Y-327014D01*
X-41729Y-330200D01*
X-41415Y-333386D01*
X-40486Y-336449D01*
X-38977Y-339272D01*
X-36946Y-341746D01*
X-34472Y-343777D01*
X-31649Y-345286D01*
X-28586Y-346215D01*
X-25400Y-346529D01*
X-22214Y-346215D01*
X-19151Y-345286D01*
X-16328Y-343777D01*
X-13854Y-341746D01*
X-11823Y-339272D01*
X-10314Y-336449D01*
X-9385Y-333386D01*
X-9071Y-330200D01*
X-9385Y-327014D01*
X-10314Y-323951D01*
X-11823Y-321128D01*
X-13854Y-318654D01*
X-16328Y-316623D01*
X-19151Y-315114D01*
X-22214Y-314185D01*
X-25400Y-313871D01*
D02*
G37*
G36*
X-520700D02*
X-523886Y-314185D01*
X-526949Y-315114D01*
X-529772Y-316623D01*
X-532246Y-318654D01*
X-534277Y-321128D01*
X-535786Y-323951D01*
X-536715Y-327014D01*
X-537029Y-330200D01*
X-536715Y-333386D01*
X-535786Y-336449D01*
X-534277Y-339272D01*
X-532246Y-341746D01*
X-529772Y-343777D01*
X-526949Y-345286D01*
X-523886Y-346215D01*
X-520700Y-346529D01*
X-517514Y-346215D01*
X-514451Y-345286D01*
X-511628Y-343777D01*
X-509154Y-341746D01*
X-507123Y-339272D01*
X-505614Y-336449D01*
X-504685Y-333386D01*
X-504371Y-330200D01*
X-504685Y-327014D01*
X-505614Y-323951D01*
X-507123Y-321128D01*
X-509154Y-318654D01*
X-511628Y-316623D01*
X-514451Y-315114D01*
X-517514Y-314185D01*
X-520700Y-313871D01*
D02*
G37*
G36*
X-571500Y-321131D02*
X-572866Y-321403D01*
X-574023Y-322177D01*
X-574797Y-323334D01*
X-575069Y-324700D01*
X-574797Y-326066D01*
X-574239Y-326900D01*
X-574658Y-328150D01*
X-575750D01*
Y-343398D01*
X-575919Y-344250D01*
Y-347156D01*
X-575979Y-347215D01*
X-577089Y-346942D01*
X-577310Y-346750D01*
Y-346750D01*
X-578660D01*
Y-338670D01*
X-584200D01*
X-589740D01*
Y-347940D01*
X-587390D01*
Y-350520D01*
X-582350D01*
Y-351790D01*
X-581080D01*
Y-356830D01*
X-577310D01*
Y-356703D01*
X-577100Y-355540D01*
X-576060Y-355540D01*
X-569600D01*
Y-348040D01*
X-570781D01*
Y-346650D01*
X-567250D01*
Y-328150D01*
X-568342D01*
X-568761Y-326900D01*
X-568203Y-326066D01*
X-567931Y-324700D01*
X-568203Y-323334D01*
X-568977Y-322177D01*
X-570134Y-321403D01*
X-571500Y-321131D01*
D02*
G37*
G36*
X-635219Y-337420D02*
X-646430D01*
Y-348631D01*
X-644426Y-348367D01*
X-641376Y-347104D01*
X-638756Y-345094D01*
X-636746Y-342474D01*
X-635483Y-339424D01*
X-635219Y-337420D01*
D02*
G37*
G36*
X-648970D02*
X-660181D01*
X-659917Y-339424D01*
X-658654Y-342474D01*
X-656644Y-345094D01*
X-654024Y-347104D01*
X-650974Y-348367D01*
X-648970Y-348631D01*
Y-337420D01*
D02*
G37*
G36*
X-583620Y-353060D02*
X-587390D01*
Y-356830D01*
X-583620D01*
Y-353060D01*
D02*
G37*
G36*
X-554550Y-328150D02*
X-563050D01*
Y-346650D01*
X-561369D01*
Y-349250D01*
X-561174Y-350233D01*
X-560617Y-351067D01*
X-554267Y-357417D01*
X-553433Y-357974D01*
X-552645Y-358131D01*
X-552768Y-359381D01*
X-589486D01*
X-594331Y-354536D01*
Y-346650D01*
X-592650D01*
Y-328150D01*
X-601150D01*
Y-346650D01*
X-599469D01*
Y-355600D01*
X-599274Y-356583D01*
X-598717Y-357417D01*
X-592367Y-363767D01*
X-591533Y-364324D01*
X-590550Y-364519D01*
X-186484D01*
X-180369Y-370634D01*
Y-372593D01*
X-182213Y-373357D01*
X-184041Y-374759D01*
X-185443Y-376587D01*
X-186325Y-378716D01*
X-186625Y-381000D01*
X-186325Y-383284D01*
X-185443Y-385413D01*
X-184041Y-387241D01*
X-182213Y-388643D01*
X-180084Y-389525D01*
X-177800Y-389826D01*
X-175516Y-389525D01*
X-173387Y-388643D01*
X-171559Y-387241D01*
X-170157Y-385413D01*
X-169275Y-383284D01*
X-168974Y-381000D01*
X-169275Y-378716D01*
X-170157Y-376587D01*
X-171559Y-374759D01*
X-173387Y-373357D01*
X-175231Y-372593D01*
Y-369570D01*
X-175426Y-368587D01*
X-175983Y-367753D01*
X-183603Y-360133D01*
X-184437Y-359576D01*
X-185225Y-359419D01*
X-185102Y-358169D01*
X-182674D01*
X-167669Y-373174D01*
Y-393700D01*
X-167474Y-394683D01*
X-166917Y-395517D01*
X-160161Y-402272D01*
X-160925Y-404116D01*
X-161225Y-406400D01*
X-160925Y-408684D01*
X-160043Y-410813D01*
X-158641Y-412641D01*
X-156813Y-414043D01*
X-154684Y-414925D01*
X-152400Y-415225D01*
X-150116Y-414925D01*
X-147987Y-414043D01*
X-146159Y-412641D01*
X-144757Y-410813D01*
X-143875Y-408684D01*
X-143574Y-406400D01*
X-143875Y-404116D01*
X-144757Y-401987D01*
X-146159Y-400159D01*
X-147987Y-398757D01*
X-150116Y-397875D01*
X-152400Y-397575D01*
X-154684Y-397875D01*
X-156528Y-398639D01*
X-162531Y-392636D01*
Y-372110D01*
X-162726Y-371127D01*
X-163283Y-370293D01*
X-179793Y-353783D01*
X-180627Y-353226D01*
X-181610Y-353031D01*
X-551386D01*
X-556231Y-348186D01*
Y-346650D01*
X-554550D01*
Y-328150D01*
D02*
G37*
G36*
X-582930Y-371041D02*
Y-379730D01*
X-574241D01*
X-574418Y-378379D01*
X-575430Y-375937D01*
X-577039Y-373839D01*
X-579137Y-372230D01*
X-581579Y-371218D01*
X-582930Y-371041D01*
D02*
G37*
G36*
X-585470D02*
X-586821Y-371218D01*
X-589263Y-372230D01*
X-591361Y-373839D01*
X-592970Y-375937D01*
X-593982Y-378379D01*
X-594159Y-379730D01*
X-585470D01*
Y-371041D01*
D02*
G37*
G36*
X-25400Y-372174D02*
X-27684Y-372475D01*
X-29813Y-373357D01*
X-31641Y-374759D01*
X-33043Y-376587D01*
X-33925Y-378716D01*
X-34225Y-381000D01*
X-33925Y-383284D01*
X-33043Y-385413D01*
X-31641Y-387241D01*
X-29813Y-388643D01*
X-27684Y-389525D01*
X-25400Y-389826D01*
X-23116Y-389525D01*
X-20987Y-388643D01*
X-19159Y-387241D01*
X-17757Y-385413D01*
X-16875Y-383284D01*
X-16574Y-381000D01*
X-16875Y-378716D01*
X-17757Y-376587D01*
X-19159Y-374759D01*
X-20987Y-373357D01*
X-23116Y-372475D01*
X-25400Y-372174D01*
D02*
G37*
G36*
X-50800D02*
X-53084Y-372475D01*
X-55213Y-373357D01*
X-57041Y-374759D01*
X-58443Y-376587D01*
X-59325Y-378716D01*
X-59626Y-381000D01*
X-59325Y-383284D01*
X-58443Y-385413D01*
X-57041Y-387241D01*
X-55213Y-388643D01*
X-53084Y-389525D01*
X-50800Y-389826D01*
X-48516Y-389525D01*
X-46387Y-388643D01*
X-44559Y-387241D01*
X-43157Y-385413D01*
X-42275Y-383284D01*
X-41975Y-381000D01*
X-42275Y-378716D01*
X-43157Y-376587D01*
X-44559Y-374759D01*
X-46387Y-373357D01*
X-48516Y-372475D01*
X-50800Y-372174D01*
D02*
G37*
G36*
X-76200D02*
X-78484Y-372475D01*
X-80613Y-373357D01*
X-82441Y-374759D01*
X-83843Y-376587D01*
X-84725Y-378716D01*
X-85026Y-381000D01*
X-84725Y-383284D01*
X-83843Y-385413D01*
X-82441Y-387241D01*
X-80613Y-388643D01*
X-78484Y-389525D01*
X-76200Y-389826D01*
X-73916Y-389525D01*
X-71787Y-388643D01*
X-69959Y-387241D01*
X-68557Y-385413D01*
X-67675Y-383284D01*
X-67375Y-381000D01*
X-67675Y-378716D01*
X-68557Y-376587D01*
X-69959Y-374759D01*
X-71787Y-373357D01*
X-73916Y-372475D01*
X-76200Y-372174D01*
D02*
G37*
G36*
X-101600D02*
X-103884Y-372475D01*
X-106013Y-373357D01*
X-107841Y-374759D01*
X-109243Y-376587D01*
X-110125Y-378716D01*
X-110426Y-381000D01*
X-110125Y-383284D01*
X-109243Y-385413D01*
X-107841Y-387241D01*
X-106013Y-388643D01*
X-103884Y-389525D01*
X-101600Y-389826D01*
X-99316Y-389525D01*
X-97187Y-388643D01*
X-95359Y-387241D01*
X-93957Y-385413D01*
X-93075Y-383284D01*
X-92774Y-381000D01*
X-93075Y-378716D01*
X-93957Y-376587D01*
X-95359Y-374759D01*
X-97187Y-373357D01*
X-99316Y-372475D01*
X-101600Y-372174D01*
D02*
G37*
G36*
X-127000D02*
X-129284Y-372475D01*
X-131413Y-373357D01*
X-133241Y-374759D01*
X-134643Y-376587D01*
X-135525Y-378716D01*
X-135826Y-381000D01*
X-135525Y-383284D01*
X-134643Y-385413D01*
X-133241Y-387241D01*
X-131413Y-388643D01*
X-129284Y-389525D01*
X-127000Y-389826D01*
X-124716Y-389525D01*
X-122587Y-388643D01*
X-120759Y-387241D01*
X-119357Y-385413D01*
X-118475Y-383284D01*
X-118174Y-381000D01*
X-118475Y-378716D01*
X-119357Y-376587D01*
X-120759Y-374759D01*
X-122587Y-373357D01*
X-124716Y-372475D01*
X-127000Y-372174D01*
D02*
G37*
G36*
X-152400D02*
X-154684Y-372475D01*
X-156813Y-373357D01*
X-158641Y-374759D01*
X-160043Y-376587D01*
X-160925Y-378716D01*
X-161225Y-381000D01*
X-160925Y-383284D01*
X-160043Y-385413D01*
X-158641Y-387241D01*
X-156813Y-388643D01*
X-154684Y-389525D01*
X-152400Y-389826D01*
X-150116Y-389525D01*
X-147987Y-388643D01*
X-146159Y-387241D01*
X-144757Y-385413D01*
X-143875Y-383284D01*
X-143574Y-381000D01*
X-143875Y-378716D01*
X-144757Y-376587D01*
X-146159Y-374759D01*
X-147987Y-373357D01*
X-150116Y-372475D01*
X-152400Y-372174D01*
D02*
G37*
G36*
X-203200D02*
X-205484Y-372475D01*
X-207613Y-373357D01*
X-209441Y-374759D01*
X-210843Y-376587D01*
X-211725Y-378716D01*
X-212026Y-381000D01*
X-211725Y-383284D01*
X-210843Y-385413D01*
X-209441Y-387241D01*
X-207613Y-388643D01*
X-205484Y-389525D01*
X-203200Y-389826D01*
X-200916Y-389525D01*
X-198787Y-388643D01*
X-196959Y-387241D01*
X-195557Y-385413D01*
X-194675Y-383284D01*
X-194375Y-381000D01*
X-194675Y-378716D01*
X-195557Y-376587D01*
X-196959Y-374759D01*
X-198787Y-373357D01*
X-200916Y-372475D01*
X-203200Y-372174D01*
D02*
G37*
G36*
X-228600D02*
X-230884Y-372475D01*
X-233013Y-373357D01*
X-234841Y-374759D01*
X-236243Y-376587D01*
X-237125Y-378716D01*
X-237425Y-381000D01*
X-237125Y-383284D01*
X-236243Y-385413D01*
X-234841Y-387241D01*
X-233013Y-388643D01*
X-230884Y-389525D01*
X-228600Y-389826D01*
X-226316Y-389525D01*
X-224187Y-388643D01*
X-222359Y-387241D01*
X-220957Y-385413D01*
X-220075Y-383284D01*
X-219774Y-381000D01*
X-220075Y-378716D01*
X-220957Y-376587D01*
X-222359Y-374759D01*
X-224187Y-373357D01*
X-226316Y-372475D01*
X-228600Y-372174D01*
D02*
G37*
G36*
X-254000D02*
X-256284Y-372475D01*
X-258413Y-373357D01*
X-260241Y-374759D01*
X-261643Y-376587D01*
X-262525Y-378716D01*
X-262826Y-381000D01*
X-262525Y-383284D01*
X-261643Y-385413D01*
X-260241Y-387241D01*
X-258413Y-388643D01*
X-256284Y-389525D01*
X-254000Y-389826D01*
X-251716Y-389525D01*
X-249587Y-388643D01*
X-247759Y-387241D01*
X-246357Y-385413D01*
X-245475Y-383284D01*
X-245175Y-381000D01*
X-245475Y-378716D01*
X-246357Y-376587D01*
X-247759Y-374759D01*
X-249587Y-373357D01*
X-251716Y-372475D01*
X-254000Y-372174D01*
D02*
G37*
G36*
X-279400D02*
X-281684Y-372475D01*
X-283813Y-373357D01*
X-285641Y-374759D01*
X-287043Y-376587D01*
X-287925Y-378716D01*
X-288225Y-381000D01*
X-287925Y-383284D01*
X-287043Y-385413D01*
X-285641Y-387241D01*
X-283813Y-388643D01*
X-281684Y-389525D01*
X-279400Y-389826D01*
X-277116Y-389525D01*
X-274987Y-388643D01*
X-273159Y-387241D01*
X-271757Y-385413D01*
X-270875Y-383284D01*
X-270574Y-381000D01*
X-270875Y-378716D01*
X-271757Y-376587D01*
X-273159Y-374759D01*
X-274987Y-373357D01*
X-277116Y-372475D01*
X-279400Y-372174D01*
D02*
G37*
G36*
X-304800D02*
X-307084Y-372475D01*
X-309213Y-373357D01*
X-311041Y-374759D01*
X-312443Y-376587D01*
X-313325Y-378716D01*
X-313626Y-381000D01*
X-313325Y-383284D01*
X-312443Y-385413D01*
X-311041Y-387241D01*
X-309213Y-388643D01*
X-307084Y-389525D01*
X-304800Y-389826D01*
X-302516Y-389525D01*
X-300387Y-388643D01*
X-298559Y-387241D01*
X-297157Y-385413D01*
X-296275Y-383284D01*
X-295975Y-381000D01*
X-296275Y-378716D01*
X-297157Y-376587D01*
X-298559Y-374759D01*
X-300387Y-373357D01*
X-302516Y-372475D01*
X-304800Y-372174D01*
D02*
G37*
G36*
X-330200D02*
X-332484Y-372475D01*
X-334613Y-373357D01*
X-336441Y-374759D01*
X-337843Y-376587D01*
X-338725Y-378716D01*
X-339025Y-381000D01*
X-338725Y-383284D01*
X-337843Y-385413D01*
X-336441Y-387241D01*
X-334613Y-388643D01*
X-332484Y-389525D01*
X-330200Y-389826D01*
X-327916Y-389525D01*
X-325787Y-388643D01*
X-323959Y-387241D01*
X-322557Y-385413D01*
X-321675Y-383284D01*
X-321375Y-381000D01*
X-321675Y-378716D01*
X-322557Y-376587D01*
X-323959Y-374759D01*
X-325787Y-373357D01*
X-327916Y-372475D01*
X-330200Y-372174D01*
D02*
G37*
G36*
X-355600D02*
X-357884Y-372475D01*
X-360013Y-373357D01*
X-361841Y-374759D01*
X-363243Y-376587D01*
X-364125Y-378716D01*
X-364426Y-381000D01*
X-364125Y-383284D01*
X-363243Y-385413D01*
X-361841Y-387241D01*
X-360013Y-388643D01*
X-357884Y-389525D01*
X-355600Y-389826D01*
X-353316Y-389525D01*
X-351187Y-388643D01*
X-349359Y-387241D01*
X-347957Y-385413D01*
X-347075Y-383284D01*
X-346774Y-381000D01*
X-347075Y-378716D01*
X-347957Y-376587D01*
X-349359Y-374759D01*
X-351187Y-373357D01*
X-353316Y-372475D01*
X-355600Y-372174D01*
D02*
G37*
G36*
X-381000D02*
X-383284Y-372475D01*
X-385413Y-373357D01*
X-387241Y-374759D01*
X-388643Y-376587D01*
X-389525Y-378716D01*
X-389826Y-381000D01*
X-389525Y-383284D01*
X-388643Y-385413D01*
X-387241Y-387241D01*
X-385413Y-388643D01*
X-383284Y-389525D01*
X-381000Y-389826D01*
X-378716Y-389525D01*
X-376587Y-388643D01*
X-374759Y-387241D01*
X-373357Y-385413D01*
X-372475Y-383284D01*
X-372174Y-381000D01*
X-372475Y-378716D01*
X-373357Y-376587D01*
X-374759Y-374759D01*
X-376587Y-373357D01*
X-378716Y-372475D01*
X-381000Y-372174D01*
D02*
G37*
G36*
X-406400D02*
X-408684Y-372475D01*
X-410813Y-373357D01*
X-412641Y-374759D01*
X-414043Y-376587D01*
X-414925Y-378716D01*
X-415225Y-381000D01*
X-414925Y-383284D01*
X-414043Y-385413D01*
X-412641Y-387241D01*
X-410813Y-388643D01*
X-408684Y-389525D01*
X-406400Y-389826D01*
X-404116Y-389525D01*
X-401987Y-388643D01*
X-400159Y-387241D01*
X-398757Y-385413D01*
X-397875Y-383284D01*
X-397575Y-381000D01*
X-397875Y-378716D01*
X-398757Y-376587D01*
X-400159Y-374759D01*
X-401987Y-373357D01*
X-404116Y-372475D01*
X-406400Y-372174D01*
D02*
G37*
G36*
X-431800D02*
X-434084Y-372475D01*
X-436213Y-373357D01*
X-438041Y-374759D01*
X-439443Y-376587D01*
X-440325Y-378716D01*
X-440625Y-381000D01*
X-440325Y-383284D01*
X-439443Y-385413D01*
X-438041Y-387241D01*
X-436213Y-388643D01*
X-434084Y-389525D01*
X-431800Y-389826D01*
X-429516Y-389525D01*
X-427387Y-388643D01*
X-425559Y-387241D01*
X-424157Y-385413D01*
X-423275Y-383284D01*
X-422975Y-381000D01*
X-423275Y-378716D01*
X-424157Y-376587D01*
X-425559Y-374759D01*
X-427387Y-373357D01*
X-429516Y-372475D01*
X-431800Y-372174D01*
D02*
G37*
G36*
X-457200D02*
X-459484Y-372475D01*
X-461613Y-373357D01*
X-463441Y-374759D01*
X-464843Y-376587D01*
X-465725Y-378716D01*
X-466026Y-381000D01*
X-465725Y-383284D01*
X-464843Y-385413D01*
X-463441Y-387241D01*
X-461613Y-388643D01*
X-459484Y-389525D01*
X-457200Y-389826D01*
X-454916Y-389525D01*
X-452787Y-388643D01*
X-450959Y-387241D01*
X-449557Y-385413D01*
X-448675Y-383284D01*
X-448374Y-381000D01*
X-448675Y-378716D01*
X-449557Y-376587D01*
X-450959Y-374759D01*
X-452787Y-373357D01*
X-454916Y-372475D01*
X-457200Y-372174D01*
D02*
G37*
G36*
X-482600D02*
X-484884Y-372475D01*
X-487013Y-373357D01*
X-488841Y-374759D01*
X-490243Y-376587D01*
X-491125Y-378716D01*
X-491426Y-381000D01*
X-491125Y-383284D01*
X-490243Y-385413D01*
X-488841Y-387241D01*
X-487013Y-388643D01*
X-484884Y-389525D01*
X-482600Y-389826D01*
X-480316Y-389525D01*
X-478187Y-388643D01*
X-476359Y-387241D01*
X-474957Y-385413D01*
X-474075Y-383284D01*
X-473774Y-381000D01*
X-474075Y-378716D01*
X-474957Y-376587D01*
X-476359Y-374759D01*
X-478187Y-373357D01*
X-480316Y-372475D01*
X-482600Y-372174D01*
D02*
G37*
G36*
X-508000D02*
X-510284Y-372475D01*
X-512413Y-373357D01*
X-514241Y-374759D01*
X-515643Y-376587D01*
X-516525Y-378716D01*
X-516825Y-381000D01*
X-516525Y-383284D01*
X-515643Y-385413D01*
X-514241Y-387241D01*
X-512413Y-388643D01*
X-510284Y-389525D01*
X-508000Y-389826D01*
X-505716Y-389525D01*
X-503587Y-388643D01*
X-501759Y-387241D01*
X-500357Y-385413D01*
X-499475Y-383284D01*
X-499174Y-381000D01*
X-499475Y-378716D01*
X-500357Y-376587D01*
X-501759Y-374759D01*
X-503587Y-373357D01*
X-505716Y-372475D01*
X-508000Y-372174D01*
D02*
G37*
G36*
X-533400D02*
X-535684Y-372475D01*
X-537813Y-373357D01*
X-539641Y-374759D01*
X-541043Y-376587D01*
X-541925Y-378716D01*
X-542225Y-381000D01*
X-541925Y-383284D01*
X-541043Y-385413D01*
X-539641Y-387241D01*
X-537813Y-388643D01*
X-535684Y-389525D01*
X-533400Y-389826D01*
X-531116Y-389525D01*
X-528987Y-388643D01*
X-527159Y-387241D01*
X-525757Y-385413D01*
X-524875Y-383284D01*
X-524575Y-381000D01*
X-524875Y-378716D01*
X-525757Y-376587D01*
X-527159Y-374759D01*
X-528987Y-373357D01*
X-531116Y-372475D01*
X-533400Y-372174D01*
D02*
G37*
G36*
X-558800D02*
X-561084Y-372475D01*
X-563213Y-373357D01*
X-565041Y-374759D01*
X-566443Y-376587D01*
X-567325Y-378716D01*
X-567626Y-381000D01*
X-567325Y-383284D01*
X-566443Y-385413D01*
X-565041Y-387241D01*
X-563213Y-388643D01*
X-561084Y-389525D01*
X-558800Y-389826D01*
X-556516Y-389525D01*
X-554387Y-388643D01*
X-552559Y-387241D01*
X-551157Y-385413D01*
X-550275Y-383284D01*
X-549975Y-381000D01*
X-550275Y-378716D01*
X-551157Y-376587D01*
X-552559Y-374759D01*
X-554387Y-373357D01*
X-556516Y-372475D01*
X-558800Y-372174D01*
D02*
G37*
G36*
X-609600D02*
X-611884Y-372475D01*
X-614013Y-373357D01*
X-615841Y-374759D01*
X-617243Y-376587D01*
X-618125Y-378716D01*
X-618425Y-381000D01*
X-618125Y-383284D01*
X-617243Y-385413D01*
X-615841Y-387241D01*
X-614013Y-388643D01*
X-611884Y-389525D01*
X-609600Y-389826D01*
X-607316Y-389525D01*
X-605187Y-388643D01*
X-603359Y-387241D01*
X-601957Y-385413D01*
X-601075Y-383284D01*
X-600774Y-381000D01*
X-601075Y-378716D01*
X-601957Y-376587D01*
X-603359Y-374759D01*
X-605187Y-373357D01*
X-607316Y-372475D01*
X-609600Y-372174D01*
D02*
G37*
G36*
X-635000D02*
X-637284Y-372475D01*
X-639413Y-373357D01*
X-641241Y-374759D01*
X-642643Y-376587D01*
X-643525Y-378716D01*
X-643826Y-381000D01*
X-643525Y-383284D01*
X-642643Y-385413D01*
X-641241Y-387241D01*
X-639413Y-388643D01*
X-637284Y-389525D01*
X-635000Y-389826D01*
X-632716Y-389525D01*
X-630587Y-388643D01*
X-628759Y-387241D01*
X-627357Y-385413D01*
X-626475Y-383284D01*
X-626175Y-381000D01*
X-626475Y-378716D01*
X-627357Y-376587D01*
X-628759Y-374759D01*
X-630587Y-373357D01*
X-632716Y-372475D01*
X-635000Y-372174D01*
D02*
G37*
G36*
X-660400D02*
X-662684Y-372475D01*
X-664813Y-373357D01*
X-666641Y-374759D01*
X-668043Y-376587D01*
X-668925Y-378716D01*
X-669225Y-381000D01*
X-668925Y-383284D01*
X-668043Y-385413D01*
X-666641Y-387241D01*
X-664813Y-388643D01*
X-662684Y-389525D01*
X-660400Y-389826D01*
X-658116Y-389525D01*
X-655987Y-388643D01*
X-654159Y-387241D01*
X-652757Y-385413D01*
X-651875Y-383284D01*
X-651574Y-381000D01*
X-651875Y-378716D01*
X-652757Y-376587D01*
X-654159Y-374759D01*
X-655987Y-373357D01*
X-658116Y-372475D01*
X-660400Y-372174D01*
D02*
G37*
G36*
X-685800D02*
X-688084Y-372475D01*
X-690213Y-373357D01*
X-692041Y-374759D01*
X-693443Y-376587D01*
X-694325Y-378716D01*
X-694625Y-381000D01*
X-694325Y-383284D01*
X-693443Y-385413D01*
X-692041Y-387241D01*
X-690213Y-388643D01*
X-688084Y-389525D01*
X-685800Y-389826D01*
X-683516Y-389525D01*
X-681387Y-388643D01*
X-679559Y-387241D01*
X-678157Y-385413D01*
X-677275Y-383284D01*
X-676974Y-381000D01*
X-677275Y-378716D01*
X-678157Y-376587D01*
X-679559Y-374759D01*
X-681387Y-373357D01*
X-683516Y-372475D01*
X-685800Y-372174D01*
D02*
G37*
G36*
X-711200D02*
X-713484Y-372475D01*
X-715613Y-373357D01*
X-717441Y-374759D01*
X-718843Y-376587D01*
X-719725Y-378716D01*
X-720025Y-381000D01*
X-719725Y-383284D01*
X-718843Y-385413D01*
X-717441Y-387241D01*
X-715613Y-388643D01*
X-713484Y-389525D01*
X-711200Y-389826D01*
X-708916Y-389525D01*
X-706787Y-388643D01*
X-704959Y-387241D01*
X-703557Y-385413D01*
X-702675Y-383284D01*
X-702374Y-381000D01*
X-702675Y-378716D01*
X-703557Y-376587D01*
X-704959Y-374759D01*
X-706787Y-373357D01*
X-708916Y-372475D01*
X-711200Y-372174D01*
D02*
G37*
G36*
X-736600D02*
X-738884Y-372475D01*
X-741013Y-373357D01*
X-742841Y-374759D01*
X-744243Y-376587D01*
X-745125Y-378716D01*
X-745425Y-381000D01*
X-745125Y-383284D01*
X-744243Y-385413D01*
X-742841Y-387241D01*
X-741013Y-388643D01*
X-738884Y-389525D01*
X-736600Y-389826D01*
X-734316Y-389525D01*
X-732187Y-388643D01*
X-730359Y-387241D01*
X-728957Y-385413D01*
X-728075Y-383284D01*
X-727775Y-381000D01*
X-728075Y-378716D01*
X-728957Y-376587D01*
X-730359Y-374759D01*
X-732187Y-373357D01*
X-734316Y-372475D01*
X-736600Y-372174D01*
D02*
G37*
G36*
X-574241Y-382270D02*
X-582930D01*
Y-390959D01*
X-581579Y-390782D01*
X-579137Y-389770D01*
X-577039Y-388161D01*
X-575430Y-386063D01*
X-574418Y-383621D01*
X-574241Y-382270D01*
D02*
G37*
G36*
X-585470D02*
X-594159D01*
X-593982Y-383621D01*
X-592970Y-386063D01*
X-591361Y-388161D01*
X-589263Y-389770D01*
X-586821Y-390782D01*
X-585470Y-390959D01*
Y-382270D01*
D02*
G37*
G36*
X-582930Y-396441D02*
Y-405130D01*
X-574241D01*
X-574418Y-403779D01*
X-575430Y-401337D01*
X-577039Y-399239D01*
X-579137Y-397630D01*
X-581579Y-396618D01*
X-582930Y-396441D01*
D02*
G37*
G36*
X-585470D02*
X-586821Y-396618D01*
X-589263Y-397630D01*
X-591361Y-399239D01*
X-592970Y-401337D01*
X-593982Y-403779D01*
X-594159Y-405130D01*
X-585470D01*
Y-396441D01*
D02*
G37*
G36*
X-25400Y-397575D02*
X-27684Y-397875D01*
X-29813Y-398757D01*
X-31641Y-400159D01*
X-33043Y-401987D01*
X-33925Y-404116D01*
X-34225Y-406400D01*
X-33925Y-408684D01*
X-33043Y-410813D01*
X-31641Y-412641D01*
X-29813Y-414043D01*
X-27684Y-414925D01*
X-25400Y-415225D01*
X-23116Y-414925D01*
X-20987Y-414043D01*
X-19159Y-412641D01*
X-17757Y-410813D01*
X-16875Y-408684D01*
X-16574Y-406400D01*
X-16875Y-404116D01*
X-17757Y-401987D01*
X-19159Y-400159D01*
X-20987Y-398757D01*
X-23116Y-397875D01*
X-25400Y-397575D01*
D02*
G37*
G36*
X-50800D02*
X-53084Y-397875D01*
X-55213Y-398757D01*
X-57041Y-400159D01*
X-58443Y-401987D01*
X-59325Y-404116D01*
X-59626Y-406400D01*
X-59325Y-408684D01*
X-58443Y-410813D01*
X-57041Y-412641D01*
X-55213Y-414043D01*
X-53084Y-414925D01*
X-50800Y-415225D01*
X-48516Y-414925D01*
X-46387Y-414043D01*
X-44559Y-412641D01*
X-43157Y-410813D01*
X-42275Y-408684D01*
X-41975Y-406400D01*
X-42275Y-404116D01*
X-43157Y-401987D01*
X-44559Y-400159D01*
X-46387Y-398757D01*
X-48516Y-397875D01*
X-50800Y-397575D01*
D02*
G37*
G36*
X-76200D02*
X-78484Y-397875D01*
X-80613Y-398757D01*
X-82441Y-400159D01*
X-83843Y-401987D01*
X-84725Y-404116D01*
X-85026Y-406400D01*
X-84725Y-408684D01*
X-83843Y-410813D01*
X-82441Y-412641D01*
X-80613Y-414043D01*
X-78484Y-414925D01*
X-76200Y-415225D01*
X-73916Y-414925D01*
X-71787Y-414043D01*
X-69959Y-412641D01*
X-68557Y-410813D01*
X-67675Y-408684D01*
X-67375Y-406400D01*
X-67675Y-404116D01*
X-68557Y-401987D01*
X-69959Y-400159D01*
X-71787Y-398757D01*
X-73916Y-397875D01*
X-76200Y-397575D01*
D02*
G37*
G36*
X-101600D02*
X-103884Y-397875D01*
X-106013Y-398757D01*
X-107841Y-400159D01*
X-109243Y-401987D01*
X-110125Y-404116D01*
X-110426Y-406400D01*
X-110125Y-408684D01*
X-109243Y-410813D01*
X-107841Y-412641D01*
X-106013Y-414043D01*
X-103884Y-414925D01*
X-101600Y-415225D01*
X-99316Y-414925D01*
X-97187Y-414043D01*
X-95359Y-412641D01*
X-93957Y-410813D01*
X-93075Y-408684D01*
X-92774Y-406400D01*
X-93075Y-404116D01*
X-93957Y-401987D01*
X-95359Y-400159D01*
X-97187Y-398757D01*
X-99316Y-397875D01*
X-101600Y-397575D01*
D02*
G37*
G36*
X-127000D02*
X-129284Y-397875D01*
X-131413Y-398757D01*
X-133241Y-400159D01*
X-134643Y-401987D01*
X-135525Y-404116D01*
X-135826Y-406400D01*
X-135525Y-408684D01*
X-134643Y-410813D01*
X-133241Y-412641D01*
X-131413Y-414043D01*
X-129284Y-414925D01*
X-127000Y-415225D01*
X-124716Y-414925D01*
X-122587Y-414043D01*
X-120759Y-412641D01*
X-119357Y-410813D01*
X-118475Y-408684D01*
X-118174Y-406400D01*
X-118475Y-404116D01*
X-119357Y-401987D01*
X-120759Y-400159D01*
X-122587Y-398757D01*
X-124716Y-397875D01*
X-127000Y-397575D01*
D02*
G37*
G36*
X-177800D02*
X-180084Y-397875D01*
X-182213Y-398757D01*
X-184041Y-400159D01*
X-185443Y-401987D01*
X-186325Y-404116D01*
X-186625Y-406400D01*
X-186325Y-408684D01*
X-185443Y-410813D01*
X-184041Y-412641D01*
X-182213Y-414043D01*
X-180084Y-414925D01*
X-177800Y-415225D01*
X-175516Y-414925D01*
X-173387Y-414043D01*
X-171559Y-412641D01*
X-170157Y-410813D01*
X-169275Y-408684D01*
X-168974Y-406400D01*
X-169275Y-404116D01*
X-170157Y-401987D01*
X-171559Y-400159D01*
X-173387Y-398757D01*
X-175516Y-397875D01*
X-177800Y-397575D01*
D02*
G37*
G36*
X-203200D02*
X-205484Y-397875D01*
X-207613Y-398757D01*
X-209441Y-400159D01*
X-210843Y-401987D01*
X-211725Y-404116D01*
X-212026Y-406400D01*
X-211725Y-408684D01*
X-210843Y-410813D01*
X-209441Y-412641D01*
X-207613Y-414043D01*
X-205484Y-414925D01*
X-203200Y-415225D01*
X-200916Y-414925D01*
X-198787Y-414043D01*
X-196959Y-412641D01*
X-195557Y-410813D01*
X-194675Y-408684D01*
X-194375Y-406400D01*
X-194675Y-404116D01*
X-195557Y-401987D01*
X-196959Y-400159D01*
X-198787Y-398757D01*
X-200916Y-397875D01*
X-203200Y-397575D01*
D02*
G37*
G36*
X-228600D02*
X-230884Y-397875D01*
X-233013Y-398757D01*
X-234841Y-400159D01*
X-236243Y-401987D01*
X-237125Y-404116D01*
X-237425Y-406400D01*
X-237125Y-408684D01*
X-236243Y-410813D01*
X-234841Y-412641D01*
X-233013Y-414043D01*
X-230884Y-414925D01*
X-228600Y-415225D01*
X-226316Y-414925D01*
X-224187Y-414043D01*
X-222359Y-412641D01*
X-220957Y-410813D01*
X-220075Y-408684D01*
X-219774Y-406400D01*
X-220075Y-404116D01*
X-220957Y-401987D01*
X-222359Y-400159D01*
X-224187Y-398757D01*
X-226316Y-397875D01*
X-228600Y-397575D01*
D02*
G37*
G36*
X-254000D02*
X-256284Y-397875D01*
X-258413Y-398757D01*
X-260241Y-400159D01*
X-261643Y-401987D01*
X-262525Y-404116D01*
X-262826Y-406400D01*
X-262525Y-408684D01*
X-261643Y-410813D01*
X-260241Y-412641D01*
X-258413Y-414043D01*
X-256284Y-414925D01*
X-254000Y-415225D01*
X-251716Y-414925D01*
X-249587Y-414043D01*
X-247759Y-412641D01*
X-246357Y-410813D01*
X-245475Y-408684D01*
X-245175Y-406400D01*
X-245475Y-404116D01*
X-246357Y-401987D01*
X-247759Y-400159D01*
X-249587Y-398757D01*
X-251716Y-397875D01*
X-254000Y-397575D01*
D02*
G37*
G36*
X-279400D02*
X-281684Y-397875D01*
X-283813Y-398757D01*
X-285641Y-400159D01*
X-287043Y-401987D01*
X-287925Y-404116D01*
X-288225Y-406400D01*
X-287925Y-408684D01*
X-287043Y-410813D01*
X-285641Y-412641D01*
X-283813Y-414043D01*
X-281684Y-414925D01*
X-279400Y-415225D01*
X-277116Y-414925D01*
X-274987Y-414043D01*
X-273159Y-412641D01*
X-271757Y-410813D01*
X-270875Y-408684D01*
X-270574Y-406400D01*
X-270875Y-404116D01*
X-271757Y-401987D01*
X-273159Y-400159D01*
X-274987Y-398757D01*
X-277116Y-397875D01*
X-279400Y-397575D01*
D02*
G37*
G36*
X-304800D02*
X-307084Y-397875D01*
X-309213Y-398757D01*
X-311041Y-400159D01*
X-312443Y-401987D01*
X-313325Y-404116D01*
X-313626Y-406400D01*
X-313325Y-408684D01*
X-312443Y-410813D01*
X-311041Y-412641D01*
X-309213Y-414043D01*
X-307084Y-414925D01*
X-304800Y-415225D01*
X-302516Y-414925D01*
X-300387Y-414043D01*
X-298559Y-412641D01*
X-297157Y-410813D01*
X-296275Y-408684D01*
X-295975Y-406400D01*
X-296275Y-404116D01*
X-297157Y-401987D01*
X-298559Y-400159D01*
X-300387Y-398757D01*
X-302516Y-397875D01*
X-304800Y-397575D01*
D02*
G37*
G36*
X-330200D02*
X-332484Y-397875D01*
X-334613Y-398757D01*
X-336441Y-400159D01*
X-337843Y-401987D01*
X-338725Y-404116D01*
X-339025Y-406400D01*
X-338725Y-408684D01*
X-337843Y-410813D01*
X-336441Y-412641D01*
X-334613Y-414043D01*
X-332484Y-414925D01*
X-330200Y-415225D01*
X-327916Y-414925D01*
X-325787Y-414043D01*
X-323959Y-412641D01*
X-322557Y-410813D01*
X-321675Y-408684D01*
X-321375Y-406400D01*
X-321675Y-404116D01*
X-322557Y-401987D01*
X-323959Y-400159D01*
X-325787Y-398757D01*
X-327916Y-397875D01*
X-330200Y-397575D01*
D02*
G37*
G36*
X-355600D02*
X-357884Y-397875D01*
X-360013Y-398757D01*
X-361841Y-400159D01*
X-363243Y-401987D01*
X-364125Y-404116D01*
X-364426Y-406400D01*
X-364125Y-408684D01*
X-363243Y-410813D01*
X-361841Y-412641D01*
X-360013Y-414043D01*
X-357884Y-414925D01*
X-355600Y-415225D01*
X-353316Y-414925D01*
X-351187Y-414043D01*
X-349359Y-412641D01*
X-347957Y-410813D01*
X-347075Y-408684D01*
X-346774Y-406400D01*
X-347075Y-404116D01*
X-347957Y-401987D01*
X-349359Y-400159D01*
X-351187Y-398757D01*
X-353316Y-397875D01*
X-355600Y-397575D01*
D02*
G37*
G36*
X-381000D02*
X-383284Y-397875D01*
X-385413Y-398757D01*
X-387241Y-400159D01*
X-388643Y-401987D01*
X-389525Y-404116D01*
X-389826Y-406400D01*
X-389525Y-408684D01*
X-388643Y-410813D01*
X-387241Y-412641D01*
X-385413Y-414043D01*
X-383284Y-414925D01*
X-381000Y-415225D01*
X-378716Y-414925D01*
X-376587Y-414043D01*
X-374759Y-412641D01*
X-373357Y-410813D01*
X-372475Y-408684D01*
X-372174Y-406400D01*
X-372475Y-404116D01*
X-373357Y-401987D01*
X-374759Y-400159D01*
X-376587Y-398757D01*
X-378716Y-397875D01*
X-381000Y-397575D01*
D02*
G37*
G36*
X-406400D02*
X-408684Y-397875D01*
X-410813Y-398757D01*
X-412641Y-400159D01*
X-414043Y-401987D01*
X-414925Y-404116D01*
X-415225Y-406400D01*
X-414925Y-408684D01*
X-414043Y-410813D01*
X-412641Y-412641D01*
X-410813Y-414043D01*
X-408684Y-414925D01*
X-406400Y-415225D01*
X-404116Y-414925D01*
X-401987Y-414043D01*
X-400159Y-412641D01*
X-398757Y-410813D01*
X-397875Y-408684D01*
X-397575Y-406400D01*
X-397875Y-404116D01*
X-398757Y-401987D01*
X-400159Y-400159D01*
X-401987Y-398757D01*
X-404116Y-397875D01*
X-406400Y-397575D01*
D02*
G37*
G36*
X-431800D02*
X-434084Y-397875D01*
X-436213Y-398757D01*
X-438041Y-400159D01*
X-439443Y-401987D01*
X-440325Y-404116D01*
X-440625Y-406400D01*
X-440325Y-408684D01*
X-439443Y-410813D01*
X-438041Y-412641D01*
X-436213Y-414043D01*
X-434084Y-414925D01*
X-431800Y-415225D01*
X-429516Y-414925D01*
X-427387Y-414043D01*
X-425559Y-412641D01*
X-424157Y-410813D01*
X-423275Y-408684D01*
X-422975Y-406400D01*
X-423275Y-404116D01*
X-424157Y-401987D01*
X-425559Y-400159D01*
X-427387Y-398757D01*
X-429516Y-397875D01*
X-431800Y-397575D01*
D02*
G37*
G36*
X-457200D02*
X-459484Y-397875D01*
X-461613Y-398757D01*
X-463441Y-400159D01*
X-464843Y-401987D01*
X-465725Y-404116D01*
X-466026Y-406400D01*
X-465725Y-408684D01*
X-464843Y-410813D01*
X-463441Y-412641D01*
X-461613Y-414043D01*
X-459484Y-414925D01*
X-457200Y-415225D01*
X-454916Y-414925D01*
X-452787Y-414043D01*
X-450959Y-412641D01*
X-449557Y-410813D01*
X-448675Y-408684D01*
X-448374Y-406400D01*
X-448675Y-404116D01*
X-449557Y-401987D01*
X-450959Y-400159D01*
X-452787Y-398757D01*
X-454916Y-397875D01*
X-457200Y-397575D01*
D02*
G37*
G36*
X-482600D02*
X-484884Y-397875D01*
X-487013Y-398757D01*
X-488841Y-400159D01*
X-490243Y-401987D01*
X-491125Y-404116D01*
X-491426Y-406400D01*
X-491125Y-408684D01*
X-490243Y-410813D01*
X-488841Y-412641D01*
X-487013Y-414043D01*
X-484884Y-414925D01*
X-482600Y-415225D01*
X-480316Y-414925D01*
X-478187Y-414043D01*
X-476359Y-412641D01*
X-474957Y-410813D01*
X-474075Y-408684D01*
X-473774Y-406400D01*
X-474075Y-404116D01*
X-474957Y-401987D01*
X-476359Y-400159D01*
X-478187Y-398757D01*
X-480316Y-397875D01*
X-482600Y-397575D01*
D02*
G37*
G36*
X-508000D02*
X-510284Y-397875D01*
X-512413Y-398757D01*
X-514241Y-400159D01*
X-515643Y-401987D01*
X-516525Y-404116D01*
X-516825Y-406400D01*
X-516525Y-408684D01*
X-515643Y-410813D01*
X-514241Y-412641D01*
X-512413Y-414043D01*
X-510284Y-414925D01*
X-508000Y-415225D01*
X-505716Y-414925D01*
X-503587Y-414043D01*
X-501759Y-412641D01*
X-500357Y-410813D01*
X-499475Y-408684D01*
X-499174Y-406400D01*
X-499475Y-404116D01*
X-500357Y-401987D01*
X-501759Y-400159D01*
X-503587Y-398757D01*
X-505716Y-397875D01*
X-508000Y-397575D01*
D02*
G37*
G36*
X-533400D02*
X-535684Y-397875D01*
X-537813Y-398757D01*
X-539641Y-400159D01*
X-541043Y-401987D01*
X-541925Y-404116D01*
X-542225Y-406400D01*
X-541925Y-408684D01*
X-541043Y-410813D01*
X-539641Y-412641D01*
X-537813Y-414043D01*
X-535684Y-414925D01*
X-533400Y-415225D01*
X-531116Y-414925D01*
X-528987Y-414043D01*
X-527159Y-412641D01*
X-525757Y-410813D01*
X-524875Y-408684D01*
X-524575Y-406400D01*
X-524875Y-404116D01*
X-525757Y-401987D01*
X-527159Y-400159D01*
X-528987Y-398757D01*
X-531116Y-397875D01*
X-533400Y-397575D01*
D02*
G37*
G36*
X-558800D02*
X-561084Y-397875D01*
X-563213Y-398757D01*
X-565041Y-400159D01*
X-566443Y-401987D01*
X-567325Y-404116D01*
X-567626Y-406400D01*
X-567325Y-408684D01*
X-566443Y-410813D01*
X-565041Y-412641D01*
X-563213Y-414043D01*
X-561084Y-414925D01*
X-558800Y-415225D01*
X-556516Y-414925D01*
X-554387Y-414043D01*
X-552559Y-412641D01*
X-551157Y-410813D01*
X-550275Y-408684D01*
X-549975Y-406400D01*
X-550275Y-404116D01*
X-551157Y-401987D01*
X-552559Y-400159D01*
X-554387Y-398757D01*
X-556516Y-397875D01*
X-558800Y-397575D01*
D02*
G37*
G36*
X-609600D02*
X-611884Y-397875D01*
X-614013Y-398757D01*
X-615841Y-400159D01*
X-617243Y-401987D01*
X-618125Y-404116D01*
X-618425Y-406400D01*
X-618125Y-408684D01*
X-617243Y-410813D01*
X-615841Y-412641D01*
X-614013Y-414043D01*
X-611884Y-414925D01*
X-609600Y-415225D01*
X-607316Y-414925D01*
X-605187Y-414043D01*
X-603359Y-412641D01*
X-601957Y-410813D01*
X-601075Y-408684D01*
X-600774Y-406400D01*
X-601075Y-404116D01*
X-601957Y-401987D01*
X-603359Y-400159D01*
X-605187Y-398757D01*
X-607316Y-397875D01*
X-609600Y-397575D01*
D02*
G37*
G36*
X-635000D02*
X-637284Y-397875D01*
X-639413Y-398757D01*
X-641241Y-400159D01*
X-642643Y-401987D01*
X-643525Y-404116D01*
X-643826Y-406400D01*
X-643525Y-408684D01*
X-642643Y-410813D01*
X-641241Y-412641D01*
X-639413Y-414043D01*
X-637284Y-414925D01*
X-635000Y-415225D01*
X-632716Y-414925D01*
X-630587Y-414043D01*
X-628759Y-412641D01*
X-627357Y-410813D01*
X-626475Y-408684D01*
X-626175Y-406400D01*
X-626475Y-404116D01*
X-627357Y-401987D01*
X-628759Y-400159D01*
X-630587Y-398757D01*
X-632716Y-397875D01*
X-635000Y-397575D01*
D02*
G37*
G36*
X-660400D02*
X-662684Y-397875D01*
X-664813Y-398757D01*
X-666641Y-400159D01*
X-668043Y-401987D01*
X-668925Y-404116D01*
X-669225Y-406400D01*
X-668925Y-408684D01*
X-668043Y-410813D01*
X-666641Y-412641D01*
X-664813Y-414043D01*
X-662684Y-414925D01*
X-660400Y-415225D01*
X-658116Y-414925D01*
X-655987Y-414043D01*
X-654159Y-412641D01*
X-652757Y-410813D01*
X-651875Y-408684D01*
X-651574Y-406400D01*
X-651875Y-404116D01*
X-652757Y-401987D01*
X-654159Y-400159D01*
X-655987Y-398757D01*
X-658116Y-397875D01*
X-660400Y-397575D01*
D02*
G37*
G36*
X-685800D02*
X-688084Y-397875D01*
X-690213Y-398757D01*
X-692041Y-400159D01*
X-693443Y-401987D01*
X-694325Y-404116D01*
X-694625Y-406400D01*
X-694325Y-408684D01*
X-693443Y-410813D01*
X-692041Y-412641D01*
X-690213Y-414043D01*
X-688084Y-414925D01*
X-685800Y-415225D01*
X-683516Y-414925D01*
X-681387Y-414043D01*
X-679559Y-412641D01*
X-678157Y-410813D01*
X-677275Y-408684D01*
X-676974Y-406400D01*
X-677275Y-404116D01*
X-678157Y-401987D01*
X-679559Y-400159D01*
X-681387Y-398757D01*
X-683516Y-397875D01*
X-685800Y-397575D01*
D02*
G37*
G36*
X-711200D02*
X-713484Y-397875D01*
X-715613Y-398757D01*
X-717441Y-400159D01*
X-718843Y-401987D01*
X-719725Y-404116D01*
X-720025Y-406400D01*
X-719725Y-408684D01*
X-718843Y-410813D01*
X-717441Y-412641D01*
X-715613Y-414043D01*
X-713484Y-414925D01*
X-711200Y-415225D01*
X-708916Y-414925D01*
X-706787Y-414043D01*
X-704959Y-412641D01*
X-703557Y-410813D01*
X-702675Y-408684D01*
X-702374Y-406400D01*
X-702675Y-404116D01*
X-703557Y-401987D01*
X-704959Y-400159D01*
X-706787Y-398757D01*
X-708916Y-397875D01*
X-711200Y-397575D01*
D02*
G37*
G36*
X-732850Y-397552D02*
X-740350D01*
X-742301Y-397940D01*
X-743955Y-399045D01*
X-745060Y-400699D01*
X-745448Y-402650D01*
Y-410150D01*
X-745060Y-412101D01*
X-743955Y-413755D01*
X-742301Y-414860D01*
X-740350Y-415248D01*
X-732850D01*
X-730899Y-414860D01*
X-729245Y-413755D01*
X-728140Y-412101D01*
X-727752Y-410150D01*
Y-402650D01*
X-728140Y-400699D01*
X-729245Y-399045D01*
X-730899Y-397940D01*
X-732850Y-397552D01*
D02*
G37*
G36*
X-574241Y-407670D02*
X-582930D01*
Y-416359D01*
X-581579Y-416182D01*
X-579137Y-415170D01*
X-577039Y-413561D01*
X-575430Y-411463D01*
X-574418Y-409021D01*
X-574241Y-407670D01*
D02*
G37*
G36*
X-585470D02*
X-594159D01*
X-593982Y-409021D01*
X-592970Y-411463D01*
X-591361Y-413561D01*
X-589263Y-415170D01*
X-586821Y-416182D01*
X-585470Y-416359D01*
Y-407670D01*
D02*
G37*
%LPD*%
G36*
X-127547Y-357417D02*
X-126713Y-357974D01*
X-125925Y-358131D01*
X-126048Y-359381D01*
X-128476D01*
X-273773Y-214083D01*
X-274607Y-213526D01*
X-275395Y-213369D01*
X-275272Y-212119D01*
X-272844D01*
X-127547Y-357417D01*
D02*
G37*
D21*
X-558800Y-337400D02*
D03*
X-571500D02*
D03*
X-584200D02*
D03*
X-596900D02*
D03*
X-558800Y-284900D02*
D03*
X-571500D02*
D03*
X-584200D02*
D03*
X-596900D02*
D03*
X-558800Y-229450D02*
D03*
X-571500D02*
D03*
X-584200D02*
D03*
X-596900D02*
D03*
X-558800Y-176950D02*
D03*
X-571500D02*
D03*
X-584200D02*
D03*
X-596900D02*
D03*
X-558800Y-121500D02*
D03*
X-571500D02*
D03*
X-584200D02*
D03*
X-596900D02*
D03*
X-558800Y-69000D02*
D03*
X-571500D02*
D03*
X-584200D02*
D03*
X-596900D02*
D03*
D22*
X-612140Y-305750D02*
D03*
Y-285750D02*
D03*
Y-314960D02*
D03*
Y-334960D02*
D03*
Y-207010D02*
D03*
Y-227010D02*
D03*
Y-197800D02*
D03*
Y-177800D02*
D03*
Y-99060D02*
D03*
Y-119060D02*
D03*
Y-89850D02*
D03*
Y-69850D02*
D03*
D23*
X-627380Y-302380D02*
D03*
Y-317380D02*
D03*
Y-194430D02*
D03*
Y-209430D02*
D03*
Y-86480D02*
D03*
Y-101480D02*
D03*
D24*
X-548640Y-293900D02*
D03*
Y-284900D02*
D03*
Y-185950D02*
D03*
Y-176950D02*
D03*
Y-78000D02*
D03*
Y-69000D02*
D03*
D25*
X-582350Y-351790D02*
D03*
X-573350D02*
D03*
X-582350Y-243840D02*
D03*
X-573350D02*
D03*
X-582350Y-135890D02*
D03*
X-573350D02*
D03*
D26*
X-587792Y-209550D02*
X-271780D01*
X-125730Y-355600D01*
X-12700D01*
X-554990Y-107950D02*
X-251460D01*
X-190422Y-46912D02*
Y-12622D01*
X-251460Y-107950D02*
X-190422Y-46912D01*
X-558218Y-111178D02*
X-554990Y-107950D01*
X-254000Y-101600D02*
X-203200Y-50800D01*
X-587792Y-101600D02*
X-254000D01*
X-596880Y-110688D02*
X-587792Y-101600D01*
X-558800Y-284900D02*
Y-272200D01*
Y-69000D02*
Y-56300D01*
Y-176950D02*
Y-164250D01*
X-275590Y-215900D02*
X-129540Y-361950D01*
X-556260Y-215900D02*
X-275590D01*
X-558800Y-218440D02*
X-556260Y-215900D01*
X-558800Y-229450D02*
Y-218440D01*
X0Y-381000D02*
Y-368300D01*
X-12700Y-355600D02*
X0Y-368300D01*
X-185420Y-361950D02*
X-177800Y-369570D01*
Y-381000D02*
Y-369570D01*
X-590550Y-361950D02*
X-185420D01*
X-181610Y-355600D02*
X-165100Y-372110D01*
Y-393700D02*
X-152400Y-406400D01*
X-165100Y-393700D02*
Y-372110D01*
X-596900Y-355600D02*
X-590550Y-361950D01*
X-558800Y-349250D02*
X-552450Y-355600D01*
X-181610D01*
X-558800Y-349250D02*
Y-337400D01*
X-596900Y-355600D02*
Y-337400D01*
Y-284900D02*
Y-272200D01*
X-571683Y-285083D02*
X-571500Y-284900D01*
X-587611Y-311150D02*
X-571683Y-295222D01*
X-591820Y-311150D02*
X-587611D01*
X-571683Y-295222D02*
Y-285083D01*
X-609808Y-332730D02*
Y-329138D01*
X-612038Y-334960D02*
X-609808Y-332730D01*
X-623890Y-334960D02*
X-612038D01*
X-609808Y-329138D02*
X-591820Y-311150D01*
X-548640Y-300250D02*
Y-293900D01*
X-558800Y-284900D02*
X-548640D01*
X-558800Y-284900D02*
X-558800Y-284900D01*
X-571500Y-337400D02*
Y-324700D01*
X-584200Y-337400D02*
Y-324700D01*
X-585688Y-297180D02*
X-584200Y-295692D01*
X-601980Y-297180D02*
X-585688D01*
X-607160Y-292000D02*
X-601980Y-297180D01*
X-584200Y-295692D02*
Y-284900D01*
X-612140Y-285750D02*
X-609390D01*
X-607160Y-287980D01*
Y-292000D02*
Y-287980D01*
X-627380Y-317380D02*
X-621405Y-323355D01*
X-647700Y-311150D02*
X-623890Y-334960D01*
X-627380Y-302380D02*
X-624010Y-305750D01*
X-612140D01*
Y-314960D02*
Y-305750D01*
X-647300Y-285750D02*
X-615950D01*
X-582350Y-351790D02*
Y-344250D01*
X-584200Y-342400D02*
X-582350Y-344250D01*
X-584200Y-342400D02*
Y-337400D01*
X-573350Y-351790D02*
Y-344250D01*
X-571500Y-342400D01*
Y-337400D01*
X-21590Y-361950D02*
X-12700Y-370840D01*
X-129540Y-361950D02*
X-21590D01*
X-12700Y-393700D02*
Y-370840D01*
Y-393700D02*
X0Y-406400D01*
X-571500Y-234450D02*
Y-229450D01*
X-573350Y-236300D02*
X-571500Y-234450D01*
X-573350Y-243840D02*
Y-236300D01*
X-584200Y-234450D02*
Y-229450D01*
Y-234450D02*
X-582350Y-236300D01*
Y-243840D02*
Y-236300D01*
X-647300Y-177800D02*
X-615950D01*
X-612140Y-207010D02*
Y-197800D01*
X-624010D02*
X-612140D01*
X-627380Y-194430D02*
X-624010Y-197800D01*
X-647700Y-203200D02*
X-623890Y-227010D01*
X-627380Y-209430D02*
X-621405Y-215405D01*
X-607160Y-184050D02*
Y-180030D01*
X-609390Y-177800D02*
X-607160Y-180030D01*
X-612140Y-177800D02*
X-609390D01*
X-584200Y-187742D02*
Y-176950D01*
X-607160Y-184050D02*
X-601980Y-189230D01*
X-585688D01*
X-584200Y-187742D01*
Y-229450D02*
Y-216750D01*
X-571500Y-229450D02*
Y-216750D01*
X-558800Y-176950D02*
X-558800Y-176950D01*
X-548640D01*
Y-192300D02*
Y-185950D01*
X-596880Y-229430D02*
Y-218638D01*
X-596900Y-229450D02*
X-596880Y-229430D01*
Y-218638D02*
X-587792Y-209550D01*
X-609808Y-221188D02*
X-591820Y-203200D01*
X-623890Y-227010D02*
X-612038D01*
X-609808Y-224780D01*
Y-221188D01*
X-571683Y-187272D02*
Y-177133D01*
X-591820Y-203200D02*
X-587611D01*
X-571683Y-187272D01*
Y-177133D02*
X-571500Y-176950D01*
X-596900D02*
Y-164250D01*
Y-69000D02*
Y-56300D01*
X-203200Y-50800D02*
Y-25400D01*
X-558800Y-121500D02*
X-558218Y-120918D01*
Y-111178D01*
X-571683Y-69183D02*
X-571500Y-69000D01*
X-587611Y-95250D02*
X-571683Y-79322D01*
X-591820Y-95250D02*
X-587611D01*
X-571683Y-79322D02*
Y-69183D01*
X-609808Y-116830D02*
Y-113238D01*
X-612038Y-119060D02*
X-609808Y-116830D01*
X-623890Y-119060D02*
X-612038D01*
X-609808Y-113238D02*
X-591820Y-95250D01*
X-596900Y-121500D02*
X-596880Y-121480D01*
Y-110688D01*
X-190422Y-12622D02*
X-177800Y0D01*
X-548640Y-84350D02*
Y-78000D01*
X-558800Y-69000D02*
X-548640D01*
X-558800Y-69000D02*
X-558800Y-69000D01*
X-571500Y-121500D02*
Y-108800D01*
X-584200Y-121500D02*
Y-108800D01*
X-585688Y-81280D02*
X-584200Y-79792D01*
X-601980Y-81280D02*
X-585688D01*
X-607160Y-76100D02*
X-601980Y-81280D01*
X-584200Y-79792D02*
Y-69000D01*
X-612140Y-69850D02*
X-609390D01*
X-607160Y-72080D01*
Y-76100D02*
Y-72080D01*
X-627380Y-101480D02*
X-621405Y-107455D01*
X-647700Y-95250D02*
X-623890Y-119060D01*
X-627380Y-86480D02*
X-624010Y-89850D01*
X-612140D01*
Y-99060D02*
Y-89850D01*
X-647300Y-69850D02*
X-615950D01*
X-647700Y-70250D02*
X-647300Y-69850D01*
X-582350Y-135890D02*
Y-128350D01*
X-584200Y-126500D02*
X-582350Y-128350D01*
X-584200Y-126500D02*
Y-121500D01*
X-573350Y-135890D02*
Y-128350D01*
X-571500Y-126500D01*
Y-121500D01*
D27*
X0Y0D02*
D03*
X-25400D02*
D03*
X-50800D02*
D03*
X-76200D02*
D03*
X-101600D02*
D03*
X-127000D02*
D03*
X-152400D02*
D03*
X-177800D02*
D03*
X-203200D02*
D03*
X0Y-25400D02*
D03*
X-25400D02*
D03*
X-50800D02*
D03*
X-76200D02*
D03*
X-101600D02*
D03*
X-127000D02*
D03*
X-152400D02*
D03*
X-177800D02*
D03*
X-203200D02*
D03*
X-228600Y0D02*
D03*
X-254000D02*
D03*
X-228600Y-25400D02*
D03*
X-254000D02*
D03*
X-330200Y0D02*
D03*
Y-25400D02*
D03*
X-355600Y0D02*
D03*
Y-25400D02*
D03*
X-406400Y0D02*
D03*
Y-25400D02*
D03*
X-533400Y0D02*
D03*
Y-25400D02*
D03*
X-584200Y0D02*
D03*
Y-25400D02*
D03*
X-635000Y0D02*
D03*
Y-25400D02*
D03*
X-685800Y0D02*
D03*
Y-25400D02*
D03*
X-711200Y0D02*
D03*
Y-25400D02*
D03*
X-736600Y0D02*
D03*
X-660400Y-25400D02*
D03*
Y0D02*
D03*
X-609600Y-25400D02*
D03*
Y0D02*
D03*
X-558800Y-25400D02*
D03*
Y0D02*
D03*
X-508000Y-25400D02*
D03*
Y0D02*
D03*
X-482600Y-25400D02*
D03*
Y0D02*
D03*
X-457200Y-25400D02*
D03*
Y0D02*
D03*
X-431800Y-25400D02*
D03*
Y0D02*
D03*
X-381000Y-25400D02*
D03*
Y0D02*
D03*
X-304800Y-25400D02*
D03*
X-279400D02*
D03*
X-304800Y0D02*
D03*
X-279400D02*
D03*
X0Y-381000D02*
D03*
X-25400D02*
D03*
X-50800D02*
D03*
X-76200D02*
D03*
X-101600D02*
D03*
X-127000D02*
D03*
X-152400D02*
D03*
X-177800D02*
D03*
X-203200D02*
D03*
X0Y-406400D02*
D03*
X-25400D02*
D03*
X-50800D02*
D03*
X-76200D02*
D03*
X-101600D02*
D03*
X-127000D02*
D03*
X-152400D02*
D03*
X-177800D02*
D03*
X-203200D02*
D03*
X-228600Y-381000D02*
D03*
X-254000D02*
D03*
X-228600Y-406400D02*
D03*
X-254000D02*
D03*
X-330200Y-381000D02*
D03*
Y-406400D02*
D03*
X-355600Y-381000D02*
D03*
Y-406400D02*
D03*
X-406400Y-381000D02*
D03*
Y-406400D02*
D03*
X-533400Y-381000D02*
D03*
Y-406400D02*
D03*
X-584200Y-381000D02*
D03*
Y-406400D02*
D03*
X-635000Y-381000D02*
D03*
Y-406400D02*
D03*
X-685800Y-381000D02*
D03*
Y-406400D02*
D03*
X-711200Y-381000D02*
D03*
Y-406400D02*
D03*
X-736600Y-381000D02*
D03*
X-660400Y-406400D02*
D03*
Y-381000D02*
D03*
X-609600Y-406400D02*
D03*
Y-381000D02*
D03*
X-558800Y-406400D02*
D03*
Y-381000D02*
D03*
X-508000Y-406400D02*
D03*
Y-381000D02*
D03*
X-482600Y-406400D02*
D03*
Y-381000D02*
D03*
X-457200Y-406400D02*
D03*
Y-381000D02*
D03*
X-431800Y-406400D02*
D03*
Y-381000D02*
D03*
X-381000Y-406400D02*
D03*
Y-381000D02*
D03*
X-304800Y-406400D02*
D03*
X-279400D02*
D03*
X-304800Y-381000D02*
D03*
X-279400D02*
D03*
D28*
X-736600Y-25400D02*
D03*
Y-406400D02*
D03*
D29*
X-647700Y-336150D02*
D03*
Y-311150D02*
D03*
X-114300Y-215900D02*
D03*
Y-190900D02*
D03*
Y-165900D02*
D03*
X-647700Y-120250D02*
D03*
Y-95250D02*
D03*
Y-228200D02*
D03*
Y-203200D02*
D03*
D30*
Y-286150D02*
D03*
X-114300Y-240900D02*
D03*
X-647700Y-70250D02*
D03*
Y-178200D02*
D03*
D31*
X-520700Y-76200D02*
D03*
Y-330200D02*
D03*
X-25400D02*
D03*
Y-76200D02*
D03*
D32*
X-558800Y-272200D02*
D03*
Y-56300D02*
D03*
Y-164250D02*
D03*
X-596900Y-272200D02*
D03*
X-548640Y-300250D02*
D03*
X-571500Y-324700D02*
D03*
X-584200D02*
D03*
X-621030Y-323730D02*
D03*
Y-215780D02*
D03*
X-584200Y-216750D02*
D03*
X-571500D02*
D03*
X-548640Y-192300D02*
D03*
X-596900Y-164250D02*
D03*
Y-56300D02*
D03*
X-548640Y-84350D02*
D03*
X-571500Y-108800D02*
D03*
X-584200D02*
D03*
X-621030Y-107830D02*
D03*
M02*
