G04*
G04 #@! TF.GenerationSoftware,Altium Limited,Altium Designer,26.1.1 (7)*
G04*
G04 Layer_Color=8388736*
%FSLAX44Y44*%
%MOMM*%
G71*
G04*
G04 #@! TF.SameCoordinates,9DC0DA2A-B4ED-455C-B667-FE6E32696FB0*
G04*
G04*
G04 #@! TF.FilePolarity,Negative*
G04*
G01*
G75*
%ADD10R,6.0000X6.0000*%
%ADD11R,0.8032X1.8032*%
%ADD12R,1.4532X0.9032*%
%ADD13R,1.0032X1.0032*%
%ADD14R,0.6000X0.6000*%
%ADD15R,0.6000X0.6000*%
%ADD16C,1.7032*%
G04:AMPARAMS|DCode=17|XSize=1.7032mm|YSize=1.7032mm|CornerRadius=0.4766mm|HoleSize=0mm|Usage=FLASHONLY|Rotation=0.000|XOffset=0mm|YOffset=0mm|HoleType=Round|Shape=RoundedRectangle|*
%AMROUNDEDRECTD17*
21,1,1.7032,0.7500,0,0,0.0*
21,1,0.7500,1.7032,0,0,0.0*
1,1,0.9532,0.3750,-0.3750*
1,1,0.9532,-0.3750,-0.3750*
1,1,0.9532,-0.3750,0.3750*
1,1,0.9532,0.3750,0.3750*
%
%ADD17ROUNDEDRECTD17*%
%ADD18C,2.2032*%
%ADD19R,2.2032X2.2032*%
%ADD20R,2.2032X2.2032*%
%ADD21C,6.2032*%
%ADD22C,3.2032*%
%ADD23C,0.6532*%
D10*
X1119996Y720000D02*
D03*
Y30000D02*
D03*
X30003D02*
D03*
X30000Y720000D02*
D03*
D11*
X208500Y240800D02*
D03*
X195800D02*
D03*
X183100D02*
D03*
X170400D02*
D03*
X208500Y293300D02*
D03*
X195800D02*
D03*
X183100D02*
D03*
X170400D02*
D03*
X208500Y456700D02*
D03*
X195800D02*
D03*
X183100D02*
D03*
X170400D02*
D03*
X208500Y509200D02*
D03*
X195800D02*
D03*
X183100D02*
D03*
X170400D02*
D03*
X208500Y348750D02*
D03*
X195800D02*
D03*
X183100D02*
D03*
X170400D02*
D03*
X208500Y401250D02*
D03*
X195800D02*
D03*
X183100D02*
D03*
X170400D02*
D03*
D12*
X155160Y272450D02*
D03*
Y292450D02*
D03*
Y263240D02*
D03*
Y243240D02*
D03*
Y479140D02*
D03*
Y459140D02*
D03*
Y488350D02*
D03*
Y508350D02*
D03*
Y371190D02*
D03*
Y351190D02*
D03*
Y380400D02*
D03*
Y400400D02*
D03*
D13*
X139920Y275820D02*
D03*
Y260820D02*
D03*
Y491720D02*
D03*
Y476720D02*
D03*
Y383770D02*
D03*
Y368770D02*
D03*
D14*
X218660Y293300D02*
D03*
Y284300D02*
D03*
Y392250D02*
D03*
Y401250D02*
D03*
Y500200D02*
D03*
Y509200D02*
D03*
D15*
X184950Y226410D02*
D03*
X193950D02*
D03*
X184950Y334360D02*
D03*
X193950D02*
D03*
X184950Y442310D02*
D03*
X193950D02*
D03*
D16*
X950000Y578200D02*
D03*
X924600D02*
D03*
X899200D02*
D03*
X873800D02*
D03*
X848400D02*
D03*
X823000D02*
D03*
X797600D02*
D03*
X772200D02*
D03*
X746800D02*
D03*
X950000Y552800D02*
D03*
X924600D02*
D03*
X899200D02*
D03*
X873800D02*
D03*
X848400D02*
D03*
X823000D02*
D03*
X797600D02*
D03*
X772200D02*
D03*
X746800D02*
D03*
X721400Y578200D02*
D03*
X696000D02*
D03*
X721400Y552800D02*
D03*
X696000D02*
D03*
X619800Y578200D02*
D03*
Y552800D02*
D03*
X594400Y578200D02*
D03*
Y552800D02*
D03*
X543600Y578200D02*
D03*
Y552800D02*
D03*
X416600Y578200D02*
D03*
Y552800D02*
D03*
X365800Y578200D02*
D03*
Y552800D02*
D03*
X315000Y578200D02*
D03*
Y552800D02*
D03*
X264200Y578200D02*
D03*
Y552800D02*
D03*
X238800Y578200D02*
D03*
Y552800D02*
D03*
X213400Y578200D02*
D03*
X289600Y552800D02*
D03*
Y578200D02*
D03*
X340400Y552800D02*
D03*
Y578200D02*
D03*
X391200Y552800D02*
D03*
Y578200D02*
D03*
X442000Y552800D02*
D03*
Y578200D02*
D03*
X467400Y552800D02*
D03*
Y578200D02*
D03*
X492800Y552800D02*
D03*
Y578200D02*
D03*
X518200Y552800D02*
D03*
Y578200D02*
D03*
X569000Y552800D02*
D03*
Y578200D02*
D03*
X645200Y552800D02*
D03*
X670600D02*
D03*
X645200Y578200D02*
D03*
X670600D02*
D03*
X950000Y197200D02*
D03*
X924600D02*
D03*
X899200D02*
D03*
X873800D02*
D03*
X848400D02*
D03*
X823000D02*
D03*
X797600D02*
D03*
X772200D02*
D03*
X746800D02*
D03*
X950000Y171800D02*
D03*
X924600D02*
D03*
X899200D02*
D03*
X873800D02*
D03*
X848400D02*
D03*
X823000D02*
D03*
X797600D02*
D03*
X772200D02*
D03*
X746800D02*
D03*
X721400Y197200D02*
D03*
X696000D02*
D03*
X721400Y171800D02*
D03*
X696000D02*
D03*
X619800Y197200D02*
D03*
Y171800D02*
D03*
X594400Y197200D02*
D03*
Y171800D02*
D03*
X543600Y197200D02*
D03*
Y171800D02*
D03*
X416600Y197200D02*
D03*
Y171800D02*
D03*
X365800Y197200D02*
D03*
Y171800D02*
D03*
X315000Y197200D02*
D03*
Y171800D02*
D03*
X264200Y197200D02*
D03*
Y171800D02*
D03*
X238800Y197200D02*
D03*
Y171800D02*
D03*
X213400Y197200D02*
D03*
X289600Y171800D02*
D03*
Y197200D02*
D03*
X340400Y171800D02*
D03*
Y197200D02*
D03*
X391200Y171800D02*
D03*
Y197200D02*
D03*
X442000Y171800D02*
D03*
Y197200D02*
D03*
X467400Y171800D02*
D03*
Y197200D02*
D03*
X492800Y171800D02*
D03*
Y197200D02*
D03*
X518200Y171800D02*
D03*
Y197200D02*
D03*
X569000Y171800D02*
D03*
Y197200D02*
D03*
X645200Y171800D02*
D03*
X670600D02*
D03*
X645200Y197200D02*
D03*
X670600D02*
D03*
D17*
X213400Y552800D02*
D03*
Y171800D02*
D03*
D18*
X119600Y242050D02*
D03*
Y267050D02*
D03*
X1030000Y602300D02*
D03*
Y627300D02*
D03*
Y652300D02*
D03*
X1029992Y382500D02*
D03*
Y357500D02*
D03*
Y282500D02*
D03*
Y307500D02*
D03*
Y332500D02*
D03*
X487500Y629000D02*
D03*
X512500D02*
D03*
X537500D02*
D03*
X562500D02*
D03*
X587500D02*
D03*
X612500D02*
D03*
X637500D02*
D03*
X662500D02*
D03*
X462500D02*
D03*
X1029992Y125000D02*
D03*
Y150000D02*
D03*
Y175000D02*
D03*
Y200000D02*
D03*
X1030000Y467300D02*
D03*
Y492300D02*
D03*
Y517300D02*
D03*
X119600Y457950D02*
D03*
Y482950D02*
D03*
Y350000D02*
D03*
Y375000D02*
D03*
D19*
Y292050D02*
D03*
X1030000Y577300D02*
D03*
X1029992Y257500D02*
D03*
Y100000D02*
D03*
X1030000Y442300D02*
D03*
X119600Y507950D02*
D03*
Y400000D02*
D03*
D20*
X687500Y629000D02*
D03*
D21*
X429300Y248000D02*
D03*
X924600D02*
D03*
Y502000D02*
D03*
X429300D02*
D03*
D22*
X1120000Y720000D02*
D03*
Y30000D02*
D03*
X30000D02*
D03*
Y720000D02*
D03*
D23*
X208500Y306000D02*
D03*
Y521900D02*
D03*
Y413950D02*
D03*
X170400Y306000D02*
D03*
X218660Y277950D02*
D03*
X195800Y253500D02*
D03*
X183100D02*
D03*
X146270Y254470D02*
D03*
Y362420D02*
D03*
X183100Y361450D02*
D03*
X195800D02*
D03*
X218660Y385900D02*
D03*
X170400Y413950D02*
D03*
Y521900D02*
D03*
X218660Y493850D02*
D03*
X195800Y469400D02*
D03*
X183100D02*
D03*
X146270Y470370D02*
D03*
M02*
