G04*
G04 #@! TF.GenerationSoftware,Altium Limited,Altium Designer,26.1.1 (7)*
G04*
G04 Layer_Physical_Order=4*
G04 Layer_Color=16711680*
%FSLAX44Y44*%
%MOMM*%
G71*
G04*
G04 #@! TF.SameCoordinates,9E97019B-2CEB-4017-89FE-32B60DA2A515*
G04*
G04*
G04 #@! TF.FilePolarity,Positive*
G04*
G01*
G75*
%ADD26C,0.2540*%
%ADD27C,1.5000*%
G04:AMPARAMS|DCode=28|XSize=1.5mm|YSize=1.5mm|CornerRadius=0.375mm|HoleSize=0mm|Usage=FLASHONLY|Rotation=0.000|XOffset=0mm|YOffset=0mm|HoleType=Round|Shape=RoundedRectangle|*
%AMROUNDEDRECTD28*
21,1,1.5000,0.7500,0,0,0.0*
21,1,0.7500,1.5000,0,0,0.0*
1,1,0.7500,0.3750,-0.3750*
1,1,0.7500,-0.3750,-0.3750*
1,1,0.7500,-0.3750,0.3750*
1,1,0.7500,0.3750,0.3750*
%
%ADD28ROUNDEDRECTD28*%
%ADD29C,2.0000*%
%ADD30R,2.0000X2.0000*%
%ADD31C,3.0000*%
%ADD32C,0.4500*%
G36*
X-547453Y-80032D02*
X-548419Y-80825D01*
X-548640Y-80781D01*
X-550006Y-81053D01*
X-551163Y-81827D01*
X-551937Y-82984D01*
X-552209Y-84350D01*
X-551937Y-85716D01*
X-551163Y-86873D01*
X-550006Y-87647D01*
X-548640Y-87919D01*
X-548419Y-87875D01*
X-547453Y-88668D01*
Y-187982D01*
X-548419Y-188775D01*
X-548640Y-188731D01*
X-550006Y-189003D01*
X-551163Y-189777D01*
X-551937Y-190934D01*
X-552209Y-192300D01*
X-551937Y-193666D01*
X-551163Y-194823D01*
X-550006Y-195597D01*
X-548640Y-195869D01*
X-548419Y-195825D01*
X-547453Y-196618D01*
X-547453Y-295932D01*
X-548419Y-296725D01*
X-548640Y-296681D01*
X-550006Y-296953D01*
X-551163Y-297727D01*
X-551937Y-298884D01*
X-552209Y-300250D01*
X-551937Y-301616D01*
X-551163Y-302773D01*
X-550006Y-303547D01*
X-548640Y-303819D01*
X-548419Y-303775D01*
X-547453Y-304568D01*
Y-425450D01*
X-755650D01*
Y19050D01*
X-547453D01*
Y-80032D01*
D02*
G37*
G36*
X19050Y-425450D02*
X-546100D01*
X-546100Y19050D01*
X19050D01*
Y-425450D01*
D02*
G37*
%LPC*%
G36*
X-558800Y8826D02*
X-561084Y8525D01*
X-563213Y7643D01*
X-565041Y6241D01*
X-566443Y4413D01*
X-567325Y2284D01*
X-567626Y0D01*
X-567325Y-2284D01*
X-566443Y-4413D01*
X-565041Y-6241D01*
X-563213Y-7643D01*
X-561084Y-8525D01*
X-558800Y-8826D01*
X-556516Y-8525D01*
X-554387Y-7643D01*
X-552559Y-6241D01*
X-551157Y-4413D01*
X-550275Y-2284D01*
X-549975Y0D01*
X-550275Y2284D01*
X-551157Y4413D01*
X-552559Y6241D01*
X-554387Y7643D01*
X-556516Y8525D01*
X-558800Y8826D01*
D02*
G37*
G36*
X-584200D02*
X-586484Y8525D01*
X-588613Y7643D01*
X-590441Y6241D01*
X-591843Y4413D01*
X-592725Y2284D01*
X-593026Y0D01*
X-592725Y-2284D01*
X-591843Y-4413D01*
X-590441Y-6241D01*
X-588613Y-7643D01*
X-586484Y-8525D01*
X-584200Y-8826D01*
X-581916Y-8525D01*
X-579787Y-7643D01*
X-577959Y-6241D01*
X-576557Y-4413D01*
X-575675Y-2284D01*
X-575374Y0D01*
X-575675Y2284D01*
X-576557Y4413D01*
X-577959Y6241D01*
X-579787Y7643D01*
X-581916Y8525D01*
X-584200Y8826D01*
D02*
G37*
G36*
X-609600D02*
X-611884Y8525D01*
X-614013Y7643D01*
X-615841Y6241D01*
X-617243Y4413D01*
X-618125Y2284D01*
X-618425Y0D01*
X-618125Y-2284D01*
X-617243Y-4413D01*
X-615841Y-6241D01*
X-614013Y-7643D01*
X-611884Y-8525D01*
X-609600Y-8826D01*
X-607316Y-8525D01*
X-605187Y-7643D01*
X-603359Y-6241D01*
X-601957Y-4413D01*
X-601075Y-2284D01*
X-600774Y0D01*
X-601075Y2284D01*
X-601957Y4413D01*
X-603359Y6241D01*
X-605187Y7643D01*
X-607316Y8525D01*
X-609600Y8826D01*
D02*
G37*
G36*
X-635000D02*
X-637284Y8525D01*
X-639413Y7643D01*
X-641241Y6241D01*
X-642643Y4413D01*
X-643525Y2284D01*
X-643826Y0D01*
X-643525Y-2284D01*
X-642643Y-4413D01*
X-641241Y-6241D01*
X-639413Y-7643D01*
X-637284Y-8525D01*
X-635000Y-8826D01*
X-632716Y-8525D01*
X-630587Y-7643D01*
X-628759Y-6241D01*
X-627357Y-4413D01*
X-626475Y-2284D01*
X-626175Y0D01*
X-626475Y2284D01*
X-627357Y4413D01*
X-628759Y6241D01*
X-630587Y7643D01*
X-632716Y8525D01*
X-635000Y8826D01*
D02*
G37*
G36*
X-660400D02*
X-662684Y8525D01*
X-664813Y7643D01*
X-666641Y6241D01*
X-668043Y4413D01*
X-668925Y2284D01*
X-669225Y0D01*
X-668925Y-2284D01*
X-668043Y-4413D01*
X-666641Y-6241D01*
X-664813Y-7643D01*
X-662684Y-8525D01*
X-660400Y-8826D01*
X-658116Y-8525D01*
X-655987Y-7643D01*
X-654159Y-6241D01*
X-652757Y-4413D01*
X-651875Y-2284D01*
X-651574Y0D01*
X-651875Y2284D01*
X-652757Y4413D01*
X-654159Y6241D01*
X-655987Y7643D01*
X-658116Y8525D01*
X-660400Y8826D01*
D02*
G37*
G36*
X-685800D02*
X-688084Y8525D01*
X-690213Y7643D01*
X-692041Y6241D01*
X-693443Y4413D01*
X-694325Y2284D01*
X-694625Y0D01*
X-694325Y-2284D01*
X-693443Y-4413D01*
X-692041Y-6241D01*
X-690213Y-7643D01*
X-688084Y-8525D01*
X-685800Y-8826D01*
X-683516Y-8525D01*
X-681387Y-7643D01*
X-679559Y-6241D01*
X-678157Y-4413D01*
X-677275Y-2284D01*
X-676974Y0D01*
X-677275Y2284D01*
X-678157Y4413D01*
X-679559Y6241D01*
X-681387Y7643D01*
X-683516Y8525D01*
X-685800Y8826D01*
D02*
G37*
G36*
X-711200D02*
X-713484Y8525D01*
X-715613Y7643D01*
X-717441Y6241D01*
X-718843Y4413D01*
X-719725Y2284D01*
X-720025Y0D01*
X-719725Y-2284D01*
X-718843Y-4413D01*
X-717441Y-6241D01*
X-715613Y-7643D01*
X-713484Y-8525D01*
X-711200Y-8826D01*
X-708916Y-8525D01*
X-706787Y-7643D01*
X-704959Y-6241D01*
X-703557Y-4413D01*
X-702675Y-2284D01*
X-702374Y0D01*
X-702675Y2284D01*
X-703557Y4413D01*
X-704959Y6241D01*
X-706787Y7643D01*
X-708916Y8525D01*
X-711200Y8826D01*
D02*
G37*
G36*
X-736600D02*
X-738884Y8525D01*
X-741013Y7643D01*
X-742841Y6241D01*
X-744243Y4413D01*
X-745125Y2284D01*
X-745425Y0D01*
X-745125Y-2284D01*
X-744243Y-4413D01*
X-742841Y-6241D01*
X-741013Y-7643D01*
X-738884Y-8525D01*
X-736600Y-8826D01*
X-734316Y-8525D01*
X-732187Y-7643D01*
X-730359Y-6241D01*
X-728957Y-4413D01*
X-728075Y-2284D01*
X-727775Y0D01*
X-728075Y2284D01*
X-728957Y4413D01*
X-730359Y6241D01*
X-732187Y7643D01*
X-734316Y8525D01*
X-736600Y8826D01*
D02*
G37*
G36*
X-558800Y-16574D02*
X-561084Y-16875D01*
X-563213Y-17757D01*
X-565041Y-19159D01*
X-566443Y-20987D01*
X-567325Y-23116D01*
X-567626Y-25400D01*
X-567325Y-27684D01*
X-566443Y-29813D01*
X-565041Y-31641D01*
X-563213Y-33043D01*
X-561084Y-33925D01*
X-558800Y-34225D01*
X-556516Y-33925D01*
X-554387Y-33043D01*
X-552559Y-31641D01*
X-551157Y-29813D01*
X-550275Y-27684D01*
X-549975Y-25400D01*
X-550275Y-23116D01*
X-551157Y-20987D01*
X-552559Y-19159D01*
X-554387Y-17757D01*
X-556516Y-16875D01*
X-558800Y-16574D01*
D02*
G37*
G36*
X-584200D02*
X-586484Y-16875D01*
X-588613Y-17757D01*
X-590441Y-19159D01*
X-591843Y-20987D01*
X-592725Y-23116D01*
X-593026Y-25400D01*
X-592725Y-27684D01*
X-591843Y-29813D01*
X-590441Y-31641D01*
X-588613Y-33043D01*
X-586484Y-33925D01*
X-584200Y-34225D01*
X-581916Y-33925D01*
X-579787Y-33043D01*
X-577959Y-31641D01*
X-576557Y-29813D01*
X-575675Y-27684D01*
X-575374Y-25400D01*
X-575675Y-23116D01*
X-576557Y-20987D01*
X-577959Y-19159D01*
X-579787Y-17757D01*
X-581916Y-16875D01*
X-584200Y-16574D01*
D02*
G37*
G36*
X-609600D02*
X-611884Y-16875D01*
X-614013Y-17757D01*
X-615841Y-19159D01*
X-617243Y-20987D01*
X-618125Y-23116D01*
X-618425Y-25400D01*
X-618125Y-27684D01*
X-617243Y-29813D01*
X-615841Y-31641D01*
X-614013Y-33043D01*
X-611884Y-33925D01*
X-609600Y-34225D01*
X-607316Y-33925D01*
X-605187Y-33043D01*
X-603359Y-31641D01*
X-601957Y-29813D01*
X-601075Y-27684D01*
X-600774Y-25400D01*
X-601075Y-23116D01*
X-601957Y-20987D01*
X-603359Y-19159D01*
X-605187Y-17757D01*
X-607316Y-16875D01*
X-609600Y-16574D01*
D02*
G37*
G36*
X-635000D02*
X-637284Y-16875D01*
X-639413Y-17757D01*
X-641241Y-19159D01*
X-642643Y-20987D01*
X-643525Y-23116D01*
X-643826Y-25400D01*
X-643525Y-27684D01*
X-642643Y-29813D01*
X-641241Y-31641D01*
X-639413Y-33043D01*
X-637284Y-33925D01*
X-635000Y-34225D01*
X-632716Y-33925D01*
X-630587Y-33043D01*
X-628759Y-31641D01*
X-627357Y-29813D01*
X-626475Y-27684D01*
X-626175Y-25400D01*
X-626475Y-23116D01*
X-627357Y-20987D01*
X-628759Y-19159D01*
X-630587Y-17757D01*
X-632716Y-16875D01*
X-635000Y-16574D01*
D02*
G37*
G36*
X-660400D02*
X-662684Y-16875D01*
X-664813Y-17757D01*
X-666641Y-19159D01*
X-668043Y-20987D01*
X-668925Y-23116D01*
X-669225Y-25400D01*
X-668925Y-27684D01*
X-668043Y-29813D01*
X-666641Y-31641D01*
X-664813Y-33043D01*
X-662684Y-33925D01*
X-660400Y-34225D01*
X-658116Y-33925D01*
X-655987Y-33043D01*
X-654159Y-31641D01*
X-652757Y-29813D01*
X-651875Y-27684D01*
X-651574Y-25400D01*
X-651875Y-23116D01*
X-652757Y-20987D01*
X-654159Y-19159D01*
X-655987Y-17757D01*
X-658116Y-16875D01*
X-660400Y-16574D01*
D02*
G37*
G36*
X-685800D02*
X-688084Y-16875D01*
X-690213Y-17757D01*
X-692041Y-19159D01*
X-693443Y-20987D01*
X-694325Y-23116D01*
X-694625Y-25400D01*
X-694325Y-27684D01*
X-693443Y-29813D01*
X-692041Y-31641D01*
X-690213Y-33043D01*
X-688084Y-33925D01*
X-685800Y-34225D01*
X-683516Y-33925D01*
X-681387Y-33043D01*
X-679559Y-31641D01*
X-678157Y-29813D01*
X-677275Y-27684D01*
X-676974Y-25400D01*
X-677275Y-23116D01*
X-678157Y-20987D01*
X-679559Y-19159D01*
X-681387Y-17757D01*
X-683516Y-16875D01*
X-685800Y-16574D01*
D02*
G37*
G36*
X-711200D02*
X-713484Y-16875D01*
X-715613Y-17757D01*
X-717441Y-19159D01*
X-718843Y-20987D01*
X-719725Y-23116D01*
X-720025Y-25400D01*
X-719725Y-27684D01*
X-718843Y-29813D01*
X-717441Y-31641D01*
X-715613Y-33043D01*
X-713484Y-33925D01*
X-711200Y-34225D01*
X-708916Y-33925D01*
X-706787Y-33043D01*
X-704959Y-31641D01*
X-703557Y-29813D01*
X-702675Y-27684D01*
X-702374Y-25400D01*
X-702675Y-23116D01*
X-703557Y-20987D01*
X-704959Y-19159D01*
X-706787Y-17757D01*
X-708916Y-16875D01*
X-711200Y-16574D01*
D02*
G37*
G36*
X-732850Y-16552D02*
X-740350D01*
X-742301Y-16940D01*
X-743955Y-18045D01*
X-745060Y-19699D01*
X-745448Y-21650D01*
Y-29150D01*
X-745060Y-31101D01*
X-743955Y-32755D01*
X-742301Y-33860D01*
X-740350Y-34248D01*
X-732850D01*
X-730899Y-33860D01*
X-729245Y-32755D01*
X-728140Y-31101D01*
X-727752Y-29150D01*
Y-21650D01*
X-728140Y-19699D01*
X-729245Y-18045D01*
X-730899Y-16940D01*
X-732850Y-16552D01*
D02*
G37*
G36*
X-596900Y-52731D02*
X-598266Y-53003D01*
X-599423Y-53777D01*
X-600197Y-54934D01*
X-600469Y-56300D01*
X-600197Y-57666D01*
X-599423Y-58823D01*
X-598266Y-59597D01*
X-596900Y-59869D01*
X-595534Y-59597D01*
X-594377Y-58823D01*
X-593603Y-57666D01*
X-593331Y-56300D01*
X-593603Y-54934D01*
X-594377Y-53777D01*
X-595534Y-53003D01*
X-596900Y-52731D01*
D02*
G37*
G36*
X-636450Y-59000D02*
X-658950D01*
Y-81500D01*
X-636450D01*
Y-59000D01*
D02*
G37*
G36*
X-647700Y-83903D02*
X-650637Y-84290D01*
X-653373Y-85423D01*
X-655724Y-87226D01*
X-657527Y-89577D01*
X-658661Y-92313D01*
X-659047Y-95250D01*
X-658661Y-98187D01*
X-657527Y-100924D01*
X-655724Y-103274D01*
X-653373Y-105077D01*
X-650637Y-106210D01*
X-647700Y-106597D01*
X-644763Y-106210D01*
X-642027Y-105077D01*
X-639676Y-103274D01*
X-637873Y-100924D01*
X-636740Y-98187D01*
X-636353Y-95250D01*
X-636740Y-92313D01*
X-637873Y-89577D01*
X-639676Y-87226D01*
X-642027Y-85423D01*
X-644763Y-84290D01*
X-647700Y-83903D01*
D02*
G37*
G36*
X-621030Y-104261D02*
X-622396Y-104533D01*
X-623553Y-105307D01*
X-624327Y-106464D01*
X-624599Y-107830D01*
X-624327Y-109196D01*
X-623553Y-110353D01*
X-622396Y-111127D01*
X-621030Y-111399D01*
X-619664Y-111127D01*
X-618507Y-110353D01*
X-617733Y-109196D01*
X-617461Y-107830D01*
X-617733Y-106464D01*
X-618507Y-105307D01*
X-619664Y-104533D01*
X-621030Y-104261D01*
D02*
G37*
G36*
X-571500Y-105231D02*
X-572866Y-105503D01*
X-574023Y-106277D01*
X-574797Y-107434D01*
X-575069Y-108800D01*
X-574797Y-110166D01*
X-574023Y-111323D01*
X-572866Y-112097D01*
X-571500Y-112369D01*
X-570134Y-112097D01*
X-568977Y-111323D01*
X-568203Y-110166D01*
X-567931Y-108800D01*
X-568203Y-107434D01*
X-568977Y-106277D01*
X-570134Y-105503D01*
X-571500Y-105231D01*
D02*
G37*
G36*
X-584200D02*
X-585566Y-105503D01*
X-586723Y-106277D01*
X-587497Y-107434D01*
X-587769Y-108800D01*
X-587497Y-110166D01*
X-586723Y-111323D01*
X-585566Y-112097D01*
X-584200Y-112369D01*
X-582834Y-112097D01*
X-581677Y-111323D01*
X-580903Y-110166D01*
X-580631Y-108800D01*
X-580903Y-107434D01*
X-581677Y-106277D01*
X-582834Y-105503D01*
X-584200Y-105231D01*
D02*
G37*
G36*
X-647700Y-108903D02*
X-650637Y-109290D01*
X-653373Y-110423D01*
X-655724Y-112226D01*
X-657527Y-114577D01*
X-658661Y-117313D01*
X-659047Y-120250D01*
X-658661Y-123187D01*
X-657527Y-125924D01*
X-655724Y-128274D01*
X-653373Y-130077D01*
X-650637Y-131210D01*
X-647700Y-131597D01*
X-644763Y-131210D01*
X-642027Y-130077D01*
X-639676Y-128274D01*
X-637873Y-125924D01*
X-636740Y-123187D01*
X-636353Y-120250D01*
X-636740Y-117313D01*
X-637873Y-114577D01*
X-639676Y-112226D01*
X-642027Y-110423D01*
X-644763Y-109290D01*
X-647700Y-108903D01*
D02*
G37*
G36*
X-596900Y-160681D02*
X-598266Y-160953D01*
X-599423Y-161727D01*
X-600197Y-162884D01*
X-600469Y-164250D01*
X-600197Y-165616D01*
X-599423Y-166773D01*
X-598266Y-167547D01*
X-596900Y-167819D01*
X-595534Y-167547D01*
X-594377Y-166773D01*
X-593603Y-165616D01*
X-593331Y-164250D01*
X-593603Y-162884D01*
X-594377Y-161727D01*
X-595534Y-160953D01*
X-596900Y-160681D01*
D02*
G37*
G36*
X-636450Y-166950D02*
X-658950D01*
Y-189450D01*
X-636450D01*
Y-166950D01*
D02*
G37*
G36*
X-647700Y-191853D02*
X-650637Y-192239D01*
X-653373Y-193373D01*
X-655724Y-195176D01*
X-657527Y-197526D01*
X-658661Y-200263D01*
X-659047Y-203200D01*
X-658661Y-206137D01*
X-657527Y-208874D01*
X-655724Y-211224D01*
X-653373Y-213027D01*
X-650637Y-214160D01*
X-647700Y-214547D01*
X-644763Y-214160D01*
X-642027Y-213027D01*
X-639676Y-211224D01*
X-637873Y-208874D01*
X-636740Y-206137D01*
X-636353Y-203200D01*
X-636740Y-200263D01*
X-637873Y-197526D01*
X-639676Y-195176D01*
X-642027Y-193373D01*
X-644763Y-192239D01*
X-647700Y-191853D01*
D02*
G37*
G36*
X-621030Y-212211D02*
X-622396Y-212483D01*
X-623553Y-213257D01*
X-624327Y-214414D01*
X-624599Y-215780D01*
X-624327Y-217146D01*
X-623553Y-218303D01*
X-622396Y-219077D01*
X-621030Y-219349D01*
X-619664Y-219077D01*
X-618507Y-218303D01*
X-617733Y-217146D01*
X-617461Y-215780D01*
X-617733Y-214414D01*
X-618507Y-213257D01*
X-619664Y-212483D01*
X-621030Y-212211D01*
D02*
G37*
G36*
X-571500Y-213181D02*
X-572866Y-213453D01*
X-574023Y-214227D01*
X-574797Y-215384D01*
X-575069Y-216750D01*
X-574797Y-218116D01*
X-574023Y-219273D01*
X-572866Y-220047D01*
X-571500Y-220319D01*
X-570134Y-220047D01*
X-568977Y-219273D01*
X-568203Y-218116D01*
X-567931Y-216750D01*
X-568203Y-215384D01*
X-568977Y-214227D01*
X-570134Y-213453D01*
X-571500Y-213181D01*
D02*
G37*
G36*
X-584200D02*
X-585566Y-213453D01*
X-586723Y-214227D01*
X-587497Y-215384D01*
X-587769Y-216750D01*
X-587497Y-218116D01*
X-586723Y-219273D01*
X-585566Y-220047D01*
X-584200Y-220319D01*
X-582834Y-220047D01*
X-581677Y-219273D01*
X-580903Y-218116D01*
X-580631Y-216750D01*
X-580903Y-215384D01*
X-581677Y-214227D01*
X-582834Y-213453D01*
X-584200Y-213181D01*
D02*
G37*
G36*
X-647700Y-216853D02*
X-650637Y-217239D01*
X-653373Y-218373D01*
X-655724Y-220176D01*
X-657527Y-222526D01*
X-658661Y-225263D01*
X-659047Y-228200D01*
X-658661Y-231137D01*
X-657527Y-233874D01*
X-655724Y-236224D01*
X-653373Y-238027D01*
X-650637Y-239160D01*
X-647700Y-239547D01*
X-644763Y-239160D01*
X-642027Y-238027D01*
X-639676Y-236224D01*
X-637873Y-233874D01*
X-636740Y-231137D01*
X-636353Y-228200D01*
X-636740Y-225263D01*
X-637873Y-222526D01*
X-639676Y-220176D01*
X-642027Y-218373D01*
X-644763Y-217239D01*
X-647700Y-216853D01*
D02*
G37*
G36*
X-596900Y-268631D02*
X-598266Y-268903D01*
X-599423Y-269677D01*
X-600197Y-270834D01*
X-600469Y-272200D01*
X-600197Y-273566D01*
X-599423Y-274723D01*
X-598266Y-275497D01*
X-596900Y-275769D01*
X-595534Y-275497D01*
X-594377Y-274723D01*
X-593603Y-273566D01*
X-593331Y-272200D01*
X-593603Y-270834D01*
X-594377Y-269677D01*
X-595534Y-268903D01*
X-596900Y-268631D01*
D02*
G37*
G36*
X-636450Y-274900D02*
X-658950D01*
Y-297400D01*
X-636450D01*
Y-274900D01*
D02*
G37*
G36*
X-647700Y-299803D02*
X-650637Y-300189D01*
X-653373Y-301323D01*
X-655724Y-303126D01*
X-657527Y-305476D01*
X-658661Y-308213D01*
X-659047Y-311150D01*
X-658661Y-314087D01*
X-657527Y-316824D01*
X-655724Y-319174D01*
X-653373Y-320977D01*
X-650637Y-322110D01*
X-647700Y-322497D01*
X-644763Y-322110D01*
X-642027Y-320977D01*
X-639676Y-319174D01*
X-637873Y-316824D01*
X-636740Y-314087D01*
X-636353Y-311150D01*
X-636740Y-308213D01*
X-637873Y-305476D01*
X-639676Y-303126D01*
X-642027Y-301323D01*
X-644763Y-300189D01*
X-647700Y-299803D01*
D02*
G37*
G36*
X-621030Y-320161D02*
X-622396Y-320433D01*
X-623553Y-321207D01*
X-624327Y-322364D01*
X-624599Y-323730D01*
X-624327Y-325096D01*
X-623553Y-326253D01*
X-622396Y-327027D01*
X-621030Y-327299D01*
X-619664Y-327027D01*
X-618507Y-326253D01*
X-617733Y-325096D01*
X-617461Y-323730D01*
X-617733Y-322364D01*
X-618507Y-321207D01*
X-619664Y-320433D01*
X-621030Y-320161D01*
D02*
G37*
G36*
X-571500Y-321131D02*
X-572866Y-321403D01*
X-574023Y-322177D01*
X-574797Y-323334D01*
X-575069Y-324700D01*
X-574797Y-326066D01*
X-574023Y-327223D01*
X-572866Y-327997D01*
X-571500Y-328269D01*
X-570134Y-327997D01*
X-568977Y-327223D01*
X-568203Y-326066D01*
X-567931Y-324700D01*
X-568203Y-323334D01*
X-568977Y-322177D01*
X-570134Y-321403D01*
X-571500Y-321131D01*
D02*
G37*
G36*
X-584200D02*
X-585566Y-321403D01*
X-586723Y-322177D01*
X-587497Y-323334D01*
X-587769Y-324700D01*
X-587497Y-326066D01*
X-586723Y-327223D01*
X-585566Y-327997D01*
X-584200Y-328269D01*
X-582834Y-327997D01*
X-581677Y-327223D01*
X-580903Y-326066D01*
X-580631Y-324700D01*
X-580903Y-323334D01*
X-581677Y-322177D01*
X-582834Y-321403D01*
X-584200Y-321131D01*
D02*
G37*
G36*
X-647700Y-324803D02*
X-650637Y-325190D01*
X-653373Y-326323D01*
X-655724Y-328126D01*
X-657527Y-330476D01*
X-658661Y-333213D01*
X-659047Y-336150D01*
X-658661Y-339087D01*
X-657527Y-341824D01*
X-655724Y-344174D01*
X-653373Y-345977D01*
X-650637Y-347110D01*
X-647700Y-347497D01*
X-644763Y-347110D01*
X-642027Y-345977D01*
X-639676Y-344174D01*
X-637873Y-341824D01*
X-636740Y-339087D01*
X-636353Y-336150D01*
X-636740Y-333213D01*
X-637873Y-330476D01*
X-639676Y-328126D01*
X-642027Y-326323D01*
X-644763Y-325190D01*
X-647700Y-324803D01*
D02*
G37*
G36*
X-709930Y-371041D02*
Y-379730D01*
X-701241D01*
X-701418Y-378379D01*
X-702430Y-375937D01*
X-704039Y-373839D01*
X-706137Y-372230D01*
X-708579Y-371218D01*
X-709930Y-371041D01*
D02*
G37*
G36*
X-712470D02*
X-713821Y-371218D01*
X-716263Y-372230D01*
X-718361Y-373839D01*
X-719970Y-375937D01*
X-720982Y-378379D01*
X-721159Y-379730D01*
X-712470D01*
Y-371041D01*
D02*
G37*
G36*
X-558800Y-372174D02*
X-561084Y-372475D01*
X-563213Y-373357D01*
X-565041Y-374759D01*
X-566443Y-376587D01*
X-567325Y-378716D01*
X-567626Y-381000D01*
X-567325Y-383284D01*
X-566443Y-385413D01*
X-565041Y-387241D01*
X-563213Y-388643D01*
X-561084Y-389525D01*
X-558800Y-389826D01*
X-556516Y-389525D01*
X-554387Y-388643D01*
X-552559Y-387241D01*
X-551157Y-385413D01*
X-550275Y-383284D01*
X-549975Y-381000D01*
X-550275Y-378716D01*
X-551157Y-376587D01*
X-552559Y-374759D01*
X-554387Y-373357D01*
X-556516Y-372475D01*
X-558800Y-372174D01*
D02*
G37*
G36*
X-584200D02*
X-586484Y-372475D01*
X-588613Y-373357D01*
X-590441Y-374759D01*
X-591843Y-376587D01*
X-592725Y-378716D01*
X-593026Y-381000D01*
X-592725Y-383284D01*
X-591843Y-385413D01*
X-590441Y-387241D01*
X-588613Y-388643D01*
X-586484Y-389525D01*
X-584200Y-389826D01*
X-581916Y-389525D01*
X-579787Y-388643D01*
X-577959Y-387241D01*
X-576557Y-385413D01*
X-575675Y-383284D01*
X-575374Y-381000D01*
X-575675Y-378716D01*
X-576557Y-376587D01*
X-577959Y-374759D01*
X-579787Y-373357D01*
X-581916Y-372475D01*
X-584200Y-372174D01*
D02*
G37*
G36*
X-609600D02*
X-611884Y-372475D01*
X-614013Y-373357D01*
X-615841Y-374759D01*
X-617243Y-376587D01*
X-618125Y-378716D01*
X-618425Y-381000D01*
X-618125Y-383284D01*
X-617243Y-385413D01*
X-615841Y-387241D01*
X-614013Y-388643D01*
X-611884Y-389525D01*
X-609600Y-389826D01*
X-607316Y-389525D01*
X-605187Y-388643D01*
X-603359Y-387241D01*
X-601957Y-385413D01*
X-601075Y-383284D01*
X-600774Y-381000D01*
X-601075Y-378716D01*
X-601957Y-376587D01*
X-603359Y-374759D01*
X-605187Y-373357D01*
X-607316Y-372475D01*
X-609600Y-372174D01*
D02*
G37*
G36*
X-635000D02*
X-637284Y-372475D01*
X-639413Y-373357D01*
X-641241Y-374759D01*
X-642643Y-376587D01*
X-643525Y-378716D01*
X-643826Y-381000D01*
X-643525Y-383284D01*
X-642643Y-385413D01*
X-641241Y-387241D01*
X-639413Y-388643D01*
X-637284Y-389525D01*
X-635000Y-389826D01*
X-632716Y-389525D01*
X-630587Y-388643D01*
X-628759Y-387241D01*
X-627357Y-385413D01*
X-626475Y-383284D01*
X-626175Y-381000D01*
X-626475Y-378716D01*
X-627357Y-376587D01*
X-628759Y-374759D01*
X-630587Y-373357D01*
X-632716Y-372475D01*
X-635000Y-372174D01*
D02*
G37*
G36*
X-660400D02*
X-662684Y-372475D01*
X-664813Y-373357D01*
X-666641Y-374759D01*
X-668043Y-376587D01*
X-668925Y-378716D01*
X-669225Y-381000D01*
X-668925Y-383284D01*
X-668043Y-385413D01*
X-666641Y-387241D01*
X-664813Y-388643D01*
X-662684Y-389525D01*
X-660400Y-389826D01*
X-658116Y-389525D01*
X-655987Y-388643D01*
X-654159Y-387241D01*
X-652757Y-385413D01*
X-651875Y-383284D01*
X-651574Y-381000D01*
X-651875Y-378716D01*
X-652757Y-376587D01*
X-654159Y-374759D01*
X-655987Y-373357D01*
X-658116Y-372475D01*
X-660400Y-372174D01*
D02*
G37*
G36*
X-685800D02*
X-688084Y-372475D01*
X-690213Y-373357D01*
X-692041Y-374759D01*
X-693443Y-376587D01*
X-694325Y-378716D01*
X-694625Y-381000D01*
X-694325Y-383284D01*
X-693443Y-385413D01*
X-692041Y-387241D01*
X-690213Y-388643D01*
X-688084Y-389525D01*
X-685800Y-389826D01*
X-683516Y-389525D01*
X-681387Y-388643D01*
X-679559Y-387241D01*
X-678157Y-385413D01*
X-677275Y-383284D01*
X-676974Y-381000D01*
X-677275Y-378716D01*
X-678157Y-376587D01*
X-679559Y-374759D01*
X-681387Y-373357D01*
X-683516Y-372475D01*
X-685800Y-372174D01*
D02*
G37*
G36*
X-701241Y-382270D02*
X-709930D01*
Y-390959D01*
X-708579Y-390782D01*
X-706137Y-389770D01*
X-704039Y-388161D01*
X-702430Y-386063D01*
X-701418Y-383621D01*
X-701241Y-382270D01*
D02*
G37*
G36*
X-712470D02*
X-721159D01*
X-720982Y-383621D01*
X-719970Y-386063D01*
X-718361Y-388161D01*
X-716263Y-389770D01*
X-713821Y-390782D01*
X-712470Y-390959D01*
Y-382270D01*
D02*
G37*
G36*
X-709930Y-396441D02*
Y-405130D01*
X-701241D01*
X-701418Y-403779D01*
X-702430Y-401337D01*
X-704039Y-399239D01*
X-706137Y-397630D01*
X-708579Y-396618D01*
X-709930Y-396441D01*
D02*
G37*
G36*
X-712470D02*
X-713821Y-396618D01*
X-716263Y-397630D01*
X-718361Y-399239D01*
X-719970Y-401337D01*
X-720982Y-403779D01*
X-721159Y-405130D01*
X-712470D01*
Y-396441D01*
D02*
G37*
G36*
X-558800Y-397575D02*
X-561084Y-397875D01*
X-563213Y-398757D01*
X-565041Y-400159D01*
X-566443Y-401987D01*
X-567325Y-404116D01*
X-567626Y-406400D01*
X-567325Y-408684D01*
X-566443Y-410813D01*
X-565041Y-412641D01*
X-563213Y-414043D01*
X-561084Y-414925D01*
X-558800Y-415225D01*
X-556516Y-414925D01*
X-554387Y-414043D01*
X-552559Y-412641D01*
X-551157Y-410813D01*
X-550275Y-408684D01*
X-549975Y-406400D01*
X-550275Y-404116D01*
X-551157Y-401987D01*
X-552559Y-400159D01*
X-554387Y-398757D01*
X-556516Y-397875D01*
X-558800Y-397575D01*
D02*
G37*
G36*
X-584200D02*
X-586484Y-397875D01*
X-588613Y-398757D01*
X-590441Y-400159D01*
X-591843Y-401987D01*
X-592725Y-404116D01*
X-593026Y-406400D01*
X-592725Y-408684D01*
X-591843Y-410813D01*
X-590441Y-412641D01*
X-588613Y-414043D01*
X-586484Y-414925D01*
X-584200Y-415225D01*
X-581916Y-414925D01*
X-579787Y-414043D01*
X-577959Y-412641D01*
X-576557Y-410813D01*
X-575675Y-408684D01*
X-575374Y-406400D01*
X-575675Y-404116D01*
X-576557Y-401987D01*
X-577959Y-400159D01*
X-579787Y-398757D01*
X-581916Y-397875D01*
X-584200Y-397575D01*
D02*
G37*
G36*
X-609600D02*
X-611884Y-397875D01*
X-614013Y-398757D01*
X-615841Y-400159D01*
X-617243Y-401987D01*
X-618125Y-404116D01*
X-618425Y-406400D01*
X-618125Y-408684D01*
X-617243Y-410813D01*
X-615841Y-412641D01*
X-614013Y-414043D01*
X-611884Y-414925D01*
X-609600Y-415225D01*
X-607316Y-414925D01*
X-605187Y-414043D01*
X-603359Y-412641D01*
X-601957Y-410813D01*
X-601075Y-408684D01*
X-600774Y-406400D01*
X-601075Y-404116D01*
X-601957Y-401987D01*
X-603359Y-400159D01*
X-605187Y-398757D01*
X-607316Y-397875D01*
X-609600Y-397575D01*
D02*
G37*
G36*
X-635000D02*
X-637284Y-397875D01*
X-639413Y-398757D01*
X-641241Y-400159D01*
X-642643Y-401987D01*
X-643525Y-404116D01*
X-643826Y-406400D01*
X-643525Y-408684D01*
X-642643Y-410813D01*
X-641241Y-412641D01*
X-639413Y-414043D01*
X-637284Y-414925D01*
X-635000Y-415225D01*
X-632716Y-414925D01*
X-630587Y-414043D01*
X-628759Y-412641D01*
X-627357Y-410813D01*
X-626475Y-408684D01*
X-626175Y-406400D01*
X-626475Y-404116D01*
X-627357Y-401987D01*
X-628759Y-400159D01*
X-630587Y-398757D01*
X-632716Y-397875D01*
X-635000Y-397575D01*
D02*
G37*
G36*
X-660400D02*
X-662684Y-397875D01*
X-664813Y-398757D01*
X-666641Y-400159D01*
X-668043Y-401987D01*
X-668925Y-404116D01*
X-669225Y-406400D01*
X-668925Y-408684D01*
X-668043Y-410813D01*
X-666641Y-412641D01*
X-664813Y-414043D01*
X-662684Y-414925D01*
X-660400Y-415225D01*
X-658116Y-414925D01*
X-655987Y-414043D01*
X-654159Y-412641D01*
X-652757Y-410813D01*
X-651875Y-408684D01*
X-651574Y-406400D01*
X-651875Y-404116D01*
X-652757Y-401987D01*
X-654159Y-400159D01*
X-655987Y-398757D01*
X-658116Y-397875D01*
X-660400Y-397575D01*
D02*
G37*
G36*
X-685800D02*
X-688084Y-397875D01*
X-690213Y-398757D01*
X-692041Y-400159D01*
X-693443Y-401987D01*
X-694325Y-404116D01*
X-694625Y-406400D01*
X-694325Y-408684D01*
X-693443Y-410813D01*
X-692041Y-412641D01*
X-690213Y-414043D01*
X-688084Y-414925D01*
X-685800Y-415225D01*
X-683516Y-414925D01*
X-681387Y-414043D01*
X-679559Y-412641D01*
X-678157Y-410813D01*
X-677275Y-408684D01*
X-676974Y-406400D01*
X-677275Y-404116D01*
X-678157Y-401987D01*
X-679559Y-400159D01*
X-681387Y-398757D01*
X-683516Y-397875D01*
X-685800Y-397575D01*
D02*
G37*
G36*
X-736600Y-372174D02*
X-738884Y-372475D01*
X-741013Y-373357D01*
X-742841Y-374759D01*
X-744243Y-376587D01*
X-745125Y-378716D01*
X-745425Y-381000D01*
X-745125Y-383284D01*
X-744243Y-385413D01*
X-742841Y-387241D01*
X-741013Y-388643D01*
X-739169Y-389407D01*
Y-397552D01*
X-740350D01*
X-742301Y-397940D01*
X-743955Y-399045D01*
X-745060Y-400699D01*
X-745448Y-402650D01*
Y-410150D01*
X-745060Y-412101D01*
X-743955Y-413755D01*
X-742301Y-414860D01*
X-740350Y-415248D01*
X-732850D01*
X-730899Y-414860D01*
X-729245Y-413755D01*
X-728140Y-412101D01*
X-727752Y-410150D01*
Y-402650D01*
X-728140Y-400699D01*
X-729245Y-399045D01*
X-730899Y-397940D01*
X-732850Y-397552D01*
X-734031D01*
Y-389407D01*
X-732187Y-388643D01*
X-730359Y-387241D01*
X-728957Y-385413D01*
X-728075Y-383284D01*
X-727775Y-381000D01*
X-728075Y-378716D01*
X-728957Y-376587D01*
X-730359Y-374759D01*
X-732187Y-373357D01*
X-734316Y-372475D01*
X-736600Y-372174D01*
D02*
G37*
G36*
X-701241Y-407670D02*
X-709930D01*
Y-416359D01*
X-708579Y-416182D01*
X-706137Y-415170D01*
X-704039Y-413561D01*
X-702430Y-411463D01*
X-701418Y-409021D01*
X-701241Y-407670D01*
D02*
G37*
G36*
X-712470D02*
X-721159D01*
X-720982Y-409021D01*
X-719970Y-411463D01*
X-718361Y-413561D01*
X-716263Y-415170D01*
X-713821Y-416182D01*
X-712470Y-416359D01*
Y-407670D01*
D02*
G37*
G36*
X0Y8826D02*
X-2284Y8525D01*
X-4413Y7643D01*
X-6241Y6241D01*
X-7643Y4413D01*
X-8525Y2284D01*
X-8826Y0D01*
X-8525Y-2284D01*
X-7643Y-4413D01*
X-6241Y-6241D01*
X-4413Y-7643D01*
X-2284Y-8525D01*
X0Y-8826D01*
X2284Y-8525D01*
X4413Y-7643D01*
X6241Y-6241D01*
X7643Y-4413D01*
X8525Y-2284D01*
X8826Y0D01*
X8525Y2284D01*
X7643Y4413D01*
X6241Y6241D01*
X4413Y7643D01*
X2284Y8525D01*
X0Y8826D01*
D02*
G37*
G36*
X-25400D02*
X-27684Y8525D01*
X-29813Y7643D01*
X-31641Y6241D01*
X-33043Y4413D01*
X-33925Y2284D01*
X-34225Y0D01*
X-33925Y-2284D01*
X-33043Y-4413D01*
X-31641Y-6241D01*
X-29813Y-7643D01*
X-27684Y-8525D01*
X-25400Y-8826D01*
X-23116Y-8525D01*
X-20987Y-7643D01*
X-19159Y-6241D01*
X-17757Y-4413D01*
X-16875Y-2284D01*
X-16574Y0D01*
X-16875Y2284D01*
X-17757Y4413D01*
X-19159Y6241D01*
X-20987Y7643D01*
X-23116Y8525D01*
X-25400Y8826D01*
D02*
G37*
G36*
X-50800D02*
X-53084Y8525D01*
X-55213Y7643D01*
X-57041Y6241D01*
X-58443Y4413D01*
X-59325Y2284D01*
X-59626Y0D01*
X-59325Y-2284D01*
X-58443Y-4413D01*
X-57041Y-6241D01*
X-55213Y-7643D01*
X-53084Y-8525D01*
X-50800Y-8826D01*
X-48516Y-8525D01*
X-46387Y-7643D01*
X-44559Y-6241D01*
X-43157Y-4413D01*
X-42275Y-2284D01*
X-41975Y0D01*
X-42275Y2284D01*
X-43157Y4413D01*
X-44559Y6241D01*
X-46387Y7643D01*
X-48516Y8525D01*
X-50800Y8826D01*
D02*
G37*
G36*
X-76200D02*
X-78484Y8525D01*
X-80613Y7643D01*
X-82441Y6241D01*
X-83843Y4413D01*
X-84725Y2284D01*
X-85026Y0D01*
X-84725Y-2284D01*
X-83843Y-4413D01*
X-82441Y-6241D01*
X-80613Y-7643D01*
X-78484Y-8525D01*
X-76200Y-8826D01*
X-73916Y-8525D01*
X-71787Y-7643D01*
X-69959Y-6241D01*
X-68557Y-4413D01*
X-67675Y-2284D01*
X-67375Y0D01*
X-67675Y2284D01*
X-68557Y4413D01*
X-69959Y6241D01*
X-71787Y7643D01*
X-73916Y8525D01*
X-76200Y8826D01*
D02*
G37*
G36*
X-101600D02*
X-103884Y8525D01*
X-106013Y7643D01*
X-107841Y6241D01*
X-109243Y4413D01*
X-110125Y2284D01*
X-110426Y0D01*
X-110125Y-2284D01*
X-109243Y-4413D01*
X-107841Y-6241D01*
X-106013Y-7643D01*
X-103884Y-8525D01*
X-101600Y-8826D01*
X-99316Y-8525D01*
X-97187Y-7643D01*
X-95359Y-6241D01*
X-93957Y-4413D01*
X-93075Y-2284D01*
X-92774Y0D01*
X-93075Y2284D01*
X-93957Y4413D01*
X-95359Y6241D01*
X-97187Y7643D01*
X-99316Y8525D01*
X-101600Y8826D01*
D02*
G37*
G36*
X-127000D02*
X-129284Y8525D01*
X-131413Y7643D01*
X-133241Y6241D01*
X-134643Y4413D01*
X-135525Y2284D01*
X-135826Y0D01*
X-135525Y-2284D01*
X-134643Y-4413D01*
X-133241Y-6241D01*
X-131413Y-7643D01*
X-129284Y-8525D01*
X-127000Y-8826D01*
X-124716Y-8525D01*
X-122587Y-7643D01*
X-120759Y-6241D01*
X-119357Y-4413D01*
X-118475Y-2284D01*
X-118174Y0D01*
X-118475Y2284D01*
X-119357Y4413D01*
X-120759Y6241D01*
X-122587Y7643D01*
X-124716Y8525D01*
X-127000Y8826D01*
D02*
G37*
G36*
X-152400D02*
X-154684Y8525D01*
X-156813Y7643D01*
X-158641Y6241D01*
X-160043Y4413D01*
X-160925Y2284D01*
X-161225Y0D01*
X-160925Y-2284D01*
X-160043Y-4413D01*
X-158641Y-6241D01*
X-156813Y-7643D01*
X-154684Y-8525D01*
X-152400Y-8826D01*
X-150116Y-8525D01*
X-147987Y-7643D01*
X-146159Y-6241D01*
X-144757Y-4413D01*
X-143875Y-2284D01*
X-143574Y0D01*
X-143875Y2284D01*
X-144757Y4413D01*
X-146159Y6241D01*
X-147987Y7643D01*
X-150116Y8525D01*
X-152400Y8826D01*
D02*
G37*
G36*
X-177800D02*
X-180084Y8525D01*
X-182213Y7643D01*
X-184041Y6241D01*
X-185443Y4413D01*
X-186325Y2284D01*
X-186625Y0D01*
X-186325Y-2284D01*
X-185443Y-4413D01*
X-184041Y-6241D01*
X-182213Y-7643D01*
X-180084Y-8525D01*
X-177800Y-8826D01*
X-175516Y-8525D01*
X-173387Y-7643D01*
X-171559Y-6241D01*
X-170157Y-4413D01*
X-169275Y-2284D01*
X-168974Y0D01*
X-169275Y2284D01*
X-170157Y4413D01*
X-171559Y6241D01*
X-173387Y7643D01*
X-175516Y8525D01*
X-177800Y8826D01*
D02*
G37*
G36*
X-203200D02*
X-205484Y8525D01*
X-207613Y7643D01*
X-209441Y6241D01*
X-210843Y4413D01*
X-211725Y2284D01*
X-212026Y0D01*
X-211725Y-2284D01*
X-210843Y-4413D01*
X-209441Y-6241D01*
X-207613Y-7643D01*
X-205484Y-8525D01*
X-203200Y-8826D01*
X-200916Y-8525D01*
X-198787Y-7643D01*
X-196959Y-6241D01*
X-195557Y-4413D01*
X-194675Y-2284D01*
X-194375Y0D01*
X-194675Y2284D01*
X-195557Y4413D01*
X-196959Y6241D01*
X-198787Y7643D01*
X-200916Y8525D01*
X-203200Y8826D01*
D02*
G37*
G36*
X-228600D02*
X-230884Y8525D01*
X-233013Y7643D01*
X-234841Y6241D01*
X-236243Y4413D01*
X-237125Y2284D01*
X-237425Y0D01*
X-237125Y-2284D01*
X-236243Y-4413D01*
X-234841Y-6241D01*
X-233013Y-7643D01*
X-230884Y-8525D01*
X-228600Y-8826D01*
X-226316Y-8525D01*
X-224187Y-7643D01*
X-222359Y-6241D01*
X-220957Y-4413D01*
X-220075Y-2284D01*
X-219774Y0D01*
X-220075Y2284D01*
X-220957Y4413D01*
X-222359Y6241D01*
X-224187Y7643D01*
X-226316Y8525D01*
X-228600Y8826D01*
D02*
G37*
G36*
X-254000D02*
X-256284Y8525D01*
X-258413Y7643D01*
X-260241Y6241D01*
X-261643Y4413D01*
X-262525Y2284D01*
X-262826Y0D01*
X-262525Y-2284D01*
X-261643Y-4413D01*
X-260241Y-6241D01*
X-258413Y-7643D01*
X-256284Y-8525D01*
X-254000Y-8826D01*
X-251716Y-8525D01*
X-249587Y-7643D01*
X-247759Y-6241D01*
X-246357Y-4413D01*
X-245475Y-2284D01*
X-245175Y0D01*
X-245475Y2284D01*
X-246357Y4413D01*
X-247759Y6241D01*
X-249587Y7643D01*
X-251716Y8525D01*
X-254000Y8826D01*
D02*
G37*
G36*
X-279400D02*
X-281684Y8525D01*
X-283813Y7643D01*
X-285641Y6241D01*
X-287043Y4413D01*
X-287925Y2284D01*
X-288225Y0D01*
X-287925Y-2284D01*
X-287043Y-4413D01*
X-285641Y-6241D01*
X-283813Y-7643D01*
X-281684Y-8525D01*
X-279400Y-8826D01*
X-277116Y-8525D01*
X-274987Y-7643D01*
X-273159Y-6241D01*
X-271757Y-4413D01*
X-270875Y-2284D01*
X-270574Y0D01*
X-270875Y2284D01*
X-271757Y4413D01*
X-273159Y6241D01*
X-274987Y7643D01*
X-277116Y8525D01*
X-279400Y8826D01*
D02*
G37*
G36*
X-304800D02*
X-307084Y8525D01*
X-309213Y7643D01*
X-311041Y6241D01*
X-312443Y4413D01*
X-313325Y2284D01*
X-313626Y0D01*
X-313325Y-2284D01*
X-312443Y-4413D01*
X-311041Y-6241D01*
X-309213Y-7643D01*
X-307084Y-8525D01*
X-304800Y-8826D01*
X-302516Y-8525D01*
X-300387Y-7643D01*
X-298559Y-6241D01*
X-297157Y-4413D01*
X-296275Y-2284D01*
X-295975Y0D01*
X-296275Y2284D01*
X-297157Y4413D01*
X-298559Y6241D01*
X-300387Y7643D01*
X-302516Y8525D01*
X-304800Y8826D01*
D02*
G37*
G36*
X-330200D02*
X-332484Y8525D01*
X-334613Y7643D01*
X-336441Y6241D01*
X-337843Y4413D01*
X-338725Y2284D01*
X-339025Y0D01*
X-338725Y-2284D01*
X-337843Y-4413D01*
X-336441Y-6241D01*
X-334613Y-7643D01*
X-332484Y-8525D01*
X-330200Y-8826D01*
X-327916Y-8525D01*
X-325787Y-7643D01*
X-323959Y-6241D01*
X-322557Y-4413D01*
X-321675Y-2284D01*
X-321375Y0D01*
X-321675Y2284D01*
X-322557Y4413D01*
X-323959Y6241D01*
X-325787Y7643D01*
X-327916Y8525D01*
X-330200Y8826D01*
D02*
G37*
G36*
X-355600D02*
X-357884Y8525D01*
X-360013Y7643D01*
X-361841Y6241D01*
X-363243Y4413D01*
X-364125Y2284D01*
X-364426Y0D01*
X-364125Y-2284D01*
X-363243Y-4413D01*
X-361841Y-6241D01*
X-360013Y-7643D01*
X-357884Y-8525D01*
X-355600Y-8826D01*
X-353316Y-8525D01*
X-351187Y-7643D01*
X-349359Y-6241D01*
X-347957Y-4413D01*
X-347075Y-2284D01*
X-346774Y0D01*
X-347075Y2284D01*
X-347957Y4413D01*
X-349359Y6241D01*
X-351187Y7643D01*
X-353316Y8525D01*
X-355600Y8826D01*
D02*
G37*
G36*
X-381000D02*
X-383284Y8525D01*
X-385413Y7643D01*
X-387241Y6241D01*
X-388643Y4413D01*
X-389525Y2284D01*
X-389826Y0D01*
X-389525Y-2284D01*
X-388643Y-4413D01*
X-387241Y-6241D01*
X-385413Y-7643D01*
X-383284Y-8525D01*
X-381000Y-8826D01*
X-378716Y-8525D01*
X-376587Y-7643D01*
X-374759Y-6241D01*
X-373357Y-4413D01*
X-372475Y-2284D01*
X-372174Y0D01*
X-372475Y2284D01*
X-373357Y4413D01*
X-374759Y6241D01*
X-376587Y7643D01*
X-378716Y8525D01*
X-381000Y8826D01*
D02*
G37*
G36*
X-406400D02*
X-408684Y8525D01*
X-410813Y7643D01*
X-412641Y6241D01*
X-414043Y4413D01*
X-414925Y2284D01*
X-415225Y0D01*
X-414925Y-2284D01*
X-414043Y-4413D01*
X-412641Y-6241D01*
X-410813Y-7643D01*
X-408684Y-8525D01*
X-406400Y-8826D01*
X-404116Y-8525D01*
X-401987Y-7643D01*
X-400159Y-6241D01*
X-398757Y-4413D01*
X-397875Y-2284D01*
X-397575Y0D01*
X-397875Y2284D01*
X-398757Y4413D01*
X-400159Y6241D01*
X-401987Y7643D01*
X-404116Y8525D01*
X-406400Y8826D01*
D02*
G37*
G36*
X-431800D02*
X-434084Y8525D01*
X-436213Y7643D01*
X-438041Y6241D01*
X-439443Y4413D01*
X-440325Y2284D01*
X-440625Y0D01*
X-440325Y-2284D01*
X-439443Y-4413D01*
X-438041Y-6241D01*
X-436213Y-7643D01*
X-434084Y-8525D01*
X-431800Y-8826D01*
X-429516Y-8525D01*
X-427387Y-7643D01*
X-425559Y-6241D01*
X-424157Y-4413D01*
X-423275Y-2284D01*
X-422975Y0D01*
X-423275Y2284D01*
X-424157Y4413D01*
X-425559Y6241D01*
X-427387Y7643D01*
X-429516Y8525D01*
X-431800Y8826D01*
D02*
G37*
G36*
X-457200D02*
X-459484Y8525D01*
X-461613Y7643D01*
X-463441Y6241D01*
X-464843Y4413D01*
X-465725Y2284D01*
X-466026Y0D01*
X-465725Y-2284D01*
X-464843Y-4413D01*
X-463441Y-6241D01*
X-461613Y-7643D01*
X-459484Y-8525D01*
X-457200Y-8826D01*
X-454916Y-8525D01*
X-452787Y-7643D01*
X-450959Y-6241D01*
X-449557Y-4413D01*
X-448675Y-2284D01*
X-448374Y0D01*
X-448675Y2284D01*
X-449557Y4413D01*
X-450959Y6241D01*
X-452787Y7643D01*
X-454916Y8525D01*
X-457200Y8826D01*
D02*
G37*
G36*
X-482600D02*
X-484884Y8525D01*
X-487013Y7643D01*
X-488841Y6241D01*
X-490243Y4413D01*
X-491125Y2284D01*
X-491426Y0D01*
X-491125Y-2284D01*
X-490361Y-4128D01*
X-496364Y-10131D01*
X-515561D01*
X-516544Y-10326D01*
X-517378Y-10883D01*
X-522517Y-16022D01*
X-523074Y-16855D01*
X-523269Y-17839D01*
Y-38100D01*
X-523074Y-39083D01*
X-522517Y-39917D01*
X-325667Y-236767D01*
X-325667Y-236767D01*
X-324833Y-237324D01*
X-323850Y-237519D01*
X-323850Y-237519D01*
X-125550D01*
Y-252150D01*
X-103050D01*
Y-229650D01*
X-125550D01*
Y-232381D01*
X-322786D01*
X-518131Y-37036D01*
Y-18903D01*
X-514497Y-15269D01*
X-495300D01*
X-494317Y-15074D01*
X-493483Y-14517D01*
X-486728Y-7761D01*
X-484884Y-8525D01*
X-482600Y-8826D01*
X-480316Y-8525D01*
X-478187Y-7643D01*
X-476359Y-6241D01*
X-474957Y-4413D01*
X-474075Y-2284D01*
X-473774Y0D01*
X-474075Y2284D01*
X-474957Y4413D01*
X-476359Y6241D01*
X-478187Y7643D01*
X-480316Y8525D01*
X-482600Y8826D01*
D02*
G37*
G36*
X-508000D02*
X-510284Y8525D01*
X-512413Y7643D01*
X-514241Y6241D01*
X-515643Y4413D01*
X-516525Y2284D01*
X-516825Y0D01*
X-516525Y-2284D01*
X-515643Y-4413D01*
X-514241Y-6241D01*
X-512413Y-7643D01*
X-510284Y-8525D01*
X-508000Y-8826D01*
X-505716Y-8525D01*
X-503587Y-7643D01*
X-501759Y-6241D01*
X-500357Y-4413D01*
X-499475Y-2284D01*
X-499174Y0D01*
X-499475Y2284D01*
X-500357Y4413D01*
X-501759Y6241D01*
X-503587Y7643D01*
X-505716Y8525D01*
X-508000Y8826D01*
D02*
G37*
G36*
X-533400D02*
X-535684Y8525D01*
X-537813Y7643D01*
X-539641Y6241D01*
X-541043Y4413D01*
X-541925Y2284D01*
X-542225Y0D01*
X-541925Y-2284D01*
X-541043Y-4413D01*
X-539641Y-6241D01*
X-537813Y-7643D01*
X-535684Y-8525D01*
X-533400Y-8826D01*
X-531116Y-8525D01*
X-528987Y-7643D01*
X-527159Y-6241D01*
X-525757Y-4413D01*
X-524875Y-2284D01*
X-524575Y0D01*
X-524875Y2284D01*
X-525757Y4413D01*
X-527159Y6241D01*
X-528987Y7643D01*
X-531116Y8525D01*
X-533400Y8826D01*
D02*
G37*
G36*
X0Y-16574D02*
X-2284Y-16875D01*
X-4413Y-17757D01*
X-6241Y-19159D01*
X-7643Y-20987D01*
X-8525Y-23116D01*
X-8826Y-25400D01*
X-8525Y-27684D01*
X-7643Y-29813D01*
X-6241Y-31641D01*
X-4413Y-33043D01*
X-2284Y-33925D01*
X0Y-34225D01*
X2284Y-33925D01*
X4413Y-33043D01*
X6241Y-31641D01*
X7643Y-29813D01*
X8525Y-27684D01*
X8826Y-25400D01*
X8525Y-23116D01*
X7643Y-20987D01*
X6241Y-19159D01*
X4413Y-17757D01*
X2284Y-16875D01*
X0Y-16574D01*
D02*
G37*
G36*
X-25400D02*
X-27684Y-16875D01*
X-29813Y-17757D01*
X-31641Y-19159D01*
X-33043Y-20987D01*
X-33925Y-23116D01*
X-34225Y-25400D01*
X-33925Y-27684D01*
X-33043Y-29813D01*
X-31641Y-31641D01*
X-29813Y-33043D01*
X-27684Y-33925D01*
X-25400Y-34225D01*
X-23116Y-33925D01*
X-20987Y-33043D01*
X-19159Y-31641D01*
X-17757Y-29813D01*
X-16875Y-27684D01*
X-16574Y-25400D01*
X-16875Y-23116D01*
X-17757Y-20987D01*
X-19159Y-19159D01*
X-20987Y-17757D01*
X-23116Y-16875D01*
X-25400Y-16574D01*
D02*
G37*
G36*
X-50800D02*
X-53084Y-16875D01*
X-55213Y-17757D01*
X-57041Y-19159D01*
X-58443Y-20987D01*
X-59325Y-23116D01*
X-59626Y-25400D01*
X-59325Y-27684D01*
X-58443Y-29813D01*
X-57041Y-31641D01*
X-55213Y-33043D01*
X-53084Y-33925D01*
X-50800Y-34225D01*
X-48516Y-33925D01*
X-46387Y-33043D01*
X-44559Y-31641D01*
X-43157Y-29813D01*
X-42275Y-27684D01*
X-41975Y-25400D01*
X-42275Y-23116D01*
X-43157Y-20987D01*
X-44559Y-19159D01*
X-46387Y-17757D01*
X-48516Y-16875D01*
X-50800Y-16574D01*
D02*
G37*
G36*
X-76200D02*
X-78484Y-16875D01*
X-80613Y-17757D01*
X-82441Y-19159D01*
X-83843Y-20987D01*
X-84725Y-23116D01*
X-85026Y-25400D01*
X-84725Y-27684D01*
X-83843Y-29813D01*
X-82441Y-31641D01*
X-80613Y-33043D01*
X-78484Y-33925D01*
X-76200Y-34225D01*
X-73916Y-33925D01*
X-71787Y-33043D01*
X-69959Y-31641D01*
X-68557Y-29813D01*
X-67675Y-27684D01*
X-67375Y-25400D01*
X-67675Y-23116D01*
X-68557Y-20987D01*
X-69959Y-19159D01*
X-71787Y-17757D01*
X-73916Y-16875D01*
X-76200Y-16574D01*
D02*
G37*
G36*
X-101600D02*
X-103884Y-16875D01*
X-106013Y-17757D01*
X-107841Y-19159D01*
X-109243Y-20987D01*
X-110125Y-23116D01*
X-110426Y-25400D01*
X-110125Y-27684D01*
X-109243Y-29813D01*
X-107841Y-31641D01*
X-106013Y-33043D01*
X-103884Y-33925D01*
X-101600Y-34225D01*
X-99316Y-33925D01*
X-97187Y-33043D01*
X-95359Y-31641D01*
X-93957Y-29813D01*
X-93075Y-27684D01*
X-92774Y-25400D01*
X-93075Y-23116D01*
X-93957Y-20987D01*
X-95359Y-19159D01*
X-97187Y-17757D01*
X-99316Y-16875D01*
X-101600Y-16574D01*
D02*
G37*
G36*
X-127000D02*
X-129284Y-16875D01*
X-131413Y-17757D01*
X-133241Y-19159D01*
X-134643Y-20987D01*
X-135525Y-23116D01*
X-135826Y-25400D01*
X-135525Y-27684D01*
X-134643Y-29813D01*
X-133241Y-31641D01*
X-131413Y-33043D01*
X-129284Y-33925D01*
X-127000Y-34225D01*
X-124716Y-33925D01*
X-122587Y-33043D01*
X-120759Y-31641D01*
X-119357Y-29813D01*
X-118475Y-27684D01*
X-118174Y-25400D01*
X-118475Y-23116D01*
X-119357Y-20987D01*
X-120759Y-19159D01*
X-122587Y-17757D01*
X-124716Y-16875D01*
X-127000Y-16574D01*
D02*
G37*
G36*
X-152400D02*
X-154684Y-16875D01*
X-156813Y-17757D01*
X-158641Y-19159D01*
X-160043Y-20987D01*
X-160925Y-23116D01*
X-161225Y-25400D01*
X-160925Y-27684D01*
X-160043Y-29813D01*
X-158641Y-31641D01*
X-156813Y-33043D01*
X-154684Y-33925D01*
X-152400Y-34225D01*
X-150116Y-33925D01*
X-147987Y-33043D01*
X-146159Y-31641D01*
X-144757Y-29813D01*
X-143875Y-27684D01*
X-143574Y-25400D01*
X-143875Y-23116D01*
X-144757Y-20987D01*
X-146159Y-19159D01*
X-147987Y-17757D01*
X-150116Y-16875D01*
X-152400Y-16574D01*
D02*
G37*
G36*
X-177800D02*
X-180084Y-16875D01*
X-182213Y-17757D01*
X-184041Y-19159D01*
X-185443Y-20987D01*
X-186325Y-23116D01*
X-186625Y-25400D01*
X-186325Y-27684D01*
X-185443Y-29813D01*
X-184041Y-31641D01*
X-182213Y-33043D01*
X-180084Y-33925D01*
X-177800Y-34225D01*
X-175516Y-33925D01*
X-173387Y-33043D01*
X-171559Y-31641D01*
X-170157Y-29813D01*
X-169275Y-27684D01*
X-168974Y-25400D01*
X-169275Y-23116D01*
X-170157Y-20987D01*
X-171559Y-19159D01*
X-173387Y-17757D01*
X-175516Y-16875D01*
X-177800Y-16574D01*
D02*
G37*
G36*
X-203200D02*
X-205484Y-16875D01*
X-207613Y-17757D01*
X-209441Y-19159D01*
X-210843Y-20987D01*
X-211725Y-23116D01*
X-212026Y-25400D01*
X-211725Y-27684D01*
X-210843Y-29813D01*
X-209441Y-31641D01*
X-207613Y-33043D01*
X-205484Y-33925D01*
X-203200Y-34225D01*
X-200916Y-33925D01*
X-198787Y-33043D01*
X-196959Y-31641D01*
X-195557Y-29813D01*
X-194675Y-27684D01*
X-194375Y-25400D01*
X-194675Y-23116D01*
X-195557Y-20987D01*
X-196959Y-19159D01*
X-198787Y-17757D01*
X-200916Y-16875D01*
X-203200Y-16574D01*
D02*
G37*
G36*
X-228600D02*
X-230884Y-16875D01*
X-233013Y-17757D01*
X-234841Y-19159D01*
X-236243Y-20987D01*
X-237125Y-23116D01*
X-237425Y-25400D01*
X-237125Y-27684D01*
X-236243Y-29813D01*
X-234841Y-31641D01*
X-233013Y-33043D01*
X-230884Y-33925D01*
X-228600Y-34225D01*
X-226316Y-33925D01*
X-224187Y-33043D01*
X-222359Y-31641D01*
X-220957Y-29813D01*
X-220075Y-27684D01*
X-219774Y-25400D01*
X-220075Y-23116D01*
X-220957Y-20987D01*
X-222359Y-19159D01*
X-224187Y-17757D01*
X-226316Y-16875D01*
X-228600Y-16574D01*
D02*
G37*
G36*
X-254000D02*
X-256284Y-16875D01*
X-258413Y-17757D01*
X-260241Y-19159D01*
X-261643Y-20987D01*
X-262525Y-23116D01*
X-262826Y-25400D01*
X-262525Y-27684D01*
X-261643Y-29813D01*
X-260241Y-31641D01*
X-258413Y-33043D01*
X-256284Y-33925D01*
X-254000Y-34225D01*
X-251716Y-33925D01*
X-249587Y-33043D01*
X-247759Y-31641D01*
X-246357Y-29813D01*
X-245475Y-27684D01*
X-245175Y-25400D01*
X-245475Y-23116D01*
X-246357Y-20987D01*
X-247759Y-19159D01*
X-249587Y-17757D01*
X-251716Y-16875D01*
X-254000Y-16574D01*
D02*
G37*
G36*
X-279400D02*
X-281684Y-16875D01*
X-283813Y-17757D01*
X-285641Y-19159D01*
X-287043Y-20987D01*
X-287925Y-23116D01*
X-288225Y-25400D01*
X-287925Y-27684D01*
X-287043Y-29813D01*
X-285641Y-31641D01*
X-283813Y-33043D01*
X-281684Y-33925D01*
X-279400Y-34225D01*
X-277116Y-33925D01*
X-274987Y-33043D01*
X-273159Y-31641D01*
X-271757Y-29813D01*
X-270875Y-27684D01*
X-270574Y-25400D01*
X-270875Y-23116D01*
X-271757Y-20987D01*
X-273159Y-19159D01*
X-274987Y-17757D01*
X-277116Y-16875D01*
X-279400Y-16574D01*
D02*
G37*
G36*
X-304800D02*
X-307084Y-16875D01*
X-309213Y-17757D01*
X-311041Y-19159D01*
X-312443Y-20987D01*
X-313325Y-23116D01*
X-313626Y-25400D01*
X-313325Y-27684D01*
X-312443Y-29813D01*
X-311041Y-31641D01*
X-309213Y-33043D01*
X-307084Y-33925D01*
X-304800Y-34225D01*
X-302516Y-33925D01*
X-300387Y-33043D01*
X-298559Y-31641D01*
X-297157Y-29813D01*
X-296275Y-27684D01*
X-295975Y-25400D01*
X-296275Y-23116D01*
X-297157Y-20987D01*
X-298559Y-19159D01*
X-300387Y-17757D01*
X-302516Y-16875D01*
X-304800Y-16574D01*
D02*
G37*
G36*
X-330200D02*
X-332484Y-16875D01*
X-334613Y-17757D01*
X-336441Y-19159D01*
X-337843Y-20987D01*
X-338725Y-23116D01*
X-339025Y-25400D01*
X-338725Y-27684D01*
X-337843Y-29813D01*
X-336441Y-31641D01*
X-334613Y-33043D01*
X-332484Y-33925D01*
X-330200Y-34225D01*
X-327916Y-33925D01*
X-325787Y-33043D01*
X-323959Y-31641D01*
X-322557Y-29813D01*
X-321675Y-27684D01*
X-321375Y-25400D01*
X-321675Y-23116D01*
X-322557Y-20987D01*
X-323959Y-19159D01*
X-325787Y-17757D01*
X-327916Y-16875D01*
X-330200Y-16574D01*
D02*
G37*
G36*
X-355600D02*
X-357884Y-16875D01*
X-360013Y-17757D01*
X-361841Y-19159D01*
X-363243Y-20987D01*
X-364125Y-23116D01*
X-364426Y-25400D01*
X-364125Y-27684D01*
X-363243Y-29813D01*
X-361841Y-31641D01*
X-360013Y-33043D01*
X-357884Y-33925D01*
X-355600Y-34225D01*
X-353316Y-33925D01*
X-351187Y-33043D01*
X-349359Y-31641D01*
X-347957Y-29813D01*
X-347075Y-27684D01*
X-346774Y-25400D01*
X-347075Y-23116D01*
X-347957Y-20987D01*
X-349359Y-19159D01*
X-351187Y-17757D01*
X-353316Y-16875D01*
X-355600Y-16574D01*
D02*
G37*
G36*
X-381000D02*
X-383284Y-16875D01*
X-385413Y-17757D01*
X-387241Y-19159D01*
X-388643Y-20987D01*
X-389525Y-23116D01*
X-389826Y-25400D01*
X-389525Y-27684D01*
X-388643Y-29813D01*
X-387241Y-31641D01*
X-385413Y-33043D01*
X-383284Y-33925D01*
X-381000Y-34225D01*
X-378716Y-33925D01*
X-376587Y-33043D01*
X-374759Y-31641D01*
X-373357Y-29813D01*
X-372475Y-27684D01*
X-372174Y-25400D01*
X-372475Y-23116D01*
X-373357Y-20987D01*
X-374759Y-19159D01*
X-376587Y-17757D01*
X-378716Y-16875D01*
X-381000Y-16574D01*
D02*
G37*
G36*
X-406400D02*
X-408684Y-16875D01*
X-410813Y-17757D01*
X-412641Y-19159D01*
X-414043Y-20987D01*
X-414925Y-23116D01*
X-415225Y-25400D01*
X-414925Y-27684D01*
X-414043Y-29813D01*
X-412641Y-31641D01*
X-410813Y-33043D01*
X-408684Y-33925D01*
X-406400Y-34225D01*
X-404116Y-33925D01*
X-401987Y-33043D01*
X-400159Y-31641D01*
X-398757Y-29813D01*
X-397875Y-27684D01*
X-397575Y-25400D01*
X-397875Y-23116D01*
X-398757Y-20987D01*
X-400159Y-19159D01*
X-401987Y-17757D01*
X-404116Y-16875D01*
X-406400Y-16574D01*
D02*
G37*
G36*
X-431800D02*
X-434084Y-16875D01*
X-436213Y-17757D01*
X-438041Y-19159D01*
X-439443Y-20987D01*
X-440325Y-23116D01*
X-440625Y-25400D01*
X-440325Y-27684D01*
X-439443Y-29813D01*
X-438041Y-31641D01*
X-436213Y-33043D01*
X-434084Y-33925D01*
X-431800Y-34225D01*
X-429516Y-33925D01*
X-427387Y-33043D01*
X-425559Y-31641D01*
X-424157Y-29813D01*
X-423275Y-27684D01*
X-422975Y-25400D01*
X-423275Y-23116D01*
X-424157Y-20987D01*
X-425559Y-19159D01*
X-427387Y-17757D01*
X-429516Y-16875D01*
X-431800Y-16574D01*
D02*
G37*
G36*
X-457200D02*
X-459484Y-16875D01*
X-461613Y-17757D01*
X-463441Y-19159D01*
X-464843Y-20987D01*
X-465725Y-23116D01*
X-466026Y-25400D01*
X-465725Y-27684D01*
X-464843Y-29813D01*
X-463441Y-31641D01*
X-461613Y-33043D01*
X-459484Y-33925D01*
X-457200Y-34225D01*
X-454916Y-33925D01*
X-452787Y-33043D01*
X-450959Y-31641D01*
X-449557Y-29813D01*
X-448675Y-27684D01*
X-448374Y-25400D01*
X-448675Y-23116D01*
X-449557Y-20987D01*
X-450959Y-19159D01*
X-452787Y-17757D01*
X-454916Y-16875D01*
X-457200Y-16574D01*
D02*
G37*
G36*
X-482600D02*
X-484884Y-16875D01*
X-487013Y-17757D01*
X-488841Y-19159D01*
X-490243Y-20987D01*
X-491125Y-23116D01*
X-491426Y-25400D01*
X-491125Y-27684D01*
X-490243Y-29813D01*
X-488841Y-31641D01*
X-487013Y-33043D01*
X-484884Y-33925D01*
X-482600Y-34225D01*
X-480316Y-33925D01*
X-478187Y-33043D01*
X-476359Y-31641D01*
X-474957Y-29813D01*
X-474075Y-27684D01*
X-473774Y-25400D01*
X-474075Y-23116D01*
X-474957Y-20987D01*
X-476359Y-19159D01*
X-478187Y-17757D01*
X-480316Y-16875D01*
X-482600Y-16574D01*
D02*
G37*
G36*
X-533400D02*
X-535684Y-16875D01*
X-537813Y-17757D01*
X-539641Y-19159D01*
X-541043Y-20987D01*
X-541925Y-23116D01*
X-542225Y-25400D01*
X-541925Y-27684D01*
X-541043Y-29813D01*
X-539641Y-31641D01*
X-537813Y-33043D01*
X-535684Y-33925D01*
X-533400Y-34225D01*
X-531116Y-33925D01*
X-528987Y-33043D01*
X-527159Y-31641D01*
X-525757Y-29813D01*
X-524875Y-27684D01*
X-524575Y-25400D01*
X-524875Y-23116D01*
X-525757Y-20987D01*
X-527159Y-19159D01*
X-528987Y-17757D01*
X-531116Y-16875D01*
X-533400Y-16574D01*
D02*
G37*
G36*
X-25400Y-59871D02*
X-28586Y-60185D01*
X-31649Y-61114D01*
X-34472Y-62623D01*
X-36946Y-64654D01*
X-38977Y-67128D01*
X-40486Y-69951D01*
X-41415Y-73014D01*
X-41729Y-76200D01*
X-41415Y-79386D01*
X-40486Y-82449D01*
X-38977Y-85272D01*
X-36946Y-87746D01*
X-34472Y-89777D01*
X-31649Y-91286D01*
X-28586Y-92215D01*
X-25400Y-92529D01*
X-22214Y-92215D01*
X-19151Y-91286D01*
X-16328Y-89777D01*
X-13854Y-87746D01*
X-11823Y-85272D01*
X-10314Y-82449D01*
X-9385Y-79386D01*
X-9071Y-76200D01*
X-9385Y-73014D01*
X-10314Y-69951D01*
X-11823Y-67128D01*
X-13854Y-64654D01*
X-16328Y-62623D01*
X-19151Y-61114D01*
X-22214Y-60185D01*
X-25400Y-59871D01*
D02*
G37*
G36*
X-520700D02*
X-523886Y-60185D01*
X-526949Y-61114D01*
X-529772Y-62623D01*
X-532246Y-64654D01*
X-534277Y-67128D01*
X-535786Y-69951D01*
X-536715Y-73014D01*
X-537029Y-76200D01*
X-536715Y-79386D01*
X-535786Y-82449D01*
X-534277Y-85272D01*
X-532246Y-87746D01*
X-529772Y-89777D01*
X-526949Y-91286D01*
X-523886Y-92215D01*
X-520700Y-92529D01*
X-517514Y-92215D01*
X-514451Y-91286D01*
X-511628Y-89777D01*
X-509154Y-87746D01*
X-507123Y-85272D01*
X-505614Y-82449D01*
X-504685Y-79386D01*
X-504371Y-76200D01*
X-504685Y-73014D01*
X-505614Y-69951D01*
X-507123Y-67128D01*
X-509154Y-64654D01*
X-511628Y-62623D01*
X-514451Y-61114D01*
X-517514Y-60185D01*
X-520700Y-59871D01*
D02*
G37*
G36*
X-113030Y-153419D02*
Y-164630D01*
X-101819D01*
X-102083Y-162626D01*
X-103346Y-159576D01*
X-105356Y-156956D01*
X-107976Y-154946D01*
X-111026Y-153683D01*
X-113030Y-153419D01*
D02*
G37*
G36*
X-115570Y-153419D02*
X-117574Y-153683D01*
X-120624Y-154946D01*
X-123244Y-156956D01*
X-125254Y-159576D01*
X-126517Y-162626D01*
X-126781Y-164630D01*
X-115570D01*
Y-153419D01*
D02*
G37*
G36*
X-101819Y-167170D02*
X-114300D01*
X-126781D01*
X-126517Y-169174D01*
X-125254Y-172224D01*
X-123244Y-174844D01*
X-120624Y-176854D01*
X-117574Y-178117D01*
X-115273Y-178420D01*
Y-179681D01*
X-117237Y-179939D01*
X-119973Y-181073D01*
X-122324Y-182876D01*
X-124127Y-185226D01*
X-125260Y-187963D01*
X-125647Y-190900D01*
X-125260Y-193837D01*
X-124127Y-196574D01*
X-122324Y-198924D01*
X-119973Y-200727D01*
X-117237Y-201861D01*
X-114300Y-202247D01*
X-111363Y-201861D01*
X-108626Y-200727D01*
X-106276Y-198924D01*
X-104473Y-196574D01*
X-103340Y-193837D01*
X-102953Y-190900D01*
X-103340Y-187963D01*
X-104473Y-185226D01*
X-106276Y-182876D01*
X-108626Y-181073D01*
X-111363Y-179939D01*
X-113327Y-179681D01*
Y-178420D01*
X-111026Y-178117D01*
X-107976Y-176854D01*
X-105356Y-174844D01*
X-103346Y-172224D01*
X-102083Y-169174D01*
X-101819Y-167170D01*
D02*
G37*
G36*
X-508000Y-16574D02*
X-510284Y-16875D01*
X-512413Y-17757D01*
X-514241Y-19159D01*
X-515643Y-20987D01*
X-516525Y-23116D01*
X-516825Y-25400D01*
X-516525Y-27684D01*
X-515643Y-29813D01*
X-514241Y-31641D01*
X-512413Y-33043D01*
X-510569Y-33807D01*
Y-38100D01*
X-510374Y-39083D01*
X-509817Y-39917D01*
X-325667Y-224067D01*
X-324833Y-224624D01*
X-323850Y-224819D01*
X-124518D01*
X-123535Y-224624D01*
X-122701Y-224067D01*
X-122543Y-223909D01*
X-122324Y-223924D01*
X-119973Y-225727D01*
X-117237Y-226861D01*
X-114300Y-227247D01*
X-111363Y-226861D01*
X-108626Y-225727D01*
X-106276Y-223924D01*
X-104473Y-221574D01*
X-103340Y-218837D01*
X-102953Y-215900D01*
X-103340Y-212963D01*
X-104473Y-210226D01*
X-106276Y-207876D01*
X-108626Y-206073D01*
X-111363Y-204939D01*
X-114300Y-204553D01*
X-117237Y-204939D01*
X-119973Y-206073D01*
X-122324Y-207876D01*
X-124127Y-210226D01*
X-125260Y-212963D01*
X-125647Y-215900D01*
X-125299Y-218548D01*
X-125871Y-219350D01*
X-126264Y-219681D01*
X-322786D01*
X-505431Y-37036D01*
Y-33807D01*
X-503587Y-33043D01*
X-501759Y-31641D01*
X-500357Y-29813D01*
X-499475Y-27684D01*
X-499174Y-25400D01*
X-499475Y-23116D01*
X-500357Y-20987D01*
X-501759Y-19159D01*
X-503587Y-17757D01*
X-505716Y-16875D01*
X-508000Y-16574D01*
D02*
G37*
G36*
X-25400Y-313871D02*
X-28586Y-314185D01*
X-31649Y-315114D01*
X-34472Y-316623D01*
X-36946Y-318654D01*
X-38977Y-321128D01*
X-40486Y-323951D01*
X-41415Y-327014D01*
X-41729Y-330200D01*
X-41415Y-333386D01*
X-40486Y-336449D01*
X-38977Y-339272D01*
X-36946Y-341746D01*
X-34472Y-343777D01*
X-31649Y-345286D01*
X-28586Y-346215D01*
X-25400Y-346529D01*
X-22214Y-346215D01*
X-19151Y-345286D01*
X-16328Y-343777D01*
X-13854Y-341746D01*
X-11823Y-339272D01*
X-10314Y-336449D01*
X-9385Y-333386D01*
X-9071Y-330200D01*
X-9385Y-327014D01*
X-10314Y-323951D01*
X-11823Y-321128D01*
X-13854Y-318654D01*
X-16328Y-316623D01*
X-19151Y-315114D01*
X-22214Y-314185D01*
X-25400Y-313871D01*
D02*
G37*
G36*
X-520700D02*
X-523886Y-314185D01*
X-526949Y-315114D01*
X-529772Y-316623D01*
X-532246Y-318654D01*
X-534277Y-321128D01*
X-535786Y-323951D01*
X-536715Y-327014D01*
X-537029Y-330200D01*
X-536715Y-333386D01*
X-535786Y-336449D01*
X-534277Y-339272D01*
X-532246Y-341746D01*
X-529772Y-343777D01*
X-526949Y-345286D01*
X-523886Y-346215D01*
X-520700Y-346529D01*
X-517514Y-346215D01*
X-514451Y-345286D01*
X-511628Y-343777D01*
X-509154Y-341746D01*
X-507123Y-339272D01*
X-505614Y-336449D01*
X-504685Y-333386D01*
X-504371Y-330200D01*
X-504685Y-327014D01*
X-505614Y-323951D01*
X-507123Y-321128D01*
X-509154Y-318654D01*
X-511628Y-316623D01*
X-514451Y-315114D01*
X-517514Y-314185D01*
X-520700Y-313871D01*
D02*
G37*
G36*
X0Y-372174D02*
X-2284Y-372475D01*
X-4413Y-373357D01*
X-6241Y-374759D01*
X-7643Y-376587D01*
X-8525Y-378716D01*
X-8826Y-381000D01*
X-8525Y-383284D01*
X-7643Y-385413D01*
X-6241Y-387241D01*
X-4413Y-388643D01*
X-2284Y-389525D01*
X0Y-389826D01*
X2284Y-389525D01*
X4413Y-388643D01*
X6241Y-387241D01*
X7643Y-385413D01*
X8525Y-383284D01*
X8826Y-381000D01*
X8525Y-378716D01*
X7643Y-376587D01*
X6241Y-374759D01*
X4413Y-373357D01*
X2284Y-372475D01*
X0Y-372174D01*
D02*
G37*
G36*
X-25400D02*
X-27684Y-372475D01*
X-29813Y-373357D01*
X-31641Y-374759D01*
X-33043Y-376587D01*
X-33925Y-378716D01*
X-34225Y-381000D01*
X-33925Y-383284D01*
X-33043Y-385413D01*
X-31641Y-387241D01*
X-29813Y-388643D01*
X-27684Y-389525D01*
X-25400Y-389826D01*
X-23116Y-389525D01*
X-20987Y-388643D01*
X-19159Y-387241D01*
X-17757Y-385413D01*
X-16875Y-383284D01*
X-16574Y-381000D01*
X-16875Y-378716D01*
X-17757Y-376587D01*
X-19159Y-374759D01*
X-20987Y-373357D01*
X-23116Y-372475D01*
X-25400Y-372174D01*
D02*
G37*
G36*
X-50800D02*
X-53084Y-372475D01*
X-55213Y-373357D01*
X-57041Y-374759D01*
X-58443Y-376587D01*
X-59325Y-378716D01*
X-59626Y-381000D01*
X-59325Y-383284D01*
X-58443Y-385413D01*
X-57041Y-387241D01*
X-55213Y-388643D01*
X-53084Y-389525D01*
X-50800Y-389826D01*
X-48516Y-389525D01*
X-46387Y-388643D01*
X-44559Y-387241D01*
X-43157Y-385413D01*
X-42275Y-383284D01*
X-41975Y-381000D01*
X-42275Y-378716D01*
X-43157Y-376587D01*
X-44559Y-374759D01*
X-46387Y-373357D01*
X-48516Y-372475D01*
X-50800Y-372174D01*
D02*
G37*
G36*
X-76200D02*
X-78484Y-372475D01*
X-80613Y-373357D01*
X-82441Y-374759D01*
X-83843Y-376587D01*
X-84725Y-378716D01*
X-85026Y-381000D01*
X-84725Y-383284D01*
X-83843Y-385413D01*
X-82441Y-387241D01*
X-80613Y-388643D01*
X-78484Y-389525D01*
X-76200Y-389826D01*
X-73916Y-389525D01*
X-71787Y-388643D01*
X-69959Y-387241D01*
X-68557Y-385413D01*
X-67675Y-383284D01*
X-67375Y-381000D01*
X-67675Y-378716D01*
X-68557Y-376587D01*
X-69959Y-374759D01*
X-71787Y-373357D01*
X-73916Y-372475D01*
X-76200Y-372174D01*
D02*
G37*
G36*
X-101600D02*
X-103884Y-372475D01*
X-106013Y-373357D01*
X-107841Y-374759D01*
X-109243Y-376587D01*
X-110125Y-378716D01*
X-110426Y-381000D01*
X-110125Y-383284D01*
X-109243Y-385413D01*
X-107841Y-387241D01*
X-106013Y-388643D01*
X-103884Y-389525D01*
X-101600Y-389826D01*
X-99316Y-389525D01*
X-97187Y-388643D01*
X-95359Y-387241D01*
X-93957Y-385413D01*
X-93075Y-383284D01*
X-92774Y-381000D01*
X-93075Y-378716D01*
X-93957Y-376587D01*
X-95359Y-374759D01*
X-97187Y-373357D01*
X-99316Y-372475D01*
X-101600Y-372174D01*
D02*
G37*
G36*
X-127000D02*
X-129284Y-372475D01*
X-131413Y-373357D01*
X-133241Y-374759D01*
X-134643Y-376587D01*
X-135525Y-378716D01*
X-135826Y-381000D01*
X-135525Y-383284D01*
X-134643Y-385413D01*
X-133241Y-387241D01*
X-131413Y-388643D01*
X-129284Y-389525D01*
X-127000Y-389826D01*
X-124716Y-389525D01*
X-122587Y-388643D01*
X-120759Y-387241D01*
X-119357Y-385413D01*
X-118475Y-383284D01*
X-118174Y-381000D01*
X-118475Y-378716D01*
X-119357Y-376587D01*
X-120759Y-374759D01*
X-122587Y-373357D01*
X-124716Y-372475D01*
X-127000Y-372174D01*
D02*
G37*
G36*
X-152400D02*
X-154684Y-372475D01*
X-156813Y-373357D01*
X-158641Y-374759D01*
X-160043Y-376587D01*
X-160925Y-378716D01*
X-161225Y-381000D01*
X-160925Y-383284D01*
X-160043Y-385413D01*
X-158641Y-387241D01*
X-156813Y-388643D01*
X-154684Y-389525D01*
X-152400Y-389826D01*
X-150116Y-389525D01*
X-147987Y-388643D01*
X-146159Y-387241D01*
X-144757Y-385413D01*
X-143875Y-383284D01*
X-143574Y-381000D01*
X-143875Y-378716D01*
X-144757Y-376587D01*
X-146159Y-374759D01*
X-147987Y-373357D01*
X-150116Y-372475D01*
X-152400Y-372174D01*
D02*
G37*
G36*
X-177800D02*
X-180084Y-372475D01*
X-182213Y-373357D01*
X-184041Y-374759D01*
X-185443Y-376587D01*
X-186325Y-378716D01*
X-186625Y-381000D01*
X-186325Y-383284D01*
X-185443Y-385413D01*
X-184041Y-387241D01*
X-182213Y-388643D01*
X-180084Y-389525D01*
X-177800Y-389826D01*
X-175516Y-389525D01*
X-173387Y-388643D01*
X-171559Y-387241D01*
X-170157Y-385413D01*
X-169275Y-383284D01*
X-168974Y-381000D01*
X-169275Y-378716D01*
X-170157Y-376587D01*
X-171559Y-374759D01*
X-173387Y-373357D01*
X-175516Y-372475D01*
X-177800Y-372174D01*
D02*
G37*
G36*
X-203200D02*
X-205484Y-372475D01*
X-207613Y-373357D01*
X-209441Y-374759D01*
X-210843Y-376587D01*
X-211725Y-378716D01*
X-212026Y-381000D01*
X-211725Y-383284D01*
X-210843Y-385413D01*
X-209441Y-387241D01*
X-207613Y-388643D01*
X-205484Y-389525D01*
X-203200Y-389826D01*
X-200916Y-389525D01*
X-198787Y-388643D01*
X-196959Y-387241D01*
X-195557Y-385413D01*
X-194675Y-383284D01*
X-194375Y-381000D01*
X-194675Y-378716D01*
X-195557Y-376587D01*
X-196959Y-374759D01*
X-198787Y-373357D01*
X-200916Y-372475D01*
X-203200Y-372174D01*
D02*
G37*
G36*
X-228600D02*
X-230884Y-372475D01*
X-233013Y-373357D01*
X-234841Y-374759D01*
X-236243Y-376587D01*
X-237125Y-378716D01*
X-237425Y-381000D01*
X-237125Y-383284D01*
X-236243Y-385413D01*
X-234841Y-387241D01*
X-233013Y-388643D01*
X-230884Y-389525D01*
X-228600Y-389826D01*
X-226316Y-389525D01*
X-224187Y-388643D01*
X-222359Y-387241D01*
X-220957Y-385413D01*
X-220075Y-383284D01*
X-219774Y-381000D01*
X-220075Y-378716D01*
X-220957Y-376587D01*
X-222359Y-374759D01*
X-224187Y-373357D01*
X-226316Y-372475D01*
X-228600Y-372174D01*
D02*
G37*
G36*
X-254000D02*
X-256284Y-372475D01*
X-258413Y-373357D01*
X-260241Y-374759D01*
X-261643Y-376587D01*
X-262525Y-378716D01*
X-262826Y-381000D01*
X-262525Y-383284D01*
X-261643Y-385413D01*
X-260241Y-387241D01*
X-258413Y-388643D01*
X-256284Y-389525D01*
X-254000Y-389826D01*
X-251716Y-389525D01*
X-249587Y-388643D01*
X-247759Y-387241D01*
X-246357Y-385413D01*
X-245475Y-383284D01*
X-245175Y-381000D01*
X-245475Y-378716D01*
X-246357Y-376587D01*
X-247759Y-374759D01*
X-249587Y-373357D01*
X-251716Y-372475D01*
X-254000Y-372174D01*
D02*
G37*
G36*
X-279400D02*
X-281684Y-372475D01*
X-283813Y-373357D01*
X-285641Y-374759D01*
X-287043Y-376587D01*
X-287925Y-378716D01*
X-288225Y-381000D01*
X-287925Y-383284D01*
X-287043Y-385413D01*
X-285641Y-387241D01*
X-283813Y-388643D01*
X-281684Y-389525D01*
X-279400Y-389826D01*
X-277116Y-389525D01*
X-274987Y-388643D01*
X-273159Y-387241D01*
X-271757Y-385413D01*
X-270875Y-383284D01*
X-270574Y-381000D01*
X-270875Y-378716D01*
X-271757Y-376587D01*
X-273159Y-374759D01*
X-274987Y-373357D01*
X-277116Y-372475D01*
X-279400Y-372174D01*
D02*
G37*
G36*
X-304800D02*
X-307084Y-372475D01*
X-309213Y-373357D01*
X-311041Y-374759D01*
X-312443Y-376587D01*
X-313325Y-378716D01*
X-313626Y-381000D01*
X-313325Y-383284D01*
X-312443Y-385413D01*
X-311041Y-387241D01*
X-309213Y-388643D01*
X-307084Y-389525D01*
X-304800Y-389826D01*
X-302516Y-389525D01*
X-300387Y-388643D01*
X-298559Y-387241D01*
X-297157Y-385413D01*
X-296275Y-383284D01*
X-295975Y-381000D01*
X-296275Y-378716D01*
X-297157Y-376587D01*
X-298559Y-374759D01*
X-300387Y-373357D01*
X-302516Y-372475D01*
X-304800Y-372174D01*
D02*
G37*
G36*
X-330200D02*
X-332484Y-372475D01*
X-334613Y-373357D01*
X-336441Y-374759D01*
X-337843Y-376587D01*
X-338725Y-378716D01*
X-339025Y-381000D01*
X-338725Y-383284D01*
X-337843Y-385413D01*
X-336441Y-387241D01*
X-334613Y-388643D01*
X-332484Y-389525D01*
X-330200Y-389826D01*
X-327916Y-389525D01*
X-325787Y-388643D01*
X-323959Y-387241D01*
X-322557Y-385413D01*
X-321675Y-383284D01*
X-321375Y-381000D01*
X-321675Y-378716D01*
X-322557Y-376587D01*
X-323959Y-374759D01*
X-325787Y-373357D01*
X-327916Y-372475D01*
X-330200Y-372174D01*
D02*
G37*
G36*
X-355600D02*
X-357884Y-372475D01*
X-360013Y-373357D01*
X-361841Y-374759D01*
X-363243Y-376587D01*
X-364125Y-378716D01*
X-364426Y-381000D01*
X-364125Y-383284D01*
X-363243Y-385413D01*
X-361841Y-387241D01*
X-360013Y-388643D01*
X-357884Y-389525D01*
X-355600Y-389826D01*
X-353316Y-389525D01*
X-351187Y-388643D01*
X-349359Y-387241D01*
X-347957Y-385413D01*
X-347075Y-383284D01*
X-346774Y-381000D01*
X-347075Y-378716D01*
X-347957Y-376587D01*
X-349359Y-374759D01*
X-351187Y-373357D01*
X-353316Y-372475D01*
X-355600Y-372174D01*
D02*
G37*
G36*
X-381000D02*
X-383284Y-372475D01*
X-385413Y-373357D01*
X-387241Y-374759D01*
X-388643Y-376587D01*
X-389525Y-378716D01*
X-389826Y-381000D01*
X-389525Y-383284D01*
X-388643Y-385413D01*
X-387241Y-387241D01*
X-385413Y-388643D01*
X-383284Y-389525D01*
X-381000Y-389826D01*
X-378716Y-389525D01*
X-376587Y-388643D01*
X-374759Y-387241D01*
X-373357Y-385413D01*
X-372475Y-383284D01*
X-372174Y-381000D01*
X-372475Y-378716D01*
X-373357Y-376587D01*
X-374759Y-374759D01*
X-376587Y-373357D01*
X-378716Y-372475D01*
X-381000Y-372174D01*
D02*
G37*
G36*
X-406400D02*
X-408684Y-372475D01*
X-410813Y-373357D01*
X-412641Y-374759D01*
X-414043Y-376587D01*
X-414925Y-378716D01*
X-415225Y-381000D01*
X-414925Y-383284D01*
X-414043Y-385413D01*
X-412641Y-387241D01*
X-410813Y-388643D01*
X-408684Y-389525D01*
X-406400Y-389826D01*
X-404116Y-389525D01*
X-401987Y-388643D01*
X-400159Y-387241D01*
X-398757Y-385413D01*
X-397875Y-383284D01*
X-397575Y-381000D01*
X-397875Y-378716D01*
X-398757Y-376587D01*
X-400159Y-374759D01*
X-401987Y-373357D01*
X-404116Y-372475D01*
X-406400Y-372174D01*
D02*
G37*
G36*
X-431800D02*
X-434084Y-372475D01*
X-436213Y-373357D01*
X-438041Y-374759D01*
X-439443Y-376587D01*
X-440325Y-378716D01*
X-440625Y-381000D01*
X-440325Y-383284D01*
X-439443Y-385413D01*
X-438041Y-387241D01*
X-436213Y-388643D01*
X-434084Y-389525D01*
X-431800Y-389826D01*
X-429516Y-389525D01*
X-427387Y-388643D01*
X-425559Y-387241D01*
X-424157Y-385413D01*
X-423275Y-383284D01*
X-422975Y-381000D01*
X-423275Y-378716D01*
X-424157Y-376587D01*
X-425559Y-374759D01*
X-427387Y-373357D01*
X-429516Y-372475D01*
X-431800Y-372174D01*
D02*
G37*
G36*
X-457200D02*
X-459484Y-372475D01*
X-461613Y-373357D01*
X-463441Y-374759D01*
X-464843Y-376587D01*
X-465725Y-378716D01*
X-466026Y-381000D01*
X-465725Y-383284D01*
X-464843Y-385413D01*
X-463441Y-387241D01*
X-461613Y-388643D01*
X-459484Y-389525D01*
X-457200Y-389826D01*
X-454916Y-389525D01*
X-452787Y-388643D01*
X-450959Y-387241D01*
X-449557Y-385413D01*
X-448675Y-383284D01*
X-448374Y-381000D01*
X-448675Y-378716D01*
X-449557Y-376587D01*
X-450959Y-374759D01*
X-452787Y-373357D01*
X-454916Y-372475D01*
X-457200Y-372174D01*
D02*
G37*
G36*
X-482600D02*
X-484884Y-372475D01*
X-487013Y-373357D01*
X-488841Y-374759D01*
X-490243Y-376587D01*
X-491125Y-378716D01*
X-491426Y-381000D01*
X-491125Y-383284D01*
X-490243Y-385413D01*
X-488841Y-387241D01*
X-487013Y-388643D01*
X-484884Y-389525D01*
X-482600Y-389826D01*
X-480316Y-389525D01*
X-478187Y-388643D01*
X-476359Y-387241D01*
X-474957Y-385413D01*
X-474075Y-383284D01*
X-473774Y-381000D01*
X-474075Y-378716D01*
X-474957Y-376587D01*
X-476359Y-374759D01*
X-478187Y-373357D01*
X-480316Y-372475D01*
X-482600Y-372174D01*
D02*
G37*
G36*
X-508000D02*
X-510284Y-372475D01*
X-512413Y-373357D01*
X-514241Y-374759D01*
X-515643Y-376587D01*
X-516525Y-378716D01*
X-516825Y-381000D01*
X-516525Y-383284D01*
X-515643Y-385413D01*
X-514241Y-387241D01*
X-512413Y-388643D01*
X-510284Y-389525D01*
X-508000Y-389826D01*
X-505716Y-389525D01*
X-503587Y-388643D01*
X-501759Y-387241D01*
X-500357Y-385413D01*
X-499475Y-383284D01*
X-499174Y-381000D01*
X-499475Y-378716D01*
X-500357Y-376587D01*
X-501759Y-374759D01*
X-503587Y-373357D01*
X-505716Y-372475D01*
X-508000Y-372174D01*
D02*
G37*
G36*
X-533400D02*
X-535684Y-372475D01*
X-537813Y-373357D01*
X-539641Y-374759D01*
X-541043Y-376587D01*
X-541925Y-378716D01*
X-542225Y-381000D01*
X-541925Y-383284D01*
X-541043Y-385413D01*
X-539641Y-387241D01*
X-537813Y-388643D01*
X-535684Y-389525D01*
X-533400Y-389826D01*
X-531116Y-389525D01*
X-528987Y-388643D01*
X-527159Y-387241D01*
X-525757Y-385413D01*
X-524875Y-383284D01*
X-524575Y-381000D01*
X-524875Y-378716D01*
X-525757Y-376587D01*
X-527159Y-374759D01*
X-528987Y-373357D01*
X-531116Y-372475D01*
X-533400Y-372174D01*
D02*
G37*
G36*
X0Y-397575D02*
X-2284Y-397875D01*
X-4413Y-398757D01*
X-6241Y-400159D01*
X-7643Y-401987D01*
X-8525Y-404116D01*
X-8826Y-406400D01*
X-8525Y-408684D01*
X-7643Y-410813D01*
X-6241Y-412641D01*
X-4413Y-414043D01*
X-2284Y-414925D01*
X0Y-415225D01*
X2284Y-414925D01*
X4413Y-414043D01*
X6241Y-412641D01*
X7643Y-410813D01*
X8525Y-408684D01*
X8826Y-406400D01*
X8525Y-404116D01*
X7643Y-401987D01*
X6241Y-400159D01*
X4413Y-398757D01*
X2284Y-397875D01*
X0Y-397575D01*
D02*
G37*
G36*
X-25400D02*
X-27684Y-397875D01*
X-29813Y-398757D01*
X-31641Y-400159D01*
X-33043Y-401987D01*
X-33925Y-404116D01*
X-34225Y-406400D01*
X-33925Y-408684D01*
X-33043Y-410813D01*
X-31641Y-412641D01*
X-29813Y-414043D01*
X-27684Y-414925D01*
X-25400Y-415225D01*
X-23116Y-414925D01*
X-20987Y-414043D01*
X-19159Y-412641D01*
X-17757Y-410813D01*
X-16875Y-408684D01*
X-16574Y-406400D01*
X-16875Y-404116D01*
X-17757Y-401987D01*
X-19159Y-400159D01*
X-20987Y-398757D01*
X-23116Y-397875D01*
X-25400Y-397575D01*
D02*
G37*
G36*
X-50800D02*
X-53084Y-397875D01*
X-55213Y-398757D01*
X-57041Y-400159D01*
X-58443Y-401987D01*
X-59325Y-404116D01*
X-59626Y-406400D01*
X-59325Y-408684D01*
X-58443Y-410813D01*
X-57041Y-412641D01*
X-55213Y-414043D01*
X-53084Y-414925D01*
X-50800Y-415225D01*
X-48516Y-414925D01*
X-46387Y-414043D01*
X-44559Y-412641D01*
X-43157Y-410813D01*
X-42275Y-408684D01*
X-41975Y-406400D01*
X-42275Y-404116D01*
X-43157Y-401987D01*
X-44559Y-400159D01*
X-46387Y-398757D01*
X-48516Y-397875D01*
X-50800Y-397575D01*
D02*
G37*
G36*
X-76200D02*
X-78484Y-397875D01*
X-80613Y-398757D01*
X-82441Y-400159D01*
X-83843Y-401987D01*
X-84725Y-404116D01*
X-85026Y-406400D01*
X-84725Y-408684D01*
X-83843Y-410813D01*
X-82441Y-412641D01*
X-80613Y-414043D01*
X-78484Y-414925D01*
X-76200Y-415225D01*
X-73916Y-414925D01*
X-71787Y-414043D01*
X-69959Y-412641D01*
X-68557Y-410813D01*
X-67675Y-408684D01*
X-67375Y-406400D01*
X-67675Y-404116D01*
X-68557Y-401987D01*
X-69959Y-400159D01*
X-71787Y-398757D01*
X-73916Y-397875D01*
X-76200Y-397575D01*
D02*
G37*
G36*
X-101600D02*
X-103884Y-397875D01*
X-106013Y-398757D01*
X-107841Y-400159D01*
X-109243Y-401987D01*
X-110125Y-404116D01*
X-110426Y-406400D01*
X-110125Y-408684D01*
X-109243Y-410813D01*
X-107841Y-412641D01*
X-106013Y-414043D01*
X-103884Y-414925D01*
X-101600Y-415225D01*
X-99316Y-414925D01*
X-97187Y-414043D01*
X-95359Y-412641D01*
X-93957Y-410813D01*
X-93075Y-408684D01*
X-92774Y-406400D01*
X-93075Y-404116D01*
X-93957Y-401987D01*
X-95359Y-400159D01*
X-97187Y-398757D01*
X-99316Y-397875D01*
X-101600Y-397575D01*
D02*
G37*
G36*
X-127000D02*
X-129284Y-397875D01*
X-131413Y-398757D01*
X-133241Y-400159D01*
X-134643Y-401987D01*
X-135525Y-404116D01*
X-135826Y-406400D01*
X-135525Y-408684D01*
X-134643Y-410813D01*
X-133241Y-412641D01*
X-131413Y-414043D01*
X-129284Y-414925D01*
X-127000Y-415225D01*
X-124716Y-414925D01*
X-122587Y-414043D01*
X-120759Y-412641D01*
X-119357Y-410813D01*
X-118475Y-408684D01*
X-118174Y-406400D01*
X-118475Y-404116D01*
X-119357Y-401987D01*
X-120759Y-400159D01*
X-122587Y-398757D01*
X-124716Y-397875D01*
X-127000Y-397575D01*
D02*
G37*
G36*
X-152400D02*
X-154684Y-397875D01*
X-156813Y-398757D01*
X-158641Y-400159D01*
X-160043Y-401987D01*
X-160925Y-404116D01*
X-161225Y-406400D01*
X-160925Y-408684D01*
X-160043Y-410813D01*
X-158641Y-412641D01*
X-156813Y-414043D01*
X-154684Y-414925D01*
X-152400Y-415225D01*
X-150116Y-414925D01*
X-147987Y-414043D01*
X-146159Y-412641D01*
X-144757Y-410813D01*
X-143875Y-408684D01*
X-143574Y-406400D01*
X-143875Y-404116D01*
X-144757Y-401987D01*
X-146159Y-400159D01*
X-147987Y-398757D01*
X-150116Y-397875D01*
X-152400Y-397575D01*
D02*
G37*
G36*
X-177800D02*
X-180084Y-397875D01*
X-182213Y-398757D01*
X-184041Y-400159D01*
X-185443Y-401987D01*
X-186325Y-404116D01*
X-186625Y-406400D01*
X-186325Y-408684D01*
X-185443Y-410813D01*
X-184041Y-412641D01*
X-182213Y-414043D01*
X-180084Y-414925D01*
X-177800Y-415225D01*
X-175516Y-414925D01*
X-173387Y-414043D01*
X-171559Y-412641D01*
X-170157Y-410813D01*
X-169275Y-408684D01*
X-168974Y-406400D01*
X-169275Y-404116D01*
X-170157Y-401987D01*
X-171559Y-400159D01*
X-173387Y-398757D01*
X-175516Y-397875D01*
X-177800Y-397575D01*
D02*
G37*
G36*
X-203200D02*
X-205484Y-397875D01*
X-207613Y-398757D01*
X-209441Y-400159D01*
X-210843Y-401987D01*
X-211725Y-404116D01*
X-212026Y-406400D01*
X-211725Y-408684D01*
X-210843Y-410813D01*
X-209441Y-412641D01*
X-207613Y-414043D01*
X-205484Y-414925D01*
X-203200Y-415225D01*
X-200916Y-414925D01*
X-198787Y-414043D01*
X-196959Y-412641D01*
X-195557Y-410813D01*
X-194675Y-408684D01*
X-194375Y-406400D01*
X-194675Y-404116D01*
X-195557Y-401987D01*
X-196959Y-400159D01*
X-198787Y-398757D01*
X-200916Y-397875D01*
X-203200Y-397575D01*
D02*
G37*
G36*
X-228600D02*
X-230884Y-397875D01*
X-233013Y-398757D01*
X-234841Y-400159D01*
X-236243Y-401987D01*
X-237125Y-404116D01*
X-237425Y-406400D01*
X-237125Y-408684D01*
X-236243Y-410813D01*
X-234841Y-412641D01*
X-233013Y-414043D01*
X-230884Y-414925D01*
X-228600Y-415225D01*
X-226316Y-414925D01*
X-224187Y-414043D01*
X-222359Y-412641D01*
X-220957Y-410813D01*
X-220075Y-408684D01*
X-219774Y-406400D01*
X-220075Y-404116D01*
X-220957Y-401987D01*
X-222359Y-400159D01*
X-224187Y-398757D01*
X-226316Y-397875D01*
X-228600Y-397575D01*
D02*
G37*
G36*
X-254000D02*
X-256284Y-397875D01*
X-258413Y-398757D01*
X-260241Y-400159D01*
X-261643Y-401987D01*
X-262525Y-404116D01*
X-262826Y-406400D01*
X-262525Y-408684D01*
X-261643Y-410813D01*
X-260241Y-412641D01*
X-258413Y-414043D01*
X-256284Y-414925D01*
X-254000Y-415225D01*
X-251716Y-414925D01*
X-249587Y-414043D01*
X-247759Y-412641D01*
X-246357Y-410813D01*
X-245475Y-408684D01*
X-245175Y-406400D01*
X-245475Y-404116D01*
X-246357Y-401987D01*
X-247759Y-400159D01*
X-249587Y-398757D01*
X-251716Y-397875D01*
X-254000Y-397575D01*
D02*
G37*
G36*
X-279400D02*
X-281684Y-397875D01*
X-283813Y-398757D01*
X-285641Y-400159D01*
X-287043Y-401987D01*
X-287925Y-404116D01*
X-288225Y-406400D01*
X-287925Y-408684D01*
X-287043Y-410813D01*
X-285641Y-412641D01*
X-283813Y-414043D01*
X-281684Y-414925D01*
X-279400Y-415225D01*
X-277116Y-414925D01*
X-274987Y-414043D01*
X-273159Y-412641D01*
X-271757Y-410813D01*
X-270875Y-408684D01*
X-270574Y-406400D01*
X-270875Y-404116D01*
X-271757Y-401987D01*
X-273159Y-400159D01*
X-274987Y-398757D01*
X-277116Y-397875D01*
X-279400Y-397575D01*
D02*
G37*
G36*
X-304800D02*
X-307084Y-397875D01*
X-309213Y-398757D01*
X-311041Y-400159D01*
X-312443Y-401987D01*
X-313325Y-404116D01*
X-313626Y-406400D01*
X-313325Y-408684D01*
X-312443Y-410813D01*
X-311041Y-412641D01*
X-309213Y-414043D01*
X-307084Y-414925D01*
X-304800Y-415225D01*
X-302516Y-414925D01*
X-300387Y-414043D01*
X-298559Y-412641D01*
X-297157Y-410813D01*
X-296275Y-408684D01*
X-295975Y-406400D01*
X-296275Y-404116D01*
X-297157Y-401987D01*
X-298559Y-400159D01*
X-300387Y-398757D01*
X-302516Y-397875D01*
X-304800Y-397575D01*
D02*
G37*
G36*
X-330200D02*
X-332484Y-397875D01*
X-334613Y-398757D01*
X-336441Y-400159D01*
X-337843Y-401987D01*
X-338725Y-404116D01*
X-339025Y-406400D01*
X-338725Y-408684D01*
X-337843Y-410813D01*
X-336441Y-412641D01*
X-334613Y-414043D01*
X-332484Y-414925D01*
X-330200Y-415225D01*
X-327916Y-414925D01*
X-325787Y-414043D01*
X-323959Y-412641D01*
X-322557Y-410813D01*
X-321675Y-408684D01*
X-321375Y-406400D01*
X-321675Y-404116D01*
X-322557Y-401987D01*
X-323959Y-400159D01*
X-325787Y-398757D01*
X-327916Y-397875D01*
X-330200Y-397575D01*
D02*
G37*
G36*
X-355600D02*
X-357884Y-397875D01*
X-360013Y-398757D01*
X-361841Y-400159D01*
X-363243Y-401987D01*
X-364125Y-404116D01*
X-364426Y-406400D01*
X-364125Y-408684D01*
X-363243Y-410813D01*
X-361841Y-412641D01*
X-360013Y-414043D01*
X-357884Y-414925D01*
X-355600Y-415225D01*
X-353316Y-414925D01*
X-351187Y-414043D01*
X-349359Y-412641D01*
X-347957Y-410813D01*
X-347075Y-408684D01*
X-346774Y-406400D01*
X-347075Y-404116D01*
X-347957Y-401987D01*
X-349359Y-400159D01*
X-351187Y-398757D01*
X-353316Y-397875D01*
X-355600Y-397575D01*
D02*
G37*
G36*
X-381000D02*
X-383284Y-397875D01*
X-385413Y-398757D01*
X-387241Y-400159D01*
X-388643Y-401987D01*
X-389525Y-404116D01*
X-389826Y-406400D01*
X-389525Y-408684D01*
X-388643Y-410813D01*
X-387241Y-412641D01*
X-385413Y-414043D01*
X-383284Y-414925D01*
X-381000Y-415225D01*
X-378716Y-414925D01*
X-376587Y-414043D01*
X-374759Y-412641D01*
X-373357Y-410813D01*
X-372475Y-408684D01*
X-372174Y-406400D01*
X-372475Y-404116D01*
X-373357Y-401987D01*
X-374759Y-400159D01*
X-376587Y-398757D01*
X-378716Y-397875D01*
X-381000Y-397575D01*
D02*
G37*
G36*
X-406400D02*
X-408684Y-397875D01*
X-410813Y-398757D01*
X-412641Y-400159D01*
X-414043Y-401987D01*
X-414925Y-404116D01*
X-415225Y-406400D01*
X-414925Y-408684D01*
X-414043Y-410813D01*
X-412641Y-412641D01*
X-410813Y-414043D01*
X-408684Y-414925D01*
X-406400Y-415225D01*
X-404116Y-414925D01*
X-401987Y-414043D01*
X-400159Y-412641D01*
X-398757Y-410813D01*
X-397875Y-408684D01*
X-397575Y-406400D01*
X-397875Y-404116D01*
X-398757Y-401987D01*
X-400159Y-400159D01*
X-401987Y-398757D01*
X-404116Y-397875D01*
X-406400Y-397575D01*
D02*
G37*
G36*
X-431800D02*
X-434084Y-397875D01*
X-436213Y-398757D01*
X-438041Y-400159D01*
X-439443Y-401987D01*
X-440325Y-404116D01*
X-440625Y-406400D01*
X-440325Y-408684D01*
X-439443Y-410813D01*
X-438041Y-412641D01*
X-436213Y-414043D01*
X-434084Y-414925D01*
X-431800Y-415225D01*
X-429516Y-414925D01*
X-427387Y-414043D01*
X-425559Y-412641D01*
X-424157Y-410813D01*
X-423275Y-408684D01*
X-422975Y-406400D01*
X-423275Y-404116D01*
X-424157Y-401987D01*
X-425559Y-400159D01*
X-427387Y-398757D01*
X-429516Y-397875D01*
X-431800Y-397575D01*
D02*
G37*
G36*
X-457200D02*
X-459484Y-397875D01*
X-461613Y-398757D01*
X-463441Y-400159D01*
X-464843Y-401987D01*
X-465725Y-404116D01*
X-466026Y-406400D01*
X-465725Y-408684D01*
X-464843Y-410813D01*
X-463441Y-412641D01*
X-461613Y-414043D01*
X-459484Y-414925D01*
X-457200Y-415225D01*
X-454916Y-414925D01*
X-452787Y-414043D01*
X-450959Y-412641D01*
X-449557Y-410813D01*
X-448675Y-408684D01*
X-448374Y-406400D01*
X-448675Y-404116D01*
X-449557Y-401987D01*
X-450959Y-400159D01*
X-452787Y-398757D01*
X-454916Y-397875D01*
X-457200Y-397575D01*
D02*
G37*
G36*
X-482600D02*
X-484884Y-397875D01*
X-487013Y-398757D01*
X-488841Y-400159D01*
X-490243Y-401987D01*
X-491125Y-404116D01*
X-491426Y-406400D01*
X-491125Y-408684D01*
X-490243Y-410813D01*
X-488841Y-412641D01*
X-487013Y-414043D01*
X-484884Y-414925D01*
X-482600Y-415225D01*
X-480316Y-414925D01*
X-478187Y-414043D01*
X-476359Y-412641D01*
X-474957Y-410813D01*
X-474075Y-408684D01*
X-473774Y-406400D01*
X-474075Y-404116D01*
X-474957Y-401987D01*
X-476359Y-400159D01*
X-478187Y-398757D01*
X-480316Y-397875D01*
X-482600Y-397575D01*
D02*
G37*
G36*
X-508000D02*
X-510284Y-397875D01*
X-512413Y-398757D01*
X-514241Y-400159D01*
X-515643Y-401987D01*
X-516525Y-404116D01*
X-516825Y-406400D01*
X-516525Y-408684D01*
X-515643Y-410813D01*
X-514241Y-412641D01*
X-512413Y-414043D01*
X-510284Y-414925D01*
X-508000Y-415225D01*
X-505716Y-414925D01*
X-503587Y-414043D01*
X-501759Y-412641D01*
X-500357Y-410813D01*
X-499475Y-408684D01*
X-499174Y-406400D01*
X-499475Y-404116D01*
X-500357Y-401987D01*
X-501759Y-400159D01*
X-503587Y-398757D01*
X-505716Y-397875D01*
X-508000Y-397575D01*
D02*
G37*
G36*
X-533400D02*
X-535684Y-397875D01*
X-537813Y-398757D01*
X-539641Y-400159D01*
X-541043Y-401987D01*
X-541925Y-404116D01*
X-542225Y-406400D01*
X-541925Y-408684D01*
X-541043Y-410813D01*
X-539641Y-412641D01*
X-537813Y-414043D01*
X-535684Y-414925D01*
X-533400Y-415225D01*
X-531116Y-414925D01*
X-528987Y-414043D01*
X-527159Y-412641D01*
X-525757Y-410813D01*
X-524875Y-408684D01*
X-524575Y-406400D01*
X-524875Y-404116D01*
X-525757Y-401987D01*
X-527159Y-400159D01*
X-528987Y-398757D01*
X-531116Y-397875D01*
X-533400Y-397575D01*
D02*
G37*
%LPD*%
D26*
X-736600Y-406400D02*
Y-381000D01*
X-515561Y-12700D02*
X-495300D01*
X-520700Y-38100D02*
Y-17839D01*
X-515561Y-12700D01*
X-323850Y-234950D02*
X-120250D01*
X-495300Y-12700D02*
X-482600Y0D01*
X-120250Y-234950D02*
X-114300Y-240900D01*
X-520700Y-38100D02*
X-323850Y-234950D01*
X-323850Y-222250D02*
X-124518D01*
X-118168Y-215900D02*
X-114300D01*
X-508000Y-38100D02*
Y-25400D01*
Y-38100D02*
X-323850Y-222250D01*
X-124518D02*
X-118168Y-215900D01*
D27*
X0Y0D02*
D03*
X-25400D02*
D03*
X-50800D02*
D03*
X-76200D02*
D03*
X-101600D02*
D03*
X-127000D02*
D03*
X-152400D02*
D03*
X-177800D02*
D03*
X-203200D02*
D03*
X0Y-25400D02*
D03*
X-25400D02*
D03*
X-50800D02*
D03*
X-76200D02*
D03*
X-101600D02*
D03*
X-127000D02*
D03*
X-152400D02*
D03*
X-177800D02*
D03*
X-203200D02*
D03*
X-228600Y0D02*
D03*
X-254000D02*
D03*
X-228600Y-25400D02*
D03*
X-254000D02*
D03*
X-330200Y0D02*
D03*
Y-25400D02*
D03*
X-355600Y0D02*
D03*
Y-25400D02*
D03*
X-406400Y0D02*
D03*
Y-25400D02*
D03*
X-533400Y0D02*
D03*
Y-25400D02*
D03*
X-584200Y0D02*
D03*
Y-25400D02*
D03*
X-635000Y0D02*
D03*
Y-25400D02*
D03*
X-685800Y0D02*
D03*
Y-25400D02*
D03*
X-711200Y0D02*
D03*
Y-25400D02*
D03*
X-736600Y0D02*
D03*
X-660400Y-25400D02*
D03*
Y0D02*
D03*
X-609600Y-25400D02*
D03*
Y0D02*
D03*
X-558800Y-25400D02*
D03*
Y0D02*
D03*
X-508000Y-25400D02*
D03*
Y0D02*
D03*
X-482600Y-25400D02*
D03*
Y0D02*
D03*
X-457200Y-25400D02*
D03*
Y0D02*
D03*
X-431800Y-25400D02*
D03*
Y0D02*
D03*
X-381000Y-25400D02*
D03*
Y0D02*
D03*
X-304800Y-25400D02*
D03*
X-279400D02*
D03*
X-304800Y0D02*
D03*
X-279400D02*
D03*
X0Y-381000D02*
D03*
X-25400D02*
D03*
X-50800D02*
D03*
X-76200D02*
D03*
X-101600D02*
D03*
X-127000D02*
D03*
X-152400D02*
D03*
X-177800D02*
D03*
X-203200D02*
D03*
X0Y-406400D02*
D03*
X-25400D02*
D03*
X-50800D02*
D03*
X-76200D02*
D03*
X-101600D02*
D03*
X-127000D02*
D03*
X-152400D02*
D03*
X-177800D02*
D03*
X-203200D02*
D03*
X-228600Y-381000D02*
D03*
X-254000D02*
D03*
X-228600Y-406400D02*
D03*
X-254000D02*
D03*
X-330200Y-381000D02*
D03*
Y-406400D02*
D03*
X-355600Y-381000D02*
D03*
Y-406400D02*
D03*
X-406400Y-381000D02*
D03*
Y-406400D02*
D03*
X-533400Y-381000D02*
D03*
Y-406400D02*
D03*
X-584200Y-381000D02*
D03*
Y-406400D02*
D03*
X-635000Y-381000D02*
D03*
Y-406400D02*
D03*
X-685800Y-381000D02*
D03*
Y-406400D02*
D03*
X-711200Y-381000D02*
D03*
Y-406400D02*
D03*
X-736600Y-381000D02*
D03*
X-660400Y-406400D02*
D03*
Y-381000D02*
D03*
X-609600Y-406400D02*
D03*
Y-381000D02*
D03*
X-558800Y-406400D02*
D03*
Y-381000D02*
D03*
X-508000Y-406400D02*
D03*
Y-381000D02*
D03*
X-482600Y-406400D02*
D03*
Y-381000D02*
D03*
X-457200Y-406400D02*
D03*
Y-381000D02*
D03*
X-431800Y-406400D02*
D03*
Y-381000D02*
D03*
X-381000Y-406400D02*
D03*
Y-381000D02*
D03*
X-304800Y-406400D02*
D03*
X-279400D02*
D03*
X-304800Y-381000D02*
D03*
X-279400D02*
D03*
D28*
X-736600Y-25400D02*
D03*
Y-406400D02*
D03*
D29*
X-647700Y-336150D02*
D03*
Y-311150D02*
D03*
X-114300Y-215900D02*
D03*
Y-190900D02*
D03*
Y-165900D02*
D03*
X-647700Y-120250D02*
D03*
Y-95250D02*
D03*
Y-228200D02*
D03*
Y-203200D02*
D03*
D30*
Y-286150D02*
D03*
X-114300Y-240900D02*
D03*
X-647700Y-70250D02*
D03*
Y-178200D02*
D03*
D31*
X-520700Y-76200D02*
D03*
Y-330200D02*
D03*
X-25400D02*
D03*
Y-76200D02*
D03*
D32*
X-558800Y-272200D02*
D03*
Y-56300D02*
D03*
Y-164250D02*
D03*
X-596900Y-272200D02*
D03*
X-548640Y-300250D02*
D03*
X-571500Y-324700D02*
D03*
X-584200D02*
D03*
X-621030Y-323730D02*
D03*
Y-215780D02*
D03*
X-584200Y-216750D02*
D03*
X-571500D02*
D03*
X-548640Y-192300D02*
D03*
X-596900Y-164250D02*
D03*
Y-56300D02*
D03*
X-548640Y-84350D02*
D03*
X-571500Y-108800D02*
D03*
X-584200D02*
D03*
X-621030Y-107830D02*
D03*
M02*
