G04*
G04 #@! TF.GenerationSoftware,Altium Limited,Altium Designer,26.1.1 (7)*
G04*
G04 Layer_Physical_Order=4*
G04 Layer_Color=16711680*
%FSLAX44Y44*%
%MOMM*%
G71*
G04*
G04 #@! TF.SameCoordinates,9DC0DA2A-B4ED-455C-B667-FE6E32696FB0*
G04*
G04*
G04 #@! TF.FilePolarity,Positive*
G04*
G01*
G75*
%ADD29C,0.1500*%
%ADD30C,1.5000*%
G04:AMPARAMS|DCode=31|XSize=1.5mm|YSize=1.5mm|CornerRadius=0.375mm|HoleSize=0mm|Usage=FLASHONLY|Rotation=0.000|XOffset=0mm|YOffset=0mm|HoleType=Round|Shape=RoundedRectangle|*
%AMROUNDEDRECTD31*
21,1,1.5000,0.7500,0,0,0.0*
21,1,0.7500,1.5000,0,0,0.0*
1,1,0.7500,0.3750,-0.3750*
1,1,0.7500,-0.3750,-0.3750*
1,1,0.7500,-0.3750,0.3750*
1,1,0.7500,0.3750,0.3750*
%
%ADD31ROUNDEDRECTD31*%
%ADD32C,2.0000*%
%ADD33R,2.0000X2.0000*%
%ADD34R,2.0000X2.0000*%
%ADD35C,6.0000*%
%ADD36C,3.0000*%
%ADD37C,0.4500*%
G36*
X1146941Y3059D02*
X3058D01*
X3058Y746941D01*
X1146941D01*
X1146941Y3059D01*
D02*
G37*
%LPC*%
G36*
X1031270Y664781D02*
Y653570D01*
X1042481D01*
X1042217Y655574D01*
X1040954Y658624D01*
X1038943Y661244D01*
X1036324Y663254D01*
X1033273Y664517D01*
X1031270Y664781D01*
D02*
G37*
G36*
X1028730Y664781D02*
X1026726Y664517D01*
X1023676Y663254D01*
X1021056Y661244D01*
X1019046Y658624D01*
X1017783Y655574D01*
X1017519Y653570D01*
X1028730D01*
Y664781D01*
D02*
G37*
G36*
X461230Y641481D02*
X459226Y641217D01*
X456176Y639954D01*
X453556Y637944D01*
X451546Y635324D01*
X450283Y632274D01*
X450019Y630270D01*
X461230D01*
Y641481D01*
D02*
G37*
G36*
X612500Y640347D02*
X609563Y639960D01*
X606826Y638827D01*
X604476Y637024D01*
X602673Y634674D01*
X601539Y631937D01*
X601153Y629000D01*
X601539Y626063D01*
X602673Y623326D01*
X604476Y620976D01*
X606826Y619173D01*
X609563Y618040D01*
X612500Y617653D01*
X615437Y618040D01*
X618173Y619173D01*
X620523Y620976D01*
X622327Y623326D01*
X623460Y626063D01*
X623847Y629000D01*
X623460Y631937D01*
X622327Y634674D01*
X620523Y637024D01*
X618173Y638827D01*
X615437Y639960D01*
X612500Y640347D01*
D02*
G37*
G36*
X587500D02*
X584563Y639960D01*
X581826Y638827D01*
X579476Y637024D01*
X577673Y634674D01*
X576539Y631937D01*
X576153Y629000D01*
X576539Y626063D01*
X577673Y623326D01*
X579476Y620976D01*
X581826Y619173D01*
X584563Y618040D01*
X587500Y617653D01*
X590437Y618040D01*
X593173Y619173D01*
X595523Y620976D01*
X597327Y623326D01*
X598460Y626063D01*
X598847Y629000D01*
X598460Y631937D01*
X597327Y634674D01*
X595523Y637024D01*
X593173Y638827D01*
X590437Y639960D01*
X587500Y640347D01*
D02*
G37*
G36*
X562500D02*
X559563Y639960D01*
X556826Y638827D01*
X554476Y637024D01*
X552673Y634674D01*
X551539Y631937D01*
X551153Y629000D01*
X551539Y626063D01*
X552673Y623326D01*
X554476Y620976D01*
X556826Y619173D01*
X559563Y618040D01*
X562500Y617653D01*
X565437Y618040D01*
X568173Y619173D01*
X570523Y620976D01*
X572327Y623326D01*
X573460Y626063D01*
X573847Y629000D01*
X573460Y631937D01*
X572327Y634674D01*
X570523Y637024D01*
X568173Y638827D01*
X565437Y639960D01*
X562500Y640347D01*
D02*
G37*
G36*
X537500D02*
X534563Y639960D01*
X531826Y638827D01*
X529476Y637024D01*
X527673Y634674D01*
X526539Y631937D01*
X526153Y629000D01*
X526539Y626063D01*
X527673Y623326D01*
X529476Y620976D01*
X531826Y619173D01*
X534563Y618040D01*
X537500Y617653D01*
X540437Y618040D01*
X543173Y619173D01*
X545523Y620976D01*
X547327Y623326D01*
X548460Y626063D01*
X548847Y629000D01*
X548460Y631937D01*
X547327Y634674D01*
X545523Y637024D01*
X543173Y638827D01*
X540437Y639960D01*
X537500Y640347D01*
D02*
G37*
G36*
X512500D02*
X509563Y639960D01*
X506826Y638827D01*
X504476Y637024D01*
X502673Y634674D01*
X501539Y631937D01*
X501153Y629000D01*
X501539Y626063D01*
X502673Y623326D01*
X504476Y620976D01*
X506826Y619173D01*
X509563Y618040D01*
X512500Y617653D01*
X515437Y618040D01*
X518173Y619173D01*
X520523Y620976D01*
X522327Y623326D01*
X523460Y626063D01*
X523847Y629000D01*
X523460Y631937D01*
X522327Y634674D01*
X520523Y637024D01*
X518173Y638827D01*
X515437Y639960D01*
X512500Y640347D01*
D02*
G37*
G36*
X463770Y641481D02*
Y629000D01*
X462500D01*
D01*
X463770D01*
Y616519D01*
X465773Y616783D01*
X468824Y618046D01*
X471443Y620056D01*
X473453Y622676D01*
X474717Y625726D01*
X475020Y628027D01*
X476281D01*
X476539Y626063D01*
X477673Y623326D01*
X479476Y620976D01*
X481826Y619173D01*
X484563Y618040D01*
X487500Y617653D01*
X490437Y618040D01*
X493173Y619173D01*
X495523Y620976D01*
X497327Y623326D01*
X498460Y626063D01*
X498847Y629000D01*
X498460Y631937D01*
X497327Y634674D01*
X495523Y637024D01*
X493173Y638827D01*
X490437Y639960D01*
X487500Y640347D01*
X484563Y639960D01*
X481826Y638827D01*
X479476Y637024D01*
X477673Y634674D01*
X476539Y631937D01*
X476281Y629973D01*
X475020D01*
X474717Y632274D01*
X473453Y635324D01*
X471443Y637944D01*
X468824Y639954D01*
X465773Y641217D01*
X463770Y641481D01*
D02*
G37*
G36*
X461230Y627730D02*
X450019D01*
X450283Y625726D01*
X451546Y622676D01*
X453556Y620056D01*
X456176Y618046D01*
X459226Y616783D01*
X461230Y616519D01*
Y627730D01*
D02*
G37*
G36*
X1042481Y651030D02*
X1030000D01*
X1017519D01*
X1017783Y649026D01*
X1019046Y645976D01*
X1021056Y643356D01*
X1023676Y641346D01*
X1026726Y640083D01*
X1029027Y639780D01*
Y638519D01*
X1027063Y638260D01*
X1024326Y637127D01*
X1021976Y635324D01*
X1020173Y632974D01*
X1019039Y630237D01*
X1018653Y627300D01*
X1019039Y624363D01*
X1020173Y621626D01*
X1021976Y619276D01*
X1024326Y617473D01*
X1027063Y616339D01*
X1030000Y615953D01*
X1032937Y616339D01*
X1035673Y617473D01*
X1038024Y619276D01*
X1039827Y621626D01*
X1040960Y624363D01*
X1041347Y627300D01*
X1040960Y630237D01*
X1039827Y632974D01*
X1038024Y635324D01*
X1035673Y637127D01*
X1032937Y638260D01*
X1030973Y638519D01*
Y639780D01*
X1033273Y640083D01*
X1036324Y641346D01*
X1038943Y643356D01*
X1040954Y645976D01*
X1042217Y649026D01*
X1042481Y651030D01*
D02*
G37*
G36*
X346700Y669089D02*
X345919Y668934D01*
X345258Y668492D01*
X345258Y668492D01*
X275458Y598692D01*
X275016Y598030D01*
X274861Y597250D01*
Y571850D01*
X275016Y571070D01*
X275458Y570408D01*
X282691Y563175D01*
X283353Y562733D01*
X284133Y562578D01*
X287255D01*
X287337Y561328D01*
X287316Y561325D01*
X285187Y560443D01*
X283359Y559041D01*
X281957Y557213D01*
X281075Y555084D01*
X280774Y552800D01*
X281075Y550516D01*
X281957Y548387D01*
X283359Y546559D01*
X285187Y545157D01*
X287316Y544275D01*
X289600Y543974D01*
X291884Y544275D01*
X294013Y545157D01*
X295840Y546559D01*
X297243Y548387D01*
X298125Y550516D01*
X298425Y552800D01*
X298125Y555084D01*
X297243Y557213D01*
X295840Y559041D01*
X294013Y560443D01*
X291884Y561325D01*
X291862Y561328D01*
X291944Y562578D01*
X302338D01*
X307507Y557409D01*
X307357Y557213D01*
X306475Y555084D01*
X306174Y552800D01*
X306475Y550516D01*
X307357Y548387D01*
X308759Y546559D01*
X310587Y545157D01*
X312716Y544275D01*
X315000Y543974D01*
X317284Y544275D01*
X319412Y545157D01*
X321240Y546559D01*
X322643Y548387D01*
X323525Y550516D01*
X323825Y552800D01*
X323525Y555084D01*
X322643Y557213D01*
X321240Y559041D01*
X319412Y560443D01*
X317284Y561325D01*
X315000Y561626D01*
X312716Y561325D01*
X310587Y560443D01*
X310391Y560293D01*
X304625Y566059D01*
X303963Y566501D01*
X303183Y566656D01*
X284978D01*
X278939Y572695D01*
Y596405D01*
X347544Y665011D01*
X918590D01*
X982743Y600858D01*
X983404Y600416D01*
X984185Y600261D01*
X1018921D01*
X1019039Y599363D01*
X1020173Y596626D01*
X1021976Y594276D01*
X1024326Y592473D01*
X1027063Y591339D01*
X1030000Y590953D01*
X1032937Y591339D01*
X1035673Y592473D01*
X1038024Y594276D01*
X1039827Y596626D01*
X1040960Y599363D01*
X1041347Y602300D01*
X1040960Y605237D01*
X1039827Y607974D01*
X1038024Y610324D01*
X1035673Y612127D01*
X1032937Y613260D01*
X1030000Y613647D01*
X1027063Y613260D01*
X1024326Y612127D01*
X1021976Y610324D01*
X1020173Y607974D01*
X1019039Y605237D01*
X1018921Y604339D01*
X985029D01*
X920877Y668492D01*
X920215Y668934D01*
X919435Y669089D01*
X346700D01*
X346700Y669089D01*
D02*
G37*
G36*
X950000Y587025D02*
X947716Y586725D01*
X945587Y585843D01*
X943759Y584441D01*
X942357Y582613D01*
X941475Y580484D01*
X941174Y578200D01*
X941475Y575916D01*
X942357Y573787D01*
X943759Y571959D01*
X945587Y570557D01*
X947716Y569675D01*
X950000Y569375D01*
X952284Y569675D01*
X954413Y570557D01*
X956240Y571959D01*
X957643Y573787D01*
X958525Y575916D01*
X958825Y578200D01*
X958525Y580484D01*
X957643Y582613D01*
X956240Y584441D01*
X954413Y585843D01*
X952284Y586725D01*
X950000Y587025D01*
D02*
G37*
G36*
X924600D02*
X922316Y586725D01*
X920187Y585843D01*
X918359Y584441D01*
X916957Y582613D01*
X916075Y580484D01*
X915774Y578200D01*
X916075Y575916D01*
X916957Y573787D01*
X918359Y571959D01*
X920187Y570557D01*
X922316Y569675D01*
X924600Y569375D01*
X926884Y569675D01*
X929013Y570557D01*
X930840Y571959D01*
X932243Y573787D01*
X933125Y575916D01*
X933425Y578200D01*
X933125Y580484D01*
X932243Y582613D01*
X930840Y584441D01*
X929013Y585843D01*
X926884Y586725D01*
X924600Y587025D01*
D02*
G37*
G36*
X899200D02*
X896916Y586725D01*
X894787Y585843D01*
X892959Y584441D01*
X891557Y582613D01*
X890675Y580484D01*
X890374Y578200D01*
X890675Y575916D01*
X891557Y573787D01*
X892959Y571959D01*
X894787Y570557D01*
X896916Y569675D01*
X899200Y569375D01*
X901484Y569675D01*
X903613Y570557D01*
X905440Y571959D01*
X906843Y573787D01*
X907725Y575916D01*
X908025Y578200D01*
X907725Y580484D01*
X906843Y582613D01*
X905440Y584441D01*
X903613Y585843D01*
X901484Y586725D01*
X899200Y587025D01*
D02*
G37*
G36*
X873800D02*
X871516Y586725D01*
X869387Y585843D01*
X867559Y584441D01*
X866157Y582613D01*
X865275Y580484D01*
X864974Y578200D01*
X865275Y575916D01*
X866157Y573787D01*
X867559Y571959D01*
X869387Y570557D01*
X871516Y569675D01*
X873800Y569375D01*
X876084Y569675D01*
X878213Y570557D01*
X880040Y571959D01*
X881443Y573787D01*
X882325Y575916D01*
X882625Y578200D01*
X882325Y580484D01*
X881443Y582613D01*
X880040Y584441D01*
X878213Y585843D01*
X876084Y586725D01*
X873800Y587025D01*
D02*
G37*
G36*
X848400D02*
X846116Y586725D01*
X843987Y585843D01*
X842159Y584441D01*
X840757Y582613D01*
X839875Y580484D01*
X839574Y578200D01*
X839875Y575916D01*
X840757Y573787D01*
X842159Y571959D01*
X843987Y570557D01*
X846116Y569675D01*
X848400Y569375D01*
X850684Y569675D01*
X852812Y570557D01*
X854640Y571959D01*
X856043Y573787D01*
X856925Y575916D01*
X857225Y578200D01*
X856925Y580484D01*
X856043Y582613D01*
X854640Y584441D01*
X852812Y585843D01*
X850684Y586725D01*
X848400Y587025D01*
D02*
G37*
G36*
X823000D02*
X820716Y586725D01*
X818587Y585843D01*
X816759Y584441D01*
X815357Y582613D01*
X814475Y580484D01*
X814174Y578200D01*
X814475Y575916D01*
X815357Y573787D01*
X816759Y571959D01*
X818587Y570557D01*
X820716Y569675D01*
X823000Y569375D01*
X825284Y569675D01*
X827412Y570557D01*
X829240Y571959D01*
X830643Y573787D01*
X831525Y575916D01*
X831825Y578200D01*
X831525Y580484D01*
X830643Y582613D01*
X829240Y584441D01*
X827412Y585843D01*
X825284Y586725D01*
X823000Y587025D01*
D02*
G37*
G36*
X797600D02*
X795316Y586725D01*
X793187Y585843D01*
X791359Y584441D01*
X789957Y582613D01*
X789075Y580484D01*
X788774Y578200D01*
X789075Y575916D01*
X789957Y573787D01*
X791359Y571959D01*
X793187Y570557D01*
X795316Y569675D01*
X797600Y569375D01*
X799884Y569675D01*
X802012Y570557D01*
X803840Y571959D01*
X805243Y573787D01*
X806125Y575916D01*
X806425Y578200D01*
X806125Y580484D01*
X805243Y582613D01*
X803840Y584441D01*
X802012Y585843D01*
X799884Y586725D01*
X797600Y587025D01*
D02*
G37*
G36*
X772200D02*
X769916Y586725D01*
X767787Y585843D01*
X765959Y584441D01*
X764557Y582613D01*
X763675Y580484D01*
X763374Y578200D01*
X763675Y575916D01*
X764557Y573787D01*
X765959Y571959D01*
X767787Y570557D01*
X769916Y569675D01*
X772200Y569375D01*
X774484Y569675D01*
X776612Y570557D01*
X778440Y571959D01*
X779843Y573787D01*
X780725Y575916D01*
X781025Y578200D01*
X780725Y580484D01*
X779843Y582613D01*
X778440Y584441D01*
X776612Y585843D01*
X774484Y586725D01*
X772200Y587025D01*
D02*
G37*
G36*
X746800D02*
X744516Y586725D01*
X742387Y585843D01*
X740559Y584441D01*
X739157Y582613D01*
X738275Y580484D01*
X737974Y578200D01*
X738275Y575916D01*
X739157Y573787D01*
X740559Y571959D01*
X742387Y570557D01*
X744516Y569675D01*
X746800Y569375D01*
X749084Y569675D01*
X751212Y570557D01*
X753040Y571959D01*
X754443Y573787D01*
X755325Y575916D01*
X755625Y578200D01*
X755325Y580484D01*
X754443Y582613D01*
X753040Y584441D01*
X751212Y585843D01*
X749084Y586725D01*
X746800Y587025D01*
D02*
G37*
G36*
X721400D02*
X719116Y586725D01*
X716987Y585843D01*
X715159Y584441D01*
X713757Y582613D01*
X712875Y580484D01*
X712574Y578200D01*
X712875Y575916D01*
X713757Y573787D01*
X715159Y571959D01*
X716987Y570557D01*
X719116Y569675D01*
X721400Y569375D01*
X723684Y569675D01*
X725813Y570557D01*
X727640Y571959D01*
X729043Y573787D01*
X729925Y575916D01*
X730225Y578200D01*
X729925Y580484D01*
X729043Y582613D01*
X727640Y584441D01*
X725813Y585843D01*
X723684Y586725D01*
X721400Y587025D01*
D02*
G37*
G36*
X696000D02*
X693716Y586725D01*
X691587Y585843D01*
X689759Y584441D01*
X688357Y582613D01*
X687475Y580484D01*
X687174Y578200D01*
X687475Y575916D01*
X688357Y573787D01*
X689759Y571959D01*
X691587Y570557D01*
X693716Y569675D01*
X696000Y569375D01*
X698284Y569675D01*
X700413Y570557D01*
X702240Y571959D01*
X703643Y573787D01*
X704525Y575916D01*
X704825Y578200D01*
X704525Y580484D01*
X703643Y582613D01*
X702240Y584441D01*
X700413Y585843D01*
X698284Y586725D01*
X696000Y587025D01*
D02*
G37*
G36*
X670600D02*
X668316Y586725D01*
X666187Y585843D01*
X664359Y584441D01*
X662957Y582613D01*
X662075Y580484D01*
X661774Y578200D01*
X662075Y575916D01*
X662957Y573787D01*
X664359Y571959D01*
X666187Y570557D01*
X668316Y569675D01*
X670600Y569375D01*
X672884Y569675D01*
X675013Y570557D01*
X676840Y571959D01*
X678243Y573787D01*
X679125Y575916D01*
X679425Y578200D01*
X679125Y580484D01*
X678243Y582613D01*
X676840Y584441D01*
X675013Y585843D01*
X672884Y586725D01*
X670600Y587025D01*
D02*
G37*
G36*
X645200D02*
X642916Y586725D01*
X640787Y585843D01*
X638959Y584441D01*
X637557Y582613D01*
X636675Y580484D01*
X636374Y578200D01*
X636675Y575916D01*
X637557Y573787D01*
X638959Y571959D01*
X640787Y570557D01*
X642916Y569675D01*
X645200Y569375D01*
X647484Y569675D01*
X649613Y570557D01*
X651440Y571959D01*
X652843Y573787D01*
X653725Y575916D01*
X654025Y578200D01*
X653725Y580484D01*
X652843Y582613D01*
X651440Y584441D01*
X649613Y585843D01*
X647484Y586725D01*
X645200Y587025D01*
D02*
G37*
G36*
X619800D02*
X617516Y586725D01*
X615387Y585843D01*
X613559Y584441D01*
X612157Y582613D01*
X611275Y580484D01*
X610974Y578200D01*
X611275Y575916D01*
X612157Y573787D01*
X613559Y571959D01*
X615387Y570557D01*
X617516Y569675D01*
X619800Y569375D01*
X622084Y569675D01*
X624212Y570557D01*
X626040Y571959D01*
X627443Y573787D01*
X628325Y575916D01*
X628625Y578200D01*
X628325Y580484D01*
X627443Y582613D01*
X626040Y584441D01*
X624212Y585843D01*
X622084Y586725D01*
X619800Y587025D01*
D02*
G37*
G36*
X594400D02*
X592116Y586725D01*
X589987Y585843D01*
X588159Y584441D01*
X586757Y582613D01*
X585875Y580484D01*
X585574Y578200D01*
X585875Y575916D01*
X586757Y573787D01*
X588159Y571959D01*
X589987Y570557D01*
X592116Y569675D01*
X594400Y569375D01*
X596684Y569675D01*
X598812Y570557D01*
X600640Y571959D01*
X602043Y573787D01*
X602925Y575916D01*
X603225Y578200D01*
X602925Y580484D01*
X602043Y582613D01*
X600640Y584441D01*
X598812Y585843D01*
X596684Y586725D01*
X594400Y587025D01*
D02*
G37*
G36*
X569000D02*
X566716Y586725D01*
X564587Y585843D01*
X562759Y584441D01*
X561357Y582613D01*
X560475Y580484D01*
X560174Y578200D01*
X560475Y575916D01*
X561357Y573787D01*
X562759Y571959D01*
X564587Y570557D01*
X566716Y569675D01*
X569000Y569375D01*
X571284Y569675D01*
X573413Y570557D01*
X575240Y571959D01*
X576643Y573787D01*
X577525Y575916D01*
X577825Y578200D01*
X577525Y580484D01*
X576643Y582613D01*
X575240Y584441D01*
X573413Y585843D01*
X571284Y586725D01*
X569000Y587025D01*
D02*
G37*
G36*
X543600D02*
X541316Y586725D01*
X539187Y585843D01*
X537359Y584441D01*
X535957Y582613D01*
X535075Y580484D01*
X534774Y578200D01*
X535075Y575916D01*
X535957Y573787D01*
X537359Y571959D01*
X539187Y570557D01*
X541316Y569675D01*
X543600Y569375D01*
X545884Y569675D01*
X548013Y570557D01*
X549840Y571959D01*
X551243Y573787D01*
X552125Y575916D01*
X552425Y578200D01*
X552125Y580484D01*
X551243Y582613D01*
X549840Y584441D01*
X548013Y585843D01*
X545884Y586725D01*
X543600Y587025D01*
D02*
G37*
G36*
X518200D02*
X515916Y586725D01*
X513787Y585843D01*
X511959Y584441D01*
X510557Y582613D01*
X509675Y580484D01*
X509374Y578200D01*
X509675Y575916D01*
X510557Y573787D01*
X511959Y571959D01*
X513787Y570557D01*
X515916Y569675D01*
X518200Y569375D01*
X520484Y569675D01*
X522612Y570557D01*
X524440Y571959D01*
X525843Y573787D01*
X526725Y575916D01*
X527025Y578200D01*
X526725Y580484D01*
X525843Y582613D01*
X524440Y584441D01*
X522612Y585843D01*
X520484Y586725D01*
X518200Y587025D01*
D02*
G37*
G36*
X492800D02*
X490516Y586725D01*
X488387Y585843D01*
X486559Y584441D01*
X485157Y582613D01*
X484275Y580484D01*
X483974Y578200D01*
X484275Y575916D01*
X485157Y573787D01*
X486559Y571959D01*
X488387Y570557D01*
X490516Y569675D01*
X492800Y569375D01*
X495084Y569675D01*
X497212Y570557D01*
X499040Y571959D01*
X500443Y573787D01*
X501325Y575916D01*
X501625Y578200D01*
X501325Y580484D01*
X500443Y582613D01*
X499040Y584441D01*
X497212Y585843D01*
X495084Y586725D01*
X492800Y587025D01*
D02*
G37*
G36*
X442000D02*
X439716Y586725D01*
X437587Y585843D01*
X435759Y584441D01*
X434357Y582613D01*
X433475Y580484D01*
X433174Y578200D01*
X433475Y575916D01*
X434357Y573787D01*
X435759Y571959D01*
X437587Y570557D01*
X439716Y569675D01*
X442000Y569375D01*
X444284Y569675D01*
X446413Y570557D01*
X448240Y571959D01*
X449643Y573787D01*
X450525Y575916D01*
X450825Y578200D01*
X450525Y580484D01*
X449643Y582613D01*
X448240Y584441D01*
X446413Y585843D01*
X444284Y586725D01*
X442000Y587025D01*
D02*
G37*
G36*
X416600D02*
X414316Y586725D01*
X412187Y585843D01*
X410359Y584441D01*
X408957Y582613D01*
X408075Y580484D01*
X407774Y578200D01*
X408075Y575916D01*
X408957Y573787D01*
X410359Y571959D01*
X412187Y570557D01*
X414316Y569675D01*
X416600Y569375D01*
X418884Y569675D01*
X421012Y570557D01*
X422840Y571959D01*
X424243Y573787D01*
X425125Y575916D01*
X425425Y578200D01*
X425125Y580484D01*
X424243Y582613D01*
X422840Y584441D01*
X421012Y585843D01*
X418884Y586725D01*
X416600Y587025D01*
D02*
G37*
G36*
X391200D02*
X388916Y586725D01*
X386787Y585843D01*
X384959Y584441D01*
X383557Y582613D01*
X382675Y580484D01*
X382374Y578200D01*
X382675Y575916D01*
X383557Y573787D01*
X384959Y571959D01*
X386787Y570557D01*
X388916Y569675D01*
X391200Y569375D01*
X393484Y569675D01*
X395612Y570557D01*
X397440Y571959D01*
X398843Y573787D01*
X399725Y575916D01*
X400025Y578200D01*
X399725Y580484D01*
X398843Y582613D01*
X397440Y584441D01*
X395612Y585843D01*
X393484Y586725D01*
X391200Y587025D01*
D02*
G37*
G36*
X365800D02*
X363516Y586725D01*
X361387Y585843D01*
X359559Y584441D01*
X358157Y582613D01*
X357275Y580484D01*
X356974Y578200D01*
X357275Y575916D01*
X358157Y573787D01*
X359559Y571959D01*
X361387Y570557D01*
X363516Y569675D01*
X365800Y569375D01*
X368084Y569675D01*
X370213Y570557D01*
X372040Y571959D01*
X373443Y573787D01*
X374325Y575916D01*
X374625Y578200D01*
X374325Y580484D01*
X373443Y582613D01*
X372040Y584441D01*
X370213Y585843D01*
X368084Y586725D01*
X365800Y587025D01*
D02*
G37*
G36*
X340400D02*
X338116Y586725D01*
X335987Y585843D01*
X334159Y584441D01*
X332757Y582613D01*
X331875Y580484D01*
X331574Y578200D01*
X331875Y575916D01*
X332757Y573787D01*
X334159Y571959D01*
X335987Y570557D01*
X338116Y569675D01*
X340400Y569375D01*
X342684Y569675D01*
X344813Y570557D01*
X346640Y571959D01*
X348043Y573787D01*
X348925Y575916D01*
X349225Y578200D01*
X348925Y580484D01*
X348043Y582613D01*
X346640Y584441D01*
X344813Y585843D01*
X342684Y586725D01*
X340400Y587025D01*
D02*
G37*
G36*
X315000D02*
X312716Y586725D01*
X310587Y585843D01*
X308759Y584441D01*
X307357Y582613D01*
X306475Y580484D01*
X306174Y578200D01*
X306475Y575916D01*
X307357Y573787D01*
X308759Y571959D01*
X310587Y570557D01*
X312716Y569675D01*
X315000Y569375D01*
X317284Y569675D01*
X319412Y570557D01*
X321240Y571959D01*
X322643Y573787D01*
X323525Y575916D01*
X323825Y578200D01*
X323525Y580484D01*
X322643Y582613D01*
X321240Y584441D01*
X319412Y585843D01*
X317284Y586725D01*
X315000Y587025D01*
D02*
G37*
G36*
X264200D02*
X261916Y586725D01*
X259787Y585843D01*
X257959Y584441D01*
X256557Y582613D01*
X255675Y580484D01*
X255374Y578200D01*
X255675Y575916D01*
X256557Y573787D01*
X257959Y571959D01*
X259787Y570557D01*
X261916Y569675D01*
X264200Y569375D01*
X266484Y569675D01*
X268612Y570557D01*
X270440Y571959D01*
X271843Y573787D01*
X272725Y575916D01*
X273025Y578200D01*
X272725Y580484D01*
X271843Y582613D01*
X270440Y584441D01*
X268612Y585843D01*
X266484Y586725D01*
X264200Y587025D01*
D02*
G37*
G36*
X350700Y662739D02*
X349919Y662584D01*
X349258Y662142D01*
X349258Y662142D01*
X288158Y601042D01*
X287716Y600380D01*
X287561Y599600D01*
Y586757D01*
X287316Y586725D01*
X285187Y585843D01*
X283359Y584441D01*
X281957Y582613D01*
X281075Y580484D01*
X280774Y578200D01*
X281075Y575916D01*
X281957Y573787D01*
X283359Y571959D01*
X285187Y570557D01*
X287316Y569675D01*
X289600Y569375D01*
X291884Y569675D01*
X294013Y570557D01*
X295840Y571959D01*
X297243Y573787D01*
X298125Y575916D01*
X298425Y578200D01*
X298125Y580484D01*
X297243Y582613D01*
X295840Y584441D01*
X294013Y585843D01*
X291884Y586725D01*
X291639Y586757D01*
Y598755D01*
X351544Y658661D01*
X915960D01*
X998762Y575858D01*
X998763Y575858D01*
X999424Y575416D01*
X1000204Y575261D01*
X1018750D01*
Y566050D01*
X1041250D01*
Y588550D01*
X1018750D01*
Y579339D01*
X1001049D01*
X918246Y662142D01*
X917585Y662584D01*
X916804Y662739D01*
X350700D01*
X350700Y662739D01*
D02*
G37*
G36*
X950000Y561626D02*
X947716Y561325D01*
X945587Y560443D01*
X943759Y559041D01*
X942357Y557213D01*
X941475Y555084D01*
X941174Y552800D01*
X941475Y550516D01*
X942357Y548387D01*
X943759Y546559D01*
X945587Y545157D01*
X947716Y544275D01*
X950000Y543974D01*
X952284Y544275D01*
X954413Y545157D01*
X956240Y546559D01*
X957643Y548387D01*
X958525Y550516D01*
X958825Y552800D01*
X958525Y555084D01*
X957643Y557213D01*
X956240Y559041D01*
X954413Y560443D01*
X952284Y561325D01*
X950000Y561626D01*
D02*
G37*
G36*
X924600D02*
X922316Y561325D01*
X920187Y560443D01*
X918359Y559041D01*
X916957Y557213D01*
X916075Y555084D01*
X915774Y552800D01*
X916075Y550516D01*
X916957Y548387D01*
X918359Y546559D01*
X920187Y545157D01*
X922316Y544275D01*
X924600Y543974D01*
X926884Y544275D01*
X929013Y545157D01*
X930840Y546559D01*
X932243Y548387D01*
X933125Y550516D01*
X933425Y552800D01*
X933125Y555084D01*
X932243Y557213D01*
X930840Y559041D01*
X929013Y560443D01*
X926884Y561325D01*
X924600Y561626D01*
D02*
G37*
G36*
X899200D02*
X896916Y561325D01*
X894787Y560443D01*
X892959Y559041D01*
X891557Y557213D01*
X890675Y555084D01*
X890374Y552800D01*
X890675Y550516D01*
X891557Y548387D01*
X892959Y546559D01*
X894787Y545157D01*
X896916Y544275D01*
X899200Y543974D01*
X901484Y544275D01*
X903613Y545157D01*
X905440Y546559D01*
X906843Y548387D01*
X907725Y550516D01*
X908025Y552800D01*
X907725Y555084D01*
X906843Y557213D01*
X905440Y559041D01*
X903613Y560443D01*
X901484Y561325D01*
X899200Y561626D01*
D02*
G37*
G36*
X873800D02*
X871516Y561325D01*
X869387Y560443D01*
X867559Y559041D01*
X866157Y557213D01*
X865275Y555084D01*
X864974Y552800D01*
X865275Y550516D01*
X866157Y548387D01*
X867559Y546559D01*
X869387Y545157D01*
X871516Y544275D01*
X873800Y543974D01*
X876084Y544275D01*
X878213Y545157D01*
X880040Y546559D01*
X881443Y548387D01*
X882325Y550516D01*
X882625Y552800D01*
X882325Y555084D01*
X881443Y557213D01*
X880040Y559041D01*
X878213Y560443D01*
X876084Y561325D01*
X873800Y561626D01*
D02*
G37*
G36*
X848400D02*
X846116Y561325D01*
X843987Y560443D01*
X842159Y559041D01*
X840757Y557213D01*
X839875Y555084D01*
X839574Y552800D01*
X839875Y550516D01*
X840757Y548387D01*
X842159Y546559D01*
X843987Y545157D01*
X846116Y544275D01*
X848400Y543974D01*
X850684Y544275D01*
X852812Y545157D01*
X854640Y546559D01*
X856043Y548387D01*
X856925Y550516D01*
X857225Y552800D01*
X856925Y555084D01*
X856043Y557213D01*
X854640Y559041D01*
X852812Y560443D01*
X850684Y561325D01*
X848400Y561626D01*
D02*
G37*
G36*
X823000D02*
X820716Y561325D01*
X818587Y560443D01*
X816759Y559041D01*
X815357Y557213D01*
X814475Y555084D01*
X814174Y552800D01*
X814475Y550516D01*
X815357Y548387D01*
X816759Y546559D01*
X818587Y545157D01*
X820716Y544275D01*
X823000Y543974D01*
X825284Y544275D01*
X827412Y545157D01*
X829240Y546559D01*
X830643Y548387D01*
X831525Y550516D01*
X831825Y552800D01*
X831525Y555084D01*
X830643Y557213D01*
X829240Y559041D01*
X827412Y560443D01*
X825284Y561325D01*
X823000Y561626D01*
D02*
G37*
G36*
X797600D02*
X795316Y561325D01*
X793187Y560443D01*
X791359Y559041D01*
X789957Y557213D01*
X789075Y555084D01*
X788774Y552800D01*
X789075Y550516D01*
X789957Y548387D01*
X791359Y546559D01*
X793187Y545157D01*
X795316Y544275D01*
X797600Y543974D01*
X799884Y544275D01*
X802012Y545157D01*
X803840Y546559D01*
X805243Y548387D01*
X806125Y550516D01*
X806425Y552800D01*
X806125Y555084D01*
X805243Y557213D01*
X803840Y559041D01*
X802012Y560443D01*
X799884Y561325D01*
X797600Y561626D01*
D02*
G37*
G36*
X772200D02*
X769916Y561325D01*
X767787Y560443D01*
X765959Y559041D01*
X764557Y557213D01*
X763675Y555084D01*
X763374Y552800D01*
X763675Y550516D01*
X764557Y548387D01*
X765959Y546559D01*
X767787Y545157D01*
X769916Y544275D01*
X772200Y543974D01*
X774484Y544275D01*
X776612Y545157D01*
X778440Y546559D01*
X779843Y548387D01*
X780725Y550516D01*
X781025Y552800D01*
X780725Y555084D01*
X779843Y557213D01*
X778440Y559041D01*
X776612Y560443D01*
X774484Y561325D01*
X772200Y561626D01*
D02*
G37*
G36*
X746800D02*
X744516Y561325D01*
X742387Y560443D01*
X740559Y559041D01*
X739157Y557213D01*
X738275Y555084D01*
X737974Y552800D01*
X738275Y550516D01*
X739157Y548387D01*
X740559Y546559D01*
X742387Y545157D01*
X744516Y544275D01*
X746800Y543974D01*
X749084Y544275D01*
X751212Y545157D01*
X753040Y546559D01*
X754443Y548387D01*
X755325Y550516D01*
X755625Y552800D01*
X755325Y555084D01*
X754443Y557213D01*
X753040Y559041D01*
X751212Y560443D01*
X749084Y561325D01*
X746800Y561626D01*
D02*
G37*
G36*
X721400D02*
X719116Y561325D01*
X716987Y560443D01*
X715159Y559041D01*
X713757Y557213D01*
X712875Y555084D01*
X712574Y552800D01*
X712875Y550516D01*
X713757Y548387D01*
X715159Y546559D01*
X716987Y545157D01*
X719116Y544275D01*
X721400Y543974D01*
X723684Y544275D01*
X725813Y545157D01*
X727640Y546559D01*
X729043Y548387D01*
X729925Y550516D01*
X730225Y552800D01*
X729925Y555084D01*
X729043Y557213D01*
X727640Y559041D01*
X725813Y560443D01*
X723684Y561325D01*
X721400Y561626D01*
D02*
G37*
G36*
X696000D02*
X693716Y561325D01*
X691587Y560443D01*
X689759Y559041D01*
X688357Y557213D01*
X687475Y555084D01*
X687174Y552800D01*
X687475Y550516D01*
X688357Y548387D01*
X689759Y546559D01*
X691587Y545157D01*
X693716Y544275D01*
X696000Y543974D01*
X698284Y544275D01*
X700413Y545157D01*
X702240Y546559D01*
X703643Y548387D01*
X704525Y550516D01*
X704825Y552800D01*
X704525Y555084D01*
X703643Y557213D01*
X702240Y559041D01*
X700413Y560443D01*
X698284Y561325D01*
X696000Y561626D01*
D02*
G37*
G36*
X670600D02*
X668316Y561325D01*
X666187Y560443D01*
X664359Y559041D01*
X662957Y557213D01*
X662075Y555084D01*
X661774Y552800D01*
X662075Y550516D01*
X662957Y548387D01*
X664359Y546559D01*
X666187Y545157D01*
X668316Y544275D01*
X670600Y543974D01*
X672884Y544275D01*
X675013Y545157D01*
X676840Y546559D01*
X678243Y548387D01*
X679125Y550516D01*
X679425Y552800D01*
X679125Y555084D01*
X678243Y557213D01*
X676840Y559041D01*
X675013Y560443D01*
X672884Y561325D01*
X670600Y561626D01*
D02*
G37*
G36*
X645200D02*
X642916Y561325D01*
X640787Y560443D01*
X638959Y559041D01*
X637557Y557213D01*
X636675Y555084D01*
X636374Y552800D01*
X636675Y550516D01*
X637557Y548387D01*
X638959Y546559D01*
X640787Y545157D01*
X642916Y544275D01*
X645200Y543974D01*
X647484Y544275D01*
X649613Y545157D01*
X651440Y546559D01*
X652843Y548387D01*
X653725Y550516D01*
X654025Y552800D01*
X653725Y555084D01*
X652843Y557213D01*
X651440Y559041D01*
X649613Y560443D01*
X647484Y561325D01*
X645200Y561626D01*
D02*
G37*
G36*
X619800D02*
X617516Y561325D01*
X615387Y560443D01*
X613559Y559041D01*
X612157Y557213D01*
X611275Y555084D01*
X610974Y552800D01*
X611275Y550516D01*
X612157Y548387D01*
X613559Y546559D01*
X615387Y545157D01*
X617516Y544275D01*
X619800Y543974D01*
X622084Y544275D01*
X624212Y545157D01*
X626040Y546559D01*
X627443Y548387D01*
X628325Y550516D01*
X628625Y552800D01*
X628325Y555084D01*
X627443Y557213D01*
X626040Y559041D01*
X624212Y560443D01*
X622084Y561325D01*
X619800Y561626D01*
D02*
G37*
G36*
X594400D02*
X592116Y561325D01*
X589987Y560443D01*
X588159Y559041D01*
X586757Y557213D01*
X585875Y555084D01*
X585574Y552800D01*
X585875Y550516D01*
X586757Y548387D01*
X588159Y546559D01*
X589987Y545157D01*
X592116Y544275D01*
X594400Y543974D01*
X596684Y544275D01*
X598812Y545157D01*
X600640Y546559D01*
X602043Y548387D01*
X602925Y550516D01*
X603225Y552800D01*
X602925Y555084D01*
X602043Y557213D01*
X600640Y559041D01*
X598812Y560443D01*
X596684Y561325D01*
X594400Y561626D01*
D02*
G37*
G36*
X569000D02*
X566716Y561325D01*
X564587Y560443D01*
X562759Y559041D01*
X561357Y557213D01*
X560475Y555084D01*
X560174Y552800D01*
X560475Y550516D01*
X561357Y548387D01*
X562759Y546559D01*
X564587Y545157D01*
X566716Y544275D01*
X569000Y543974D01*
X571284Y544275D01*
X573413Y545157D01*
X575240Y546559D01*
X576643Y548387D01*
X577525Y550516D01*
X577825Y552800D01*
X577525Y555084D01*
X576643Y557213D01*
X575240Y559041D01*
X573413Y560443D01*
X571284Y561325D01*
X569000Y561626D01*
D02*
G37*
G36*
X543600D02*
X541316Y561325D01*
X539187Y560443D01*
X537359Y559041D01*
X535957Y557213D01*
X535075Y555084D01*
X534774Y552800D01*
X535075Y550516D01*
X535957Y548387D01*
X537359Y546559D01*
X539187Y545157D01*
X541316Y544275D01*
X543600Y543974D01*
X545884Y544275D01*
X548013Y545157D01*
X549840Y546559D01*
X551243Y548387D01*
X552125Y550516D01*
X552425Y552800D01*
X552125Y555084D01*
X551243Y557213D01*
X549840Y559041D01*
X548013Y560443D01*
X545884Y561325D01*
X543600Y561626D01*
D02*
G37*
G36*
X518200D02*
X515916Y561325D01*
X513787Y560443D01*
X511959Y559041D01*
X510557Y557213D01*
X509675Y555084D01*
X509374Y552800D01*
X509675Y550516D01*
X510557Y548387D01*
X511959Y546559D01*
X513787Y545157D01*
X515916Y544275D01*
X518200Y543974D01*
X520484Y544275D01*
X522612Y545157D01*
X524440Y546559D01*
X525843Y548387D01*
X526725Y550516D01*
X527025Y552800D01*
X526725Y555084D01*
X525843Y557213D01*
X524440Y559041D01*
X522612Y560443D01*
X520484Y561325D01*
X518200Y561626D01*
D02*
G37*
G36*
X492800D02*
X490516Y561325D01*
X488387Y560443D01*
X486559Y559041D01*
X485157Y557213D01*
X484275Y555084D01*
X483974Y552800D01*
X484275Y550516D01*
X485157Y548387D01*
X486559Y546559D01*
X488387Y545157D01*
X490516Y544275D01*
X492800Y543974D01*
X495084Y544275D01*
X497212Y545157D01*
X499040Y546559D01*
X500443Y548387D01*
X501325Y550516D01*
X501625Y552800D01*
X501325Y555084D01*
X500443Y557213D01*
X499040Y559041D01*
X497212Y560443D01*
X495084Y561325D01*
X492800Y561626D01*
D02*
G37*
G36*
X467400D02*
X465116Y561325D01*
X462987Y560443D01*
X461159Y559041D01*
X459757Y557213D01*
X458875Y555084D01*
X458574Y552800D01*
X458875Y550516D01*
X459757Y548387D01*
X461159Y546559D01*
X462987Y545157D01*
X465116Y544275D01*
X467400Y543974D01*
X469684Y544275D01*
X471813Y545157D01*
X473640Y546559D01*
X475043Y548387D01*
X475925Y550516D01*
X476225Y552800D01*
X475925Y555084D01*
X475043Y557213D01*
X473640Y559041D01*
X471813Y560443D01*
X469684Y561325D01*
X467400Y561626D01*
D02*
G37*
G36*
X416600D02*
X414316Y561325D01*
X412187Y560443D01*
X410359Y559041D01*
X408957Y557213D01*
X408075Y555084D01*
X407774Y552800D01*
X408075Y550516D01*
X408957Y548387D01*
X410359Y546559D01*
X412187Y545157D01*
X414316Y544275D01*
X416600Y543974D01*
X418884Y544275D01*
X421012Y545157D01*
X422840Y546559D01*
X424243Y548387D01*
X425125Y550516D01*
X425425Y552800D01*
X425125Y555084D01*
X424243Y557213D01*
X422840Y559041D01*
X421012Y560443D01*
X418884Y561325D01*
X416600Y561626D01*
D02*
G37*
G36*
X391200D02*
X388916Y561325D01*
X386787Y560443D01*
X384959Y559041D01*
X383557Y557213D01*
X382675Y555084D01*
X382374Y552800D01*
X382675Y550516D01*
X383557Y548387D01*
X384959Y546559D01*
X386787Y545157D01*
X388916Y544275D01*
X391200Y543974D01*
X393484Y544275D01*
X395612Y545157D01*
X397440Y546559D01*
X398843Y548387D01*
X399725Y550516D01*
X400025Y552800D01*
X399725Y555084D01*
X398843Y557213D01*
X397440Y559041D01*
X395612Y560443D01*
X393484Y561325D01*
X391200Y561626D01*
D02*
G37*
G36*
X365800D02*
X363516Y561325D01*
X361387Y560443D01*
X359559Y559041D01*
X358157Y557213D01*
X357275Y555084D01*
X356974Y552800D01*
X357275Y550516D01*
X358157Y548387D01*
X359559Y546559D01*
X361387Y545157D01*
X363516Y544275D01*
X365800Y543974D01*
X368084Y544275D01*
X370213Y545157D01*
X372040Y546559D01*
X373443Y548387D01*
X374325Y550516D01*
X374625Y552800D01*
X374325Y555084D01*
X373443Y557213D01*
X372040Y559041D01*
X370213Y560443D01*
X368084Y561325D01*
X365800Y561626D01*
D02*
G37*
G36*
X340400D02*
X338116Y561325D01*
X335987Y560443D01*
X334159Y559041D01*
X332757Y557213D01*
X331875Y555084D01*
X331574Y552800D01*
X331875Y550516D01*
X332757Y548387D01*
X334159Y546559D01*
X335987Y545157D01*
X338116Y544275D01*
X340400Y543974D01*
X342684Y544275D01*
X344813Y545157D01*
X346640Y546559D01*
X348043Y548387D01*
X348925Y550516D01*
X349225Y552800D01*
X348925Y555084D01*
X348043Y557213D01*
X346640Y559041D01*
X344813Y560443D01*
X342684Y561325D01*
X340400Y561626D01*
D02*
G37*
G36*
X264200D02*
X261916Y561325D01*
X259787Y560443D01*
X257959Y559041D01*
X256557Y557213D01*
X255675Y555084D01*
X255374Y552800D01*
X255675Y550516D01*
X256557Y548387D01*
X257959Y546559D01*
X259787Y545157D01*
X261916Y544275D01*
X264200Y543974D01*
X266484Y544275D01*
X268612Y545157D01*
X270440Y546559D01*
X271843Y548387D01*
X272725Y550516D01*
X273025Y552800D01*
X272725Y555084D01*
X271843Y557213D01*
X270440Y559041D01*
X268612Y560443D01*
X266484Y561325D01*
X264200Y561626D01*
D02*
G37*
G36*
X1031270Y529781D02*
Y518570D01*
X1042481D01*
X1042217Y520574D01*
X1040954Y523624D01*
X1038943Y526244D01*
X1036324Y528254D01*
X1033273Y529517D01*
X1031270Y529781D01*
D02*
G37*
G36*
X1028730Y529781D02*
X1026726Y529517D01*
X1023676Y528254D01*
X1021056Y526244D01*
X1019046Y523624D01*
X1017783Y520574D01*
X1017519Y518570D01*
X1028730D01*
Y529781D01*
D02*
G37*
G36*
X130850Y519200D02*
X108350D01*
Y496700D01*
X130850D01*
Y519200D01*
D02*
G37*
G36*
X1042481Y516030D02*
X1030000D01*
X1017519D01*
X1017783Y514026D01*
X1019046Y510976D01*
X1021056Y508356D01*
X1023676Y506346D01*
X1026726Y505083D01*
X1029027Y504780D01*
Y503519D01*
X1027063Y503260D01*
X1024326Y502127D01*
X1021976Y500324D01*
X1020173Y497974D01*
X1019039Y495237D01*
X1018653Y492300D01*
X1019039Y489363D01*
X1020173Y486627D01*
X1021976Y484276D01*
X1024326Y482473D01*
X1027063Y481340D01*
X1030000Y480953D01*
X1032937Y481340D01*
X1035673Y482473D01*
X1038024Y484276D01*
X1039827Y486627D01*
X1040960Y489363D01*
X1041347Y492300D01*
X1040960Y495237D01*
X1039827Y497974D01*
X1038024Y500324D01*
X1035673Y502127D01*
X1032937Y503260D01*
X1030973Y503519D01*
Y504780D01*
X1033273Y505083D01*
X1036324Y506346D01*
X1038943Y508356D01*
X1040954Y510976D01*
X1042217Y514026D01*
X1042481Y516030D01*
D02*
G37*
G36*
X119600Y494297D02*
X116663Y493910D01*
X113926Y492777D01*
X111576Y490974D01*
X109773Y488624D01*
X108639Y485887D01*
X108253Y482950D01*
X108639Y480013D01*
X109773Y477276D01*
X111576Y474926D01*
X113926Y473123D01*
X116663Y471990D01*
X118627Y471731D01*
Y470470D01*
X116326Y470167D01*
X113276Y468904D01*
X110656Y466894D01*
X108646Y464274D01*
X107383Y461224D01*
X107119Y459220D01*
X119600D01*
X132081D01*
X131817Y461224D01*
X130554Y464274D01*
X128544Y466894D01*
X125924Y468904D01*
X122873Y470167D01*
X120573Y470470D01*
Y471731D01*
X122537Y471990D01*
X125273Y473123D01*
X127623Y474926D01*
X129427Y477276D01*
X130560Y480013D01*
X130947Y482950D01*
X130560Y485887D01*
X129427Y488624D01*
X127623Y490974D01*
X125273Y492777D01*
X122537Y493910D01*
X119600Y494297D01*
D02*
G37*
G36*
X454650Y656389D02*
X453869Y656234D01*
X453208Y655792D01*
X427858Y630442D01*
X427416Y629780D01*
X427261Y629000D01*
Y565500D01*
X427416Y564720D01*
X427858Y564058D01*
X434507Y557409D01*
X434357Y557213D01*
X433475Y555084D01*
X433174Y552800D01*
X433475Y550516D01*
X434357Y548387D01*
X435759Y546559D01*
X437587Y545157D01*
X439716Y544275D01*
X442000Y543974D01*
X444284Y544275D01*
X446413Y545157D01*
X448240Y546559D01*
X449643Y548387D01*
X450525Y550516D01*
X450825Y552800D01*
X450525Y555084D01*
X449643Y557213D01*
X448240Y559041D01*
X446413Y560443D01*
X444284Y561325D01*
X442000Y561626D01*
X439716Y561325D01*
X437587Y560443D01*
X437391Y560293D01*
X431339Y566345D01*
Y628155D01*
X455494Y652311D01*
X913329D01*
X992411Y573230D01*
Y476600D01*
X992566Y475820D01*
X993008Y475158D01*
X1005708Y462458D01*
X1005708Y462458D01*
X1006369Y462016D01*
X1007150Y461861D01*
X1007150Y461861D01*
X1019782D01*
X1020053Y461915D01*
X1020173Y461627D01*
X1021976Y459276D01*
X1024326Y457473D01*
X1027063Y456339D01*
X1030000Y455953D01*
X1032937Y456339D01*
X1035673Y457473D01*
X1038024Y459276D01*
X1039827Y461627D01*
X1040960Y464363D01*
X1041347Y467300D01*
X1040960Y470237D01*
X1039827Y472974D01*
X1038024Y475324D01*
X1035673Y477127D01*
X1032937Y478260D01*
X1030000Y478647D01*
X1027063Y478260D01*
X1024326Y477127D01*
X1021976Y475324D01*
X1020173Y472974D01*
X1019039Y470237D01*
X1018653Y467300D01*
X1018708Y466879D01*
X1017884Y465939D01*
X1007995D01*
X996489Y477445D01*
Y574074D01*
X996334Y574855D01*
X995892Y575516D01*
X915616Y655792D01*
X914955Y656234D01*
X914174Y656389D01*
X454650D01*
X454650Y656389D01*
D02*
G37*
G36*
X132081Y456680D02*
X120870D01*
Y445469D01*
X122873Y445733D01*
X125924Y446996D01*
X128544Y449006D01*
X130554Y451626D01*
X131817Y454676D01*
X132081Y456680D01*
D02*
G37*
G36*
X118330D02*
X107119D01*
X107383Y454676D01*
X108646Y451626D01*
X110656Y449006D01*
X113276Y446996D01*
X116326Y445733D01*
X118330Y445469D01*
Y456680D01*
D02*
G37*
G36*
X911900Y650089D02*
X458200D01*
X457419Y649934D01*
X456758Y649492D01*
X456758Y649492D01*
X443708Y636442D01*
X443266Y635780D01*
X443111Y635000D01*
Y600450D01*
X443266Y599670D01*
X443708Y599008D01*
X459907Y582809D01*
X459757Y582613D01*
X458875Y580484D01*
X458574Y578200D01*
X458875Y575916D01*
X459757Y573787D01*
X461159Y571959D01*
X462987Y570557D01*
X465116Y569675D01*
X467400Y569375D01*
X469684Y569675D01*
X471813Y570557D01*
X473640Y571959D01*
X475043Y573787D01*
X475925Y575916D01*
X476225Y578200D01*
X475925Y580484D01*
X475043Y582613D01*
X473640Y584441D01*
X471813Y585843D01*
X469684Y586725D01*
X467400Y587025D01*
X465116Y586725D01*
X462987Y585843D01*
X462791Y585693D01*
X447189Y601295D01*
Y634155D01*
X459044Y646011D01*
X911055D01*
X986061Y571005D01*
Y463900D01*
X986216Y463120D01*
X986658Y462458D01*
X1005558Y443558D01*
X1005558Y443558D01*
X1006219Y443116D01*
X1007000Y442961D01*
X1018750D01*
Y431050D01*
X1041250D01*
Y453550D01*
X1018750D01*
Y447039D01*
X1007844D01*
X990139Y464745D01*
Y571850D01*
X990139Y571850D01*
X989984Y572630D01*
X989542Y573292D01*
X913342Y649492D01*
X912680Y649934D01*
X911900Y650089D01*
D02*
G37*
G36*
X130850Y411250D02*
X108350D01*
Y388750D01*
X130850D01*
Y411250D01*
D02*
G37*
G36*
X1031262Y394981D02*
Y383770D01*
X1042473D01*
X1042209Y385774D01*
X1040946Y388824D01*
X1038935Y391444D01*
X1036316Y393454D01*
X1033265Y394717D01*
X1031262Y394981D01*
D02*
G37*
G36*
X1028722Y394981D02*
X1026718Y394717D01*
X1023668Y393454D01*
X1021048Y391444D01*
X1019038Y388824D01*
X1017775Y385774D01*
X1017511Y383770D01*
X1028722D01*
Y394981D01*
D02*
G37*
G36*
X119600Y386347D02*
X116663Y385960D01*
X113926Y384827D01*
X111576Y383024D01*
X109773Y380673D01*
X108639Y377937D01*
X108253Y375000D01*
X108639Y372063D01*
X109773Y369326D01*
X111576Y366976D01*
X113926Y365173D01*
X116663Y364039D01*
X118627Y363781D01*
Y362520D01*
X116326Y362217D01*
X113276Y360954D01*
X110656Y358944D01*
X108646Y356324D01*
X107383Y353274D01*
X107119Y351270D01*
X119600D01*
X132081D01*
X131817Y353274D01*
X130554Y356324D01*
X128544Y358944D01*
X125924Y360954D01*
X122873Y362217D01*
X120573Y362520D01*
Y363781D01*
X122537Y364039D01*
X125273Y365173D01*
X127623Y366976D01*
X129427Y369326D01*
X130560Y372063D01*
X130947Y375000D01*
X130560Y377937D01*
X129427Y380673D01*
X127623Y383024D01*
X125273Y384827D01*
X122537Y385960D01*
X119600Y386347D01*
D02*
G37*
G36*
X1042473Y381230D02*
X1029992D01*
X1017511D01*
X1017775Y379226D01*
X1019038Y376176D01*
X1021048Y373556D01*
X1023668Y371546D01*
X1026718Y370283D01*
X1029019Y369980D01*
Y368719D01*
X1027055Y368461D01*
X1024318Y367327D01*
X1021968Y365524D01*
X1020165Y363173D01*
X1019031Y360437D01*
X1018645Y357500D01*
X1019031Y354563D01*
X1020165Y351826D01*
X1021968Y349476D01*
X1024318Y347673D01*
X1027055Y346539D01*
X1029992Y346153D01*
X1032929Y346539D01*
X1035665Y347673D01*
X1038015Y349476D01*
X1039819Y351826D01*
X1040952Y354563D01*
X1041339Y357500D01*
X1040952Y360437D01*
X1039819Y363173D01*
X1038015Y365524D01*
X1035665Y367327D01*
X1032929Y368461D01*
X1030965Y368719D01*
Y369980D01*
X1033265Y370283D01*
X1036316Y371546D01*
X1038935Y373556D01*
X1040946Y376176D01*
X1042209Y379226D01*
X1042473Y381230D01*
D02*
G37*
G36*
X132081Y348730D02*
X120870D01*
Y337519D01*
X122873Y337783D01*
X125924Y339046D01*
X128544Y341056D01*
X130554Y343676D01*
X131817Y346726D01*
X132081Y348730D01*
D02*
G37*
G36*
X118330D02*
X107119D01*
X107383Y346726D01*
X108646Y343676D01*
X110656Y341056D01*
X113276Y339046D01*
X116326Y337783D01*
X118330Y337519D01*
Y348730D01*
D02*
G37*
G36*
X1029992Y343847D02*
X1027055Y343461D01*
X1024318Y342327D01*
X1021968Y340524D01*
X1020165Y338173D01*
X1019031Y335437D01*
X1018913Y334539D01*
X1009100D01*
X1008319Y334384D01*
X1007658Y333942D01*
X1007658Y333942D01*
X999358Y325642D01*
X998916Y324980D01*
X998761Y324200D01*
Y248845D01*
X961855Y211939D01*
X900079D01*
X899298Y211784D01*
X898637Y211342D01*
X898636Y211342D01*
X897758Y210463D01*
X897316Y209802D01*
X897161Y209021D01*
Y205757D01*
X896916Y205725D01*
X894787Y204843D01*
X892959Y203441D01*
X891557Y201613D01*
X890675Y199484D01*
X890374Y197200D01*
X890675Y194916D01*
X891557Y192787D01*
X892959Y190959D01*
X894787Y189557D01*
X896916Y188675D01*
X899200Y188375D01*
X901484Y188675D01*
X903613Y189557D01*
X905440Y190959D01*
X906843Y192787D01*
X907725Y194916D01*
X908025Y197200D01*
X907725Y199484D01*
X906843Y201613D01*
X905440Y203441D01*
X903613Y204843D01*
X901484Y205725D01*
X901239Y205757D01*
Y207861D01*
X962700D01*
X963480Y208016D01*
X964142Y208458D01*
X965806Y210123D01*
X966508Y209917D01*
X967011Y209559D01*
Y191695D01*
X961855Y186539D01*
X911900D01*
X911900Y186539D01*
X911119Y186384D01*
X910458Y185942D01*
X910458Y185942D01*
X903809Y179293D01*
X903613Y179443D01*
X901484Y180325D01*
X899200Y180625D01*
X896916Y180325D01*
X894787Y179443D01*
X892959Y178041D01*
X891557Y176213D01*
X890675Y174084D01*
X890374Y171800D01*
X890675Y169516D01*
X891557Y167387D01*
X892959Y165559D01*
X894787Y164157D01*
X896916Y163275D01*
X899200Y162974D01*
X901484Y163275D01*
X903613Y164157D01*
X905440Y165559D01*
X906843Y167387D01*
X907725Y169516D01*
X908025Y171800D01*
X907725Y174084D01*
X906843Y176213D01*
X906693Y176409D01*
X912745Y182461D01*
X962700D01*
X963480Y182616D01*
X964142Y183058D01*
X970492Y189408D01*
X970492Y189408D01*
X970934Y190070D01*
X971089Y190850D01*
Y208925D01*
X972143Y209979D01*
X973361Y209429D01*
Y172645D01*
X955505Y154789D01*
X930033D01*
X926639Y158184D01*
Y163243D01*
X926884Y163275D01*
X929013Y164157D01*
X930840Y165559D01*
X932243Y167387D01*
X933125Y169516D01*
X933425Y171800D01*
X933125Y174084D01*
X932243Y176213D01*
X930840Y178041D01*
X929013Y179443D01*
X926884Y180325D01*
X924600Y180625D01*
X922316Y180325D01*
X920187Y179443D01*
X918359Y178041D01*
X916957Y176213D01*
X916075Y174084D01*
X915774Y171800D01*
X916075Y169516D01*
X916957Y167387D01*
X918359Y165559D01*
X920187Y164157D01*
X922316Y163275D01*
X922561Y163243D01*
Y157339D01*
X922716Y156559D01*
X923158Y155897D01*
X927747Y151308D01*
X927747Y151308D01*
X928408Y150866D01*
X929189Y150711D01*
X956350D01*
X957130Y150866D01*
X957792Y151308D01*
X976842Y170358D01*
X977284Y171020D01*
X977439Y171800D01*
Y209055D01*
X978633Y210250D01*
X979785Y209634D01*
X979711Y209258D01*
Y166295D01*
X961855Y148439D01*
X906395D01*
X888539Y166295D01*
Y184500D01*
X888539Y184500D01*
X888384Y185280D01*
X887942Y185942D01*
X887942Y185942D01*
X881292Y192591D01*
X881443Y192787D01*
X882325Y194916D01*
X882625Y197200D01*
X882325Y199484D01*
X881443Y201613D01*
X880040Y203441D01*
X878213Y204843D01*
X876084Y205725D01*
X873800Y206026D01*
X871516Y205725D01*
X869387Y204843D01*
X867559Y203441D01*
X866157Y201613D01*
X865275Y199484D01*
X864974Y197200D01*
X865275Y194916D01*
X866157Y192787D01*
X867559Y190959D01*
X869387Y189557D01*
X871516Y188675D01*
X873800Y188375D01*
X876084Y188675D01*
X878213Y189557D01*
X878409Y189707D01*
X884461Y183655D01*
Y165450D01*
X884616Y164670D01*
X885058Y164008D01*
X904108Y144958D01*
X904769Y144516D01*
X905550Y144361D01*
X962700D01*
X963480Y144516D01*
X964142Y144958D01*
X983192Y164008D01*
X983634Y164670D01*
X983789Y165450D01*
Y208413D01*
X1021626Y246250D01*
X1041242D01*
Y268750D01*
X1018742D01*
Y249134D01*
X1016616Y247008D01*
X1015464Y247624D01*
X1015539Y248000D01*
Y278905D01*
X1017094Y280461D01*
X1018913D01*
X1019031Y279563D01*
X1020165Y276826D01*
X1021968Y274476D01*
X1024318Y272673D01*
X1027055Y271539D01*
X1029992Y271153D01*
X1032929Y271539D01*
X1035665Y272673D01*
X1038015Y274476D01*
X1039819Y276826D01*
X1040952Y279563D01*
X1041339Y282500D01*
X1040952Y285437D01*
X1039819Y288174D01*
X1038015Y290524D01*
X1035665Y292327D01*
X1032929Y293460D01*
X1029992Y293847D01*
X1027055Y293460D01*
X1024318Y292327D01*
X1021968Y290524D01*
X1020165Y288174D01*
X1019031Y285437D01*
X1018913Y284539D01*
X1016250D01*
X1015469Y284384D01*
X1014808Y283942D01*
X1012058Y281192D01*
X1011616Y280530D01*
X1011461Y279750D01*
Y249586D01*
X1011059Y249315D01*
X1009809Y249979D01*
Y298445D01*
X1016825Y305461D01*
X1018913D01*
X1019031Y304563D01*
X1020165Y301826D01*
X1021968Y299476D01*
X1024318Y297673D01*
X1027055Y296539D01*
X1029992Y296153D01*
X1032929Y296539D01*
X1035665Y297673D01*
X1038015Y299476D01*
X1039819Y301826D01*
X1040952Y304563D01*
X1041339Y307500D01*
X1040952Y310437D01*
X1039819Y313174D01*
X1038015Y315524D01*
X1035665Y317327D01*
X1032929Y318461D01*
X1029992Y318847D01*
X1027055Y318461D01*
X1024318Y317327D01*
X1021968Y315524D01*
X1020165Y313174D01*
X1019031Y310437D01*
X1018913Y309539D01*
X1015980D01*
X1015980Y309539D01*
X1015200Y309384D01*
X1014538Y308942D01*
X1006328Y300732D01*
X1005886Y300070D01*
X1005731Y299290D01*
Y249335D01*
X1004043Y247647D01*
X1003342Y247853D01*
X1002839Y248211D01*
Y323355D01*
X1009945Y330461D01*
X1018913D01*
X1019031Y329563D01*
X1020165Y326826D01*
X1021968Y324476D01*
X1024318Y322673D01*
X1027055Y321539D01*
X1029992Y321153D01*
X1032929Y321539D01*
X1035665Y322673D01*
X1038015Y324476D01*
X1039819Y326826D01*
X1040952Y329563D01*
X1041339Y332500D01*
X1040952Y335437D01*
X1039819Y338173D01*
X1038015Y340524D01*
X1035665Y342327D01*
X1032929Y343461D01*
X1029992Y343847D01*
D02*
G37*
G36*
X130850Y303300D02*
X108350D01*
Y280800D01*
X130850D01*
Y303300D01*
D02*
G37*
G36*
X119600Y278397D02*
X116663Y278010D01*
X113926Y276877D01*
X111576Y275074D01*
X109773Y272724D01*
X108639Y269987D01*
X108253Y267050D01*
X108639Y264113D01*
X109773Y261376D01*
X111576Y259026D01*
X113926Y257223D01*
X116663Y256089D01*
X118627Y255831D01*
Y254570D01*
X116326Y254267D01*
X113276Y253004D01*
X110656Y250994D01*
X108646Y248374D01*
X107383Y245324D01*
X107119Y243320D01*
X119600D01*
X132081D01*
X131817Y245324D01*
X130554Y248374D01*
X128544Y250994D01*
X125924Y253004D01*
X122873Y254267D01*
X120573Y254570D01*
Y255831D01*
X122537Y256089D01*
X125273Y257223D01*
X127623Y259026D01*
X129427Y261376D01*
X130560Y264113D01*
X130947Y267050D01*
X130560Y269987D01*
X129427Y272724D01*
X127623Y275074D01*
X125273Y276877D01*
X122537Y278010D01*
X119600Y278397D01*
D02*
G37*
G36*
X132081Y240780D02*
X120870D01*
Y229569D01*
X122873Y229833D01*
X125924Y231096D01*
X128544Y233106D01*
X130554Y235726D01*
X131817Y238776D01*
X132081Y240780D01*
D02*
G37*
G36*
X118330D02*
X107119D01*
X107383Y238776D01*
X108646Y235726D01*
X110656Y233106D01*
X113276Y231096D01*
X116326Y229833D01*
X118330Y229569D01*
Y240780D01*
D02*
G37*
G36*
X1031262Y212481D02*
Y201270D01*
X1042473D01*
X1042209Y203274D01*
X1040946Y206324D01*
X1038935Y208944D01*
X1036316Y210954D01*
X1033265Y212217D01*
X1031262Y212481D01*
D02*
G37*
G36*
X1028722D02*
X1026718Y212217D01*
X1023668Y210954D01*
X1021048Y208944D01*
X1019038Y206324D01*
X1017775Y203274D01*
X1017511Y201270D01*
X1028722D01*
Y212481D01*
D02*
G37*
G36*
X367070Y207159D02*
Y198470D01*
X375759D01*
X375581Y199821D01*
X374570Y202263D01*
X372960Y204361D01*
X370863Y205970D01*
X368421Y206982D01*
X367070Y207159D01*
D02*
G37*
G36*
X364530D02*
X363179Y206982D01*
X360737Y205970D01*
X358639Y204361D01*
X357030Y202263D01*
X356018Y199821D01*
X355840Y198470D01*
X364530D01*
Y207159D01*
D02*
G37*
G36*
X950000Y206026D02*
X947716Y205725D01*
X945587Y204843D01*
X943759Y203441D01*
X942357Y201613D01*
X941475Y199484D01*
X941174Y197200D01*
X941475Y194916D01*
X942357Y192787D01*
X943759Y190959D01*
X945587Y189557D01*
X947716Y188675D01*
X950000Y188375D01*
X952284Y188675D01*
X954413Y189557D01*
X956240Y190959D01*
X957643Y192787D01*
X958525Y194916D01*
X958825Y197200D01*
X958525Y199484D01*
X957643Y201613D01*
X956240Y203441D01*
X954413Y204843D01*
X952284Y205725D01*
X950000Y206026D01*
D02*
G37*
G36*
X924600D02*
X922316Y205725D01*
X920187Y204843D01*
X918359Y203441D01*
X916957Y201613D01*
X916075Y199484D01*
X915774Y197200D01*
X916075Y194916D01*
X916957Y192787D01*
X918359Y190959D01*
X920187Y189557D01*
X922316Y188675D01*
X924600Y188375D01*
X926884Y188675D01*
X929013Y189557D01*
X930840Y190959D01*
X932243Y192787D01*
X933125Y194916D01*
X933425Y197200D01*
X933125Y199484D01*
X932243Y201613D01*
X930840Y203441D01*
X929013Y204843D01*
X926884Y205725D01*
X924600Y206026D01*
D02*
G37*
G36*
X848400D02*
X846116Y205725D01*
X843987Y204843D01*
X842159Y203441D01*
X840757Y201613D01*
X839875Y199484D01*
X839574Y197200D01*
X839875Y194916D01*
X840757Y192787D01*
X842159Y190959D01*
X843987Y189557D01*
X846116Y188675D01*
X848400Y188375D01*
X850684Y188675D01*
X852812Y189557D01*
X854640Y190959D01*
X856043Y192787D01*
X856925Y194916D01*
X857225Y197200D01*
X856925Y199484D01*
X856043Y201613D01*
X854640Y203441D01*
X852812Y204843D01*
X850684Y205725D01*
X848400Y206026D01*
D02*
G37*
G36*
X823000D02*
X820716Y205725D01*
X818587Y204843D01*
X816759Y203441D01*
X815357Y201613D01*
X814475Y199484D01*
X814174Y197200D01*
X814475Y194916D01*
X815357Y192787D01*
X816759Y190959D01*
X818587Y189557D01*
X820716Y188675D01*
X823000Y188375D01*
X825284Y188675D01*
X827412Y189557D01*
X829240Y190959D01*
X830643Y192787D01*
X831525Y194916D01*
X831825Y197200D01*
X831525Y199484D01*
X830643Y201613D01*
X829240Y203441D01*
X827412Y204843D01*
X825284Y205725D01*
X823000Y206026D01*
D02*
G37*
G36*
X797600D02*
X795316Y205725D01*
X793187Y204843D01*
X791359Y203441D01*
X789957Y201613D01*
X789075Y199484D01*
X788774Y197200D01*
X789075Y194916D01*
X789957Y192787D01*
X791359Y190959D01*
X793187Y189557D01*
X795316Y188675D01*
X797600Y188375D01*
X799884Y188675D01*
X802012Y189557D01*
X803840Y190959D01*
X805243Y192787D01*
X806125Y194916D01*
X806425Y197200D01*
X806125Y199484D01*
X805243Y201613D01*
X803840Y203441D01*
X802012Y204843D01*
X799884Y205725D01*
X797600Y206026D01*
D02*
G37*
G36*
X772200D02*
X769916Y205725D01*
X767787Y204843D01*
X765959Y203441D01*
X764557Y201613D01*
X763675Y199484D01*
X763374Y197200D01*
X763675Y194916D01*
X764557Y192787D01*
X765959Y190959D01*
X767787Y189557D01*
X769916Y188675D01*
X772200Y188375D01*
X774484Y188675D01*
X776612Y189557D01*
X778440Y190959D01*
X779843Y192787D01*
X780725Y194916D01*
X781025Y197200D01*
X780725Y199484D01*
X779843Y201613D01*
X778440Y203441D01*
X776612Y204843D01*
X774484Y205725D01*
X772200Y206026D01*
D02*
G37*
G36*
X746800D02*
X744516Y205725D01*
X742387Y204843D01*
X740559Y203441D01*
X739157Y201613D01*
X738275Y199484D01*
X737974Y197200D01*
X738275Y194916D01*
X739157Y192787D01*
X740559Y190959D01*
X742387Y189557D01*
X744516Y188675D01*
X746800Y188375D01*
X749084Y188675D01*
X751212Y189557D01*
X753040Y190959D01*
X754443Y192787D01*
X755325Y194916D01*
X755625Y197200D01*
X755325Y199484D01*
X754443Y201613D01*
X753040Y203441D01*
X751212Y204843D01*
X749084Y205725D01*
X746800Y206026D01*
D02*
G37*
G36*
X721400D02*
X719116Y205725D01*
X716987Y204843D01*
X715159Y203441D01*
X713757Y201613D01*
X712875Y199484D01*
X712574Y197200D01*
X712875Y194916D01*
X713757Y192787D01*
X715159Y190959D01*
X716987Y189557D01*
X719116Y188675D01*
X721400Y188375D01*
X723684Y188675D01*
X725813Y189557D01*
X727640Y190959D01*
X729043Y192787D01*
X729925Y194916D01*
X730225Y197200D01*
X729925Y199484D01*
X729043Y201613D01*
X727640Y203441D01*
X725813Y204843D01*
X723684Y205725D01*
X721400Y206026D01*
D02*
G37*
G36*
X696000D02*
X693716Y205725D01*
X691587Y204843D01*
X689759Y203441D01*
X688357Y201613D01*
X687475Y199484D01*
X687174Y197200D01*
X687475Y194916D01*
X688357Y192787D01*
X689759Y190959D01*
X691587Y189557D01*
X693716Y188675D01*
X696000Y188375D01*
X698284Y188675D01*
X700413Y189557D01*
X702240Y190959D01*
X703643Y192787D01*
X704525Y194916D01*
X704825Y197200D01*
X704525Y199484D01*
X703643Y201613D01*
X702240Y203441D01*
X700413Y204843D01*
X698284Y205725D01*
X696000Y206026D01*
D02*
G37*
G36*
X670600D02*
X668316Y205725D01*
X666187Y204843D01*
X664359Y203441D01*
X662957Y201613D01*
X662075Y199484D01*
X661774Y197200D01*
X662075Y194916D01*
X662957Y192787D01*
X664359Y190959D01*
X666187Y189557D01*
X668316Y188675D01*
X670600Y188375D01*
X672884Y188675D01*
X675013Y189557D01*
X676840Y190959D01*
X678243Y192787D01*
X679125Y194916D01*
X679425Y197200D01*
X679125Y199484D01*
X678243Y201613D01*
X676840Y203441D01*
X675013Y204843D01*
X672884Y205725D01*
X670600Y206026D01*
D02*
G37*
G36*
X645200D02*
X642916Y205725D01*
X640787Y204843D01*
X638959Y203441D01*
X637557Y201613D01*
X636675Y199484D01*
X636374Y197200D01*
X636675Y194916D01*
X637557Y192787D01*
X638959Y190959D01*
X640787Y189557D01*
X642916Y188675D01*
X645200Y188375D01*
X647484Y188675D01*
X649613Y189557D01*
X651440Y190959D01*
X652843Y192787D01*
X653725Y194916D01*
X654025Y197200D01*
X653725Y199484D01*
X652843Y201613D01*
X651440Y203441D01*
X649613Y204843D01*
X647484Y205725D01*
X645200Y206026D01*
D02*
G37*
G36*
X619800D02*
X617516Y205725D01*
X615387Y204843D01*
X613559Y203441D01*
X612157Y201613D01*
X611275Y199484D01*
X610974Y197200D01*
X611275Y194916D01*
X612157Y192787D01*
X613559Y190959D01*
X615387Y189557D01*
X617516Y188675D01*
X619800Y188375D01*
X622084Y188675D01*
X624212Y189557D01*
X626040Y190959D01*
X627443Y192787D01*
X628325Y194916D01*
X628625Y197200D01*
X628325Y199484D01*
X627443Y201613D01*
X626040Y203441D01*
X624212Y204843D01*
X622084Y205725D01*
X619800Y206026D01*
D02*
G37*
G36*
X594400D02*
X592116Y205725D01*
X589987Y204843D01*
X588159Y203441D01*
X586757Y201613D01*
X585875Y199484D01*
X585574Y197200D01*
X585875Y194916D01*
X586757Y192787D01*
X588159Y190959D01*
X589987Y189557D01*
X592116Y188675D01*
X594400Y188375D01*
X596684Y188675D01*
X598812Y189557D01*
X600640Y190959D01*
X602043Y192787D01*
X602925Y194916D01*
X603225Y197200D01*
X602925Y199484D01*
X602043Y201613D01*
X600640Y203441D01*
X598812Y204843D01*
X596684Y205725D01*
X594400Y206026D01*
D02*
G37*
G36*
X569000D02*
X566716Y205725D01*
X564587Y204843D01*
X562759Y203441D01*
X561357Y201613D01*
X560475Y199484D01*
X560174Y197200D01*
X560475Y194916D01*
X561357Y192787D01*
X562759Y190959D01*
X564587Y189557D01*
X566716Y188675D01*
X569000Y188375D01*
X571284Y188675D01*
X573413Y189557D01*
X575240Y190959D01*
X576643Y192787D01*
X577525Y194916D01*
X577825Y197200D01*
X577525Y199484D01*
X576643Y201613D01*
X575240Y203441D01*
X573413Y204843D01*
X571284Y205725D01*
X569000Y206026D01*
D02*
G37*
G36*
X543600D02*
X541316Y205725D01*
X539187Y204843D01*
X537359Y203441D01*
X535957Y201613D01*
X535075Y199484D01*
X534774Y197200D01*
X535075Y194916D01*
X535957Y192787D01*
X537359Y190959D01*
X539187Y189557D01*
X541316Y188675D01*
X543600Y188375D01*
X545884Y188675D01*
X548013Y189557D01*
X549840Y190959D01*
X551243Y192787D01*
X552125Y194916D01*
X552425Y197200D01*
X552125Y199484D01*
X551243Y201613D01*
X549840Y203441D01*
X548013Y204843D01*
X545884Y205725D01*
X543600Y206026D01*
D02*
G37*
G36*
X662500Y640347D02*
X659563Y639960D01*
X656826Y638827D01*
X654476Y637024D01*
X652673Y634674D01*
X651539Y631937D01*
X651153Y629000D01*
X651539Y626063D01*
X652673Y623326D01*
X654476Y620976D01*
X656826Y619173D01*
X659563Y618040D01*
X660461Y617921D01*
Y602695D01*
X656458Y598692D01*
X656016Y598030D01*
X655861Y597250D01*
Y487295D01*
X516758Y348192D01*
X516316Y347530D01*
X516161Y346750D01*
Y205757D01*
X515916Y205725D01*
X513787Y204843D01*
X511959Y203441D01*
X510557Y201613D01*
X509675Y199484D01*
X509374Y197200D01*
X509675Y194916D01*
X510557Y192787D01*
X511959Y190959D01*
X513787Y189557D01*
X515916Y188675D01*
X518200Y188375D01*
X520484Y188675D01*
X522612Y189557D01*
X524440Y190959D01*
X525843Y192787D01*
X526725Y194916D01*
X527025Y197200D01*
X526725Y199484D01*
X525843Y201613D01*
X524440Y203441D01*
X522612Y204843D01*
X520484Y205725D01*
X520239Y205757D01*
Y345905D01*
X659342Y485008D01*
X659342Y485008D01*
X659784Y485670D01*
X659939Y486450D01*
X659939Y486450D01*
Y596405D01*
X663942Y600408D01*
X663942Y600408D01*
X664384Y601070D01*
X664539Y601850D01*
Y617921D01*
X665437Y618040D01*
X668173Y619173D01*
X670523Y620976D01*
X672327Y623326D01*
X673460Y626063D01*
X673847Y629000D01*
X673460Y631937D01*
X672327Y634674D01*
X670523Y637024D01*
X668173Y638827D01*
X665437Y639960D01*
X662500Y640347D01*
D02*
G37*
G36*
X492800Y206026D02*
X490516Y205725D01*
X488387Y204843D01*
X486559Y203441D01*
X485157Y201613D01*
X484275Y199484D01*
X483974Y197200D01*
X484275Y194916D01*
X485157Y192787D01*
X486559Y190959D01*
X488387Y189557D01*
X490516Y188675D01*
X492800Y188375D01*
X495084Y188675D01*
X497212Y189557D01*
X499040Y190959D01*
X500443Y192787D01*
X501325Y194916D01*
X501625Y197200D01*
X501325Y199484D01*
X500443Y201613D01*
X499040Y203441D01*
X497212Y204843D01*
X495084Y205725D01*
X492800Y206026D01*
D02*
G37*
G36*
X467400D02*
X465116Y205725D01*
X462987Y204843D01*
X461159Y203441D01*
X459757Y201613D01*
X458875Y199484D01*
X458574Y197200D01*
X458875Y194916D01*
X459757Y192787D01*
X461159Y190959D01*
X462987Y189557D01*
X465116Y188675D01*
X467400Y188375D01*
X469684Y188675D01*
X471813Y189557D01*
X473640Y190959D01*
X475043Y192787D01*
X475925Y194916D01*
X476225Y197200D01*
X475925Y199484D01*
X475043Y201613D01*
X473640Y203441D01*
X471813Y204843D01*
X469684Y205725D01*
X467400Y206026D01*
D02*
G37*
G36*
X442000D02*
X439716Y205725D01*
X437587Y204843D01*
X435759Y203441D01*
X434357Y201613D01*
X433475Y199484D01*
X433174Y197200D01*
X433475Y194916D01*
X434357Y192787D01*
X435759Y190959D01*
X437587Y189557D01*
X439716Y188675D01*
X442000Y188375D01*
X444284Y188675D01*
X446413Y189557D01*
X448240Y190959D01*
X449643Y192787D01*
X450525Y194916D01*
X450825Y197200D01*
X450525Y199484D01*
X449643Y201613D01*
X448240Y203441D01*
X446413Y204843D01*
X444284Y205725D01*
X442000Y206026D01*
D02*
G37*
G36*
X416600D02*
X414316Y205725D01*
X412187Y204843D01*
X410359Y203441D01*
X408957Y201613D01*
X408075Y199484D01*
X407774Y197200D01*
X408075Y194916D01*
X408957Y192787D01*
X410359Y190959D01*
X412187Y189557D01*
X414316Y188675D01*
X416600Y188375D01*
X418884Y188675D01*
X421012Y189557D01*
X422840Y190959D01*
X424243Y192787D01*
X425125Y194916D01*
X425425Y197200D01*
X425125Y199484D01*
X424243Y201613D01*
X422840Y203441D01*
X421012Y204843D01*
X418884Y205725D01*
X416600Y206026D01*
D02*
G37*
G36*
X391200D02*
X388916Y205725D01*
X386787Y204843D01*
X384959Y203441D01*
X383557Y201613D01*
X382675Y199484D01*
X382374Y197200D01*
X382675Y194916D01*
X383557Y192787D01*
X384959Y190959D01*
X386787Y189557D01*
X388916Y188675D01*
X391200Y188375D01*
X393484Y188675D01*
X395612Y189557D01*
X397440Y190959D01*
X398843Y192787D01*
X399725Y194916D01*
X400025Y197200D01*
X399725Y199484D01*
X398843Y201613D01*
X397440Y203441D01*
X395612Y204843D01*
X393484Y205725D01*
X391200Y206026D01*
D02*
G37*
G36*
X340400D02*
X338116Y205725D01*
X335987Y204843D01*
X334159Y203441D01*
X332757Y201613D01*
X331875Y199484D01*
X331574Y197200D01*
X331875Y194916D01*
X332757Y192787D01*
X334159Y190959D01*
X335987Y189557D01*
X338116Y188675D01*
X340400Y188375D01*
X342684Y188675D01*
X344813Y189557D01*
X346640Y190959D01*
X348043Y192787D01*
X348925Y194916D01*
X349225Y197200D01*
X348925Y199484D01*
X348043Y201613D01*
X346640Y203441D01*
X344813Y204843D01*
X342684Y205725D01*
X340400Y206026D01*
D02*
G37*
G36*
X315000D02*
X312716Y205725D01*
X310587Y204843D01*
X308759Y203441D01*
X307357Y201613D01*
X306475Y199484D01*
X306174Y197200D01*
X306475Y194916D01*
X307357Y192787D01*
X308759Y190959D01*
X310587Y189557D01*
X312716Y188675D01*
X315000Y188375D01*
X317284Y188675D01*
X319412Y189557D01*
X321240Y190959D01*
X322643Y192787D01*
X323525Y194916D01*
X323825Y197200D01*
X323525Y199484D01*
X322643Y201613D01*
X321240Y203441D01*
X319412Y204843D01*
X317284Y205725D01*
X315000Y206026D01*
D02*
G37*
G36*
X289600D02*
X287316Y205725D01*
X285187Y204843D01*
X283359Y203441D01*
X281957Y201613D01*
X281075Y199484D01*
X280774Y197200D01*
X281075Y194916D01*
X281957Y192787D01*
X283359Y190959D01*
X285187Y189557D01*
X287316Y188675D01*
X289600Y188375D01*
X291884Y188675D01*
X294013Y189557D01*
X295840Y190959D01*
X297243Y192787D01*
X298125Y194916D01*
X298425Y197200D01*
X298125Y199484D01*
X297243Y201613D01*
X295840Y203441D01*
X294013Y204843D01*
X291884Y205725D01*
X289600Y206026D01*
D02*
G37*
G36*
X264200D02*
X261916Y205725D01*
X259787Y204843D01*
X257959Y203441D01*
X256557Y201613D01*
X255675Y199484D01*
X255374Y197200D01*
X255675Y194916D01*
X256557Y192787D01*
X257959Y190959D01*
X259787Y189557D01*
X261916Y188675D01*
X264200Y188375D01*
X266484Y188675D01*
X268612Y189557D01*
X270440Y190959D01*
X271843Y192787D01*
X272725Y194916D01*
X273025Y197200D01*
X272725Y199484D01*
X271843Y201613D01*
X270440Y203441D01*
X268612Y204843D01*
X266484Y205725D01*
X264200Y206026D01*
D02*
G37*
G36*
X375759Y195930D02*
X367070D01*
Y187241D01*
X368421Y187418D01*
X370863Y188430D01*
X372960Y190039D01*
X374570Y192137D01*
X375581Y194579D01*
X375759Y195930D01*
D02*
G37*
G36*
X364530D02*
X355840D01*
X356018Y194579D01*
X357030Y192137D01*
X358639Y190039D01*
X360737Y188430D01*
X363179Y187418D01*
X364530Y187241D01*
Y195930D01*
D02*
G37*
G36*
X367070Y181759D02*
Y173070D01*
X375759D01*
X375581Y174421D01*
X374570Y176863D01*
X372960Y178961D01*
X370863Y180570D01*
X368421Y181582D01*
X367070Y181759D01*
D02*
G37*
G36*
X364530D02*
X363179Y181582D01*
X360737Y180570D01*
X358639Y178961D01*
X357030Y176863D01*
X356018Y174421D01*
X355840Y173070D01*
X364530D01*
Y181759D01*
D02*
G37*
G36*
X950000Y180625D02*
X947716Y180325D01*
X945587Y179443D01*
X943759Y178041D01*
X942357Y176213D01*
X941475Y174084D01*
X941174Y171800D01*
X941475Y169516D01*
X942357Y167387D01*
X943759Y165559D01*
X945587Y164157D01*
X947716Y163275D01*
X950000Y162974D01*
X952284Y163275D01*
X954413Y164157D01*
X956240Y165559D01*
X957643Y167387D01*
X958525Y169516D01*
X958825Y171800D01*
X958525Y174084D01*
X957643Y176213D01*
X956240Y178041D01*
X954413Y179443D01*
X952284Y180325D01*
X950000Y180625D01*
D02*
G37*
G36*
X873800D02*
X871516Y180325D01*
X869387Y179443D01*
X867559Y178041D01*
X866157Y176213D01*
X865275Y174084D01*
X864974Y171800D01*
X865275Y169516D01*
X866157Y167387D01*
X867559Y165559D01*
X869387Y164157D01*
X871516Y163275D01*
X873800Y162974D01*
X876084Y163275D01*
X878213Y164157D01*
X880040Y165559D01*
X881443Y167387D01*
X882325Y169516D01*
X882625Y171800D01*
X882325Y174084D01*
X881443Y176213D01*
X880040Y178041D01*
X878213Y179443D01*
X876084Y180325D01*
X873800Y180625D01*
D02*
G37*
G36*
X848400D02*
X846116Y180325D01*
X843987Y179443D01*
X842159Y178041D01*
X840757Y176213D01*
X839875Y174084D01*
X839574Y171800D01*
X839875Y169516D01*
X840757Y167387D01*
X842159Y165559D01*
X843987Y164157D01*
X846116Y163275D01*
X848400Y162974D01*
X850684Y163275D01*
X852812Y164157D01*
X854640Y165559D01*
X856043Y167387D01*
X856925Y169516D01*
X857225Y171800D01*
X856925Y174084D01*
X856043Y176213D01*
X854640Y178041D01*
X852812Y179443D01*
X850684Y180325D01*
X848400Y180625D01*
D02*
G37*
G36*
X823000D02*
X820716Y180325D01*
X818587Y179443D01*
X816759Y178041D01*
X815357Y176213D01*
X814475Y174084D01*
X814174Y171800D01*
X814475Y169516D01*
X815357Y167387D01*
X816759Y165559D01*
X818587Y164157D01*
X820716Y163275D01*
X823000Y162974D01*
X825284Y163275D01*
X827412Y164157D01*
X829240Y165559D01*
X830643Y167387D01*
X831525Y169516D01*
X831825Y171800D01*
X831525Y174084D01*
X830643Y176213D01*
X829240Y178041D01*
X827412Y179443D01*
X825284Y180325D01*
X823000Y180625D01*
D02*
G37*
G36*
X797600D02*
X795316Y180325D01*
X793187Y179443D01*
X791359Y178041D01*
X789957Y176213D01*
X789075Y174084D01*
X788774Y171800D01*
X789075Y169516D01*
X789957Y167387D01*
X791359Y165559D01*
X793187Y164157D01*
X795316Y163275D01*
X797600Y162974D01*
X799884Y163275D01*
X802012Y164157D01*
X803840Y165559D01*
X805243Y167387D01*
X806125Y169516D01*
X806425Y171800D01*
X806125Y174084D01*
X805243Y176213D01*
X803840Y178041D01*
X802012Y179443D01*
X799884Y180325D01*
X797600Y180625D01*
D02*
G37*
G36*
X772200D02*
X769916Y180325D01*
X767787Y179443D01*
X765959Y178041D01*
X764557Y176213D01*
X763675Y174084D01*
X763374Y171800D01*
X763675Y169516D01*
X764557Y167387D01*
X765959Y165559D01*
X767787Y164157D01*
X769916Y163275D01*
X772200Y162974D01*
X774484Y163275D01*
X776612Y164157D01*
X778440Y165559D01*
X779843Y167387D01*
X780725Y169516D01*
X781025Y171800D01*
X780725Y174084D01*
X779843Y176213D01*
X778440Y178041D01*
X776612Y179443D01*
X774484Y180325D01*
X772200Y180625D01*
D02*
G37*
G36*
X746800D02*
X744516Y180325D01*
X742387Y179443D01*
X740559Y178041D01*
X739157Y176213D01*
X738275Y174084D01*
X737974Y171800D01*
X738275Y169516D01*
X739157Y167387D01*
X740559Y165559D01*
X742387Y164157D01*
X744516Y163275D01*
X746800Y162974D01*
X749084Y163275D01*
X751212Y164157D01*
X753040Y165559D01*
X754443Y167387D01*
X755325Y169516D01*
X755625Y171800D01*
X755325Y174084D01*
X754443Y176213D01*
X753040Y178041D01*
X751212Y179443D01*
X749084Y180325D01*
X746800Y180625D01*
D02*
G37*
G36*
X721400D02*
X719116Y180325D01*
X716987Y179443D01*
X715159Y178041D01*
X713757Y176213D01*
X712875Y174084D01*
X712574Y171800D01*
X712875Y169516D01*
X713757Y167387D01*
X715159Y165559D01*
X716987Y164157D01*
X719116Y163275D01*
X721400Y162974D01*
X723684Y163275D01*
X725813Y164157D01*
X727640Y165559D01*
X729043Y167387D01*
X729925Y169516D01*
X730225Y171800D01*
X729925Y174084D01*
X729043Y176213D01*
X727640Y178041D01*
X725813Y179443D01*
X723684Y180325D01*
X721400Y180625D01*
D02*
G37*
G36*
X696000D02*
X693716Y180325D01*
X691587Y179443D01*
X689759Y178041D01*
X688357Y176213D01*
X687475Y174084D01*
X687174Y171800D01*
X687475Y169516D01*
X688357Y167387D01*
X689759Y165559D01*
X691587Y164157D01*
X693716Y163275D01*
X696000Y162974D01*
X698284Y163275D01*
X700413Y164157D01*
X702240Y165559D01*
X703643Y167387D01*
X704525Y169516D01*
X704825Y171800D01*
X704525Y174084D01*
X703643Y176213D01*
X702240Y178041D01*
X700413Y179443D01*
X698284Y180325D01*
X696000Y180625D01*
D02*
G37*
G36*
X670600D02*
X668316Y180325D01*
X666187Y179443D01*
X664359Y178041D01*
X662957Y176213D01*
X662075Y174084D01*
X661774Y171800D01*
X662075Y169516D01*
X662957Y167387D01*
X664359Y165559D01*
X666187Y164157D01*
X668316Y163275D01*
X670600Y162974D01*
X672884Y163275D01*
X675013Y164157D01*
X676840Y165559D01*
X678243Y167387D01*
X679125Y169516D01*
X679425Y171800D01*
X679125Y174084D01*
X678243Y176213D01*
X676840Y178041D01*
X675013Y179443D01*
X672884Y180325D01*
X670600Y180625D01*
D02*
G37*
G36*
X645200D02*
X642916Y180325D01*
X640787Y179443D01*
X638959Y178041D01*
X637557Y176213D01*
X636675Y174084D01*
X636374Y171800D01*
X636675Y169516D01*
X637557Y167387D01*
X638959Y165559D01*
X640787Y164157D01*
X642916Y163275D01*
X645200Y162974D01*
X647484Y163275D01*
X649613Y164157D01*
X651440Y165559D01*
X652843Y167387D01*
X653725Y169516D01*
X654025Y171800D01*
X653725Y174084D01*
X652843Y176213D01*
X651440Y178041D01*
X649613Y179443D01*
X647484Y180325D01*
X645200Y180625D01*
D02*
G37*
G36*
X619800D02*
X617516Y180325D01*
X615387Y179443D01*
X613559Y178041D01*
X612157Y176213D01*
X611275Y174084D01*
X610974Y171800D01*
X611275Y169516D01*
X612157Y167387D01*
X613559Y165559D01*
X615387Y164157D01*
X617516Y163275D01*
X619800Y162974D01*
X622084Y163275D01*
X624212Y164157D01*
X626040Y165559D01*
X627443Y167387D01*
X628325Y169516D01*
X628625Y171800D01*
X628325Y174084D01*
X627443Y176213D01*
X626040Y178041D01*
X624212Y179443D01*
X622084Y180325D01*
X619800Y180625D01*
D02*
G37*
G36*
X594400D02*
X592116Y180325D01*
X589987Y179443D01*
X588159Y178041D01*
X586757Y176213D01*
X585875Y174084D01*
X585574Y171800D01*
X585875Y169516D01*
X586757Y167387D01*
X588159Y165559D01*
X589987Y164157D01*
X592116Y163275D01*
X594400Y162974D01*
X596684Y163275D01*
X598812Y164157D01*
X600640Y165559D01*
X602043Y167387D01*
X602925Y169516D01*
X603225Y171800D01*
X602925Y174084D01*
X602043Y176213D01*
X600640Y178041D01*
X598812Y179443D01*
X596684Y180325D01*
X594400Y180625D01*
D02*
G37*
G36*
X569000D02*
X566716Y180325D01*
X564587Y179443D01*
X562759Y178041D01*
X561357Y176213D01*
X560475Y174084D01*
X560174Y171800D01*
X560475Y169516D01*
X561357Y167387D01*
X562759Y165559D01*
X564587Y164157D01*
X566716Y163275D01*
X569000Y162974D01*
X571284Y163275D01*
X573413Y164157D01*
X575240Y165559D01*
X576643Y167387D01*
X577525Y169516D01*
X577825Y171800D01*
X577525Y174084D01*
X576643Y176213D01*
X575240Y178041D01*
X573413Y179443D01*
X571284Y180325D01*
X569000Y180625D01*
D02*
G37*
G36*
X543600D02*
X541316Y180325D01*
X539187Y179443D01*
X537359Y178041D01*
X535957Y176213D01*
X535075Y174084D01*
X534774Y171800D01*
X535075Y169516D01*
X535957Y167387D01*
X537359Y165559D01*
X539187Y164157D01*
X541316Y163275D01*
X543600Y162974D01*
X545884Y163275D01*
X548013Y164157D01*
X549840Y165559D01*
X551243Y167387D01*
X552125Y169516D01*
X552425Y171800D01*
X552125Y174084D01*
X551243Y176213D01*
X549840Y178041D01*
X548013Y179443D01*
X545884Y180325D01*
X543600Y180625D01*
D02*
G37*
G36*
X637500Y640347D02*
X634563Y639960D01*
X631826Y638827D01*
X629476Y637024D01*
X627673Y634674D01*
X626539Y631937D01*
X626153Y629000D01*
X626539Y626063D01*
X627673Y623326D01*
X629476Y620976D01*
X631826Y619173D01*
X634563Y618040D01*
X635461Y617921D01*
Y603095D01*
X631058Y598692D01*
X630616Y598030D01*
X630461Y597250D01*
Y492800D01*
Y477445D01*
X504058Y351042D01*
X503616Y350380D01*
X503461Y349600D01*
Y184500D01*
X503616Y183720D01*
X504058Y183058D01*
X510707Y176409D01*
X510557Y176213D01*
X509675Y174084D01*
X509374Y171800D01*
X509675Y169516D01*
X510557Y167387D01*
X511959Y165559D01*
X513787Y164157D01*
X515916Y163275D01*
X518200Y162974D01*
X520484Y163275D01*
X522612Y164157D01*
X524440Y165559D01*
X525843Y167387D01*
X526725Y169516D01*
X527025Y171800D01*
X526725Y174084D01*
X525843Y176213D01*
X524440Y178041D01*
X522612Y179443D01*
X520484Y180325D01*
X518200Y180625D01*
X515916Y180325D01*
X513787Y179443D01*
X513591Y179293D01*
X507539Y185345D01*
Y348755D01*
X633942Y475158D01*
X634384Y475820D01*
X634539Y476600D01*
X634539Y476600D01*
Y492800D01*
Y596405D01*
X638942Y600808D01*
X638942Y600808D01*
X639384Y601470D01*
X639539Y602250D01*
Y617921D01*
X640437Y618040D01*
X643173Y619173D01*
X645523Y620976D01*
X647327Y623326D01*
X648460Y626063D01*
X648847Y629000D01*
X648460Y631937D01*
X647327Y634674D01*
X645523Y637024D01*
X643173Y638827D01*
X640437Y639960D01*
X637500Y640347D01*
D02*
G37*
G36*
X467400Y180625D02*
X465116Y180325D01*
X462987Y179443D01*
X461159Y178041D01*
X459757Y176213D01*
X458875Y174084D01*
X458574Y171800D01*
X458875Y169516D01*
X459757Y167387D01*
X461159Y165559D01*
X462987Y164157D01*
X465116Y163275D01*
X467400Y162974D01*
X469684Y163275D01*
X471813Y164157D01*
X473640Y165559D01*
X475043Y167387D01*
X475925Y169516D01*
X476225Y171800D01*
X475925Y174084D01*
X475043Y176213D01*
X473640Y178041D01*
X471813Y179443D01*
X469684Y180325D01*
X467400Y180625D01*
D02*
G37*
G36*
X442000D02*
X439716Y180325D01*
X437587Y179443D01*
X435759Y178041D01*
X434357Y176213D01*
X433475Y174084D01*
X433174Y171800D01*
X433475Y169516D01*
X434357Y167387D01*
X435759Y165559D01*
X437587Y164157D01*
X439716Y163275D01*
X442000Y162974D01*
X444284Y163275D01*
X446413Y164157D01*
X448240Y165559D01*
X449643Y167387D01*
X450525Y169516D01*
X450825Y171800D01*
X450525Y174084D01*
X449643Y176213D01*
X448240Y178041D01*
X446413Y179443D01*
X444284Y180325D01*
X442000Y180625D01*
D02*
G37*
G36*
X416600D02*
X414316Y180325D01*
X412187Y179443D01*
X410359Y178041D01*
X408957Y176213D01*
X408075Y174084D01*
X407774Y171800D01*
X408075Y169516D01*
X408957Y167387D01*
X410359Y165559D01*
X412187Y164157D01*
X414316Y163275D01*
X416600Y162974D01*
X418884Y163275D01*
X421012Y164157D01*
X422840Y165559D01*
X424243Y167387D01*
X425125Y169516D01*
X425425Y171800D01*
X425125Y174084D01*
X424243Y176213D01*
X422840Y178041D01*
X421012Y179443D01*
X418884Y180325D01*
X416600Y180625D01*
D02*
G37*
G36*
X391200D02*
X388916Y180325D01*
X386787Y179443D01*
X384959Y178041D01*
X383557Y176213D01*
X382675Y174084D01*
X382374Y171800D01*
X382675Y169516D01*
X383557Y167387D01*
X384959Y165559D01*
X386787Y164157D01*
X388916Y163275D01*
X391200Y162974D01*
X393484Y163275D01*
X395612Y164157D01*
X397440Y165559D01*
X398843Y167387D01*
X399725Y169516D01*
X400025Y171800D01*
X399725Y174084D01*
X398843Y176213D01*
X397440Y178041D01*
X395612Y179443D01*
X393484Y180325D01*
X391200Y180625D01*
D02*
G37*
G36*
X340400D02*
X338116Y180325D01*
X335987Y179443D01*
X334159Y178041D01*
X332757Y176213D01*
X331875Y174084D01*
X331574Y171800D01*
X331875Y169516D01*
X332757Y167387D01*
X334159Y165559D01*
X335987Y164157D01*
X338116Y163275D01*
X340400Y162974D01*
X342684Y163275D01*
X344813Y164157D01*
X346640Y165559D01*
X348043Y167387D01*
X348925Y169516D01*
X349225Y171800D01*
X348925Y174084D01*
X348043Y176213D01*
X346640Y178041D01*
X344813Y179443D01*
X342684Y180325D01*
X340400Y180625D01*
D02*
G37*
G36*
X315000D02*
X312716Y180325D01*
X310587Y179443D01*
X308759Y178041D01*
X307357Y176213D01*
X306475Y174084D01*
X306174Y171800D01*
X306475Y169516D01*
X307357Y167387D01*
X308759Y165559D01*
X310587Y164157D01*
X312716Y163275D01*
X315000Y162974D01*
X317284Y163275D01*
X319412Y164157D01*
X321240Y165559D01*
X322643Y167387D01*
X323525Y169516D01*
X323825Y171800D01*
X323525Y174084D01*
X322643Y176213D01*
X321240Y178041D01*
X319412Y179443D01*
X317284Y180325D01*
X315000Y180625D01*
D02*
G37*
G36*
X289600D02*
X287316Y180325D01*
X285187Y179443D01*
X283359Y178041D01*
X281957Y176213D01*
X281075Y174084D01*
X280774Y171800D01*
X281075Y169516D01*
X281957Y167387D01*
X283359Y165559D01*
X285187Y164157D01*
X287316Y163275D01*
X289600Y162974D01*
X291884Y163275D01*
X294013Y164157D01*
X295840Y165559D01*
X297243Y167387D01*
X298125Y169516D01*
X298425Y171800D01*
X298125Y174084D01*
X297243Y176213D01*
X295840Y178041D01*
X294013Y179443D01*
X291884Y180325D01*
X289600Y180625D01*
D02*
G37*
G36*
X264200D02*
X261916Y180325D01*
X259787Y179443D01*
X257959Y178041D01*
X256557Y176213D01*
X255675Y174084D01*
X255374Y171800D01*
X255675Y169516D01*
X256557Y167387D01*
X257959Y165559D01*
X259787Y164157D01*
X261916Y163275D01*
X264200Y162974D01*
X266484Y163275D01*
X268612Y164157D01*
X270440Y165559D01*
X271843Y167387D01*
X272725Y169516D01*
X273025Y171800D01*
X272725Y174084D01*
X271843Y176213D01*
X270440Y178041D01*
X268612Y179443D01*
X266484Y180325D01*
X264200Y180625D01*
D02*
G37*
G36*
X375759Y170530D02*
X367070D01*
Y161841D01*
X368421Y162018D01*
X370863Y163030D01*
X372960Y164639D01*
X374570Y166737D01*
X375581Y169179D01*
X375759Y170530D01*
D02*
G37*
G36*
X364530D02*
X355840D01*
X356018Y169179D01*
X357030Y166737D01*
X358639Y164639D01*
X360737Y163030D01*
X363179Y162018D01*
X364530Y161841D01*
Y170530D01*
D02*
G37*
G36*
X698750Y640250D02*
X676250D01*
Y617750D01*
X685461D01*
Y602295D01*
X681858Y598692D01*
X681416Y598030D01*
X681261Y597250D01*
Y496495D01*
X529458Y344692D01*
X529016Y344030D01*
X528861Y343250D01*
Y166295D01*
X523705Y161139D01*
X506344D01*
X500293Y167191D01*
X500443Y167387D01*
X501325Y169516D01*
X501625Y171800D01*
X501325Y174084D01*
X500443Y176213D01*
X499040Y178041D01*
X497212Y179443D01*
X495084Y180325D01*
X492800Y180625D01*
X490516Y180325D01*
X488387Y179443D01*
X486559Y178041D01*
X485157Y176213D01*
X484275Y174084D01*
X483974Y171800D01*
X484275Y169516D01*
X485157Y167387D01*
X486559Y165559D01*
X488387Y164157D01*
X490516Y163275D01*
X492800Y162974D01*
X495084Y163275D01*
X497212Y164157D01*
X497409Y164307D01*
X504058Y157658D01*
X504058Y157658D01*
X504719Y157216D01*
X505500Y157061D01*
X505500Y157061D01*
X524550D01*
X525330Y157216D01*
X525992Y157658D01*
X532342Y164008D01*
X532342Y164008D01*
X532784Y164670D01*
X532939Y165450D01*
Y342405D01*
X684742Y494208D01*
X684742Y494208D01*
X685184Y494870D01*
X685339Y495650D01*
Y596405D01*
X688942Y600008D01*
X688942Y600008D01*
X689384Y600670D01*
X689539Y601450D01*
Y617750D01*
X698750D01*
Y640250D01*
D02*
G37*
G36*
X1042473Y198730D02*
X1029992D01*
X1017511D01*
X1017775Y196726D01*
X1019038Y193676D01*
X1021048Y191056D01*
X1023668Y189046D01*
X1026718Y187783D01*
X1029019Y187480D01*
Y186219D01*
X1027055Y185961D01*
X1024318Y184827D01*
X1021968Y183024D01*
X1020165Y180674D01*
X1019031Y177937D01*
X1018645Y175000D01*
X1019031Y172063D01*
X1020165Y169326D01*
X1021968Y166976D01*
X1024318Y165173D01*
X1027055Y164039D01*
X1029019Y163781D01*
Y162520D01*
X1026718Y162217D01*
X1023668Y160954D01*
X1021048Y158944D01*
X1019038Y156324D01*
X1017775Y153274D01*
X1017511Y151270D01*
X1029992D01*
X1042473D01*
X1042209Y153274D01*
X1040946Y156324D01*
X1038935Y158944D01*
X1036316Y160954D01*
X1033265Y162217D01*
X1030965Y162520D01*
Y163781D01*
X1032929Y164039D01*
X1035665Y165173D01*
X1038015Y166976D01*
X1039819Y169326D01*
X1040952Y172063D01*
X1041339Y175000D01*
X1040952Y177937D01*
X1039819Y180674D01*
X1038015Y183024D01*
X1035665Y184827D01*
X1032929Y185961D01*
X1030965Y186219D01*
Y187480D01*
X1033265Y187783D01*
X1036316Y189046D01*
X1038935Y191056D01*
X1040946Y193676D01*
X1042209Y196726D01*
X1042473Y198730D01*
D02*
G37*
G36*
X251750Y601353D02*
X190000D01*
X189043Y600957D01*
X188647Y600000D01*
X188647Y150000D01*
X189043Y149043D01*
X190000Y148647D01*
X251750D01*
X252707Y149043D01*
X253103Y150000D01*
X253103Y600000D01*
X252707Y600957D01*
X251750Y601353D01*
D02*
G37*
G36*
X1042473Y148730D02*
X1029992D01*
X1017511D01*
X1017775Y146726D01*
X1019038Y143676D01*
X1021048Y141056D01*
X1023668Y139046D01*
X1026718Y137783D01*
X1029019Y137480D01*
Y136219D01*
X1027055Y135961D01*
X1024318Y134827D01*
X1021968Y133024D01*
X1020165Y130674D01*
X1019031Y127937D01*
X1018645Y125000D01*
X1019031Y122063D01*
X1020165Y119326D01*
X1021968Y116976D01*
X1024318Y115173D01*
X1027055Y114039D01*
X1028950Y113790D01*
X1028868Y112540D01*
X1017452D01*
Y101270D01*
X1029992D01*
X1042532D01*
Y112540D01*
X1031115D01*
X1031033Y113790D01*
X1032929Y114039D01*
X1035665Y115173D01*
X1038015Y116976D01*
X1039819Y119326D01*
X1040952Y122063D01*
X1041339Y125000D01*
X1040952Y127937D01*
X1039819Y130674D01*
X1038015Y133024D01*
X1035665Y134827D01*
X1032929Y135961D01*
X1030965Y136219D01*
Y137480D01*
X1033265Y137783D01*
X1036316Y139046D01*
X1038935Y141056D01*
X1040946Y143676D01*
X1042209Y146726D01*
X1042473Y148730D01*
D02*
G37*
G36*
X1042532Y98730D02*
X1031262D01*
Y87460D01*
X1042532D01*
Y98730D01*
D02*
G37*
G36*
X1028722D02*
X1017452D01*
Y87460D01*
X1028722D01*
Y98730D01*
D02*
G37*
%LPD*%
G36*
X251750Y150000D02*
X190000D01*
X190000Y600000D01*
X251750D01*
X251750Y150000D01*
D02*
G37*
%LPC*%
G36*
X238800Y587025D02*
X236516Y586725D01*
X234387Y585843D01*
X232559Y584441D01*
X231157Y582613D01*
X230275Y580484D01*
X229974Y578200D01*
X230275Y575916D01*
X231157Y573787D01*
X232559Y571959D01*
X234387Y570557D01*
X236516Y569675D01*
X238800Y569375D01*
X241084Y569675D01*
X243213Y570557D01*
X245040Y571959D01*
X246443Y573787D01*
X247325Y575916D01*
X247625Y578200D01*
X247325Y580484D01*
X246443Y582613D01*
X245040Y584441D01*
X243213Y585843D01*
X241084Y586725D01*
X238800Y587025D01*
D02*
G37*
G36*
X213400D02*
X211116Y586725D01*
X208987Y585843D01*
X207159Y584441D01*
X205757Y582613D01*
X204875Y580484D01*
X204574Y578200D01*
X204875Y575916D01*
X205757Y573787D01*
X207159Y571959D01*
X208987Y570557D01*
X211116Y569675D01*
X213400Y569375D01*
X215684Y569675D01*
X217812Y570557D01*
X219640Y571959D01*
X221043Y573787D01*
X221925Y575916D01*
X222225Y578200D01*
X221925Y580484D01*
X221043Y582613D01*
X219640Y584441D01*
X217812Y585843D01*
X215684Y586725D01*
X213400Y587025D01*
D02*
G37*
G36*
X238800Y561626D02*
X236516Y561325D01*
X234387Y560443D01*
X232559Y559041D01*
X231157Y557213D01*
X230275Y555084D01*
X229974Y552800D01*
X230275Y550516D01*
X231157Y548387D01*
X232559Y546559D01*
X234387Y545157D01*
X236516Y544275D01*
X238800Y543974D01*
X241084Y544275D01*
X243213Y545157D01*
X245040Y546559D01*
X246443Y548387D01*
X247325Y550516D01*
X247625Y552800D01*
X247325Y555084D01*
X246443Y557213D01*
X245040Y559041D01*
X243213Y560443D01*
X241084Y561325D01*
X238800Y561626D01*
D02*
G37*
G36*
X217150Y561648D02*
X209650D01*
X207699Y561260D01*
X206045Y560155D01*
X204940Y558501D01*
X204552Y556550D01*
Y549050D01*
X204940Y547099D01*
X206045Y545445D01*
X207699Y544340D01*
X209650Y543952D01*
X217150D01*
X219101Y544340D01*
X220755Y545445D01*
X221860Y547099D01*
X222248Y549050D01*
Y556550D01*
X221860Y558501D01*
X220755Y560155D01*
X219101Y561260D01*
X217150Y561648D01*
D02*
G37*
G36*
X218660Y497419D02*
X217294Y497147D01*
X216136Y496373D01*
X215363Y495216D01*
X215091Y493850D01*
X215363Y492484D01*
X216136Y491327D01*
X217294Y490553D01*
X218660Y490281D01*
X220025Y490553D01*
X221183Y491327D01*
X221957Y492484D01*
X222228Y493850D01*
X221957Y495216D01*
X221183Y496373D01*
X220025Y497147D01*
X218660Y497419D01*
D02*
G37*
G36*
X195800Y472969D02*
X194434Y472697D01*
X193276Y471923D01*
X192503Y470766D01*
X192231Y469400D01*
X192503Y468034D01*
X193276Y466877D01*
X194434Y466103D01*
X195800Y465831D01*
X197165Y466103D01*
X198323Y466877D01*
X199097Y468034D01*
X199368Y469400D01*
X199097Y470766D01*
X198323Y471923D01*
X197165Y472697D01*
X195800Y472969D01*
D02*
G37*
G36*
X218660Y389469D02*
X217294Y389197D01*
X216136Y388423D01*
X215363Y387266D01*
X215091Y385900D01*
X215363Y384534D01*
X216136Y383377D01*
X217294Y382603D01*
X218660Y382331D01*
X220025Y382603D01*
X221183Y383377D01*
X221957Y384534D01*
X222228Y385900D01*
X221957Y387266D01*
X221183Y388423D01*
X220025Y389197D01*
X218660Y389469D01*
D02*
G37*
G36*
X195800Y365019D02*
X194434Y364747D01*
X193276Y363973D01*
X192503Y362816D01*
X192231Y361450D01*
X192503Y360084D01*
X193276Y358927D01*
X194434Y358153D01*
X195800Y357881D01*
X197165Y358153D01*
X198323Y358927D01*
X199097Y360084D01*
X199368Y361450D01*
X199097Y362816D01*
X198323Y363973D01*
X197165Y364747D01*
X195800Y365019D01*
D02*
G37*
G36*
X218660Y281519D02*
X217294Y281247D01*
X216136Y280473D01*
X215363Y279316D01*
X215091Y277950D01*
X215363Y276584D01*
X216136Y275427D01*
X217294Y274653D01*
X218660Y274381D01*
X220025Y274653D01*
X221183Y275427D01*
X221957Y276584D01*
X222228Y277950D01*
X221957Y279316D01*
X221183Y280473D01*
X220025Y281247D01*
X218660Y281519D01*
D02*
G37*
G36*
X195800Y257069D02*
X194434Y256797D01*
X193276Y256023D01*
X192503Y254866D01*
X192231Y253500D01*
X192503Y252134D01*
X193276Y250977D01*
X194434Y250203D01*
X195800Y249931D01*
X197165Y250203D01*
X198323Y250977D01*
X199097Y252134D01*
X199368Y253500D01*
X199097Y254866D01*
X198323Y256023D01*
X197165Y256797D01*
X195800Y257069D01*
D02*
G37*
G36*
X240070Y207159D02*
Y198470D01*
X248759D01*
X248581Y199821D01*
X247570Y202263D01*
X245960Y204361D01*
X243863Y205970D01*
X241421Y206982D01*
X240070Y207159D01*
D02*
G37*
G36*
X237530D02*
X236179Y206982D01*
X233736Y205970D01*
X231639Y204361D01*
X230030Y202263D01*
X229018Y199821D01*
X228840Y198470D01*
X237530D01*
Y207159D01*
D02*
G37*
G36*
X213400Y206026D02*
X211116Y205725D01*
X208987Y204843D01*
X207159Y203441D01*
X205757Y201613D01*
X204875Y199484D01*
X204574Y197200D01*
X204875Y194916D01*
X205757Y192787D01*
X207159Y190959D01*
X208987Y189557D01*
X211116Y188675D01*
X213400Y188375D01*
X215684Y188675D01*
X217812Y189557D01*
X219640Y190959D01*
X221043Y192787D01*
X221925Y194916D01*
X222225Y197200D01*
X221925Y199484D01*
X221043Y201613D01*
X219640Y203441D01*
X217812Y204843D01*
X215684Y205725D01*
X213400Y206026D01*
D02*
G37*
G36*
X248759Y195930D02*
X240070D01*
Y187241D01*
X241421Y187418D01*
X243863Y188430D01*
X245960Y190039D01*
X247570Y192137D01*
X248581Y194579D01*
X248759Y195930D01*
D02*
G37*
G36*
X237530D02*
X228840D01*
X229018Y194579D01*
X230030Y192137D01*
X231639Y190039D01*
X233736Y188430D01*
X236179Y187418D01*
X237530Y187241D01*
Y195930D01*
D02*
G37*
G36*
X240070Y181759D02*
Y173070D01*
X248759D01*
X248581Y174421D01*
X247570Y176863D01*
X245960Y178961D01*
X243863Y180570D01*
X241421Y181582D01*
X240070Y181759D01*
D02*
G37*
G36*
X237530D02*
X236179Y181582D01*
X233736Y180570D01*
X231639Y178961D01*
X230030Y176863D01*
X229018Y174421D01*
X228840Y173070D01*
X237530D01*
Y181759D01*
D02*
G37*
G36*
X217150Y180648D02*
X209650D01*
X207699Y180260D01*
X206045Y179155D01*
X204940Y177501D01*
X204552Y175550D01*
Y168050D01*
X204940Y166099D01*
X206045Y164445D01*
X207699Y163340D01*
X209650Y162952D01*
X217150D01*
X219101Y163340D01*
X220755Y164445D01*
X221860Y166099D01*
X222248Y168050D01*
Y175550D01*
X221860Y177501D01*
X220755Y179155D01*
X219101Y180260D01*
X217150Y180648D01*
D02*
G37*
G36*
X248759Y170530D02*
X240070D01*
Y161841D01*
X241421Y162018D01*
X243863Y163030D01*
X245960Y164639D01*
X247570Y166737D01*
X248581Y169179D01*
X248759Y170530D01*
D02*
G37*
G36*
X237530D02*
X228840D01*
X229018Y169179D01*
X230030Y166737D01*
X231639Y164639D01*
X233736Y163030D01*
X236179Y162018D01*
X237530Y161841D01*
Y170530D01*
D02*
G37*
%LPD*%
D29*
X899200Y197200D02*
Y209021D01*
X900079Y209900D01*
X962700D01*
X1000800Y248000D01*
X969050Y209770D02*
X1007770Y248490D01*
X969050Y190850D02*
Y209770D01*
X962700Y184500D02*
X969050Y190850D01*
X911900Y184500D02*
X962700D01*
X975400Y171800D02*
Y209900D01*
X1013500Y248000D01*
X956350Y152750D02*
X975400Y171800D01*
X981750Y209258D02*
X1029992Y257500D01*
X962700Y146400D02*
X981750Y165450D01*
Y209258D01*
X929189Y152750D02*
X956350D01*
X924600Y157339D02*
X929189Y152750D01*
X924600Y157339D02*
Y171800D01*
X905550Y146400D02*
X962700D01*
X886500Y165450D02*
X905550Y146400D01*
X899200Y171800D02*
X911900Y184500D01*
X1000800Y248000D02*
Y324200D01*
X1009100Y332500D01*
X1007770Y248490D02*
Y299290D01*
X1015980Y307500D02*
X1029992D01*
X1007770Y299290D02*
X1015980Y307500D01*
X1013500Y248000D02*
Y279750D01*
X1016250Y282500D01*
X1029992D01*
X1009100Y332500D02*
X1029992D01*
X984185Y602300D02*
X1030000D01*
X919435Y667050D02*
X984185Y602300D01*
X346700Y667050D02*
X919435D01*
X916804Y660700D02*
X1000204Y577300D01*
X1030000D01*
X350700Y660700D02*
X916804D01*
X454650Y654350D02*
X914174D01*
X994450Y476600D02*
Y574074D01*
X914174Y654350D02*
X994450Y574074D01*
X530900Y343250D02*
X683300Y495650D01*
Y597250D01*
X530900Y165450D02*
Y343250D01*
X505500Y349600D02*
X632500Y476600D01*
X505500Y184500D02*
Y349600D01*
X632500Y476600D02*
Y492800D01*
X524550Y159100D02*
X530900Y165450D01*
X505500Y159100D02*
X524550D01*
X492800Y171800D02*
X505500Y159100D01*
X988100Y463900D02*
X1007000Y445000D01*
X911900Y648050D02*
X988100Y571850D01*
Y463900D02*
Y571850D01*
X994450Y476600D02*
X1007150Y463900D01*
X1019782D01*
X1026659Y463959D02*
X1030000Y467300D01*
X1019782Y463900D02*
X1019841Y463959D01*
X1026659D01*
X276900Y597250D02*
X346700Y667050D01*
X276900Y571850D02*
Y597250D01*
X429300Y565500D02*
Y629000D01*
X454650Y654350D01*
X429300Y565500D02*
X442000Y552800D01*
X284133Y564617D02*
X303183D01*
X276900Y571850D02*
X284133Y564617D01*
X445150Y635000D02*
X458200Y648050D01*
X445150Y600450D02*
Y635000D01*
X458200Y648050D02*
X911900D01*
X445150Y600450D02*
X467400Y578200D01*
X289600Y599600D02*
X350700Y660700D01*
X632500Y597250D02*
X637500Y602250D01*
Y629000D01*
X657900Y597250D02*
X662500Y601850D01*
Y629000D01*
X683300Y597250D02*
X687500Y601450D01*
Y629000D01*
X632500Y622200D02*
X637500Y627200D01*
X657900Y622200D02*
X662500Y626800D01*
X632500Y492800D02*
Y597250D01*
X518200Y346750D02*
X657900Y486450D01*
Y597250D01*
X505500Y184500D02*
X518200Y171800D01*
Y197200D02*
Y346750D01*
X1007000Y445000D02*
X1030000D01*
X886500Y165450D02*
Y184500D01*
X873800Y197200D02*
X886500Y184500D01*
X303183Y564617D02*
X315000Y552800D01*
X289600Y578200D02*
Y599600D01*
D30*
X950000Y578200D02*
D03*
X924600D02*
D03*
X899200D02*
D03*
X873800D02*
D03*
X848400D02*
D03*
X823000D02*
D03*
X797600D02*
D03*
X772200D02*
D03*
X746800D02*
D03*
X950000Y552800D02*
D03*
X924600D02*
D03*
X899200D02*
D03*
X873800D02*
D03*
X848400D02*
D03*
X823000D02*
D03*
X797600D02*
D03*
X772200D02*
D03*
X746800D02*
D03*
X721400Y578200D02*
D03*
X696000D02*
D03*
X721400Y552800D02*
D03*
X696000D02*
D03*
X619800Y578200D02*
D03*
Y552800D02*
D03*
X594400Y578200D02*
D03*
Y552800D02*
D03*
X543600Y578200D02*
D03*
Y552800D02*
D03*
X416600Y578200D02*
D03*
Y552800D02*
D03*
X365800Y578200D02*
D03*
Y552800D02*
D03*
X315000Y578200D02*
D03*
Y552800D02*
D03*
X264200Y578200D02*
D03*
Y552800D02*
D03*
X238800Y578200D02*
D03*
Y552800D02*
D03*
X213400Y578200D02*
D03*
X289600Y552800D02*
D03*
Y578200D02*
D03*
X340400Y552800D02*
D03*
Y578200D02*
D03*
X391200Y552800D02*
D03*
Y578200D02*
D03*
X442000Y552800D02*
D03*
Y578200D02*
D03*
X467400Y552800D02*
D03*
Y578200D02*
D03*
X492800Y552800D02*
D03*
Y578200D02*
D03*
X518200Y552800D02*
D03*
Y578200D02*
D03*
X569000Y552800D02*
D03*
Y578200D02*
D03*
X645200Y552800D02*
D03*
X670600D02*
D03*
X645200Y578200D02*
D03*
X670600D02*
D03*
X950000Y197200D02*
D03*
X924600D02*
D03*
X899200D02*
D03*
X873800D02*
D03*
X848400D02*
D03*
X823000D02*
D03*
X797600D02*
D03*
X772200D02*
D03*
X746800D02*
D03*
X950000Y171800D02*
D03*
X924600D02*
D03*
X899200D02*
D03*
X873800D02*
D03*
X848400D02*
D03*
X823000D02*
D03*
X797600D02*
D03*
X772200D02*
D03*
X746800D02*
D03*
X721400Y197200D02*
D03*
X696000D02*
D03*
X721400Y171800D02*
D03*
X696000D02*
D03*
X619800Y197200D02*
D03*
Y171800D02*
D03*
X594400Y197200D02*
D03*
Y171800D02*
D03*
X543600Y197200D02*
D03*
Y171800D02*
D03*
X416600Y197200D02*
D03*
Y171800D02*
D03*
X365800Y197200D02*
D03*
Y171800D02*
D03*
X315000Y197200D02*
D03*
Y171800D02*
D03*
X264200Y197200D02*
D03*
Y171800D02*
D03*
X238800Y197200D02*
D03*
Y171800D02*
D03*
X213400Y197200D02*
D03*
X289600Y171800D02*
D03*
Y197200D02*
D03*
X340400Y171800D02*
D03*
Y197200D02*
D03*
X391200Y171800D02*
D03*
Y197200D02*
D03*
X442000Y171800D02*
D03*
Y197200D02*
D03*
X467400Y171800D02*
D03*
Y197200D02*
D03*
X492800Y171800D02*
D03*
Y197200D02*
D03*
X518200Y171800D02*
D03*
Y197200D02*
D03*
X569000Y171800D02*
D03*
Y197200D02*
D03*
X645200Y171800D02*
D03*
X670600D02*
D03*
X645200Y197200D02*
D03*
X670600D02*
D03*
D31*
X213400Y552800D02*
D03*
Y171800D02*
D03*
D32*
X119600Y242050D02*
D03*
Y267050D02*
D03*
X1030000Y602300D02*
D03*
Y627300D02*
D03*
Y652300D02*
D03*
X1029992Y382500D02*
D03*
Y357500D02*
D03*
Y282500D02*
D03*
Y307500D02*
D03*
Y332500D02*
D03*
X487500Y629000D02*
D03*
X512500D02*
D03*
X537500D02*
D03*
X562500D02*
D03*
X587500D02*
D03*
X612500D02*
D03*
X637500D02*
D03*
X662500D02*
D03*
X462500D02*
D03*
X1029992Y125000D02*
D03*
Y150000D02*
D03*
Y175000D02*
D03*
Y200000D02*
D03*
X1030000Y467300D02*
D03*
Y492300D02*
D03*
Y517300D02*
D03*
X119600Y457950D02*
D03*
Y482950D02*
D03*
Y350000D02*
D03*
Y375000D02*
D03*
D33*
Y292050D02*
D03*
X1030000Y577300D02*
D03*
X1029992Y257500D02*
D03*
Y100000D02*
D03*
X1030000Y442300D02*
D03*
X119600Y507950D02*
D03*
Y400000D02*
D03*
D34*
X687500Y629000D02*
D03*
D35*
X429300Y248000D02*
D03*
X924600D02*
D03*
Y502000D02*
D03*
X429300D02*
D03*
D36*
X1120000Y720000D02*
D03*
Y30000D02*
D03*
X30000D02*
D03*
Y720000D02*
D03*
D37*
X208500Y306000D02*
D03*
Y521900D02*
D03*
Y413950D02*
D03*
X170400Y306000D02*
D03*
X218660Y277950D02*
D03*
X195800Y253500D02*
D03*
X183100D02*
D03*
X146270Y254470D02*
D03*
Y362420D02*
D03*
X183100Y361450D02*
D03*
X195800D02*
D03*
X218660Y385900D02*
D03*
X170400Y413950D02*
D03*
Y521900D02*
D03*
X218660Y493850D02*
D03*
X195800Y469400D02*
D03*
X183100D02*
D03*
X146270Y470370D02*
D03*
M02*
