M48
;Layer_Color=9474304
;FILE_FORMAT=4:4
METRIC,LZ
;TYPE=PLATED
T01F00S00C0.2000
T02F00S00C1.0000
T03F00S00C1.0200
T04F00S00C3.0000
%
T01
X-0062103Y-0032373
X-005842Y-003247
X-005715
X-0054864Y-0030025
X-005588Y-002722
X-005969
X-005842Y-0021675
X-005715
X-0062103Y-0021578
X-005969Y-0016425
X-005588
X-0054864Y-001923
X-005715Y-001088
X-005842
X-0062103Y-0010783
X-005969Y-000563
X-005588
X-0054864Y-0008435
T02
X-006477Y-0033615
Y-0031115
Y-0028615
Y-002282
X-001143Y-002159
Y-002409
Y-001909
Y-001659
X-006477Y-001782
Y-002032
Y-0012025
Y-0009525
Y-0007025
T03
X-007366Y-004064
X-007112
X-006858
Y-00381
X-007112
X-007366
X-006604
Y-004064
X-00635
Y-00381
X-006096
X-005842
Y-004064
X-006096
X-005588
X-005334
Y-00381
X-005588
X-00508
Y-004064
X-004826
Y-00381
X-004572
Y-004064
X-004318
X-004064
Y-00381
X-004318
X-00381
X-003556
X-003302
Y-004064
X-003556
X-00381
X-003048
X-002794
X-00254
Y-00381
X-002794
X-003048
X-002286
X-002032
X-001778
X-001524
X-00127
X-001016
X-000762
X-000508
X-000254
X0
Y-004064
X-000254
X-000508
X-000762
X-001016
X-00127
X-001524
X-001778
X-002032
X-002286
Y-000254
X-002032
Y0
X-001778
X-001524
X-00127
X-001016
X-000762
X-000508
X-000254
X0
Y-000254
X-000254
X-000508
X-000762
X-001016
X-00127
X-001524
X-001778
X-002286Y0
X-00254
Y-000254
X-002794
X-003048
X-003302
Y0
X-003556
Y-000254
X-00381
X-004064
Y0
X-004318
X-004572
X-004826
X-00508
X-005334
Y-000254
X-005588
X-005842
Y0
X-006096
X-00635
Y-000254
X-006096
X-005588Y0
X-00508Y-000254
X-004826
X-004572
X-004318
X-00381Y0
X-003048
X-002794
X-006604
X-006858
Y-000254
X-007112
Y0
X-007366
Y-000254
X-006604
T04
X-005207Y-003302
X-000254
Y-000762
X-005207
M30
