M48
;Layer_Color=9474304
;FILE_FORMAT=4:4
METRIC,LZ
;TYPE=PLATED
T01F00S00C0.2000
T02F00S00C1.0000
T03F00S00C1.0200
T04F00S00C3.0000
%
T01
X0014627Y0025447
X001831Y002535
X001958
X0021866Y0027795
X002085Y00306
X001704
X001831Y0036145
X001958
X0014627Y0036242
X001704Y0041395
X002085
X0021866Y003859
X001958Y004694
X001831
X0014627Y0047037
X001704Y005219
X002085
X0021866Y0049385
T02
X001196Y0024205
Y0026705
Y0029205
Y0035
X01029992Y003575
Y003325
Y003075
Y002825
Y002575
Y002
Y00175
Y0015
Y00125
Y001
Y003825
X0103Y004423
Y004673
Y004923
Y005173
Y005773
Y006023
Y006273
Y006523
X006875Y00629
X006625
X006375
X006125
X005875
X005625
X005375
X005125
X004875
X004625
X001196Y0050795
Y0048295
Y0045795
Y004
Y00375
T03
X002134Y001718
X002388
X002642
Y001972
X002388
X002134
X002896
Y001718
X00315
Y001972
X003404
X003658
Y001718
X003404
X003912
X004166
Y001972
X003912
X00442
Y001718
X004674
Y001972
X004928
Y001718
X005182
X005436
Y001972
X005182
X00569
X005944
X006198
Y001718
X005944
X00569
X006452
X006706
X00696
Y001972
X006706
X006452
X007214
X007468
X007722
X007976
X00823
X008484
X008738
X008992
X009246
X0095
Y001718
X009246
X008992
X008738
X008484
X00823
X007976
X007722
X007468
X007214
Y005528
X007468
Y005782
X007722
X007976
X00823
X008484
X008738
X008992
X009246
X0095
Y005528
X009246
X008992
X008738
X008484
X00823
X007976
X007722
X007214Y005782
X00696
Y005528
X006706
X006452
X006198
Y005782
X005944
Y005528
X00569
X005436
Y005782
X005182
X004928
X004674
X00442
X004166
Y005528
X003912
X003658
Y005782
X003404
X00315
Y005528
X003404
X003912Y005782
X00442Y005528
X004674
X004928
X005182
X00569Y005782
X006452
X006706
X002896
X002642
Y005528
X002388
Y005782
X002134
Y005528
X002896
T04
X0003Y0003
X004293Y00248
X009246
X0112Y0003
Y0072
X009246Y00502
X004293
X0003Y0072
M30
